<?xml version="1.0" encoding="UTF-8"?>
<svg id="_圖層_2" data-name="圖層 2" xmlns="http://www.w3.org/2000/svg" width="57.21" height="57.21" viewBox="0 0 57.21 57.21">
  <g id="_燈箱" data-name="燈箱">
    <g>
      <path d="M57.21,57.21H16C7.16,57.21,0,50.04,0,41.21V16C0,7.16,7.16,0,16,0h25.21c8.84,0,16,7.16,16,16V57.21Z" style="fill: #0082c2;"/>
      <g>
        <path d="M38.01,45.73H19.47c0-4.42-3.58-8-8-8V19.2c4.42,0,8-3.58,8-8h18.54c0,4.42,3.58,8,8,8v18.54c-4.42,0-8,3.58-8,8Z" style="fill: #faf6ed; stroke: #000; stroke-linecap: round; stroke-miterlimit: 10; stroke-width: 1.5px;"/>
        <g>
          <path d="M36.17,21.04l-7.43,7.43-7.43-7.43c0-4.1,3.32-7.43,7.43-7.43s7.43,3.32,7.43,7.43Z" style="fill: #fff; stroke: #000; stroke-linecap: round; stroke-miterlimit: 10; stroke-width: 1.5px;"/>
          <path d="M21.32,35.89l7.43-7.43,7.43,7.43c0,4.1-3.32,7.43-7.43,7.43s-7.43-3.32-7.43-7.43Z" style="fill: #fff; stroke: #000; stroke-linecap: round; stroke-miterlimit: 10; stroke-width: 1.5px;"/>
          <path d="M36.17,35.89l-7.43-7.43,7.43-7.43c4.1,0,7.43,3.32,7.43,7.43s-3.32,7.43-7.43,7.43Z" style="fill: #fff; stroke: #000; stroke-linecap: round; stroke-miterlimit: 10; stroke-width: 1.5px;"/>
          <path d="M21.32,21.04l7.43,7.43-7.43,7.43c-4.1,0-7.43-3.32-7.43-7.43s3.32-7.43,7.43-7.43Z" style="fill: #fff; stroke: #000; stroke-linecap: round; stroke-miterlimit: 10; stroke-width: 1.5px;"/>
        </g>
        <line x1="28.74" y1="11.2" x2="28.74" y2="13.86" style="fill: none; stroke: #040000; stroke-miterlimit: 10; stroke-width: 1.5px;"/>
        <line x1="28.74" y1="43.32" x2="28.74" y2="45.98" style="fill: none; stroke: #040000; stroke-miterlimit: 10; stroke-width: 1.5px;"/>
        <line x1="46.01" y1="28.46" x2="43.59" y2="28.46" style="fill: none; stroke: #040000; stroke-miterlimit: 10; stroke-width: 1.5px;"/>
        <line x1="13.89" y1="28.46" x2="11.22" y2="28.46" style="fill: none; stroke: #040000; stroke-miterlimit: 10; stroke-width: 1.5px;"/>
        <circle cx="28.74" cy="28.46" r="2.77" style="fill: #040000;"/>
      </g>
    </g>
  </g>
</svg>