<?xml version="1.0" encoding="UTF-8"?>
<svg id="_圖層_2" data-name="圖層 2" xmlns="http://www.w3.org/2000/svg" width="57.21" height="57.21" viewBox="0 0 57.21 57.21">
  <g id="_燈箱" data-name="燈箱">
    <g>
      <path d="M57.21,57.21H16C7.16,57.21,0,50.04,0,41.21V16C0,7.16,7.16,0,16,0h25.21c8.84,0,16,7.16,16,16V57.21Z" style="fill: #0082c2;"/>
      <g>
        <polygon points="48.06 46.29 17.68 46.29 19.66 18.11 46.09 18.11 48.06 46.29" style="fill: #fff; stroke: #000; stroke-linecap: round; stroke-miterlimit: 10; stroke-width: 1.5px;"/>
        <path d="M26.76,25.2v-8.18c0-3.37,2.74-6.11,6.11-6.11h0c3.37,0,6.11,2.74,6.11,6.11v8.18" style="fill: none; stroke: #000; stroke-miterlimit: 10; stroke-width: 1.5px;"/>
        <polygon points="30.48 46.29 9.15 46.29 10.53 26.5 29.09 26.5 30.48 46.29" style="fill: #faf6ed; stroke: #000; stroke-linecap: round; stroke-miterlimit: 10; stroke-width: 1.5px;"/>
        <path d="M24.1,29.03v5.74c0,2.37-1.92,4.29-4.29,4.29h0c-2.37,0-4.29-1.92-4.29-4.29v-5.74" style="fill: none; stroke: #000; stroke-miterlimit: 10; stroke-width: 1.5px;"/>
        <line x1="9.48" y1="41.51" x2="30.17" y2="41.51" style="fill: none; stroke: #000; stroke-miterlimit: 10; stroke-width: 1.5px;"/>
        <line x1="29.9" y1="37.98" x2="47.52" y2="37.98" style="fill: none; stroke: #000; stroke-miterlimit: 10; stroke-width: 1.5px;"/>
      </g>
    </g>
  </g>
</svg>