<?xml version="1.0" encoding="UTF-8"?>
<svg id="_圖層_2" data-name="圖層 2" xmlns="http://www.w3.org/2000/svg" width="102.8mm" height="76.6mm" viewBox="0 0 291.41 217.13">
  <g id="_圖層_2-2" data-name="圖層 2">
    <g>
      <path d="M4.36,0c1.27,.91,2.71,1.49,4.1,2.17,.83,.41,1.17,.93,1.16,1.86-.01,2.26,1.03,3.56,3.24,4.22,1.47,.44,2.99,.58,4.5,.74,.87,.09,1.51,.49,1.85,1.3,.52,1.23,.2,1.98-1.07,2.43-.2,.07-.41,.14-.61,.23-.99,.4-1.27,.83-1.06,1.68,.25,1.01,1,1.58,1.93,1.47,.05,0,.1,0,.14-.02,2.25-.93,3.69,.24,4.92,1.92,1.23,1.68,2.79,2.79,4.92,2.99,.74,.07,1.45-.04,2.15-.2,1.3-.31,2.34,.08,3.16,1.09,.9,1.11,1.78,2.23,2.67,3.34,.51,.64,.85,1.36,1.02,2.15,.11,.53,.35,.91,.8,1.22,1.62,1.11,2.41,2.8,3.03,4.58,.45,1.28,.89,2.56,1.53,3.76,.49,.92,.39,1.86,.03,2.81-.62,1.65-.81,3.38-.83,5.13,0,.53,.1,1.04,.49,1.4,1.7,1.6,2.43,3.69,3,5.86,.22,.82,.38,1.66,.67,2.45,.32,.88,.04,1.55-.55,2.17-1.09,1.13-2.51,1.33-3.97,1.51-1.84,.23-3.65,0-5.49-.11-2.99-.19-6-.11-8.98,.3-1.42,.2-2.79-.15-4.18-.27-2.15-.19-4.3-.32-6.31,.75-.21,.11-.44,.22-.62,.37-1.95,1.61-4.03,.71-5.48-.79-.96-.99-1.25-2.18-.67-3.54,.72-1.71,.51-3.46,.06-5.2-.32-1.24-.65-2.48-1-3.71-.39-1.39-1.46-2.31-2.35-3.36-.93-1.1-1.94-2.2-1.77-3.76,.13-1.26,.01-2.5,.07-3.75,.12-2.75,1.29-5.13,2.65-7.44,1.1-1.88,1.77-3.93,2.14-6.06,.27-1.53-.14-2.99-1.22-4.1-1.81-1.86-3.32-3.96-4.99-5.94-.55-.65-1.14-1.26-1.78-1.81-.23-.2-.44-.4-.47-.71-.17-1.66-.34-3.32-.12-4.99,.22-1.65,1.01-3.01,2.25-4.11h1.02Z" style="fill: #b5b4b5;"/>
      <path d="M0,116.01c.27-.96,.62-1.85,1.42-2.53,.78-.66,1.66-.98,2.66-.94,.93,.04,1.49,.47,1.71,1.39,.43,1.76,1.67,2.07,3,1.59,1.48-.54,2.9-.32,4.05,.91,.59,.63,1.14,.63,1.75,.02,1.47-1.45,2.08-3.23,1.95-5.26-.18-2.85,.54-5.5,1.74-8.04,.36-.77,.74-1.52,1.14-2.27,.64-1.19,1.11-2.4,.79-3.8-.09-.39-.03-.82-.04-1.23-.12-1.49-.04-2.98-.05-4.46,0-.98-.07-1.97,.05-2.95,.21-1.54,1.67-2.27,3.07-1.51,.78,.42,1.45,1.03,2.33,1.31,1.52,.48,2.85,.19,4.05-.85,.77-.68,1.36-1.51,1.96-2.32,.49-.66,1.08-.82,1.84-.56,.78,.27,1.56,.53,2.28,.93,1.94,1.09,2.66,2.91,2.92,4.99,.22,1.75,.19,3.52,.57,5.26,.27,1.24,.66,2.42,1.32,3.51,.71,1.19,.74,2.37,0,3.56-1.13,1.84-1.26,3.93-1.44,6.01-.07,.84-.14,1.69-.24,2.52-.08,.66,.07,1.23,.62,1.6,1.14,.76,1.81,1.86,2.3,3.09,.6,1.53,1.19,3.07,2.05,4.48,1.14,1.9,2.66,3.36,4.73,4.23,1.08,.46,1.14,.83,.3,1.67-.38,.38-.48,.79-.37,1.32,.52,2.53,1.71,4.71,3.35,6.67,.14,.17,.46,.32,.3,.59-.14,.22-.44,.12-.68,.11-.36-.02-.64-.23-.86-.49-2.14-2.64-5.02-4.19-8.09-5.46-2.63-1.08-5.16-2.34-7.33-4.21-.66-.57-1.28-1.18-1.87-1.82-1.01-1.07-2.19-1.43-3.62-1.1-3.61,.85-6.91,2.29-9.72,4.79-1.97,1.74-4.4,1.78-6.5,.18-.52-.4-1.06-.77-1.69-.97-.74-.23-1.14-.03-1.43,.69-.2,.5-.27,1.03-.34,1.55-.09,.61-.43,.96-1.05,1-.85,.05-1.69,.07-2.54,0-1.44-.12-2.26-1.21-3.26-2.02-1.94-1.57-2.74-3.68-2.96-6.08-.03-.29-.1-.57-.15-.85,0-1.4,0-2.81,0-4.21Z" style="fill: #b5b4b5;"/>
      <path d="M167.55,89.62c.12-1.61-.19-3.24-1.52-4.57-.31-.31-.36-.78-.39-1.22-.09-1.27-.66-2.18-1.92-2.63-1.05-.38-1.3-.88-1.14-1.95,.15-1.05-.14-1.95-.88-2.72-.72-.76-1.61-1.32-2.39-2-.87-.77-1.43-1.68-1.6-2.84-.15-1.06-.53-1.39-1.58-1.55-.76-.12-1.53-.24-2.28-.42-1.8-.43-3.33-1.34-4.5-2.76-1.05-1.26-2.28-2.29-3.54-3.32-.81-.66-1.58-1.36-2.21-2.2-.76-1.01-.61-1.63,.43-2.34,2.25-1.53,4.25-3.35,6.13-5.31,1-1.04,1.65-2.33,2.03-3.73,.36-1.33,.99-2.52,1.81-3.61,1.39-1.85,1.94-3.97,2.05-6.25,.03-.71-.24-1.31-.6-1.9-1.07-1.76-.87-2.61,.84-3.74,.97-.64,2-1.19,3.03-1.71,1.83-.93,3.7-1.8,5.49-2.8,1.07-.6,1.95-.46,2.71,.48,.69,.85,1.49,1.19,2.6,1.04,1.67-.23,3.27,.17,4.84,.72,.98,.34,1.95,.72,2.94,1.05,.48,.16,.69,.42,.71,.95,.04,1.19,.41,1.67,1.58,2.05,2.27,.74,4.63,1,7,1.12,2.25,.11,4.49,.18,6.75,.18,1.84,0,3.55,.4,4.88,1.83,.5,.53,1.24,.54,1.91,.57,2.71,.12,4.93,1.27,6.79,3.18,1.17,1.2,2.48,1.97,4.24,1.82,.69-.06,1.33,.23,1.92,.58,.65,.38,1.27,.79,1.92,1.18,.94,.56,1.91,1.06,3,1.25,.51,.09,.94,.34,1.16,.79,.68,1.39,1.8,2.38,2.98,3.32,2.15,1.72,3.89,3.75,4.85,6.39,.2,.55,.56,1.03,1.04,1.37,1.56,1.12,2.74,2.58,3.78,4.17,1.07,1.62,2.14,3.22,3.37,4.73,1.33,1.62,2.88,2.71,5.07,2.63,.5-.02,.96,.18,1.38,.41,2.45,1.37,5.12,1.86,7.87,2.05,2.1,.14,3.66,1.09,4.59,3.03,.72,1.5,1.87,2.6,3.42,3.2,2.13,.82,3.66,2.26,4.79,4.23,2.45,4.29,5.76,7.87,9.34,11.23,.66,.62,1.11,1.28,1.37,2.16,.52,1.81,1.74,3.04,3.45,3.78,1.33,.58,1.5,.95,1.02,2.29-.27,.74-.2,1.43,.23,2.08,.94,1.41,1.4,2.95,1.38,4.65,0,1.36,.7,2.27,1.97,2.75,.88,.33,1.77,.67,2.64,1.03,.95,.4,1.4,1.11,1.36,2.17-.03,.87-.12,1.74-.24,2.6-.26,1.82,.38,3.36,1.96,4.1,3.07,1.44,3.96,3.93,4.04,7.02,.04,1.64-.22,3.17-1.04,4.6-.39,.67-.88,1.24-1.61,1.5-.8,.29-1.35,.83-1.81,1.5-.46,.69-1.02,1.29-1.69,1.79-.92,.68-1.78,.75-2.56-.06-2.74-2.82-6.31-4.22-9.72-5.94-2.23-1.12-4.37-1.61-6.91-1.42-5.25,.39-10.27-.83-15.09-2.95-2.41-1.06-4.3-2.66-5.76-4.81-1.85-2.7-4.27-4.53-7.58-4.99-1.74-.24-3.43,.02-5.06,.61-1.02,.37-2,.82-2.93,1.41-2.64,1.68-5.48,1.68-8.39,.86-1.97-.56-3.8-1.43-5.61-2.35-1.34-.68-2.72-1.27-4.22-1.51-1.77-.29-3.45-.16-5.05,.79-1.56,.93-3.09,.85-4.1-.77-.2-.33-.52-.49-.89-.57-2.28-.47-4.17-1.66-5.8-3.26-2.49-2.44-4.85-5-7.59-7.17-1.58-1.25-3.19-2.44-4.85-3.57-1.54-1.04-3.12-1.25-4.88-.52-2.58,1.07-4.7,.06-5.51-2.61-.33-1.08-.63-2.1-1.54-2.88-.48-.42-.63-1.08-.63-1.73,0-1.47-.46-2.63-1.95-3.23-.7-.28-1.05-.91-1.07-1.68-.01-.48,0-.97,0-1.63Z" style="fill: #b5b4b5;"/>
      <path d="M234.74,198.93c-2.94-.28-5.93,.61-8.86,1.83-1.5,.62-3.02,1.17-4.59,1.6-1.36,.37-2.48,1.19-3.59,2-.43,.31-.86,.63-1.31,.92-1.95,1.25-3.93,1.17-5.9,.05-.57-.32-1.11-.7-1.72-.93-.98-.37-1.59-.23-2.12,.65-.85,1.38-1.68,2.76-1.64,4.49,.02,.99-.62,1.63-1.81,1.98-1.23,.36-2.47,.68-3.71,1-2.81,.72-5.47,1.78-7.89,3.42-.48,.32-1,.6-1.53,.83-2.5,1.08-4.93-.35-5.03-3.06-.07-1.87-.92-2.98-2.61-3.68-1.47-.61-2.87-1.39-4.27-2.17-.96-.54-1.56-1.35-1.48-2.54,.12-1.78-.74-2.96-2.32-3.64-1.62-.7-3.28-1.32-4.9-2.02-3.38-1.45-6.68-3.07-10.27-4-1.17-.3-2.36-.54-3.56-.65-.55-.05-1.02-.23-1.44-.6-1.14-.99-2.51-1.52-3.99-1.56-4.35-.09-8.68-.62-13.04-.47-2.83,.1-5.64,.42-8.46,.66-1.3,.11-2.6,.28-3.9,.29-1.78,.02-3.37,.64-4.9,1.43-3.47,1.78-7.17,2.91-10.87,4.03-2.35,.71-4.42-1.32-3.86-3.69,.23-.99,.67-1.84,1.45-2.53,.96-.85,1.04-1.56,.31-2.61-1.13-1.63-2.55-2.9-4.5-3.49-1.88-.57-3.58-1.45-4.92-2.95-.58-.65-1.37-1.07-2.09-1.56-1.85-1.26-2.48-2.87-1.89-5.03,.47-1.7,.36-3.27-.58-4.8-.77-1.26-1.11-2.69-1.02-4.17,.07-1.18-.25-2.22-.97-3.11-1.26-1.57-1.33-3.23-.61-5.04,.78-1.98,1.48-3.99,2.21-5.99,.16-.45,.3-.92,.41-1.39,.26-1.2-.06-2-1.11-2.66-1.41-.9-2.94-1.34-4.62-1.22-1.9,.13-3.62-.47-5.31-1.25-.64-.3-.95-.79-.94-1.49,.04-3.21-.63-6.35-.9-9.52-.13-1.47-.34-2.93-.49-4.4-.12-1.15,.3-1.96,1.43-2.43,1.52-.63,3.07-1.19,4.62-1.74,2.15-.75,4.3-1.47,6.47-2.17,1.3-.42,1.55-.18,1.39,1.19-.05,.41-.11,.82-.11,1.23,0,1.35,.59,2.37,1.8,3,1.38,.71,2.87,1,4.41,1.05,.94,.03,1.89-.03,2.83,0,1.05,.03,1.4,.51,1.09,1.51-.31,.98-.27,1.95-.08,2.94,.13,.66,.26,1.33,.26,2.01,0,.76,.42,1.23,1.09,1.45,3.13,1.02,6.3,1.91,9.59,2.23,2.26,.22,2.65,.84,1.71,2.87-.49,1.06-.37,1.63,.48,2.46,1.67,1.61,3.67,2.43,5.98,2.65,2.04,.2,4.07,.54,6.11,.81,1.27,.17,2.44-.04,3.48-.87,1.15-.92,2.64-.93,3.81,.11,2.48,2.21,5.47,2.75,8.62,2.86,1.69,.06,3.39-.03,5.08,.15,.72,.08,1.4,.26,1.94,.72,1.02,.88,2.22,1.13,3.5,1.16,.87,.02,1.74,.03,2.58,.31,.83,.27,1.38,.81,1.56,1.66,.65,3.03,2.59,4.72,5.53,5.37,2,.44,4.02,.89,6.1,.67,1.39-.15,2.65-.63,3.67-1.58,.99-.91,2.12-1.51,3.36-1.94,2.24-.79,4.4-1.76,6.45-2.98,1.38-.82,2.79-.96,4.31-.41,2.56,.93,5.18,.76,7.81,.32,.45-.07,.91-.1,1.37-.13,1.04-.08,1.84,.34,2.39,1.22,.23,.36,.54,.63,.92,.79,2.26,.97,4.61,1.61,7.09,1.67,.37,0,.73,0,1.02-.29,1.6-1.61,3.65-2.23,5.79-2.61,1.94-.34,3.84-.8,5.66-1.54,.13-.05,.27-.1,.41-.14,1.73-.55,2.52,0,2.63,1.82,.01,.17,.02,.34,.04,.51,.24,1.89,.53,2.24,2.37,2.7,1.43,.36,2.82,.87,4.32,.88,.95,0,1.83-.21,2.59-.77,.46-.33,.94-.43,1.42-.15,2.69,1.55,5.64,2.26,8.66,2.78,1.16,.2,2.25,.64,3.16,1.38,.88,.71,1.89,1.06,2.98,1.23,.67,.1,1.34,.21,2.01,.31,.22,.03,.43,.1,.59,.26,1.45,1.48,3.33,2.01,5.29,2.31,1.53,.24,3.04,.57,4.55,.91,.28,.06,.51,.18,.58,.47,.08,.31,0,.58-.24,.79-.11,.09-.24,.17-.36,.23-2.71,1.33-5.5,2.4-8.5,2.85-2.66,.4-4.59,1.74-5.79,4.19-1.98,4.04-4.05,8.04-6.58,11.78-.62,.92-.74,1.94-.4,2.99,.28,.85,.67,1.66,.96,2.51,.6,1.77,.12,2.64-1.69,3.13-1.54,.42-3.11,.41-4.98,.4Z" style="fill: #b5b4b5;"/>
      <path d="M144.77,106.31c-.04-2.03,.34-2.36,2.33-2.07,1.65,.24,3.27,.57,4.87,1.09,3.1,1.02,6.25,.8,9.4,.16,.57-.12,1.13-.28,1.7-.38,2.05-.34,3.78-1.28,5.27-2.72,.28-.27,.59-.5,.92-.71,.81-.55,1.29-.43,1.79,.41,.21,.35,.4,.72,.63,1.06,1.43,2.12,3.62,3.08,6.05,2.27,2.28-.76,4.12-.21,5.97,1.13,2.87,2.08,5.6,4.33,7.98,6.94,2.35,2.57,5.11,4.49,8.23,5.95,.9,.42,1.74,.9,2.38,1.72,.61,.79,1.48,.98,2.42,.63,.45-.16,.89-.37,1.32-.59,2.96-1.49,5.89-1.4,8.72,.3,1.83,1.1,3.85,1.68,5.86,2.3,.71,.22,1.45,.42,2.12,.75,1.58,.79,3.09,.6,4.59-.19,1.93-1.02,3.91-1.92,6.03-2.48,1.62-.43,3.26-.68,4.95-.42,2.22,.35,4.08,1.39,5.24,3.29,2.37,3.88,5.88,6.12,10.12,7.4,3.24,.98,6.47,2.02,9.93,1.85,.77-.04,1.55-.06,2.31-.19,1.91-.34,3.74-.01,5.44,.82,3.59,1.77,7.09,3.69,10.11,6.36,2.18,1.92,2.78,4.42,2.27,7.18-.28,1.53-1.4,2.34-2.95,2.39-1.74,.05-3.47,.11-5.21,.02-.96-.05-1.72,.36-2.29,1.16-1.51,2.13-1.7,2.18-4.2,1.32-1.97-.68-3.78-1.65-5.34-3.02-1.61-1.42-3.5-2.01-5.58-2.12-1.84-.1-3.68,.07-5.51-.06-3.13-.23-6.16-.95-9.19-1.72-1.18-.3-2.36-.5-3.58-.52-1.52-.02-2.59-.69-3.05-2.19-.25-.8-.92-1.23-1.54-1.67-.49-.35-.82-.75-.97-1.37-.29-1.17-1.18-1.71-2.46-1.42-1.28,.29-2.56,.47-3.86,.6-.85,.09-1.64,.38-2.3,.98-.4,.36-.8,.36-1.1-.11-.46-.71-1.13-1.07-1.93-1.15-2.91-.29-5.4-1.59-7.81-3.12-.59-.38-1.17-.77-1.77-1.14-.77-.46-1.36-1.04-1.67-1.92-.36-1.01-1.2-1.56-2.2-1.84-.58-.16-1.18-.26-1.78-.33-1.72-.21-3.22-.8-4.35-2.19-.7-.87-1.66-1.13-2.74-.91-1.63,.33-3.27,.65-4.9,1.01-1.06,.24-2.1,.22-3.16,0-1.75-.38-3.52-.63-5.33-.39-1.95,.26-3.76,.92-5.14,2.31-1.36,1.37-2.86,1.66-4.64,1.24-2.29-.55-4.59-.68-6.89-.04-1.27,.35-2.4,1.01-2.87,2.25-.91,2.4-2.78,3.17-5.1,3.57-3.2,.55-5.77-.56-8.12-2.59-1.44-1.25-2.63-2.64-3.1-4.53-.11-.45-.4-.69-.86-.77-.38-.07-.76-.15-1.13-.25-1.73-.47-2.97-1.52-3.59-3.2-.41-1.14-1.03-1.94-2.23-2.37-1.24-.44-2.08-1.46-2.89-2.47-.81-.99-1.42-2.15-2.36-3.03-1.05-.98-2.27-1.46-3.72-1.13-.07,.02-.15,.03-.21,.06-2.05,1.14-4.34,1.62-6.54,2.34-1.88,.61-2.51,1.9-2.19,4.1,.06,.38,.15,.77,.07,1.15-.11,.56-.64,.9-1.06,.61-.76-.52-1.63-.85-2.34-1.45-1.04-.89-1.67-2.01-1.9-3.34-.3-1.72-1.19-3.27-1.43-5.02-.05-.38-.39-.59-.74-.74-1.9-.81-3.85-1.49-5.93-1.58-1.74-.08-3.37,.38-4.82,1.34-.63,.42-1.19,.47-1.9,.24-2.61-.85-5.3-.68-7.99-.56-.37,.02-.72,.04-1.05-.16-1.26-.75-2.61-.83-4-.53-.92,.2-1.83,.46-2.75,.67-.89,.21-1.71,.09-2.26-.72-.55-.81-.3-1.61,.24-2.28,.55-.69,.53-1.31,.17-2.07-.68-1.44-1.23-2.95-2.09-4.3-.5-.79-1.1-1.45-1.92-1.94-1.48-.9-1.64-1.88-.54-3.22,2.04-2.49,4.15-4.92,6.35-7.26,.22-.23,.43-.46,.62-.71,.93-1.2,.98-2.27,.19-3.55-.22-.35-.65-.73-.13-1.12,.49-.37,1.17-.54,1.61-.09,.86,.88,1.93,1.14,3.05,1.39,.77,.17,1.43,.55,2.03,1.07,1.25,1.1,2.56,2.12,3.43,3.61,.49,.84,1.25,.98,2.15,.59,.53-.23,1.03-.54,1.55-.79,.68-.32,1.39-.43,2.11-.11,.98,.44,1.15,1.69,.26,2.28-2.06,1.37-3.25,3.34-3.98,5.63-.27,.85-.54,1.71-.76,2.57-.31,1.2,.14,2.06,1.3,2.46,.97,.34,1.95,.48,2.98,.14,1.62-.54,3.06-.21,4.23,1.07,.31,.34,.63,.68,.89,1.05,.78,1.09,1.83,1.77,3.11,2.12,.75,.2,1.4,.66,2.16,.83,1.34,.3,2.39-.06,3.17-1.18,.26-.37,.52-.77,.68-1.2,.44-1.19,1.35-1.65,2.53-1.72,2.59-.17,5.11,.35,7.6,.96,2.84,.7,5.68,1.4,8.58,1.87,1.13,.18,2.26,.18,3.38-.15,2.07-.61,2.62-1.35,2.57-3.51Z" style="fill: #b5b4b5;"/>
      <path d="M100.65,116.43c1.62-.08,3.18,.06,4.62,.94,.76,.46,1.51,.1,2.17-.35,1.19-.81,2.48-1.32,3.92-1.39,1.41-.07,2.8,.13,4.13,.63,.58,.22,1.04,.62,1.28,1.22,.51,1.23,1.03,2.45,1.51,3.69,.29,.75,.47,1.53,.49,2.33,.02,.79,.37,1.37,1.08,1.76,1.57,.86,3.21,1.58,4.71,2.57,.34,.22,.68,.19,1.04,.04,.91-.4,1.49-1.3,1.46-2.3,0-.34-.02-.68-.04-1.02-.04-1.23,.48-2.19,1.56-2.74,1.64-.83,3.32-1.57,5.15-1.92,1.67-.32,3.21,.09,4.12,1.5,1.18,1.83,2.95,2.97,4.48,4.38,1.14,1.05,2.08,2.22,2.63,3.68,.15,.4,.34,.72,.77,.9,1.96,.84,3.47,2.25,4.88,3.81,1.18,1.31,2.35,2.63,3.75,3.73,4.8,3.75,12.82,1.94,15.38-2.8,.66-1.22,1.77-1.49,3.01-1.5,1.36-.01,2.7,.2,4.05,.34,1.31,.13,2.61,.13,3.89-.23,1.07-.3,2.06-.77,2.79-1.62,1.42-1.66,3.28-1.9,5.27-1.79,.48,.03,.97,.1,1.4,.33,1.26,.69,2.59,.7,3.95,.4,1.51-.33,3.04-.53,4.52-1.02,1.38-.46,2.64-.26,3.72,.87,.89,.93,2.05,1.45,3.36,1.55,1.81,.13,3.2,.95,4.31,2.37,.66,.84,1.5,1.47,2.45,2,1.75,.98,3.44,2.06,5.15,3.12,2.82,1.74,5.83,2.79,9.2,2.68,.85-.03,1.68-.18,2.51-.34,2.66-.52,4.63,.29,5.8,2.7,.74,1.53,1.89,2.08,3.42,2.26,1.63,.2,3.28,.26,4.9,.58,.98,.2,1.93,.46,2.81,.93,1.12,.59,2.31,.84,3.56,.83,2.64-.02,5.27-.14,7.9,.27,1.34,.21,2.66,.51,3.98,.82,.34,.08,.63,.24,.83,.53,1.19,1.71,2.91,2.65,4.82,3.31,.73,.25,1.48,.47,2.22,.69,.96,.29,1.48,.94,1.64,1.92,.74,4.58-3.49,10.19-8.1,10.75-.64,.08-1.25,.01-1.87-.15-4.97-1.29-9.81-2.98-14.54-4.98-2.64-1.12-5.36-1.97-8.24-2.19-.79-.06-1.48-.42-2.13-.86-1.49-1-2.99-1.31-4.59-.22-.43,.29-.98,.26-1.49,.22-1.01-.09-2.02-.18-3.01-.42-1.17-.29-1.37-.52-1.45-1.72-.14-2.14-1.44-3.73-3.44-4.26-.72-.19-1.29-.09-1.84,.46-1.41,1.4-3.28,1.66-5.14,1.89-1.13,.14-2.26,.28-3.38,.45-1.1,.17-2.09,.58-2.8,1.52-.39,.52-.95,.67-1.55,.57-2.1-.32-4.12-.92-5.85-2.2-1.97-1.46-4.07-1.9-6.43-1.09-1.54,.53-3.11,.27-4.66-.04-1.02-.2-2.04-.41-3.06-.58-1.53-.24-2.97,.06-4.2,.99-1.69,1.28-3.58,2.11-5.56,2.76-1.78,.58-3.49,1.24-4.94,2.51-.99,.87-2.34,.73-3.55,.72-1.4-.01-2.8-.18-4.18-.4-1.86-.3-3.05-1.35-3.61-3.14-.29-.93-.61-1.84-1.17-2.64-.81-1.15-1.92-1.75-3.32-1.76-.46,0-.92,0-1.38,.04-.86,.06-1.63-.17-2.29-.72-1.01-.85-2.19-1.2-3.49-1.2-2.78,0-5.55-.33-8.33-.46-1.13-.05-2.07-.63-2.96-1.28-.94-.69-1.92-1.31-3.05-1.65-1.45-.44-2.89-.4-4.22,.34-1.23,.69-2.47,.98-3.89,.74-2.14-.37-4.32-.57-6.45-1.03-.52-.11-1.02-.29-1.49-.56-.72-.42-1.14-1.05-1.18-1.88-.03-.7,0-1.4,.02-2.1,.03-1.7-.66-2.64-2.34-2.98-1.49-.3-3.01-.48-4.51-.74-1.26-.22-2.52-.48-3.77-.75-1.46-.32-2.23-1.25-2.33-2.75-.08-1.29,.06-2.56,.21-3.83,.02-.19,.06-.38,.07-.58,.07-1.36-.53-1.96-1.88-1.78-1.28,.17-2.56,.18-3.84,.12-1.24-.06-2.44-.33-3.59-.83-.52-.23-.95-.57-.84-1.21,.32-2.01-.05-4.01-.02-6.01,.02-1.2,.22-2.36,.57-3.5,.51-1.62,1.35-2.24,3.04-2.26,.51,0,1.02,0,1.52,0Z" style="fill: #b5b4b5;"/>
      <path d="M70.7,143.3c.44,0,.87-.01,1.31,0,1.09,.04,1.68,.71,1.59,1.8,0,.12-.03,.24-.05,.36-.23,1.38,.2,2.05,1.58,2.35,1.89,.41,3.79,.76,5.69,1.16,1.82,.39,3.63,.85,5.39,1.47,.32,.11,.54,.17,.91-.07,.75-.49,3.16,.1,3.73,.8,.48,.59,.44,1.28,.22,1.93-.44,1.3-.95,2.59-1.43,3.88-.43,1.16-.88,2.31-1.28,3.47-.47,1.35-.53,2.74,.07,4.04,1.3,2.85,2.01,5.9,3.09,8.83,.56,1.51,.7,2.91,.11,4.43-.39,1.02-.16,2.04,.53,2.87,2.55,3.05,5.49,5.59,9.27,7,1.2,.45,2.26,1.11,3.24,1.91,.85,.69,1.02,1.45,.58,2.46-.21,.49-.48,.95-.74,1.41-.89,1.56-1.19,3.15-.39,4.85,.16,.33,.3,.74,.04,1.04-.37,.43-.91,.26-1.36,.16-2.51-.52-5.01-1.07-7.52-1.61-1.23-.27-2.46-.54-3.68-.81-.87-.19-1.62-.56-2.28-1.19-1.39-1.33-3.12-1.99-4.95-2.45-1.72-.43-3.4-.94-4.82-2.08-.61-.49-1.18-1.02-1.59-1.67-.78-1.23-1.95-1.84-3.34-1.88-3.76-.11-6.63-1.81-8.95-4.67-1.43-1.77-3.19-3.18-5.26-4.15-2.55-1.19-4.74-2.9-6.87-4.69-1.19-1-1.31-2.18-.4-3.46,.74-1.05,1.53-2.06,2.28-3.1,.69-.96,.92-1.94,.24-3.03-.38-.61-.2-.93,.54-1.02,2.25-.29,4.3-1.12,6.24-2.24,1.47-.85,1.87-1.85,1.36-3.47-.99-3.14-2-6.27-3-9.4-.08-.25-.17-.5-.24-.76-.4-1.47,.02-2.36,1.42-2.98,1.4-.62,2.89-.97,4.41-1.16,1.44-.18,2.89-.3,4.34-.33Z" style="fill: #b5b4b5;"/>
      <path d="M157.8,104.86c-2.66,0-5.19-.77-7.74-1.45-2.01-.55-3.94-1.31-5.88-2.08-1.91-.75-3.16-2.09-3.89-3.97-.95-2.45-1.33-5.05-1.92-7.59-.36-1.53-.57-3.09-1.05-4.59-.5-1.57-1.42-2.82-2.82-3.75-3.12-2.08-5.74-4.74-8.46-7.28-1.08-1.01-2.15-2.02-3.32-2.92-1.46-1.12-3.09-1.68-4.93-1.65-2.87,.06-5.38-1.08-7.82-2.38-1.08-.58-1.14-1.98-.11-2.8,.66-.52,1.07-1.12,1.35-1.9,.41-1.12,1.24-1.95,2.17-2.67,.38-.29,.81-.53,1.2-.82,1.16-.86,2.34-1.12,3.79-.65,1.69,.54,3.49,.48,5.26,.36,2.18-.15,4.35-.12,6.53-.06,1.47,.04,2.68,.73,3.61,1.9,1.55,1.97,2.74,2.28,5.06,1.36,1.99-.8,2.87-.47,3.89,1.45,.88,1.65,2.11,2.94,3.81,3.75,1.1,.52,1.91,1.33,2.37,2.44,.56,1.33,1.58,2.1,2.96,2.29,2.07,.27,3.65,1.25,4.92,2.89,.74,.95,1.62,1.8,2.47,2.65,.51,.51,.75,1.1,.78,1.81,.02,.48,.07,.97,.14,1.44,.21,1.37,.88,2.39,2.25,2.86,.88,.3,1.39,.93,1.66,1.79,.5,1.59,.99,3.19,1.49,4.78,.18,.56,.14,1.1-.1,1.62-.14,.31-.3,.61-.42,.92-.39,.98-.12,1.55,.89,1.9,.43,.15,.89,.25,1.31,.42,.73,.28,1.14,.83,1.06,1.63-.05,.57,.06,1.09,.25,1.63,.36,1,.08,1.91-.7,2.56-2.91,2.42-6.07,4.26-10.05,4.1Z" style="fill: #b5b4b5;"/>
      <path d="M9.34,130.56c.14,.04,.37,.11,.61,.17,.79,.2,1.2-.03,1.39-.82,.09-.37,.09-.77,.16-1.15,.12-.65,.46-.8,1.04-.5,.19,.1,.37,.23,.54,.36,2.36,1.7,5.18,1.6,7.44-.24,1.65-1.35,3.33-2.66,5.28-3.57,1.46-.68,2.97-1.17,4.61-1.12,.68,.02,1.33,.2,1.76,.73,2.42,2.99,5.72,4.65,9.2,5.98,3.42,1.3,6.2,3.54,8.95,5.83,.39,.32,.59,.77,.68,1.25,.45,2.46,1.5,4.69,2.65,6.88,.77,1.48,1.52,2.97,2.11,4.54,.44,1.16,1.12,1.57,2.35,1.44,1.24-.13,1.57,.11,1.92,1.31,.64,2.16,1.29,4.31,1.94,6.46,.37,1.24,.28,1.44-.83,2.11-1.61,.96-3.34,1.51-5.21,1.64-.86,.06-1.58,.43-2.2,1.02-.56,.53-.6,1.05-.16,1.68,.82,1.18,.83,1.54,0,2.72-1,1.42-1.79,2.93-2.21,4.62-.21,.83-.47,.97-1.25,.67-1.22-.46-2.16-1.24-2.49-2.54-.69-2.76-2.46-4.57-4.98-5.67-2.87-1.25-5.49-2.84-7.73-5.04-1.86-1.83-3.43-3.87-4.76-6.1-.43-.73-.88-1.44-1.42-2.11-1.22-1.52-2.76-2.49-4.71-2.74-2.38-.31-4.37-1.33-5.99-3.1-.63-.68-1.43-1.15-2.15-1.72-.4-.32-.8-.63-1.15-1-.79-.83-.79-1.57-.04-2.43,.72-.82,.68-1.24-.22-1.88-1-.71-2.14-.99-3.35-1.04-.76-.03-1.49-.16-2.18-.48-1.27-.6-1.72-1.48-1.55-3.11,.09-.91,.44-1.73,.9-2.51,.21-.35,.52-.57,1.05-.56Z" style="fill: #b5b4b5;"/>
      <path d="M153.79,40.64c.01,.42-.07,.82-.2,1.21-1.21,3.77-2.89,7.33-4.96,10.71-.99,1.62-2.5,2.74-3.95,3.91-.87,.7-1.73,1.4-2.6,2.09-.33,.26-.56,.59-.73,.98-.18,.41-.47,.54-.87,.3-.67-.4-1.39-.39-2.11-.22-1.83,.44-3.48,.06-5.03-.99-2.32-1.58-4.83-2.01-7.53-1.08-1.32,.45-2.67,.36-4.01,.09-.9-.18-1.79-.43-2.68-.65-.34-.09-.66-.23-.74-.61-.09-.41,.15-.7,.45-.93,.23-.18,.48-.34,.74-.44,1.75-.66,2.6-2.01,2.91-3.76,.14-.81,.24-1.63,.31-2.44,.09-1-.44-1.82-1.46-2.29-.92-.43-1.88-.76-2.87-1.02-2.44-.64-4.58-1.71-6.18-3.79-1.04-1.36-2.68-1.3-4.21-1.23-1.31,.05-2.56,.52-3.82,.84-1.14,.29-2.2,.27-3.17-.49-.33-.26-.71-.26-1.1-.14-1,.32-1.86,.02-2.6-.68-.49-.46-.96-.95-1.41-1.46-.64-.74-.67-1.39-.07-2.16,.92-1.18,2.16-1.91,3.51-2.5,.82-.36,1.68-.62,2.55-.83,4.56-1.06,8.82-3.05,13.28-4.42,3.51-1.08,7.04-2.12,10.6-3.04,1.02-.27,1.91-.28,2.53,.77,.15,.25,.45,.37,.74,.44,3.47,.79,6.62,2.44,9.92,3.67,2.94,1.1,5.89,2.21,8.98,2.84,.24,.05,.48,.08,.72,.09,2.34,.15,3.82,1.5,4.17,3.82,.11,.75,.43,1.43,.67,2.14,.14,.42,.21,.84,.2,1.28Z" style="fill: #b5b4b5;"/>
      <path d="M41.3,22.47c2.11-.06,4.04,.64,5.96,1.4,3.86,1.52,7.2,3.83,10.25,6.61,.57,.52,.9,1.2,1.25,1.86,1.08,2.03,2.15,4.06,3.21,6.1,.12,.24,.23,.48,.32,.73,.28,.76,.11,1.12-.67,1.39-.69,.23-1.41,.35-2.08,.64-1.88,.83-2.84,2.53-2.58,4.57,.16,1.25,.38,2.47,.73,3.69,.72,2.48,.11,4.88-.61,7.26-.28,.93-.58,1.85-.81,2.79-.3,1.25-.05,2.39,.75,3.42,1.61,2.08,1.58,4.29-.08,6.38-.88,1.11-.77,1.67,.45,2.36,.49,.28,.95,.55,.7,1.23-.25,.71-.9,1.16-1.57,.95-1.42-.42-2.87-.45-4.32-.35-1.16,.08-2.01-.36-2.76-1.17-.73-.78-1.49-1.52-2.46-2.01-1.81-.91-3.38-.38-4.28,1.44-.3,.61-.48,1.26-.62,1.93-.13,.59-.25,1.18-.43,1.76-.32,1.09-.79,1.31-1.84,.88-.43-.17-.84-.37-1.27-.55-2.75-1.18-5.49,0-6.53,2.82-.27,.73-.36,1.5-.54,2.25-.54,2.22-1.51,4.18-3.44,5.54-1.45,1.02-2.36,.82-3.4-.64-1.47-2.06-1.36-4.63,.6-6.41,.52-.47,1.05-.93,1.46-1.5,1.61-2.31,1.04-4.73-1.49-6.27-.51-.31-1.05-.59-1.58-.88-1.16-.62-1.47-1.16-1.06-2.39,.48-1.46,.39-2.79-.47-4.06-.45-.67-1.01-1.16-1.85-1.25-.09,0-.19-.05-.28-.08-1.13-.33-2.19-.9-3.38-1.04-.42-.05-.5-.21-.19-.54,.54-.58,1.14-1.03,1.91-1.26,1.54-.46,3.11-.5,4.65-.2,2.52,.49,4.99,.52,7.53,.05,1.65-.31,3.35-.24,5.05-.18,2.4,.08,4.8,.7,7.2,.08,1.59-.41,3.07-1.08,4.29-2.17,.88-.78,1.3-1.86,.93-3.02-.65-2.05-1.17-4.14-1.97-6.13-.42-1.06-.97-2.05-1.77-2.89-.84-.88-.9-1.91-.55-3.02,.31-.99,.68-1.95,.92-2.97,.32-1.42,.05-2.76-.49-4.03-.85-1.95-1.57-3.95-2.39-5.91-.12-.28-.24-.55-.49-.69-1.62-.91-2.43-2.43-3.12-4.04-.78-1.81-.69-1.98,1.25-2.34,.65-.12,1.3-.11,1.95-.13Z" style="fill: #b5b4b5;"/>
      <path d="M77.93,146.94c-1.52-.03-2.29-.47-2.55-2.05-.38-2.28-1.84-3.41-4.13-3.32-3.09,.13-6.19,.31-9.16,1.3-.78,.26-1.54,.58-2.25,1-.85,.5-1.26,1.25-1.28,2.21-.01,.56,0,1.11-.02,1.67,0,.27-.07,.54-.39,.63-.35,.09-.64-.03-.8-.34-.33-.62-.64-1.25-.95-1.88-1.05-2.18-2.08-4.37-3.15-6.54-.37-.76-.48-1.47-.19-2.3,.43-1.22,.41-2.52,.65-3.78,.11-.57,.23-1.15,.51-1.66,1.61-2.83,2.46-5.93,3.41-9.01,.15-.49,.28-.98,.46-1.45,.78-2.06,.6-4.08-.15-6.1-.56-1.5-1.26-2.93-2.19-4.25-.75-1.06-1.19-2.2-.9-3.54,.12-.57,.32-1.06,.75-1.45,.54-.48,1.09-.96,1.62-1.45,1.67-1.58,3.68-1.45,5.74-1.18,4.3,.58,7.48,2.85,9.8,6.42,.76,1.16,1.62,2.21,3.06,2.5,1.35,.28,2.74,.28,4.12,.29,.93,0,1.83-.16,2.73-.34,1-.2,1.48,.07,1.88,1.02,.81,1.96,1.73,2.56,3.84,2.51,1.52-.03,3.05,.11,4.53-.41,.52-.18,1.02,.02,1.29,.55,.66,1.29,1.09,2.74-.2,4.09-.37,.38-.52,.84-.5,1.39,.05,1.69-.36,2.24-2.01,2.67-3.35,.88-6.65,1.9-9.87,3.18-.83,.33-1.67,.66-2.47,1.05-1.16,.56-1.76,1.5-1.61,2.82,.15,1.29,.17,2.59,.61,3.85,.53,1.52,.59,3.13,.66,4.73,.09,1.81,.16,3.62,.43,5.42,.2,1.31-.17,1.76-1.32,1.75Z" style="fill: #b5b4b5;"/>
      <path d="M142.74,104.93c0,.58,.03,1.16,0,1.74-.06,.91-.36,1.26-1.28,1.38-2.84,.36-5.59,0-8.28-.95-2.92-1.03-5.93-1.6-9.04-1.52-1.02,.03-2.03,.13-3.03,.33-1.34,.26-2.33,1-2.93,2.26-.5,1.07-.85,1.23-2.01,1.04-1.69-.28-3.09-1.07-4.15-2.43-.57-.73-1.2-1.39-2-1.88-1.44-.88-2.96-.95-4.54-.46-.57,.17-1.19,.5-1.7-.05-.48-.52-.24-1.15-.07-1.73,.58-2,1.5-3.79,2.98-5.32,1.77-1.83,2.15-4.09,1.33-6.47-.91-2.66-1.5-5.4-2.12-8.14-.58-2.61-.18-5.09,.8-7.52,.14-.36,.39-.59,.71-.8,1.61-1.04,1.98-1.97,1.54-3.8-.29-1.2,.06-1.59,1.29-1.28,1.53,.38,3.03,.85,4.54,1.27,1.57,.44,3.17,.64,4.8,.71,.89,.04,1.74,.23,2.37,.93,2.6,2.89,5.52,5.42,8.51,7.88,3.91,3.22,6.16,7.39,7.19,12.27,.24,1.11,.4,2.24,.59,3.36,.43,2.44,1.48,4.5,3.64,5.85,.58,.37,.8,.89,.83,1.52,.03,.6,0,1.21,0,1.81,.01,0,.02,0,.03,0Z" style="fill: #b5b4b5;"/>
      <path d="M79.84,111.28c-1.24-.16-2.51-.32-3.78-.49-.43-.06-.8-.23-.97-.66-.46-1.22-1.34-2.12-2.27-2.97-1.69-1.56-3.04-3.33-3.8-5.56-.85-2.5-2.69-4.27-4.76-5.8-.25-.19-.5-.39-.77-.54-1.44-.79-2.1-2.07-2.35-3.64-.14-.86-.39-1.7-.72-2.5-.85-2.05-2.23-3.59-4.22-4.6-2.36-1.19-2.58-1.69-1.91-4.25,.3-1.15,.65-2.28,1.01-3.41,.31-.97,.81-1.38,1.82-1.34,1.08,.05,1.72-.49,2.2-1.35,.14-.25,.26-.52,.4-.77,.49-.89,1.09-1.19,2.1-1.04,1.25,.19,1.87-.18,2.2-1.41,.29-1.05,.48-2.12,.75-3.18,.43-1.66,.91-1.97,2.59-1.74,3.45,.46,6.88,1.08,10.37,1.19,.74,.02,1.32,.42,1.8,.97,.45,.52,.72,1.14,1.03,1.74,.48,.95,1.14,1.73,2.15,2.17,.89,.39,1.04,.66,.83,1.64-.53,2.43-1.03,4.88-1.27,7.36-.16,1.64-.28,3.28-.07,4.92,.21,1.67,1.02,2.19,2.6,1.61,.5-.18,.97-.44,1.45-.66,.67-.3,1.23-.16,1.66,.43,.6,.82,.94,1.73,.97,2.76,.02,.59-.18,1.08-.6,1.5-1.9,1.9-3.57,4.01-5.21,6.14-.74,.97-1.62,1.71-2.8,2.09-.91,.3-1.09,.84-.63,1.69,.84,1.53,1.81,2.98,3.11,4.17,.85,.77,1.53,1.69,2.08,2.68,.57,1.03,.33,1.7-.77,2-1.37,.37-2.76,.71-4.23,.85Z" style="fill: #b5b4b5;"/>
      <path d="M65.09,102.07c-1.58,.06-3.13-.32-4.7-.29-3.16,.06-5.42,1.73-7.03,4.23-1.06,1.65-.43,3.43,.41,5.04,.49,.94,1.11,1.82,1.61,2.75,1.48,2.77,1.7,5.65,.69,8.63-.9,2.66-1.79,5.32-2.9,7.9-.15,.35-.27,.76-.69,.88-.54,.16-.97-.03-1.19-.55-.33-.81-.63-1.63-.69-2.51-.05-.74,.23-1.36,.71-1.92,.75-.85,.69-1.41-.18-2.13-.3-.25-.64-.45-1-.57-2.46-.84-4.1-2.57-5.28-4.81-.69-1.31-1.22-2.68-1.71-4.08-.19-.56-.44-1.07-.84-1.51-1.96-2.16-2.17-4.6-1.15-7.23,.36-.92,.81-1.81,1.2-2.72,.48-1.09,.5-2.16,.02-3.29-1-2.34-1.29-4.85-1.7-7.33-.28-1.7-.58-3.39-1.11-5.02-.62-1.9-1.79-3.2-3.77-3.77-2.05-.59-2.74-2.14-1.98-4.13,.12-.32,.25-.63,.42-.92,.85-1.5,1.97-1.94,3.6-1.4,.92,.31,1.81,.68,2.74,.95,1.26,.36,1.81,.09,2.25-1.13,.42-1.18,.75-2.4,1.13-3.6,.04-.14,.08-.28,.12-.42,.27-.77,.56-1.52,1.5-1.69,.97-.17,1.45,.48,1.9,1.16,1.2,1.83,2.84,2.68,5.06,2.39,.99-.13,1.47,.43,1.21,1.41-.33,1.24-.77,2.44-1.1,3.68-.65,2.51,0,4.08,2.23,5.37,1.87,1.08,3.36,2.51,4.29,4.49,.26,.56,.43,1.13,.39,1.75-.1,1.69,.63,3,1.92,4.02,.83,.66,1.7,1.28,2.55,1.92,1.16,.86,2.07,1.95,2.83,3.18,.18,.3,.34,.6,.16,.95-.19,.37-.56,.33-.89,.33-.34,0-.68,0-1.02,0Z" style="fill: #b5b4b5;"/>
      <path d="M85.35,71.18c-.56,0-1.11-.03-1.64-.22-.72-.26-1.24-.68-1.51-1.44-.74-2.01-2.2-3.31-4.24-3.84-3.31-.85-6.68-1.38-10.08-1.61-2.8-.19-5.26,2.31-5.29,5.14-.01,1.37-1.28,2.06-2.5,1.36-.37-.21-.52-.56-.54-.97-.05-.75-.03-1.49,.16-2.23,.45-1.75,.17-3.42-.97-4.8-1.03-1.25-1.18-2.57-.56-3.92,1.72-3.77,1.41-7.63,.72-11.53-.15-.86-.27-1.72-.36-2.58-.12-1.13,.8-1.45,1.54-1.86,.6-.33,.99,.13,1.37,.51,.65,.63,1.37,1.15,2.24,1.44,1.04,.34,1.75,1.06,2.09,2.07,.71,2.14,2.25,3.41,4.23,4.31,4.89,2.21,9.83,2.23,14.82,.39,.82-.3,1.48-.77,1.96-1.52,.61-.96,1.2-1.01,2.12-.33,.86,.63,1.37,1.47,1.36,2.52-.01,.97,.16,1.9,.33,2.85,.19,1.07,.2,2.16,.29,3.25,0,.02,0,.05,0,.07,.85,2.2,.68,4.61,1.41,6.83,.19,.56-.17,.85-.52,1.16-1.29,1.13-2.61,2.23-3.67,3.6-.94,1.22-1.24,1.36-2.75,1.35Z" style="fill: #b5b4b5;"/>
      <path d="M98.12,67.79c3.11,.03,5.68,.65,8.2,1.55,.57,.2,.61,.55,.41,1.02-.24,.56-.68,.92-1.18,1.24-1.91,1.25-2.33,2.29-1.83,4.53,.05,.24,.1,.48,.18,.7,.62,1.78,.57,3.57,.06,5.35-.61,2.13-.69,4.22,.19,6.31,.33,.77,.38,1.61,.05,2.41-.27,.65-.69,1.18-1.45,1.26-.75,.08-1.24-.34-1.59-.94-.23-.39-.42-.81-.59-1.24-1.42-3.53-4.25-5.17-8.05-4.71-1.46,.18-2.92,.43-4.4,.36-1.18-.05-2.3-.32-3.23-1.1-.83-.69-1.13-1.54-.7-2.52,.89-2.01,1.05-4,.14-6.04-.16-.36-.06-.69,.36-.79,1.36-.32,2.29-1.23,3.09-2.28,2.71-3.58,6.39-5.08,10.36-5.14Z" style="fill: #b5b4b5;"/>
      <path d="M120.77,51.83c.01,.41-.16,.63-.48,.69-.31,.06-.42-.15-.49-.41-.04-.15,.01-.4-.24-.37-.18,.02-.27,.22-.22,.4,.13,.49-.16,.76-.5,1.03-1.63,1.31-2.95,2.93-4.41,4.4-.84,.85-1.77,1.12-2.9,.85-4.52-1.09-8.68-2.86-11.91-6.37-1.27-1.38-2.34-2.86-2.84-4.74-.56-2.11-1.83-3.66-4.09-4.17-.56-.13-.8-.51-.8-1.06,0-.73-.04-1.45-.2-2.16-.1-.46,.12-.85,.42-1.19,.51-.55,.95-.51,1.31,.15,.35,.63,.83,1.13,1.42,1.52,1.31,.88,2.52,1.87,4.25,1.95,1.01,.05,2,.52,3.01,.78,.8,.21,1.58,.11,2.36-.14,1.22-.4,2.47-.69,3.75-.81,1.53-.14,2.79,.32,3.76,1.57,1.23,1.6,2.9,2.48,4.86,2.9,.93,.2,1.71,.65,2.52,1.24,1.51,1.08,1.09,2.63,1.45,3.93Z" style="fill: #b5b4b5;"/>
      <path d="M96.53,58.7c.74,2.45,3.09,4.07,5.48,3.76,1.8-.23,3.57-.18,5.34,.12,.19,.03,.38,.07,.56,.13,.25,.08,.42,.24,.39,.53-.03,.27-.23,.34-.46,.38-.45,.08-.91,.15-1.35,.27-.52,.14-.61,.44-.21,.83,.14,.14,.27,.28,.43,.39,.55,.38,.61,.84,.23,1.37-.44,.6-1.06,.8-1.57,.41-2.12-1.64-4.61-1.94-7.14-1.92-1.72,.02-3.12-.52-4.24-1.81-.27-.31-.51-.65-.66-1.03-.4-.98-.73-1.99-1.19-2.95-.32-.66-.1-1.4,.19-2.04,.32-.68,1.11-.65,1.63,.08,.43,.6,.92,.94,1.82,.78-.92-1.17-1.73-2.32-2.66-3.35-1.17-1.3-1.74-2.81-1.93-4.52-.04-.41-.08-.82-.19-1.22-.18-.67-.1-1.23,.5-1.67,.44-.31,1.13-.87,1.71-1.02,1.13-.28,1.84,.04,2.13,1.06,.65,2.34,2.12,4.1,3.87,5.67,1.23,1.09,2.46,2.18,3.61,3.36,1.16,1.17,2.66,1.73,4.19,2.22,.55,.18,1.12,.33,1.65,.54,.71,.29,.93,.74,.79,1.51-.12,.69-.57,1-1.23,.98-2.51-.09-5.02-.19-7.52-.47-.92-.1-1.63-.7-2.33-1.27-.54-.44-1.07-.9-1.85-1.14Z" style="fill: #b5b4b5;"/>
      <path d="M20.16,88.42c0,2.47,0,4.94,0,7.41-.13-.27-.13-.56-.13-.85,0-1.93,0-3.86,0-5.79,0-.27,0-.53,.13-.78Z" style="fill: #b5b4b5;"/>
      <path d="M183.13,48.11h42.05c8.21,0,14.87-6.66,14.87-14.87h0c0-8.21-6.66-14.87-14.87-14.87h-27.18c-8.21,0-14.87,6.66-14.87,14.87v14.87Z" style="fill: #dc4813;"/>
      <g>
        <path d="M197.8,38.21h-1.6v-4.1h-4.13v4.1h-1.61v-9.24h1.61v3.85h4.13v-3.85h1.6v9.24Z" style="fill: #fff;"/>
        <path d="M203.61,38.34c-.98,0-1.77-.31-2.38-.92-.61-.62-.91-1.44-.91-2.46v-.19c0-.69,.13-1.3,.4-1.84,.26-.54,.64-.96,1.11-1.26,.48-.3,1.01-.45,1.6-.45,.94,0,1.66,.3,2.17,.9s.77,1.44,.77,2.53v.62h-4.49c.05,.57,.24,1.02,.57,1.35s.75,.5,1.25,.5c.71,0,1.28-.29,1.73-.86l.83,.79c-.28,.41-.64,.73-1.1,.96-.46,.23-.97,.34-1.55,.34Zm-.18-5.88c-.42,0-.76,.15-1.03,.44-.26,.3-.43,.71-.5,1.24h2.94v-.11c-.03-.52-.17-.91-.41-1.17s-.58-.4-1-.4Z" style="fill: #fff;"/>
        <path d="M210.24,38.21h-1.54v-9.75h1.54v9.75Z" style="fill: #fff;"/>
        <path d="M214.6,38.21h-1.54v-9.75h1.54v9.75Z" style="fill: #fff;"/>
        <path d="M217.03,34.72c0-.67,.13-1.28,.4-1.82,.27-.54,.64-.95,1.12-1.24,.48-.29,1.04-.43,1.66-.43,.93,0,1.68,.3,2.26,.9,.58,.6,.89,1.39,.94,2.37v.36c0,.68-.12,1.28-.38,1.82-.26,.53-.63,.95-1.12,1.24s-1.04,.44-1.68,.44c-.97,0-1.75-.32-2.33-.97s-.87-1.51-.87-2.58v-.08Zm1.54,.13c0,.71,.15,1.26,.44,1.66,.29,.4,.7,.6,1.22,.6s.92-.2,1.21-.61,.44-1,.44-1.78c0-.69-.15-1.24-.45-1.65-.3-.41-.7-.61-1.22-.61s-.9,.2-1.2,.6c-.3,.4-.44,1-.44,1.79Z" style="fill: #fff;"/>
        <path d="M230.16,37.49c0-.24,.08-.44,.23-.6s.37-.24,.64-.24,.49,.08,.64,.24,.24,.36,.24,.6-.08,.43-.23,.58c-.15,.16-.37,.23-.65,.23s-.49-.08-.65-.23c-.15-.16-.23-.35-.23-.58Zm1.52-1.99h-1.33l-.15-6.53h1.62l-.15,6.53Z" style="fill: #fff;"/>
      </g>
    </g>
  </g>
</svg>