<?xml version="1.0" encoding="UTF-8"?>
<svg id="_圖層_2" data-name="圖層 2" xmlns="http://www.w3.org/2000/svg" width="67.02mm" height="42.3mm" viewBox="0 0 189.96 119.89">
  <g id="_圖層_2-2" data-name="圖層 2">
    <g>
      <path d="M120.11,25.88c-3.89,0-7.46,1.27-10.4,3.37,0-.29,.04-.58,.04-.88,0-14.57-11.81-26.38-26.38-26.38-9.36,0-17.56,4.89-22.24,12.24-3.1-5.34-8.82-8.98-15.45-8.98-9.9,0-17.92,8.02-17.92,17.92,0,1.06,.14,2.08,.31,3.08-2.46-1.27-5.2-2.05-8.16-2.05-9.9,0-17.92,8.02-17.92,17.92s7.72,17.55,17.34,17.86c.4,14.22,12.03,25.62,26.34,25.62,11.64,0,21.51-7.55,25-18.02,4.51,8.08,13.13,13.55,23.04,13.55,12.19,0,22.42-8.28,25.44-19.51,.32,.02,.61,.09,.93,.09,9.9,0,17.92-8.02,17.92-17.92s-8.02-17.92-17.92-17.92Z" style="fill: #fff; stroke: #040000; stroke-linecap: round; stroke-miterlimit: 10; stroke-width: 4px;"/>
      <path d="M174.13,71.77c-3,0-5.76,.98-8.03,2.61,0-.23,.03-.45,.03-.68,0-11.25-9.12-20.37-20.37-20.37-7.23,0-13.56,3.78-17.18,9.45-2.39-4.13-6.81-6.94-11.93-6.94-7.64,0-13.84,6.2-13.84,13.84,0,.82,.1,1.6,.24,2.38-1.9-.98-4.02-1.58-6.3-1.58-7.64,0-13.84,6.2-13.84,13.84s5.96,13.55,13.39,13.79c.31,10.98,9.29,19.79,20.34,19.79,8.99,0,16.61-5.83,19.31-13.92,3.48,6.24,10.14,10.46,17.79,10.46,9.41,0,17.31-6.39,19.65-15.07,.24,.01,.47,.07,.72,.07,7.64,0,13.84-6.2,13.84-13.84s-6.2-13.84-13.84-13.84Z" style="fill: #fff; stroke: #040000; stroke-linecap: round; stroke-miterlimit: 10; stroke-width: 4px;"/>
    </g>
  </g>
</svg>