<?xml version="1.0" encoding="UTF-8"?>
<svg id="_圖層_2" data-name="圖層 2" xmlns="http://www.w3.org/2000/svg" width="82.84mm" height="42.28mm" viewBox="0 0 234.81 119.85">
  <g id="_圖層_2-2" data-name="圖層 2">
    <g>
      <g>
        <path d="M112.18,54.49c-.18-.48-.63-.78-1.12-.78-.1,0-.2,.01-.29,.04-.63,.16-1.76,.4-3.37,.72-1.58,.32-2.97,.51-4.12,.59-.02,0-.05,0-.07,0-.59,.07-1.53,.11-2.78,.11-3.58,0-7.76-.77-12.44-2.3,2.08-1.34,4.7-3.28,7.78-5.76,.83,.12,1.31,.26,1.57,.36-.03,.05-.07,.11-.11,.17-.28,.42-.26,.98,.04,1.38,.23,.31,.59,.48,.96,.48,.12,0,.24-.02,.36-.05,1.44-.45,2.82-1.2,4.12-2.22,1.48-1.17,2.23-2.58,2.23-4.18,0-.75-.12-1.36-.36-1.85-.33-.74-1.07-1.7-2.68-2.12-1.05-.27-2.77-.41-5.25-.41l-15.06,.24h-10.9c-.43-.82-1.18-1.55-2.22-2.18,.05-.19,.05-.38,0-.57,.19-.09,.57-.24,1.3-.36,1.84-.31,4.51-.47,7.93-.47,4.14,0,7.16,.16,8.96,.47,.44,.08,.73,.16,.92,.23-.14,.37-.09,.79,.14,1.12,.23,.32,.6,.5,.98,.5,.11,0,.23-.02,.34-.05,.97-.29,1.89-.8,2.74-1.51,1-.83,1.53-2.02,1.53-3.43,0-2.14-1-3.07-1.85-3.47-.12-.06-.25-.11-.39-.16,.24-.16,.47-.34,.7-.53,1-.83,1.53-2.02,1.53-3.43,0-2.14-1-3.07-1.85-3.47-.96-.45-2.54-.67-4.98-.67,0,0-.01,0-.02,0l-9.17,.12h-5.73c-2.69,0-4.62,.22-5.9,.68-1.62,.58-2.51,1.89-2.51,3.7,0,1.25,.45,2.84,2.35,3.94-.99,.39-1.68,1.07-2.05,1.98-.06-.12-.14-.23-.25-.32-.23-.21-.52-.32-.81-.32-.18,0-.37,.04-.54,.13-.07,.04-.29,.12-.81,.12-.27,0-.5-.35-.67-1.05-.3-1.19-.41-3.26-.33-6.16,0-1.39,.02-2.63,.07-3.72,17.26,.02,28.98,.41,34.9,1.18l-.07,1.6c-.16,3.07-.25,4.99-.25,5.68,0,1.99,.25,3.32,.79,4.18,.02,.03,.04,.06,.06,.09,1.29,1.69,3.05,2.55,5.23,2.55,1.71,0,3.2-.45,4.43-1.33,.58-.42,1.15-.91,1.72-1.47,0-.02-.02-.04-.03-.06-.14,.03-.29-.01-.39-.15-.72-.95-1.22-3.92-1.22-4.91,0-2.55,.2-5.34,.6-8.27,0-.01,0-.03,0-.04,.17-1.69,.25-2.81,.25-3.42,0-3.25-1.86-5.11-5.11-5.11-2,0-4.48,.6-7.56,1.83-2.87-.05-5.85-.08-8.94-.12,.45-.28,.88-.59,1.31-.94,1.46-1.21,2.21-2.8,2.21-4.71,0-2.07-1.08-3.54-3.05-4.14-1.6-.49-4.67-.73-9.4-.73-2.82,0-5.17,.04-7,.12l-13.91,.12h-15.03c-5.61,0-9.42,.27-11.66,.83-3.56,.89-4.09,3.29-4.09,4.65,0,2.38,1.37,3.93,3.07,4.94-3.31,.05-6.24,.11-8.79,.19-.7-1.88-2.38-2.91-4.82-2.91-1.91,0-4.36,.66-7.45,1.98,.01,.02,.03,.04,.03,.06,.05,.18,.09,.36,.14,.54,.41,.78,2.17,7.78,2.17,11.57,0,1.38-.24,2.64-.7,3.75-.34,.81-1.85,2.8-2.6,3.45,2.07,2.57,4.4,3.89,6.95,3.89,.76,0,1.31-.05,1.73-.15,1.92-.41,3.24-1.37,3.94-2.86,.61-1.31,.91-3.44,.91-6.5v-4.27c7.36-.58,18.07-.95,31.88-1.11-.03,.77-.05,1.71-.05,2.82l-.12,5.35c0,2.97,.1,5.11,.32,6.56,.25,1.69,.78,2.87,1.62,3.6,.83,.72,1.98,1.09,3.41,1.09,1.71,0,3.31-.74,4.76-2.18,.27-.27,.52-.54,.77-.84,0,.39,.2,.76,.53,.99,.09,.06,.2,.13,.2,.47,0,.29-.12,.81-.67,1.68-.5,.79-1.2,1.56-2.08,2.29-3.76,3.1-9.43,4.58-10.5,4.86-.12,.66-.2,1.27-.2,1.81,0,1.71,.37,3.22,1.09,4.48-.83-.44-1.82-.67-2.94-.67-.77,0-1.55,.12-2.32,.35-1.43-.15-2.91-.22-4.4-.22l-1.31,.04c.69-.55,1.37-1.11,2.04-1.67,.25-.18,.96-.72,3.44-2.71,.4-.32,1.12-.87,2.12-1.63,1.06-.81,1.98-1.61,2.71-2.39,.91-.96,1.37-1.98,1.37-3.02,0-.98-.37-2.36-2.11-3.41-.48-.29-1.01-.52-1.59-.7,.45-.25,.89-.55,1.31-.9,1-.84,1.53-2.02,1.53-3.43,0-1.98-.89-2.92-1.63-3.35-.18-.1-.37-.2-.59-.28,.23-.16,.46-.33,.69-.52,1-.84,1.53-2.02,1.53-3.43,0-1.98-.89-2.92-1.63-3.35-.91-.53-2.32-.78-4.46-.78,0,0-.01,0-.02,0l-7.46,.12h-7.19c-3.1,0-5.23,.22-6.51,.68-1.62,.58-2.51,1.89-2.51,3.7,0,1.25,.45,2.84,2.35,3.94-1.52,.61-2.35,1.89-2.35,3.64,0,1.16,.38,2.61,1.96,3.69h-1.86c-4.15,0-7.01,.26-8.73,.79-2.08,.64-3.23,2.22-3.23,4.45,0,1.39,.51,2.6,1.51,3.6,.43,.43,.92,.82,1.45,1.15,1.27-.64,4.91-1.46,5.6-1.55,.95-.12,2.1-.22,3.44-.3-.49,.33-.95,.77-1.37,1.32-.81,1.06-1.22,2.27-1.22,3.6,0,.24,.03,.65,.28,1.64,.11,.42,.43,.75,.84,.86,.11,.03,.21,.04,.32,.04,.31,0,.62-.12,.85-.35,.26-.26,.43-.26,.5-.26,.28,0,1.02,.13,2.57,1.15h-2.7c-5.29,.08-8.75,.33-10.6,.76-2.29,.53-3.56,2.08-3.56,4.35,0,1.32,.62,2.57,1.86,3.69,.53,.49,1.09,.91,1.67,1.27,1.26-.45,4.29-1.04,4.6-1.11,1.43-.32,3.62-.59,6.53-.81-.7,1.19-1.5,2.27-2.36,3.24-.01,.01-.03,.03-.04,.04-2.35,2.9-4.89,5.24-7.54,6.96-2.56,1.66-4.69,2.5-6.32,2.5-1.28,0-1.57-.48-1.66-.64-.22-.37-.61-.58-1.03-.58-.09,0-.18,0-.27,.03-.5,.11-.88,.54-.93,1.06-.27,2.85,.14,5.21,1.2,7.02,1.15,1.94,2.96,2.97,5.25,2.97s4.84-1.06,7.44-3.22c.12,.32,.37,.58,.71,.7,2.25,.83,4.35,2.32,6.24,4.44,.01,.02,.03,.03,.05,.05,.23,.23,.76,.78,1.57,1.63,.85,.89,1.74,1.69,2.65,2.39,1.07,.81,2.32,1.22,3.72,1.22,2.09,0,3.83-.92,5.02-2.66,1.13-1.65,1.68-4.49,1.68-8.69,0-1.23-.04-2.25-.13-3.03-.16-3.03-.24-6.33-.24-9.81,0-.34,0-.67,0-.99,.26,.74,.63,1.46,1.12,2.16,1.11,1.62,2.64,2.47,4.41,2.47,1.29,0,2.36-.4,3.2-1.18,.68-.64,1.48-1.7,2.44-3.26,.26-.36,.59-.87,1.02-1.59l.56-.96c.09-.11,.27-.32,.55-.66,.02-.03,.05-.06,.07-.09,1.09-1.6,1.84-2.78,2.27-3.6,.5-.96,.75-1.76,.75-2.45,0-.59-.12-1.13-.34-1.62,.61,.33,1.31,.49,2.08,.49,.89,0,1.81-.21,2.74-.62-.74,.68-1.35,1.46-1.83,2.32-.67,1.2-1.01,2.36-1.01,3.46,0,1.01,.31,1.92,.93,2.7,.62,.8,1.5,1.31,2.6,1.53,.88,.18,1.65,.27,2.31,.27,2.53,0,5.71-.7,9.44-2.08,0,.12,.01,.23,.04,.35,.13,.46,.53,.8,1,.86,.45,.06,.64,.24,.75,.37,.15,.18,.24,.4,.27,.67h-10.16c-4.8,0-7.96,.23-9.68,.72-2.1,.59-3.26,2.11-3.26,4.27,0,1.73,.66,3.22,1.98,4.43,.46,.43,.94,.8,1.43,1.13,.44-.16,.9-.3,1.37-.36,.53-.06,3.43-.67,4.25-.85,.33-.07,.71-.14,1.12-.2,0,0,.01,0,.02,0,.04-.01,.07-.01,.11-.01,1.7-.26,4.02-.46,6.96-.6-2.05,1.65-4.31,3.01-6.74,4.06-3.42,1.48-15.21,1.4-15.38,1.34-.9,1.74-1.36,3.42-1.36,5.02,0,1.78,.54,3.25,1.61,4.37,1.03,1.08,2.3,1.73,3.77,1.94,.43,.1,1.05,.14,1.93,.14,3.61,0,7.9-1.35,12.74-4,4.78-2.62,9.4-6.39,13.7-11.19l1.63-1.93,7.89-.11c2.05,0,3.75,.07,5.06,.19-.03,.11-.07,.21-.1,.31,0,.03-.02,.06-.02,.08-.57,2.3-.99,3.3-1.23,3.74-.27,.48-.66,.82-1.2,1.05-1.09,.36-2.64,.54-4.6,.54s-3.57,.08-4.7,.26c-.57,.09-1,.57-1.02,1.14-.02,.58,.37,1.08,.94,1.21,1.3,.29,2.34,.72,3.1,1.27,.8,.58,1.79,1.62,2.94,3.07,.02,.02,.03,.04,.05,.06,1.47,1.64,2.72,2.8,3.83,3.55,1.02,.7,2.18,1.05,3.43,1.05,.29,0,.58-.02,.88-.06,1.5-.23,2.71-1.3,3.62-3.17,.75-1.54,1.44-3.52,2.1-6.03,.14-.33,.25-.78,.4-1.35,.21-.82,.5-2.04,.89-3.67,.93-3.53,1.38-5.87,1.38-7.13,0-1.38-.36-2.51-1.06-3.33,1.58-.06,2.86-.5,3.81-1.32,.89-.75,2.18-2.23,3.96-4.52,1.6-2.14,3.15-3.58,4.6-4.31,.55-.27,.8-.91,.59-1.49Zm-42.43-26.99c1.78-.58,4.51-.47,7.93-.47,4.14,0,7.24-.16,8.96,.47,.76,.28,.9,1.01,.89,1.04-.33,0-.68-.01-1.05-.01,0,0-.01,0-.02,0l-9.17,.12h-5.73c-1.17,0-2.19,.04-3.08,.13,0-.07,.05-.87,1.27-1.27Zm-9.46-17.74h3.57c6.03,0,10.53,.16,13.38,.48,.58,.07,1.06,.13,1.46,.2,.84,.15,1.43,.93,1.33,1.77,0,0,0,0,0,0-6.22-.05-12.82-.08-19.74-.08v-2.38Zm-9.78,2.51c-7.19,0-13.56,.03-19.08,.09,0,0,0,0,0,0-.08-.82,.49-1.57,1.29-1.73,.37-.07,.82-.14,1.38-.2,3.08-.34,8.61-.56,16.45-.65,0,.6-.02,2.01-.04,2.49Zm-7.03,24.33c-.83,0-1.7,.13-2.59,.35-2-.15-6.2-.23-12.48-.23h-3.6c.04-.18,.04-.38,0-.56,.22-.1,.64-.24,1.41-.36,2.01-.31,5.35-.47,9.9-.47,5.05,0,6.84,.44,7.44,.69-.07,.19-.1,.39-.07,.58Zm-17.27-9.06c10.29-1.63,17.32,.96,17.31,.99-.1,0-.21,0-.32,0,0,0-.01,0-.02,0l-7.46,.12h-7.19c-1.44,0-2.66,.05-3.69,.14,0-.07-.45-.96,1.37-1.25Zm.51,47.35c-.13,1.65-.57,2.78-1.3,3.33-.81,.62-1.87,.92-3.25,.92-.61,0-1.64-.08-3.05-.24-1.35-.17-2.28-.25-2.82-.25-.16,0-.32,0-.46,0,.22-.22,.44-.45,.66-.68,3.33-3.53,6.52-7.53,9.47-11.88,.31-.45,.64-.96,.99-1.52-.01,4.31-.1,7.77-.24,10.32Zm3.69-26.21l-.31-.23c-.65-.48-1.48-1.13-2.48-1.93-1.05-.84-1.97-1.45-2.79-1.86,1.5-.03,3.14-.04,4.92-.04,2.42,0,4.4,.04,5.93,.11-1.78,1.47-3.54,2.79-5.27,3.95Zm7.17,13.96c-.15,0-.4-.04-.74-.38-.23-.23-.54-.35-.85-.35-.15,0-.31,.03-.46,.09-.1,.04-.18,.09-.26,.15,.01-.55,.02-1.06,.04-1.51,2.17,.01,3.69,.06,4.75,.12-1.48,1.72-2.25,1.88-2.48,1.88Zm25.58-29.46c.02,.64,.16,1.36,.55,2.05-.2-.01-.39-.02-.59-.02-.32,0-.64,.02-.96,.05-.07,0-.13,.02-.2,.04,.45-.66,.85-1.36,1.2-2.12Zm-2.47,22.25c-1.31,0-1.75-.22-1.86-.3,.02-.46-.22-.91-.62-1.13-.15-.08-.32-.13-.49-.15,.08-.05,.16-.11,.24-.16,1.18-.83,2.95-2.22,5.26-4.13-.04,.23-.06,.47-.06,.71,0,.92,.25,1.83,.74,2.72,.54-.03,5.11,.36,5.76,.53-3.54,1.26-6.55,1.9-8.97,1.9Zm11.27-8.36c.19,0,.38,0,.58,0l11.05-.12h.59c-.55,.35-5.33,2.36-5.33,2.36-.7-.3-5.98-1.9-6.88-2.23Zm18.81,17.9l-9.58,.1c0-.12,0-.25,0-.38,0-1.6-.81-2.85-2.28-3.53-1.3-.56-2.67-.84-4.11-.84,1.68-.79,3.38-1.65,5.11-2.59l2.75,1.32c2.43,1.13,5.12,2.48,8.01,4,.91,.53,1.72,.98,2.43,1.36-.81,.09-1.59,.27-2.33,.56Z" style="fill: #231815;"/>
        <g>
          <path d="M234.75,31.39c-.16-.5-.63-.82-1.14-.82-.07,0-.14,0-.2,.02l-3.51,.61c-.74,.08-1.61,.21-2.59,.37-.95,.16-2.09,.32-3.49,.48-1.86,.16-3.27,.24-4.14,.24-2.91,0-5.9-.38-8.88-1.13-2.55-.64-5.36-1.67-8.39-3.09l4.35-3.7c3.83-3.25,6.41-5.57,7.91-7.11,1.69-1.73,2.54-3.43,2.54-5.05,0-1.73-.76-3.08-2.19-3.91-1.24-.72-2.76-1.08-4.51-1.08s-3.39,.33-4.8,.98h-12.3c.54-.97,.81-1.91,.81-2.84,0-1.68-.7-3.07-2.02-4.03-1.22-.88-2.84-1.33-4.8-1.33-1.1,0-2.4,.21-3.99,.65-.49,.14-.85,.57-.88,1.09-.03,.51,.27,.99,.75,1.18,.44,.18,.47,.36,.47,.6,0,.27-.11,.87-.87,1.93-.66,.92-1.57,1.85-2.71,2.76-3.08,2.45-5.96,4.27-8.54,5.4-2.52,1.11-10.68,1.7-12.19,1.25-.65,2.02-1,3.92-1,5.66,0,2.28,.63,4.07,1.88,5.31,1.24,1.25,2.95,1.88,5.06,1.88s4.4-.84,7.22-2.56c1.21-.74,2.62-1.67,4.22-2.81-.52,.92-.78,1.98-.78,3.19,0,.83,.14,1.67,.4,2.52,1.41-.04,6.68,1.03,8.56,1.81-2.6,1.57-5.31,2.8-8.07,3.69-3.41,1.1-6.55,1.65-9.35,1.65-2.02,0-3.65-.29-4.87-.86-1.5-.71-1.61-1.43-1.65-1.67-.08-.49-.45-.88-.93-.99-.08-.02-.17-.03-.25-.03-.4,0-.78,.2-1,.54-1.35,2.07-2.03,4.51-2.03,7.26,0,2.09,.49,3.95,1.46,5.52,1.05,1.71,2.48,2.68,4.24,2.88,.5,.06,1.05,.09,1.62,.09,1.31,0,2.76-.16,4.36-.49-.85,.88-1.29,2.05-1.29,3.49,0,1.8,.66,3.35,1.96,4.59,1.13,1.09,2.54,1.96,4.17,2.59-.06,.02-.13,.04-.19,.06-2.29,.78-3.5,2.5-3.5,4.98,0,1.81,.68,3.36,2.03,4.61,.92,.85,1.98,1.54,3.18,2.06-2.29,.05-4.16,.14-5.59,.27-2.41,.22-4.18,.7-5.41,1.46-.99,.61-2.16,1.83-2.16,4.2,0,1.87,.65,3.47,1.94,4.76,.66,.66,1.42,1.21,2.26,1.65,.47-.18,6.53-2.36,10.3-2.65,2.92-.22,7.06-.38,12.31-.47,.09,3.2,.27,5.71,.53,7.46,.32,2.18,.91,3.69,1.78,4.62,.92,.98,2.31,1.48,4.11,1.48,2.21,0,4.07-.79,5.52-2.33,1.27-1.36,2.52-3.08,3.71-5.1,.25-.43,.21-.97-.1-1.36-.23-.29-.58-.44-.93-.44-.13,0-.25,.02-.38,.06-.76,.25-1.21,.31-1.46,.31-.47,0-.82-.14-1.08-.82-.21-.55-.49-1.65-.68-3.87,7.5,.03,12.7,.31,15.48,.83,1.64,.31,6.51,1.84,6.69,1.89,2.91-1.51,4.39-3.64,4.39-6.37,0-2.15-1.06-3.29-1.95-3.88-1.12-.73-2.92-1.19-5.5-1.41-1.82-.16-4.42-.25-7.76-.29,3.85-1.51,5.79-3.87,5.79-7.01,0-2.31-1.1-3.93-3.18-4.67-.11-.04-.23-.08-.35-.11,1.71-.66,3.19-1.47,4.4-2.39,1.53-1.17,2.3-2.87,2.3-5.05,0-2.32-1.17-3.94-3.39-4.68-1.86-.62-5.18-.92-10.16-.92l-6.33,.1c.06-2.33-.16-3.93-.66-4.98-.68-1.41-2.27-2.27-4.73-2.57-.49-.06-.98-.09-1.44-.09-1.37,0-2.61,.27-3.68,.82,1.69-1.09,3.36-2.26,4.98-3.5l7.1,4.14c3.99,2.37,7.17,4.11,9.44,5.18,2.39,1.13,4.64,1.7,6.68,1.7,2.22,0,4.12-.6,5.63-1.78,1.38-1.08,2.78-2.58,4.14-4.46,2.64-3.57,4.88-5.84,6.66-6.72,.53-.27,.79-.88,.6-1.45Zm-35.27,22.99c4.13,.1,7.34,.33,9.55,.69,1.77,.29,2.43,.65,2.65,.81-.06,.11-.16,.27-.32,.49-.26,.37-.29,.84-.1,1.23-1.68-.26-3.87-.39-6.63-.39l-5.16,.1v-2.94Zm-.12,12.23c3.08,.1,5.48,.31,7.14,.62,1.69,.32,1.96,.74,1.96,.74,0,.13-.13,.32-.23,.45-.32,.4-.35,.95-.08,1.39-.23,0-.46,0-.7,0h-8.09v-3.19Zm-21.95-22.01c3.07-1.26,6.08-2.76,9-4.45,.04,.05,.12,.1,.24,.16,.46,.23,1.41,4.62,1.5,4.8h-6.36c-2.4,0-4.44,.07-6.16,.2,.58-.22,1.18-.46,1.78-.71Zm11.25,25.2h-9.44c-.58,0-1.14,0-1.68,0,.25-.4,.25-.91-.02-1.31-.01-.02-.04-.12-.04-.31h0s.32-.52,2.49-.9c2.02-.35,4.96-.59,8.75-.69-.03,.92-.05,1.99-.06,3.2Zm.24-12.49l-6.73-.1c-3.02,0-5.4,.17-7.22,.53,.26-.38,.28-.88,.04-1.28-.12-.2-.12-.29-.12-.29h0s.28-.47,2.15-.86c2.42-.51,6.45-.83,11.97-.93l-.08,2.95Zm4.6-33.72l-1.73-.95c-2.5-1.42-4.28-2.34-5.44-2.81-1.24-.51-2.57-.76-3.94-.76-.02,0-.05,0-.07,0-.45,.03-.89,.09-1.31,.2,.62-.47,1.27-.97,1.93-1.48,3.33-.07,9.16-.11,17.37-.11-1.77,1.63-4.05,3.61-6.8,5.91Z" style="fill: #231815;"/>
          <path d="M157.34,64.27c-.4-1.96-.69-4.92-.77-8.81v-5.35c0-11.09,.25-20.44,.73-27.79,.27-2.9-.04-4.94-.96-6.22-.97-1.35-2.57-2.03-4.76-2.03-1.93,0-3.6,.43-4.97,1.28-1.04,.65-2.19,1.56-3.43,2.73,.09-3.08,.2-5.5,.31-7.26,0-.01,0-.03,0-.04,.09-3.06-.28-5.15-1.12-6.39-.93-1.36-2.56-2.05-4.84-2.05-2,0-3.8,.47-5.33,1.4-1.43,.87-2.86,2.05-4.23,3.5-.36,.39-.43,.97-.16,1.42,.22,.37,.62,.59,1.03,.59,.09,0,.19-.01,.29-.03,.16-.04,.46-.09,.94-.09,.94,0,1.49,.31,1.86,1.05,.49,.98,.77,2.57,.85,4.74V60.54l-3.95,.53c.16-17.01,.4-28.99,.72-35.61,.18-2.96-.14-5.04-.99-6.33-.93-1.42-2.56-2.13-4.85-2.13-2,0-3.8,.47-5.33,1.4-1.44,.88-2.83,2.06-4.13,3.53-.35,.39-.4,.97-.13,1.41,.22,.36,.61,.58,1.02,.58,.1,0,.19-.01,.29-.04,.16-.04,.45-.09,.93-.09,1.16,0,1.55,.52,1.79,1.02,.46,.99,.73,2.59,.8,4.77V62.51c-3.81,1.22-4.65,3.72-4.65,5.68s.84,4.4,2.56,7.4c1.63-.83,8.63-3.19,11.47-3.79l2.43-.49c6.99-1.38,12.47-2.42,16.32-3.08,.23,1.62,.63,2.94,1.23,4.01,.6,1.09,1.84,2.39,4.35,2.39,2.79,0,5.4-1.73,7.79-5.16-.09-.05-2.56-2.43-3.13-5.22Zm-10.38-5.67l-4.33,.63c0-8.47,.09-17.61,.24-27.2,.07-4.27,.14-8,.22-11.18,.05,0,.11,.01,.17,.01,.1,0,.19-.01,.29-.04,.16-.04,.45-.09,.94-.09,.84,0,1.34,.29,1.67,.97,.45,.94,.72,2.48,.8,4.57V58.6Z" style="fill: #231815;"/>
        </g>
      </g>
      <g>
        <g>
          <path d="M135.93,113.47c-1.28,0-2.29-.31-3.02-.94-.73-.63-1.32-1.49-1.75-2.59-.43-1.1-.83-2.35-1.21-3.76l-3.05-11.32c-.23-.88-.18-1.7,.16-2.47,.34-.77,1-1.27,1.98-1.53,.92-.25,1.74-.19,2.45,.19,.71,.38,1.2,1.04,1.45,1.98l2.83,10.35c.25,.9,.52,1.56,.8,1.98s.74,.56,1.37,.41c.59-.15,.9-.47,.94-.97,.04-.5-.06-1.22-.31-2.14l-2.01-7.64c-.27-1.05-.24-1.95,.11-2.72,.35-.76,1.03-1.26,2.06-1.49,1.05-.25,1.89-.12,2.53,.39,.64,.51,1.07,1.23,1.31,2.15l2.55,10.03c.27,1.03,.57,1.72,.9,2.08,.32,.36,.75,.46,1.27,.31,.59-.17,.87-.5,.85-.99-.02-.49-.09-1.21-.22-2.15-.19-1.47-.35-2.67-.49-3.62-.14-.94-.24-1.73-.31-2.36-.07-.63-.11-1.21-.11-1.73,0-1.17,.35-2.18,1.04-3,.69-.83,1.64-1.24,2.83-1.24s2.14,.37,2.77,1.12c.63,.74,.94,1.77,.94,3.07,0,.84-.12,1.72-.36,2.64-.24,.92-.48,1.79-.71,2.61l-1.76,6.07c-.4,1.38-.79,2.63-1.18,3.73-.39,1.1-.91,1.97-1.56,2.61-.65,.64-1.57,.96-2.77,.96-1.45,0-2.58-.45-3.4-1.35-.82-.9-1.45-2.38-1.89-4.43h-.22c-.42,2.06-.97,3.53-1.67,4.43-.69,.9-1.74,1.35-3.15,1.35Z" style="fill: #231815;"/>
          <path d="M160.09,113.37c-1.47,0-2.66-.56-3.59-1.67-.92-1.11-1.39-2.67-1.42-4.69l-.03-7.27c0-.9,.28-1.61,.83-2.12,.56-.51,1.32-.77,2.28-.77s1.67,.26,2.23,.77c.57,.51,.85,1.22,.85,2.12v6.57c0,1.57,.62,2.36,1.86,2.36,.61,0,1.02-.22,1.23-.68,.21-.45,.31-1.03,.31-1.75v-6.51c0-.82,.28-1.5,.85-2.06,.57-.56,1.3-.83,2.2-.83s1.67,.28,2.19,.83c.51,.56,.77,1.24,.77,2.06v10.32c0,1.01-.23,1.81-.68,2.41-.45,.6-1.18,.9-2.19,.9s-1.76-.3-2.31-.9c-.56-.6-.83-1.4-.83-2.41v-.53h-.57c0,1.22-.36,2.16-1.09,2.83-.72,.67-1.69,1.01-2.91,1.01Z" style="fill: #231815;"/>
          <path d="M177.76,113.37c-.88,0-1.6-.28-2.15-.83-.56-.56-.83-1.25-.83-2.09v-7.01c-.55,.13-1.04,.05-1.48-.22s-.79-.68-1.05-1.23c-.26-.54-.39-1.14-.39-1.79s.14-1.25,.41-1.81c.27-.56,.63-.98,1.09-1.27,.45-.29,.95-.36,1.49-.19,.1-1.55,.36-2.93,.75-4.14,.4-1.21,1.01-2.15,1.84-2.85,.83-.69,1.91-1.04,3.26-1.04,1.15,0,2.08,.24,2.77,.71s1.18,1.05,1.46,1.75c.28,.69,.37,1.39,.27,2.11-.11,.69-.39,1.3-.85,1.81-.46,.51-1.14,.77-2.04,.77-.63,0-1.15-.13-1.57-.38-.42-.25-.77-.56-1.05-.93s-.53-.72-.74-1.05c-.52-.84-1.06-1.12-1.6-.85-.27,.15-.42,.38-.44,.71-.02,.33,.08,.7,.31,1.12l.69,1.19c.36,.59,.73,.97,1.13,1.15,.4,.18,.9,.23,1.51,.14l1.51-.22c.96-.15,1.75,.12,2.36,.79,.61,.67,.91,1.5,.91,2.48s-.31,1.85-.93,2.47c-.62,.62-1.38,.88-2.28,.77l-1.32-.16v7.17c0,.84-.27,1.54-.82,2.09-.55,.56-1.28,.83-2.2,.83Z" style="fill: #231815;"/>
          <path d="M185.12,105.2c0-1.66,.33-3.11,.99-4.37,.66-1.26,1.6-2.24,2.83-2.96,1.23-.71,2.69-1.07,4.39-1.07,1.32,0,2.51,.24,3.57,.72,1.06,.48,1.89,1.13,2.5,1.93,.61,.81,.91,1.69,.91,2.66s-.29,1.72-.88,2.14c-.59,.42-1.46,.63-2.61,.63h-6.6c0,.55,.21,1,.64,1.35,.43,.36,1.16,.53,2.19,.53,.52,0,1.01-.05,1.46-.16,.45-.1,.91-.2,1.38-.3,.47-.09,1-.14,1.59-.14,.84,0,1.53,.3,2.08,.9,.54,.6,.82,1.42,.82,2.47,0,1.24-.63,2.2-1.9,2.89-1.27,.69-2.93,1.04-4.98,1.04-1.45,0-2.8-.28-4.07-.85-1.27-.57-2.3-1.46-3.1-2.69-.8-1.23-1.2-2.8-1.2-4.73Zm10.19-1.35c.31,0,.42-.15,.31-.44-.08-.29-.34-.6-.75-.91-.42-.31-1.03-.47-1.82-.47-.92,0-1.61,.2-2.06,.6-.45,.4-.68,.81-.68,1.23h5Z" style="fill: #231815;"/>
          <path d="M204.84,113.37c-.92,0-1.66-.28-2.22-.83-.56-.56-.83-1.24-.83-2.06v-10.41c0-.88,.26-1.62,.79-2.23,.52-.61,1.28-.91,2.26-.91s1.7,.3,2.2,.91c.5,.61,.75,1.37,.75,2.3v1.57h.57c0-1.2,.21-2.14,.64-2.83,.43-.69,.98-1.19,1.65-1.49,.67-.3,1.34-.46,2.01-.46,1.61,0,2.8,.58,3.55,1.75,.75,1.16,1.13,2.82,1.13,4.95v6.86c0,.82-.27,1.5-.82,2.06-.55,.56-1.28,.83-2.2,.83s-1.69-.28-2.25-.83c-.56-.56-.83-1.24-.83-2.06v-5.57c0-.76-.14-1.34-.42-1.76-.28-.42-.7-.63-1.24-.63-.63,0-1.09,.23-1.37,.69s-.42,1.05-.42,1.76v5.5c0,.82-.26,1.5-.79,2.06-.52,.56-1.25,.83-2.17,.83Z" style="fill: #231815;"/>
          <path d="M226.32,119.85c-1.28,0-2.36-.14-3.26-.41-.89-.27-1.75-.69-2.56-1.26-.71-.5-1.22-1.21-1.51-2.11-.29-.9-.15-1.81,.44-2.74,.38-.57,.8-.95,1.27-1.16,.47-.21,.93-.3,1.38-.27,.45,.03,.84,.13,1.18,.3,.73,.36,1.31,.61,1.71,.77,.41,.16,.88,.24,1.4,.24,.78,0,1.43-.27,1.97-.82,.53-.55,.8-1.31,.8-2.3v-2.55h-.57c-.15,1.11-.57,1.99-1.27,2.63-.7,.64-1.66,.96-2.88,.96-.92,0-1.82-.23-2.7-.69-.88-.46-1.6-1.19-2.17-2.2-.57-1.01-.85-2.34-.85-3.99,0-2.43,.53-4.25,1.6-5.44,1.07-1.19,2.45-1.79,4.15-1.79,1.17,0,2.18,.39,3.02,1.18,.84,.79,1.26,1.88,1.26,3.29l.09-.03v-1.76c0-.73,.24-1.38,.71-1.93,.47-.56,1.21-.83,2.22-.83,1.07,0,1.84,.28,2.31,.83,.47,.56,.71,1.2,.71,1.93l.03,9.91c.02,2.18-.25,4.04-.8,5.57-.56,1.53-1.46,2.69-2.7,3.49-1.25,.8-2.91,1.19-4.98,1.19Zm-2.33-16.13c0,1.13,.75,1.7,2.26,1.7,.99,0,1.68-.14,2.08-.41,.4-.27,.6-.7,.6-1.29s-.2-1.03-.61-1.26c-.41-.23-1.11-.35-2.09-.35-.71,0-1.26,.12-1.65,.35-.39,.23-.58,.65-.58,1.26Z" style="fill: #231815;"/>
        </g>
        <g>
          <path d="M3.36,98.42c-.99,0-1.8-.29-2.42-.86C.31,96.99,0,96.19,0,95.18s.28-1.79,.85-2.39c.56-.6,1.4-.91,2.51-.91h12.81c1.11,0,1.95,.3,2.51,.91,.56,.6,.85,1.4,.85,2.39s-.31,1.8-.94,2.38c-.62,.57-1.43,.86-2.42,.86-.67,0-1.21-.07-1.62-.22-.41-.15-.74-.33-1-.54-.26-.21-.5-.39-.74-.53-.24-.15-.53-.22-.89-.22l-.27,.53c.08,.18,.22,.43,.42,.76,.2,.33,.39,.79,.56,1.4,.18,.6,.27,1.42,.27,2.45v8.59c0,.81-.3,1.49-.91,2.02-.6,.53-1.34,.8-2.21,.8s-1.64-.27-2.24-.8c-.6-.53-.91-1.21-.91-2.02v-8.59c0-1.03,.09-1.85,.27-2.45,.18-.6,.37-1.07,.58-1.4,.21-.33,.35-.58,.43-.76l-.3-.53c-.36,0-.65,.07-.89,.22-.24,.15-.49,.33-.74,.53-.26,.21-.58,.39-.98,.54-.4,.15-.94,.22-1.63,.22Z" style="fill: #231815;"/>
          <path d="M20.09,113.46c-1.47,0-2.61-.4-3.43-1.19-.82-.79-1.23-1.9-1.23-3.33s.48-2.46,1.43-3.1c.95-.64,2.17-.97,3.65-.97,.87,0,1.66,.06,2.38,.18s1.36,.29,1.93,.51h.09v-.45c0-.46-.17-.82-.5-1.08-.34-.27-.76-.39-1.28-.37-.5,0-.92,.03-1.26,.09-.35,.06-.78,.16-1.29,.3-.95,.24-1.77,.22-2.47-.06-.69-.28-1.17-.82-1.43-1.63-.24-.85-.18-1.56,.16-2.14,.35-.57,.88-1.02,1.59-1.34,.61-.3,1.3-.54,2.06-.74,.76-.2,1.59-.3,2.48-.3,2.59,0,4.5,.63,5.72,1.89,1.22,1.26,1.83,3.36,1.83,6.31v4.61c0,.81-.25,1.49-.74,2.02-.5,.53-1.18,.8-2.05,.8-.95,0-1.66-.27-2.12-.8-.47-.53-.7-1.19-.7-1.96v-.68h-.59c0,.52-.09,1.04-.28,1.57-.19,.53-.57,.98-1.16,1.34-.58,.36-1.51,.53-2.78,.53Zm.3-6.51c0,.34,.12,.57,.37,.71,.25,.14,.79,.21,1.62,.21,.75,0,1.28-.07,1.57-.21,.3-.14,.45-.38,.45-.71,0-.32-.15-.54-.45-.67-.3-.13-.82-.19-1.57-.19-.83,0-1.37,.06-1.62,.19-.25,.13-.37,.35-.37,.67Z" style="fill: #231815;"/>
          <path d="M31.94,94.47c0-.85,.26-1.54,.79-2.06s1.25-.79,2.18-.79c.99,0,1.73,.26,2.21,.77,.49,.52,.73,1.2,.73,2.05s-.24,1.5-.73,2.01c-.49,.51-1.22,.76-2.21,.76s-1.71-.25-2.21-.76c-.51-.5-.76-1.16-.76-1.98Zm2.97,18.99c-.93,0-1.62-.26-2.08-.77-.46-.51-.68-1.16-.68-1.93v-10.16c0-.85,.23-1.53,.68-2.02,.46-.49,1.15-.74,2.08-.74s1.63,.25,2.09,.74c.47,.5,.7,1.15,.7,1.96v10.22c0,.77-.24,1.42-.73,1.93-.49,.52-1.17,.77-2.06,.77Z" style="fill: #231815;"/>
          <path d="M46.68,113.55c-1.55,0-2.91-.32-4.1-.97-1.19-.64-2.12-1.56-2.79-2.75-.67-1.19-1.01-2.58-1.01-4.19s.34-3,1.01-4.19c.67-1.19,1.61-2.11,2.81-2.76,1.2-.65,2.58-.98,4.15-.98,1.23,0,2.31,.13,3.25,.39,.94,.26,1.68,.64,2.23,1.16,.54,.52,.82,1.16,.82,1.93,0,.93-.24,1.66-.71,2.18-.48,.53-1.16,.79-2.05,.79-.59,0-1.18-.09-1.77-.27-.58-.18-1.33-.27-2.24-.27-.75,0-1.39,.12-1.9,.36-.52,.24-.77,.67-.77,1.31s.26,1.12,.77,1.41c.51,.29,1.15,.43,1.9,.43,.61,0,1.13-.06,1.55-.18s.81-.24,1.19-.36c.38-.12,.8-.18,1.28-.18,1.01,0,1.76,.29,2.24,.88,.49,.58,.73,1.33,.73,2.24,0,.77-.29,1.46-.86,2.06-.57,.6-1.36,1.08-2.35,1.43-.99,.35-2.11,.52-3.36,.52Z" style="fill: #231815;"/>
          <path d="M57.26,113.46c-.87,0-1.56-.26-2.06-.79-.51-.52-.76-1.17-.76-1.95v-17.2c0-.83,.25-1.53,.76-2.11,.51-.57,1.22-.86,2.15-.86s1.6,.29,2.06,.86c.47,.57,.7,1.29,.7,2.14v8.88h.53c0-1.13,.2-2.02,.61-2.67,.41-.65,.93-1.12,1.57-1.41,.64-.29,1.3-.43,1.98-.43,1.19,0,2.09,.29,2.72,.88,.62,.58,1.05,1.36,1.28,2.33,.23,.97,.34,2.03,.34,3.18v6.42c0,.81-.26,1.47-.79,1.98-.53,.51-1.22,.76-2.09,.76s-1.59-.25-2.11-.76c-.52-.51-.77-1.16-.77-1.98v-5.26c0-.71-.14-1.27-.42-1.66-.28-.4-.68-.59-1.22-.59s-.94,.22-1.22,.65c-.28,.44-.42,.99-.42,1.66v5.2c0,.77-.25,1.42-.76,1.95-.51,.53-1.2,.79-2.09,.79Z" style="fill: #231815;"/>
          <path d="M75.44,113.46c-1.39,0-2.52-.52-3.39-1.57-.87-1.05-1.32-2.53-1.34-4.43l-.03-6.86c0-.85,.26-1.52,.79-2.01,.52-.48,1.24-.73,2.15-.73s1.57,.24,2.11,.73c.53,.49,.8,1.15,.8,2.01v6.21c0,1.49,.58,2.23,1.75,2.23,.57,0,.96-.21,1.16-.64,.2-.43,.3-.98,.3-1.65v-6.15c0-.77,.27-1.42,.8-1.95,.53-.52,1.23-.79,2.08-.79s1.58,.26,2.06,.79c.49,.53,.73,1.17,.73,1.95v9.75c0,.95-.21,1.71-.64,2.27-.43,.56-1.11,.85-2.06,.85s-1.66-.28-2.18-.85c-.53-.56-.79-1.32-.79-2.27v-.51h-.53c0,1.15-.34,2.04-1.03,2.67-.68,.63-1.6,.95-2.75,.95Z" style="fill: #231815;"/>
          <path d="M89.85,113.46c-.87,0-1.57-.26-2.09-.79-.53-.52-.79-1.17-.79-1.95v-9.83c0-.83,.25-1.53,.74-2.11,.49-.57,1.21-.86,2.14-.86s1.6,.29,2.08,.86c.48,.57,.71,1.3,.71,2.17v1.49h.53c0-1.13,.2-2.02,.61-2.67,.41-.65,.93-1.12,1.56-1.41,.63-.29,1.27-.43,1.9-.43,1.53,0,2.64,.55,3.36,1.65,.71,1.1,1.07,2.66,1.07,4.68v6.48c0,.77-.26,1.42-.77,1.95-.52,.53-1.21,.79-2.08,.79s-1.6-.26-2.12-.79c-.53-.52-.79-1.17-.79-1.95v-5.26c0-.71-.13-1.27-.4-1.66-.27-.4-.66-.59-1.17-.59-.59,0-1.03,.22-1.29,.65-.27,.44-.4,.99-.4,1.66v5.2c0,.77-.25,1.42-.74,1.95-.5,.53-1.18,.79-2.05,.79Z" style="fill: #231815;"/>
          <path d="M110.14,119.58c-1.21,0-2.23-.13-3.08-.39-.84-.26-1.65-.65-2.42-1.19-.67-.48-1.15-1.14-1.43-1.99-.28-.85-.14-1.71,.42-2.58,.36-.53,.76-.9,1.2-1.1,.45-.2,.88-.28,1.31-.25,.43,.03,.8,.12,1.11,.28,.69,.34,1.23,.58,1.62,.73,.39,.15,.83,.22,1.32,.22,.73,0,1.35-.26,1.86-.77,.5-.51,.76-1.24,.76-2.17v-2.41h-.54c-.14,1.05-.54,1.88-1.2,2.48-.66,.6-1.57,.91-2.72,.91-.87,0-1.72-.22-2.56-.65-.83-.44-1.52-1.13-2.05-2.08s-.8-2.21-.8-3.77c0-2.3,.51-4.01,1.52-5.14,1.01-1.13,2.32-1.69,3.92-1.69,1.11,0,2.06,.37,2.85,1.11,.79,.74,1.19,1.78,1.19,3.1l.09-.03v-1.66c0-.69,.22-1.3,.67-1.83,.45-.52,1.14-.79,2.09-.79,1.01,0,1.74,.26,2.18,.79,.45,.53,.67,1.13,.67,1.83l.03,9.36c.02,2.06-.23,3.81-.76,5.26-.53,1.45-1.38,2.55-2.56,3.3-1.18,.75-2.75,1.13-4.71,1.13Zm-2.2-15.24c0,1.07,.71,1.6,2.14,1.6,.93,0,1.58-.13,1.96-.39,.38-.26,.56-.66,.56-1.22s-.19-.97-.58-1.19c-.39-.22-1.05-.33-1.98-.33-.67,0-1.19,.11-1.56,.33-.37,.22-.55,.61-.55,1.19Z" style="fill: #231815;"/>
        </g>
      </g>
    </g>
  </g>
</svg>