<?xml version="1.0" encoding="UTF-8"?>
<svg id="_圖層_2" data-name="圖層 2" xmlns="http://www.w3.org/2000/svg" width="9.28mm" height="9.28mm" viewBox="0 0 26.3 26.3">
  <g id="_圖層_2-2" data-name="圖層 2">
    <g>
      <circle cx="13.15" cy="13.15" r="13.15" style="fill: #fff;"/>
      <g>
        <path d="M3.78,21.71v-.26c.11-.16,.26-.19,.44-.19,1.34,0,2.68,0,4.02,0h.22c0-.31-.02-.6,.17-.85,.01-.02,0-.08-.02-.11-.31-.44-.61-.88-.92-1.31-.11,.06-.24,.15-.39,.21-.85,.38-1.6,.12-2.03-.7-.26-.48-.36-1.01-.38-1.55-.07-1.71,.38-3.3,1.21-4.79,.38-.69,.85-1.31,1.51-1.76,.07-.05,.15-.1,.23-.15-.37-.79-.41-1.59-.09-2.38,.32-.8,.9-1.34,1.7-1.67-.06-.05-.09-.09-.13-.12-.62-.55-1.24-1.11-1.85-1.66-.28-.25-.28-.4-.02-.64,.09,0,.17,0,.26,0,.05,.04,.1,.08,.16,.11,1.14,.54,2.35,.78,3.59,.92,.96,.1,1.92,.11,2.88,.04,1.13-.08,2.25-.26,3.32-.64,.33-.11,.64-.28,.95-.43,.09,0,.17,0,.26,0,.26,.25,.26,.4-.02,.64-.62,.56-1.25,1.11-1.87,1.67-.03,.03-.06,.07-.1,.11,1.48,.58,2.39,2.33,1.61,4.05,.47,.26,.86,.62,1.18,1.04,1.3,1.76,1.93,3.74,1.78,5.93-.04,.56-.19,1.09-.53,1.55-.36,.47-.83,.7-1.42,.56-.31-.08-.61-.22-.9-.34-.3,.44-.61,.92-.9,1.35,.06,.32,.12,.61,.19,.92h.2c1.32,0,2.63,0,3.95,0,.07,0,.15,0,.22,0,.16,.02,.27,.15,.26,.32,0,.19-.14,.3-.38,.3-1.4,0-2.79,0-4.19,0-.12,0-.18,.02-.24,.14-.12,.24-.32,.39-.59,.46-.32,.08-.6,0-.85-.2-.39,.29-.79,.32-1.19,.04-.03-.02-.1,0-.14,.01-.27,.18-.55,.22-.85,.12-.04-.01-.08-.01-.12-.01-.47,0-.94,.02-1.4,.03-.11,0-.23-.05-.32-.02-.36,.12-.67,.05-.96-.17-.52,.31-.73,.31-1.26,0-.04,.03-.08,.05-.12,.08-.46,.29-1.05,.14-1.31-.33-.06-.12-.13-.15-.25-.15-1.37,0-2.73,0-4.1,0-.19,0-.34-.04-.46-.19Zm12.02-1.68c.43-.89,.55-1.81,.41-2.77-.13-.89-.48-1.68-1.13-2.32-.67-.66-1.47-.97-2.41-.8-.74,.13-1.31,.55-1.76,1.13-.71,.93-.95,2-.87,3.15,.04,.56,.19,1.1,.44,1.59,.16,.02,.3,.01,.43,.05,.13,.04,.25,.12,.38,.18,.32-.24,.67-.3,1.04-.11,.38,.19,.52,.53,.51,.94,0,.27,0,.53,0,.81h.61c0-.3,0-.59,0-.87,.01-.47,.27-.83,.69-.94,.32-.08,.61-.01,.88,.2,.23-.19,.48-.26,.78-.22Zm-1.74-6.44c1.34,.49,2.13,1.44,2.56,2.73,.42,1.27,.35,2.53-.15,3.77,.15-.03,.28-.08,.41-.06,.19,.03,.28-.06,.37-.19,1.71-2.28,1.96-4.73,.84-7.33-.17-.39-.41-.74-.61-1.11-.82,.44-1.13,.52-1.96,.5-.05,0-.11,.05-.14,.1-.09,.15-.16,.31-.26,.46-.27,.44-.63,.81-1.07,1.13Zm-5.23-2.18c-.07,.1-.13,.18-.19,.27-1.1,1.73-1.37,3.6-.89,5.59,.24,.98,.68,1.86,1.33,2.63,.05,.06,.11,.12,.18,.13,.18,.03,.36,.03,.54,.05,0-.01,0-.04-.02-.06-.4-.98-.5-1.99-.3-3.03,.21-1.09,.68-2.03,1.56-2.73,.34-.27,.74-.47,1.13-.7,0,.03,0,.02,0,.01-.57-.42-1-.96-1.3-1.6-.02-.03-.07-.07-.11-.07-.7,.07-1.34-.1-1.94-.48Zm4.31-2.74c1.35-1.21,2.69-2.41,4.03-3.61-1.22,.29-2.45,.45-3.71,.46,0,.27,0,.52,0,.77,0,.23-.15,.37-.35,.35-.17-.01-.28-.15-.29-.36,0-.25,0-.49,0-.76-1.27,0-2.5-.18-3.71-.46,1.34,1.2,2.68,2.4,4.03,3.61Zm-5,.29c.01,.13,.01,.26,.04,.38,.25,1.28,1.34,2.07,2.64,1.91,1.03-.13,1.79-.84,1.98-1.86,.02-.1,0-.18-.08-.26-.87-.78-1.74-1.56-2.62-2.33-.05-.05-.17-.07-.24-.06-1.01,.26-1.7,1.16-1.72,2.21Zm9.98,.01c0-1.04-.69-1.95-1.67-2.23-.12-.03-.2-.02-.29,.07-.85,.77-1.71,1.54-2.57,2.3-.1,.09-.14,.17-.1,.3,.02,.06,.03,.13,.04,.2,.27,.92,.88,1.44,1.82,1.63,1.43,.28,2.78-.82,2.78-2.26Zm.73,9.4c.21,.11,.41,.24,.63,.32,.38,.14,.69,.04,.91-.29,.14-.22,.26-.47,.32-.73,.2-.79,.15-1.58,0-2.37-.23-1.25-.68-2.42-1.43-3.46-.31-.43-.66-.81-1.16-1.06-.07,.08-.13,.15-.18,.21,1.58,2.3,1.84,4.75,.91,7.38Zm-10.68-7.57c-.42,.21-.74,.52-1,.88-1.2,1.64-1.79,3.47-1.64,5.51,.03,.41,.14,.82,.38,1.17,.13,.19,.29,.33,.52,.37,.33,.05,.59-.09,.86-.25,.13-.08,.15-.15,.09-.29-.63-1.71-.66-3.44-.09-5.17,.24-.73,.6-1.4,1.05-2.02-.06-.07-.11-.13-.17-.2Zm3.31,.94c.37,.72,.89,1.27,1.6,1.63,.04,.02,.13,0,.18-.03,.47-.25,.88-.6,1.19-1.03,.13-.18,.24-.37,.36-.57-.54-.18-.96-.47-1.35-.88,0,.23,0,.42,0,.6,0,.25-.13,.41-.33,.4-.19,0-.31-.15-.31-.4,0-.19,0-.37,0-.61-.39,.43-.82,.71-1.34,.89Zm-.53,9.54c0-.12,0-.23,0-.35-.01-.16-.13-.27-.28-.28-.16-.01-.3,.08-.31,.24-.02,.25-.02,.5,0,.74,.01,.16,.16,.26,.31,.25,.16,0,.28-.13,.29-.3,0-.1,0-.21,0-.31Zm4.39-.02c0,.12,0,.23,0,.35,0,.15,.13,.28,.28,.28,.15,0,.29-.07,.31-.23,.02-.26,.02-.52,0-.78-.01-.16-.17-.25-.32-.23-.16,.02-.25,.12-.27,.28,0,.11,0,.22,0,.33Zm-5.63,0c0-.1,0-.21,0-.31-.01-.17-.13-.29-.29-.3-.16-.01-.31,.09-.32,.26-.02,.24-.02,.47,0,.71,.01,.17,.17,.28,.32,.27,.16,0,.28-.14,.29-.32,0-.1,0-.21,0-.31Zm6.88,0c0,.1,0,.21,0,.31,0,.17,.12,.29,.28,.31,.15,.02,.31-.09,.33-.26,.02-.24,.02-.49,0-.73-.01-.17-.17-.27-.33-.25-.16,.01-.27,.13-.28,.31,0,.1,0,.21,0,.31Zm-4.39,.01h0c0-.12,0-.24,0-.36-.02-.16-.12-.25-.28-.26-.16-.01-.3,.08-.31,.24-.02,.25-.02,.5,0,.75,0,.15,.16,.26,.31,.25,.15,0,.27-.13,.29-.28,0-.11,0-.22,0-.33Zm1.9-.02s0,0,0,0c0,.1,0,.21,0,.31,0,.01,0,.02,0,.04,.02,.15,.14,.27,.29,.28,.15,0,.3-.1,.31-.25,.02-.24,.02-.49,0-.73,0-.17-.15-.27-.32-.26-.15,.01-.27,.12-.28,.28,0,.11,0,.22,0,.33Z" style="stroke: #231815; stroke-miterlimit: 10; stroke-width: .25px;"/>
        <path d="M15.8,20.03c-.3-.04-.56,.03-.78,.22-.26-.22-.56-.29-.88-.2-.42,.11-.68,.47-.69,.94,0,.28,0,.57,0,.87h-.61c0-.28,0-.54,0-.81,0-.41-.14-.75-.51-.94-.37-.19-.72-.13-1.04,.11-.13-.06-.25-.14-.38-.18-.13-.04-.27-.04-.43-.05-.25-.49-.4-1.03-.44-1.59-.09-1.15,.15-2.22,.87-3.15,.45-.58,1.02-1,1.76-1.13,.94-.17,1.74,.13,2.41,.8,.65,.64,.99,1.44,1.13,2.32,.14,.96,.02,1.88-.41,2.77Zm-2.65-1.05c.24,.24,.51,.37,.82,.41,.22,.03,.39-.07,.42-.25,.03-.2-.08-.34-.3-.38-.29-.04-.5-.19-.65-.44-.15-.25-.42-.25-.57,0-.15,.25-.36,.4-.65,.44-.23,.03-.33,.18-.3,.37,.03,.18,.2,.28,.42,.26,.32-.04,.59-.17,.83-.41Zm0-3.12c.26,.24,.54,.39,.89,.4,.21,0,.34-.1,.36-.28,.02-.19-.09-.32-.29-.35-.28-.04-.5-.18-.65-.42-.18-.28-.42-.28-.6,0-.15,.24-.36,.38-.65,.42-.21,.03-.32,.17-.3,.36,.02,.17,.15,.27,.35,.27,.35,0,.63-.16,.89-.4Zm1.41,1.61c.22,.22,.47,.36,.78,.36,.17,0,.29-.11,.31-.27,.02-.17-.08-.32-.25-.34-.25-.02-.4-.17-.5-.37-.08-.14-.15-.26-.34-.26-.17,0-.25,.12-.32,.25-.11,.2-.26,.35-.52,.39-.09,.01-.2,.13-.23,.22-.09,.23,.12,.42,.39,.39,.27-.03,.49-.16,.68-.36Zm-2.81,0c.22,.22,.48,.36,.79,.36,.16,0,.29-.13,.3-.28,.02-.15-.09-.32-.25-.33-.26-.02-.41-.18-.52-.38-.07-.13-.15-.25-.32-.25-.17,0-.25,.11-.33,.25-.11,.2-.26,.36-.51,.39-.16,.01-.24,.13-.25,.29-.01,.19,.12,.33,.31,.33,.31,0,.56-.14,.78-.36Z" style="fill: #dc4813; stroke: #231815; stroke-miterlimit: 10; stroke-width: .25px;"/>
        <path d="M14.07,13.58c.44-.33,.8-.69,1.07-1.13,.09-.15,.16-.31,.26-.46,.03-.05,.09-.1,.14-.1,.83,.02,1.14-.05,1.96-.5,.21,.37,.45,.72,.61,1.11,1.11,2.6,.87,5.05-.84,7.33-.1,.13-.19,.22-.37,.19-.12-.02-.26,.04-.41,.06,.5-1.24,.58-2.5,.15-3.77-.43-1.28-1.23-2.24-2.56-2.73Z" style="fill: #dc4813; stroke: #231815; stroke-miterlimit: 10; stroke-width: .25px;"/>
        <path d="M8.84,11.4c.6,.38,1.24,.55,1.94,.48,.03,0,.09,.03,.11,.07,.3,.64,.73,1.18,1.3,1.6,0,0,0,.02,0-.01-.39,.24-.79,.43-1.13,.7-.88,.7-1.35,1.65-1.56,2.73-.2,1.04-.1,2.05,.3,3.03,.01,.03,.02,.05,.02,.06-.19-.01-.37-.02-.54-.05-.07-.01-.13-.07-.18-.13-.65-.77-1.1-1.65-1.33-2.63-.48-1.98-.21-3.85,.89-5.59,.06-.09,.12-.17,.19-.27Z" style="fill: #dc4813; stroke: #231815; stroke-miterlimit: 10; stroke-width: .25px;"/>
        <path d="M13.15,8.66c-1.36-1.21-2.7-2.41-4.03-3.61,1.22,.28,2.44,.45,3.71,.46,0,.26,0,.51,0,.76,0,.21,.11,.35,.29,.36,.2,.02,.35-.12,.35-.35,0-.25,0-.5,0-.77,1.26-.01,2.49-.17,3.71-.46-1.34,1.2-2.68,2.4-4.03,3.61Z" style="fill: #dc4813; stroke: #231815; stroke-miterlimit: 10; stroke-width: .25px;"/>
        <path d="M8.16,8.95c.02-1.05,.71-1.95,1.72-2.21,.07-.02,.18,0,.24,.06,.88,.77,1.75,1.56,2.62,2.33,.09,.08,.1,.15,.08,.26-.19,1.02-.94,1.74-1.98,1.86-1.3,.16-2.39-.63-2.64-1.91-.02-.12-.02-.25-.04-.38Zm2.49,1.38c.7,0,1.25-.55,1.25-1.25,0-.69-.55-1.24-1.24-1.24-.7,0-1.26,.55-1.26,1.24,0,.69,.56,1.25,1.25,1.25Z" style="fill: #fff; stroke: #231815; stroke-miterlimit: 10; stroke-width: .25px;"/>
        <path d="M18.14,8.96c0,1.44-1.35,2.54-2.78,2.26-.94-.18-1.55-.71-1.82-1.63-.02-.06-.02-.13-.04-.2-.04-.13,0-.21,.1-.3,.86-.76,1.72-1.53,2.57-2.3,.09-.08,.17-.1,.29-.07,.98,.28,1.67,1.19,1.67,2.23Zm-2.49,1.37c.7,0,1.26-.56,1.26-1.25,0-.69-.56-1.24-1.24-1.25-.7,0-1.26,.55-1.26,1.24,0,.7,.55,1.25,1.25,1.25Z" style="fill: #fff; stroke: #231815; stroke-miterlimit: 10; stroke-width: .25px;"/>
        <path d="M18.86,18.37c.93-2.63,.67-5.08-.91-7.38,.06-.06,.12-.14,.18-.21,.49,.25,.85,.63,1.16,1.06,.75,1.04,1.2,2.21,1.43,3.46,.15,.79,.2,1.59,0,2.37-.06,.25-.18,.51-.32,.73-.22,.34-.53,.43-.91,.29-.22-.08-.42-.21-.63-.32Z" style="fill: #dc4813; stroke: #231815; stroke-miterlimit: 10; stroke-width: .25px;"/>
        <path d="M8.18,10.79c.06,.07,.11,.13,.17,.2-.45,.63-.81,1.3-1.05,2.02-.57,1.73-.54,3.46,.09,5.17,.05,.14,.04,.22-.09,.29-.27,.15-.53,.3-.86,.25-.23-.04-.39-.18-.52-.37-.24-.35-.35-.75-.38-1.17-.15-2.04,.44-3.87,1.64-5.51,.26-.36,.58-.67,1-.88Z" style="fill: #dc4813; stroke: #231815; stroke-miterlimit: 10; stroke-width: .25px;"/>
        <path d="M11.49,11.73c.52-.17,.95-.46,1.34-.89,0,.24,0,.42,0,.61,0,.24,.12,.39,.31,.4,.2,0,.32-.15,.33-.4,0-.18,0-.36,0-.6,.39,.42,.81,.71,1.35,.88-.13,.2-.24,.39-.36,.57-.31,.44-.71,.78-1.19,1.03-.05,.03-.13,.05-.18,.03-.71-.36-1.24-.91-1.6-1.63Z" style="fill: #fff; stroke: #231815; stroke-miterlimit: 10; stroke-width: .25px;"/>
        <path d="M10.96,21.28c0,.1,0,.21,0,.31,0,.16-.13,.29-.29,.3-.15,0-.3-.09-.31-.25-.02-.25-.02-.5,0-.74,.01-.16,.16-.25,.31-.24,.15,.01,.27,.12,.28,.28,0,.12,0,.23,0,.35Z" style="fill: #fff; stroke: #231815; stroke-miterlimit: 10; stroke-width: .25px;"/>
        <path d="M15.34,21.25c0-.11,0-.22,0-.33,.01-.16,.11-.25,.27-.28,.15-.02,.31,.07,.32,.23,.02,.26,.02,.52,0,.78-.01,.16-.15,.23-.31,.23-.15,0-.27-.13-.28-.28,0-.12,0-.23,0-.35Z" style="fill: #fff; stroke: #231815; stroke-miterlimit: 10; stroke-width: .25px;"/>
        <path d="M9.71,21.26c0,.1,0,.21,0,.31,0,.18-.13,.31-.29,.32-.15,0-.31-.1-.32-.27-.02-.24-.02-.47,0-.71,.01-.17,.16-.27,.32-.26,.16,.01,.28,.13,.29,.3,0,.1,0,.21,0,.31Z" style="fill: #fff; stroke: #231815; stroke-miterlimit: 10; stroke-width: .25px;"/>
        <path d="M16.59,21.26c0-.1,0-.21,0-.31,0-.17,.12-.29,.28-.31,.16-.01,.31,.09,.33,.25,.02,.24,.02,.49,0,.73-.01,.17-.17,.27-.33,.26-.16-.02-.27-.14-.28-.31,0-.1,0-.21,0-.31Z" style="fill: #fff; stroke: #231815; stroke-miterlimit: 10; stroke-width: .25px;"/>
        <path d="M12.2,21.28c0,.11,0,.22,0,.33-.01,.16-.13,.27-.29,.28-.15,0-.3-.1-.31-.25-.01-.25-.02-.5,0-.75,.01-.15,.16-.25,.31-.24,.16,.02,.26,.1,.28,.26,.01,.12,0,.24,0,.36h0Z" style="fill: #fff; stroke: #231815; stroke-miterlimit: 10; stroke-width: .25px;"/>
        <path d="M14.1,21.26c0-.11,0-.22,0-.33,.01-.16,.12-.27,.28-.28,.16-.01,.31,.09,.32,.26,.01,.24,.01,.49,0,.73,0,.15-.16,.26-.31,.25-.15,0-.27-.13-.29-.28,0-.01,0-.02,0-.04,0-.1,0-.21,0-.31,0,0,0,0,0,0Z" style="fill: #fff; stroke: #231815; stroke-miterlimit: 10; stroke-width: .25px;"/>
        <path d="M13.15,18.98c-.24,.23-.51,.37-.83,.41-.22,.03-.39-.08-.42-.26-.03-.2,.08-.34,.3-.37,.29-.04,.5-.19,.65-.44,.15-.25,.42-.25,.57,0,.15,.25,.36,.4,.65,.44,.23,.03,.33,.18,.3,.38-.03,.18-.2,.28-.42,.25-.31-.04-.58-.17-.82-.41Z"/>
        <path d="M13.15,15.86c-.26,.25-.55,.39-.89,.4-.2,0-.33-.09-.35-.27-.02-.19,.09-.33,.3-.36,.28-.04,.5-.18,.65-.42,.17-.28,.42-.28,.6,0,.15,.24,.36,.38,.65,.42,.2,.03,.31,.16,.29,.35-.01,.18-.15,.28-.36,.28-.35,0-.63-.16-.89-.4Z"/>
        <path d="M14.56,17.47c-.19,.19-.41,.32-.68,.36-.28,.03-.48-.16-.39-.39,.03-.09,.14-.21,.23-.22,.25-.04,.41-.18,.52-.39,.07-.13,.15-.25,.32-.25,.18,0,.26,.12,.34,.26,.11,.2,.25,.35,.5,.37,.17,.02,.27,.17,.25,.34-.02,.16-.14,.27-.31,.27-.31,0-.56-.14-.78-.36Z"/>
        <path d="M11.74,17.47c-.22,.22-.47,.36-.78,.36-.19,0-.32-.14-.31-.33,0-.16,.09-.27,.25-.29,.26-.02,.4-.18,.51-.39,.07-.14,.15-.25,.33-.25,.17,0,.25,.12,.32,.25,.11,.2,.26,.36,.52,.38,.16,.01,.27,.18,.25,.33-.02,.16-.14,.28-.3,.28-.32,0-.57-.14-.79-.36Z"/>
        <path d="M10.65,10.33c-.7,0-1.26-.57-1.25-1.25,0-.7,.57-1.24,1.26-1.24,.69,0,1.24,.56,1.24,1.24,0,.7-.56,1.25-1.25,1.25Zm-.61-1.25c0,.35,.27,.63,.62,.63,.33,0,.61-.28,.62-.62,0-.34-.28-.63-.62-.63-.34,0-.61,.28-.61,.62Z" style="stroke: #231815; stroke-miterlimit: 10; stroke-width: .25px;"/>
        <path d="M15.65,10.33c-.7,0-1.25-.56-1.25-1.25,0-.69,.56-1.24,1.26-1.24,.69,0,1.24,.56,1.24,1.25,0,.69-.56,1.25-1.26,1.25Zm.62-1.23c0-.35-.27-.63-.61-.64-.33,0-.62,.27-.63,.61-.01,.34,.28,.63,.62,.64,.34,0,.62-.27,.62-.61Z" style="stroke: #231815; stroke-miterlimit: 10; stroke-width: .25px;"/>
        <path d="M10.04,9.08c0-.34,.27-.61,.61-.62,.34,0,.63,.29,.62,.63,0,.34-.28,.61-.62,.62-.34,0-.62-.28-.62-.63Z" style="fill: #fff; stroke: #231815; stroke-miterlimit: 10; stroke-width: .25px;"/>
        <path d="M16.26,9.1c0,.34-.28,.61-.62,.61-.34,0-.63-.3-.62-.64,.01-.34,.29-.61,.63-.61,.34,0,.62,.29,.61,.64Z" style="fill: #fff; stroke: #231815; stroke-miterlimit: 10; stroke-width: .25px;"/>
      </g>
    </g>
  </g>
</svg>