<?xml version="1.0" encoding="UTF-8"?>
<svg id="_圖層_2" data-name="圖層 2" xmlns="http://www.w3.org/2000/svg" width="117.52" height="59.98" viewBox="0 0 117.52 59.98">
  <g id="layout">
    <g>
      <g>
        <path d="M56.14,27.27c-.09-.24-.32-.39-.56-.39-.05,0-.1,0-.15,.02-.32,.08-.88,.2-1.68,.36-.79,.16-1.48,.26-2.06,.3-.01,0-.02,0-.04,0-.3,.04-.77,.06-1.39,.06-1.79,0-3.88-.39-6.22-1.15,1.04-.67,2.35-1.64,3.89-2.88,.42,.06,.65,.13,.78,.18-.02,.02-.03,.05-.05,.08-.14,.21-.13,.49,.02,.69,.12,.15,.29,.24,.48,.24,.06,0,.12,0,.18-.03,.72-.22,1.41-.6,2.06-1.11,.74-.59,1.11-1.29,1.11-2.09,0-.38-.06-.68-.18-.93-.17-.37-.54-.85-1.34-1.06-.52-.14-1.38-.2-2.63-.2l-7.54,.12h-5.45c-.22-.41-.59-.78-1.11-1.09,.02-.09,.02-.19,0-.29,.09-.05,.29-.12,.65-.18,.92-.16,2.26-.24,3.97-.24,2.07,0,3.58,.08,4.49,.24,.22,.04,.37,.08,.46,.11-.07,.18-.05,.39,.07,.56,.11,.16,.3,.25,.49,.25,.06,0,.12,0,.17-.03,.48-.15,.95-.4,1.37-.76,.5-.42,.77-1.01,.77-1.71,0-1.07-.5-1.53-.92-1.73-.06-.03-.12-.05-.19-.08,.12-.08,.24-.17,.35-.26,.5-.42,.77-1.01,.77-1.71,0-1.07-.5-1.54-.92-1.73-.48-.23-1.27-.33-2.49-.33,0,0,0,0,0,0l-4.59,.06h-2.87c-1.35,0-2.31,.11-2.95,.34-.81,.29-1.25,.95-1.25,1.85,0,.62,.22,1.42,1.18,1.97-.49,.2-.84,.54-1.03,.99-.03-.06-.07-.11-.12-.16-.11-.1-.26-.16-.41-.16-.09,0-.18,.02-.27,.06-.04,.02-.14,.06-.4,.06-.14,0-.25-.18-.34-.52-.15-.6-.21-1.63-.17-3.08,0-.69,.01-1.32,.03-1.86,8.64,0,14.5,.21,17.47,.59l-.04,.8c-.08,1.54-.12,2.5-.12,2.84,0,1,.13,1.66,.4,2.09,0,.02,.02,.03,.03,.04,.65,.85,1.53,1.28,2.62,1.28,.86,0,1.6-.22,2.22-.66,.29-.21,.58-.46,.86-.74,0-.01-.01-.02-.01-.03-.07,.01-.14,0-.2-.08-.36-.48-.61-1.96-.61-2.46,0-1.28,.1-2.67,.3-4.14,0,0,0-.01,0-.02,.08-.85,.13-1.41,.13-1.71,0-1.63-.93-2.56-2.56-2.56-1,0-2.24,.3-3.78,.92-1.44-.02-2.93-.04-4.47-.06,.22-.14,.44-.29,.65-.47,.73-.61,1.1-1.4,1.1-2.36,0-1.04-.54-1.77-1.53-2.07-.8-.24-2.34-.36-4.7-.36-1.41,0-2.59,.02-3.5,.06l-6.96,.06h-7.52c-2.81,0-4.72,.14-5.84,.42-1.78,.45-2.04,1.65-2.04,2.33,0,1.19,.68,1.97,1.54,2.47-1.66,.03-3.12,.06-4.4,.09-.35-.94-1.19-1.45-2.41-1.45-.96,0-2.18,.33-3.73,.99,0,.01,.01,.02,.02,.03,.02,.09,.04,.18,.07,.27,.21,.39,1.09,3.9,1.09,5.79,0,.69-.12,1.32-.35,1.88-.17,.4-.92,1.4-1.3,1.73,1.03,1.29,2.2,1.95,3.48,1.95,.38,0,.66-.02,.87-.08,.96-.2,1.62-.69,1.97-1.43,.31-.66,.45-1.72,.45-3.25v-2.14c3.68-.29,9.04-.48,15.96-.56-.02,.39-.02,.85-.02,1.41l-.06,2.68c0,1.49,.05,2.56,.16,3.28,.12,.85,.39,1.44,.81,1.8,.41,.36,.99,.54,1.71,.54,.85,0,1.66-.37,2.38-1.09,.13-.13,.26-.27,.38-.42,0,.2,.1,.38,.27,.49,.04,.03,.1,.07,.1,.24,0,.14-.06,.41-.33,.84-.25,.39-.6,.78-1.04,1.15-1.88,1.55-4.72,2.29-5.25,2.43-.06,.33-.1,.64-.1,.91,0,.86,.18,1.61,.54,2.24-.42-.22-.91-.33-1.47-.33-.39,0-.78,.06-1.16,.17-.72-.07-1.46-.11-2.2-.11l-.66,.02c.35-.28,.69-.56,1.02-.84,.13-.09,.48-.36,1.72-1.36,.2-.16,.56-.44,1.06-.82,.53-.4,.99-.81,1.36-1.2,.45-.48,.68-.99,.68-1.51,0-.49-.18-1.18-1.06-1.71-.24-.14-.51-.26-.79-.35,.23-.13,.45-.28,.66-.45,.5-.42,.77-1.01,.77-1.71,0-.99-.44-1.46-.81-1.68-.09-.05-.19-.1-.3-.14,.12-.08,.23-.17,.34-.26,.5-.42,.77-1.01,.77-1.71,0-.99-.44-1.46-.81-1.68-.45-.27-1.16-.39-2.23-.39,0,0,0,0,0,0l-3.73,.06h-3.6c-1.55,0-2.62,.11-3.26,.34-.81,.29-1.25,.95-1.25,1.85,0,.62,.22,1.42,1.18,1.97-.76,.3-1.18,.95-1.18,1.82,0,.58,.19,1.31,.98,1.85h-.93c-2.08,0-3.51,.13-4.37,.39-1.04,.32-1.62,1.11-1.62,2.23,0,.69,.25,1.3,.76,1.8,.22,.22,.46,.41,.73,.58,.63-.32,2.46-.73,2.8-.77,.47-.06,1.05-.11,1.72-.15-.25,.17-.48,.39-.69,.66-.41,.53-.61,1.14-.61,1.8,0,.12,.02,.33,.14,.82,.05,.21,.21,.37,.42,.43,.05,.01,.11,.02,.16,.02,.16,0,.31-.06,.42-.18,.13-.13,.22-.13,.25-.13,.14,0,.51,.07,1.29,.58h-1.35c-2.65,.04-4.38,.17-5.31,.38-1.15,.27-1.78,1.04-1.78,2.17,0,.66,.31,1.28,.93,1.85,.27,.24,.54,.46,.84,.64,.63-.22,2.15-.52,2.3-.55,.72-.16,1.81-.29,3.27-.4-.35,.59-.75,1.14-1.18,1.62,0,0-.01,.01-.02,.02-1.18,1.45-2.45,2.62-3.78,3.48-1.28,.83-2.35,1.25-3.16,1.25-.64,0-.78-.24-.83-.32-.11-.18-.31-.29-.51-.29-.04,0-.09,0-.13,.01-.25,.06-.44,.27-.46,.53-.13,1.43,.07,2.61,.6,3.51,.57,.97,1.48,1.49,2.63,1.49s2.42-.53,3.72-1.61c.06,.16,.19,.29,.35,.35,1.13,.41,2.18,1.16,3.12,2.22,0,0,.02,.02,.02,.02,.12,.12,.38,.39,.79,.82,.42,.44,.87,.85,1.32,1.19,.53,.41,1.16,.61,1.86,.61,1.05,0,1.92-.46,2.51-1.33,.57-.82,.84-2.25,.84-4.35,0-.62-.02-1.13-.06-1.52-.08-1.52-.12-3.17-.12-4.91,0-.17,0-.34,0-.5,.13,.37,.32,.73,.56,1.08,.56,.81,1.32,1.24,2.21,1.24,.64,0,1.18-.2,1.6-.59,.34-.32,.74-.85,1.22-1.63,.13-.18,.29-.43,.51-.8l.28-.48c.04-.05,.13-.16,.27-.33,.01-.01,.02-.03,.04-.05,.55-.8,.92-1.39,1.14-1.8,.25-.48,.38-.88,.38-1.23,0-.29-.06-.57-.17-.81,.31,.16,.66,.25,1.04,.25,.44,0,.9-.1,1.37-.31-.37,.34-.68,.73-.92,1.16-.33,.6-.5,1.18-.5,1.73,0,.5,.16,.96,.47,1.35,.31,.4,.75,.66,1.3,.77,.44,.09,.83,.13,1.16,.13,1.27,0,2.86-.35,4.72-1.04,0,.06,0,.12,.02,.17,.07,.23,.26,.4,.5,.43,.23,.03,.32,.12,.38,.18,.08,.09,.12,.2,.13,.34h-5.09c-2.4,0-3.98,.12-4.84,.36-1.05,.3-1.63,1.06-1.63,2.14,0,.86,.33,1.61,.99,2.22,.23,.21,.47,.4,.72,.57,.22-.08,.45-.15,.69-.18,.27-.03,1.71-.34,2.13-.42,.17-.04,.36-.07,.56-.1,0,0,0,0,.01,0,.02,0,.04,0,.06,0,.85-.13,2.01-.23,3.48-.3-1.03,.82-2.16,1.5-3.37,2.03-1.71,.74-7.61,.7-7.7,.67-.45,.87-.68,1.71-.68,2.51,0,.89,.27,1.63,.81,2.19,.52,.54,1.15,.87,1.89,.97,.22,.05,.52,.07,.97,.07,1.81,0,3.95-.67,6.38-2,2.39-1.31,4.7-3.2,6.86-5.6l.81-.97,3.95-.06c1.03,0,1.88,.03,2.53,.1-.02,.05-.03,.11-.05,.16,0,.01,0,.03-.01,.04-.29,1.15-.49,1.65-.62,1.87-.13,.24-.33,.41-.6,.52-.55,.18-1.32,.27-2.3,.27s-1.79,.04-2.35,.13c-.29,.04-.5,.28-.51,.57,0,.29,.19,.54,.47,.61,.65,.14,1.17,.36,1.55,.63,.4,.29,.9,.81,1.47,1.54,0,0,.02,.02,.02,.03,.73,.82,1.36,1.4,1.91,1.78,.51,.35,1.09,.52,1.72,.52,.14,0,.29,0,.44-.03,.75-.12,1.36-.65,1.81-1.59,.37-.77,.72-1.76,1.05-3.02,.07-.17,.13-.39,.2-.68,.1-.41,.25-1.02,.45-1.84,.46-1.77,.69-2.94,.69-3.57,0-.69-.18-1.26-.53-1.67,.79-.03,1.43-.25,1.91-.66,.44-.38,1.09-1.12,1.98-2.26,.8-1.07,1.58-1.79,2.3-2.16,.27-.14,.4-.46,.29-.74Zm-21.23-13.51c.89-.29,2.26-.24,3.97-.24,2.07,0,3.62-.08,4.49,.24,.38,.14,.45,.5,.44,.52-.17,0-.34,0-.52,0,0,0,0,0,0,0l-4.59,.06h-2.87c-.58,0-1.1,.02-1.54,.06,0-.03,.03-.44,.64-.64Zm-4.73-8.88h1.79c3.02,0,5.27,.08,6.69,.24,.29,.03,.53,.07,.73,.1,.42,.07,.71,.46,.67,.89,0,0,0,0,0,0-3.11-.03-6.42-.04-9.88-.04v-1.19Zm-4.9,1.25c-3.6,0-6.79,.02-9.55,.05,0,0,0,0,0,0-.04-.41,.24-.79,.65-.87,.19-.04,.41-.07,.69-.1,1.54-.17,4.31-.28,8.23-.33,0,.3-.01,1.01-.02,1.25Zm-3.52,12.18c-.41,0-.85,.06-1.29,.18-1-.08-3.1-.12-6.25-.12h-1.8c.02-.09,.02-.19,0-.28,.11-.05,.32-.12,.7-.18,1.01-.16,2.68-.24,4.95-.24,2.53,0,3.42,.22,3.72,.35-.04,.09-.05,.19-.04,.29Zm-8.64-4.53c5.15-.82,8.67,.48,8.66,.5-.05,0-.11,0-.16,0,0,0,0,0,0,0l-3.73,.06h-3.6c-.72,0-1.33,.02-1.85,.07,0-.04-.23-.48,.69-.63Zm.26,23.7c-.07,.82-.29,1.39-.65,1.67-.41,.31-.94,.46-1.63,.46-.31,0-.82-.04-1.52-.12-.68-.08-1.14-.13-1.41-.13-.08,0-.16,0-.23,0,.11-.11,.22-.22,.33-.34,1.67-1.77,3.26-3.77,4.74-5.95,.15-.22,.32-.48,.49-.76,0,2.16-.05,3.89-.12,5.16Zm1.85-13.12l-.15-.11c-.32-.24-.74-.57-1.24-.97-.53-.42-.99-.73-1.4-.93,.75-.01,1.57-.02,2.46-.02,1.21,0,2.2,.02,2.97,.06-.89,.74-1.77,1.4-2.64,1.98Zm3.59,6.99c-.08,0-.2-.02-.37-.19-.11-.11-.27-.18-.42-.18-.08,0-.16,.01-.23,.05-.05,.02-.09,.05-.13,.08,0-.28,.01-.53,.02-.76,1.09,0,1.85,.03,2.38,.06-.74,.86-1.12,.94-1.24,.94Zm12.8-14.74c0,.32,.08,.68,.28,1.03-.1,0-.2,0-.29,0-.16,0-.32,0-.48,.02-.03,0-.07,0-.1,.02,.22-.33,.42-.68,.6-1.06Zm-1.24,11.14c-.66,0-.88-.11-.93-.15,.01-.23-.11-.45-.31-.56-.08-.04-.16-.07-.24-.08,.04-.03,.08-.05,.12-.08,.59-.42,1.47-1.11,2.63-2.07-.02,.12-.03,.23-.03,.36,0,.46,.13,.92,.37,1.36,.27-.02,2.56,.18,2.88,.27-1.77,.63-3.28,.95-4.49,.95Zm5.64-4.19c.09,0,.19,0,.29,0l5.53-.06h.3c-.27,.17-2.67,1.18-2.67,1.18-.35-.15-2.99-.95-3.44-1.12Zm9.42,8.96l-4.79,.05c0-.06,0-.12,0-.19,0-.8-.41-1.43-1.14-1.77-.65-.28-1.34-.42-2.06-.42,.84-.4,1.69-.83,2.56-1.3l1.37,.66c1.21,.57,2.56,1.24,4.01,2,.46,.27,.86,.49,1.22,.68-.41,.04-.8,.14-1.17,.28Z" style="fill: #231815;"/>
        <g>
          <path d="M117.49,15.71c-.08-.25-.31-.41-.57-.41-.03,0-.07,0-.1,0l-1.76,.3c-.37,.04-.81,.1-1.3,.19-.48,.08-1.05,.16-1.75,.24-.93,.08-1.63,.12-2.07,.12-1.46,0-2.95-.19-4.44-.56-1.27-.32-2.68-.84-4.2-1.55l2.18-1.85c1.92-1.63,3.21-2.79,3.96-3.56,.84-.87,1.27-1.72,1.27-2.53,0-.87-.38-1.54-1.09-1.96-.62-.36-1.38-.54-2.26-.54s-1.7,.16-2.4,.49h-6.15c.27-.49,.4-.96,.4-1.42,0-.84-.35-1.54-1.01-2.02-.61-.44-1.42-.66-2.4-.66-.55,0-1.2,.11-2,.33-.25,.07-.42,.29-.44,.54-.01,.26,.14,.49,.38,.59,.22,.09,.24,.18,.24,.3,0,.13-.06,.44-.44,.97-.33,.46-.79,.93-1.36,1.38-1.54,1.23-2.98,2.14-4.27,2.7-1.26,.56-5.35,.85-6.1,.62-.33,1.01-.5,1.96-.5,2.83,0,1.14,.32,2.03,.94,2.66,.62,.62,1.48,.94,2.53,.94s2.2-.42,3.62-1.28c.61-.37,1.31-.84,2.11-1.4-.26,.46-.39,.99-.39,1.6,0,.41,.07,.84,.2,1.26,.71-.02,3.34,.51,4.29,.91-1.3,.78-2.66,1.4-4.04,1.85-1.7,.55-3.28,.83-4.68,.83-1.01,0-1.83-.15-2.44-.43-.75-.35-.81-.71-.83-.83-.04-.25-.22-.44-.47-.5-.04,0-.08-.01-.13-.01-.2,0-.39,.1-.5,.27-.67,1.03-1.02,2.26-1.02,3.63,0,1.05,.25,1.98,.73,2.76,.53,.85,1.24,1.34,2.12,1.44,.25,.03,.53,.05,.81,.05,.66,0,1.38-.08,2.18-.25-.42,.44-.64,1.03-.64,1.75,0,.9,.33,1.67,.98,2.3,.57,.55,1.27,.98,2.09,1.29-.03,.01-.06,.02-.09,.03-1.15,.39-1.75,1.25-1.75,2.49,0,.91,.34,1.68,1.02,2.31,.46,.42,.99,.77,1.59,1.03-1.14,.02-2.08,.07-2.8,.13-1.21,.11-2.09,.35-2.71,.73-.49,.3-1.08,.92-1.08,2.1,0,.94,.33,1.74,.97,2.38,.33,.33,.71,.6,1.13,.82,.23-.09,3.27-1.18,5.15-1.32,1.46-.11,3.53-.19,6.16-.23,.05,1.6,.14,2.86,.27,3.73,.16,1.09,.45,1.85,.89,2.31,.46,.49,1.16,.74,2.06,.74,1.11,0,2.04-.39,2.76-1.17,.64-.68,1.26-1.54,1.85-2.55,.13-.22,.11-.49-.05-.68-.12-.14-.29-.22-.47-.22-.06,0-.13,.01-.19,.03-.38,.13-.61,.15-.73,.15-.24,0-.41-.07-.54-.41-.11-.27-.24-.83-.34-1.94,3.75,.01,6.36,.15,7.75,.42,.82,.16,3.26,.92,3.35,.95,1.46-.75,2.2-1.82,2.2-3.19,0-1.08-.53-1.65-.98-1.94-.56-.36-1.46-.6-2.75-.71-.91-.08-2.21-.13-3.88-.15,1.92-.76,2.9-1.93,2.9-3.51,0-1.16-.55-1.96-1.59-2.34-.06-.02-.11-.04-.17-.06,.86-.33,1.6-.73,2.2-1.2,.76-.58,1.15-1.43,1.15-2.53,0-1.16-.59-1.97-1.69-2.34-.93-.31-2.59-.46-5.08-.46l-3.17,.05c.03-1.17-.08-1.97-.33-2.49-.34-.7-1.13-1.14-2.37-1.28-.25-.03-.49-.05-.72-.05-.69,0-1.31,.14-1.84,.41,.85-.55,1.68-1.13,2.49-1.75l3.55,2.07c2,1.18,3.59,2.06,4.73,2.59,1.2,.57,2.32,.85,3.35,.85,1.11,0,2.06-.3,2.82-.89,.69-.54,1.39-1.29,2.07-2.23,1.32-1.79,2.44-2.92,3.33-3.36,.27-.13,.39-.44,.3-.72Zm-17.65,11.51c2.07,.05,3.68,.17,4.78,.35,.89,.15,1.22,.32,1.33,.41-.03,.05-.08,.13-.16,.25-.13,.18-.15,.42-.05,.62-.84-.13-1.94-.19-3.32-.19l-2.58,.05v-1.47Zm-.06,6.12c1.54,.05,2.74,.15,3.57,.31,.85,.16,.98,.37,.98,.37,0,.07-.07,.16-.12,.22-.16,.2-.18,.48-.04,.69-.11,0-.23,0-.35,0h-4.05v-1.6Zm-10.99-11.01c1.54-.63,3.04-1.38,4.5-2.23,.02,.03,.06,.05,.12,.08,.23,.12,.7,2.31,.75,2.4h-3.19c-1.2,0-2.22,.03-3.08,.1,.29-.11,.59-.23,.89-.35Zm5.63,12.61h-4.73c-.29,0-.57,0-.84,0,.13-.2,.12-.46,0-.65,0,0-.02-.06-.02-.16h0s.16-.26,1.25-.45c1.01-.18,2.48-.29,4.38-.34-.02,.46-.03,1-.03,1.6Zm.12-6.25l-3.37-.05c-1.51,0-2.7,.09-3.61,.26,.13-.19,.14-.44,.02-.64-.06-.1-.06-.14-.06-.15h0s.14-.23,1.07-.43c1.21-.26,3.23-.41,5.99-.47l-.04,1.47Zm2.3-16.88l-.86-.48c-1.25-.71-2.14-1.17-2.72-1.41-.62-.25-1.28-.38-1.97-.38-.01,0-.02,0-.04,0-.23,.01-.45,.05-.66,.1,.31-.24,.63-.48,.96-.74,1.66-.03,4.58-.05,8.69-.06-.89,.82-2.03,1.81-3.41,2.96Z" style="fill: #231815;"/>
          <path d="M78.75,32.17c-.2-.98-.34-2.46-.38-4.41v-2.68c0-5.55,.12-10.23,.37-13.91,.14-1.45-.02-2.47-.48-3.11-.49-.67-1.29-1.01-2.38-1.01-.97,0-1.8,.22-2.49,.64-.52,.32-1.1,.78-1.72,1.37,.05-1.54,.1-2.75,.15-3.64,0,0,0-.01,0-.02,.04-1.53-.14-2.58-.56-3.2-.46-.68-1.28-1.03-2.42-1.03-1,0-1.9,.23-2.67,.7-.72,.44-1.43,1.03-2.11,1.75-.18,.19-.22,.48-.08,.71,.11,.19,.31,.3,.52,.3,.05,0,.1,0,.14-.02,.08-.02,.23-.04,.47-.04,.47,0,.75,.16,.93,.53,.24,.49,.39,1.29,.43,2.37V30.3l-1.98,.27c.08-8.52,.2-14.51,.36-17.82,.09-1.48-.07-2.52-.49-3.17-.46-.71-1.28-1.07-2.43-1.07-1,0-1.9,.23-2.67,.7-.72,.44-1.42,1.03-2.07,1.77-.17,.2-.2,.48-.06,.71,.11,.18,.31,.29,.51,.29,.05,0,.1,0,.14-.02,.08-.02,.23-.04,.47-.04,.58,0,.78,.26,.89,.51,.23,.49,.36,1.3,.4,2.39V31.29c-1.91,.61-2.33,1.86-2.33,2.84s.42,2.2,1.28,3.71c.82-.41,4.32-1.6,5.74-1.9l1.22-.24c3.5-.69,6.24-1.21,8.17-1.54,.12,.81,.32,1.47,.61,2.01,.3,.55,.92,1.2,2.18,1.2,1.4,0,2.7-.87,3.9-2.58-.05-.03-1.28-1.22-1.57-2.61Zm-5.19-2.84l-2.17,.32c0-4.24,.05-8.81,.12-13.61,.03-2.14,.07-4,.11-5.6,.03,0,.06,0,.08,0,.05,0,.1,0,.14-.02,.08-.02,.23-.04,.47-.04,.42,0,.67,.15,.84,.49,.23,.47,.36,1.24,.4,2.29V29.33Z" style="fill: #231815;"/>
        </g>
      </g>
      <g>
        <g>
          <path d="M68.03,56.79c-.64,0-1.14-.16-1.51-.47-.37-.31-.66-.75-.87-1.3-.22-.55-.42-1.18-.61-1.88l-1.53-5.67c-.12-.44-.09-.85,.08-1.24,.17-.38,.5-.64,.99-.76,.46-.13,.87-.09,1.23,.09,.36,.19,.6,.52,.72,.99l1.42,5.18c.13,.45,.26,.78,.4,.99s.37,.28,.68,.2c.29-.07,.45-.24,.47-.49,.02-.25-.03-.61-.16-1.07l-1.01-3.83c-.14-.52-.12-.98,.06-1.36,.17-.38,.52-.63,1.03-.75,.52-.13,.95-.06,1.27,.2,.32,.26,.54,.62,.65,1.08l1.28,5.02c.14,.51,.29,.86,.45,1.04,.16,.18,.38,.23,.64,.16,.29-.08,.44-.25,.43-.5-.01-.25-.05-.61-.11-1.08-.09-.73-.18-1.34-.24-1.81-.07-.47-.12-.87-.16-1.18-.04-.31-.06-.6-.06-.87,0-.59,.17-1.09,.52-1.5,.35-.41,.82-.62,1.42-.62s1.07,.19,1.39,.56c.31,.37,.47,.88,.47,1.53,0,.42-.06,.86-.18,1.32-.12,.46-.24,.9-.35,1.31l-.88,3.04c-.2,.69-.4,1.31-.59,1.87-.19,.55-.45,.99-.78,1.31-.33,.32-.79,.48-1.39,.48-.72,0-1.29-.23-1.7-.68-.41-.45-.72-1.19-.94-2.22h-.11c-.21,1.03-.49,1.77-.83,2.22-.35,.45-.87,.68-1.57,.68Z" style="fill: #231815;"/>
          <path d="M80.12,56.74c-.73,0-1.33-.28-1.79-.83-.46-.56-.7-1.34-.71-2.35l-.02-3.64c0-.45,.14-.81,.42-1.06,.28-.26,.66-.39,1.14-.39s.83,.13,1.12,.39c.28,.26,.43,.61,.43,1.06v3.29c0,.79,.31,1.18,.93,1.18,.3,0,.51-.11,.61-.34,.1-.23,.16-.52,.16-.87v-3.26c0-.41,.14-.75,.43-1.03,.28-.28,.65-.42,1.1-.42s.84,.14,1.09,.42c.26,.28,.39,.62,.39,1.03v5.16c0,.5-.11,.91-.34,1.2-.23,.3-.59,.45-1.09,.45s-.88-.15-1.16-.45c-.28-.3-.42-.7-.42-1.2v-.27h-.28c0,.61-.18,1.08-.54,1.42-.36,.34-.85,.5-1.46,.5Z" style="fill: #231815;"/>
          <path d="M88.97,56.74c-.44,0-.8-.14-1.08-.42-.28-.28-.42-.63-.42-1.05v-3.51c-.27,.06-.52,.03-.74-.11s-.4-.34-.53-.61c-.13-.27-.2-.57-.2-.9s.07-.63,.2-.9c.14-.28,.32-.49,.54-.64,.23-.15,.47-.18,.75-.09,.05-.78,.18-1.47,.38-2.07,.2-.6,.51-1.08,.92-1.42,.41-.35,.96-.52,1.63-.52,.58,0,1.04,.12,1.39,.35s.59,.53,.73,.87,.19,.7,.13,1.05c-.05,.35-.19,.65-.43,.91-.23,.26-.57,.39-1.02,.39-.31,0-.58-.06-.79-.19-.21-.13-.39-.28-.53-.46s-.27-.36-.37-.53c-.26-.42-.53-.56-.8-.43-.14,.07-.21,.19-.22,.35-.01,.16,.04,.35,.16,.56l.35,.6c.18,.29,.37,.49,.57,.57,.2,.09,.45,.11,.76,.07l.76-.11c.48-.07,.88,.06,1.18,.39,.3,.34,.46,.75,.46,1.24s-.15,.93-.46,1.24c-.31,.31-.69,.44-1.14,.39l-.66-.08v3.59c0,.42-.14,.77-.41,1.05-.27,.28-.64,.42-1.1,.42Z" style="fill: #231815;"/>
          <path d="M92.65,52.65c0-.83,.17-1.56,.5-2.19,.33-.63,.8-1.12,1.42-1.48s1.35-.54,2.2-.54c.66,0,1.26,.12,1.79,.36,.53,.24,.95,.56,1.25,.97,.3,.4,.46,.85,.46,1.33s-.15,.86-.44,1.07c-.29,.21-.73,.31-1.31,.31h-3.31c0,.27,.11,.5,.32,.68,.21,.18,.58,.27,1.09,.27,.26,0,.51-.03,.73-.08,.23-.05,.46-.1,.69-.15,.24-.05,.5-.07,.79-.07,.42,0,.77,.15,1.04,.45,.27,.3,.41,.71,.41,1.24,0,.62-.32,1.1-.95,1.45-.64,.35-1.47,.52-2.49,.52-.72,0-1.4-.14-2.04-.42-.64-.28-1.15-.73-1.55-1.35-.4-.61-.6-1.4-.6-2.37Zm5.1-.68c.16,0,.21-.07,.16-.22-.04-.15-.17-.3-.38-.46-.21-.16-.51-.24-.91-.24-.46,0-.81,.1-1.03,.3-.23,.2-.34,.4-.34,.61h2.5Z" style="fill: #231815;"/>
          <path d="M102.52,56.74c-.46,0-.83-.14-1.11-.42-.28-.28-.42-.62-.42-1.03v-5.21c0-.44,.13-.81,.39-1.12,.26-.3,.64-.46,1.13-.46s.85,.15,1.1,.46c.25,.3,.38,.69,.38,1.15v.79h.28c0-.6,.11-1.07,.32-1.42,.21-.35,.49-.6,.83-.75,.34-.15,.67-.23,1.01-.23,.81,0,1.4,.29,1.78,.87s.57,1.41,.57,2.48v3.43c0,.41-.14,.75-.41,1.03-.27,.28-.64,.42-1.1,.42s-.85-.14-1.13-.42c-.28-.28-.42-.62-.42-1.03v-2.79c0-.38-.07-.67-.21-.88-.14-.21-.35-.31-.62-.31-.31,0-.54,.12-.68,.35s-.21,.52-.21,.88v2.75c0,.41-.13,.75-.39,1.03-.26,.28-.62,.42-1.09,.42Z" style="fill: #231815;"/>
          <path d="M113.27,59.98c-.64,0-1.18-.07-1.63-.2-.45-.14-.87-.35-1.28-.63-.36-.25-.61-.6-.76-1.05-.15-.45-.07-.91,.22-1.37,.19-.28,.4-.48,.64-.58,.24-.1,.47-.15,.69-.13,.23,.02,.42,.07,.59,.15,.37,.18,.65,.31,.86,.39,.2,.08,.44,.12,.7,.12,.39,0,.72-.14,.98-.41,.27-.27,.4-.66,.4-1.15v-1.28h-.28c-.07,.56-.29,.99-.64,1.31-.35,.32-.83,.48-1.44,.48-.46,0-.91-.12-1.35-.35-.44-.23-.8-.6-1.09-1.1-.28-.5-.43-1.17-.43-2,0-1.22,.27-2.13,.8-2.72,.54-.6,1.23-.9,2.08-.9,.59,0,1.09,.2,1.51,.59,.42,.39,.63,.94,.63,1.65l.05-.02v-.88c0-.37,.12-.69,.35-.97,.24-.28,.61-.42,1.11-.42,.54,0,.92,.14,1.16,.42,.24,.28,.35,.6,.35,.97l.02,4.96c.01,1.09-.12,2.02-.4,2.79-.28,.77-.73,1.35-1.35,1.75-.62,.4-1.46,.6-2.49,.6Zm-1.16-8.08c0,.57,.38,.85,1.13,.85,.49,0,.84-.07,1.04-.2,.2-.14,.3-.35,.3-.65s-.1-.51-.31-.63c-.2-.12-.55-.17-1.05-.17-.36,0-.63,.06-.83,.17-.19,.12-.29,.33-.29,.63Z" style="fill: #231815;"/>
        </g>
        <g>
          <path d="M1.68,49.26c-.5,0-.9-.14-1.21-.43C.16,48.54,0,48.14,0,47.64s.14-.89,.42-1.2c.28-.3,.7-.45,1.26-.45h6.41c.56,0,.97,.15,1.26,.45,.28,.3,.42,.7,.42,1.2s-.16,.9-.47,1.19c-.31,.29-.72,.43-1.21,.43-.34,0-.61-.04-.81-.11-.2-.07-.37-.16-.5-.27-.13-.1-.25-.19-.37-.27-.12-.07-.27-.11-.45-.11l-.13,.27c.04,.09,.11,.22,.21,.38,.1,.16,.19,.4,.28,.7,.09,.3,.13,.71,.13,1.23v4.3c0,.41-.15,.74-.45,1.01-.3,.27-.67,.4-1.11,.4s-.82-.13-1.12-.4c-.3-.27-.45-.6-.45-1.01v-4.3c0-.52,.04-.92,.13-1.23,.09-.3,.19-.54,.29-.7,.1-.16,.18-.29,.22-.38l-.15-.27c-.18,0-.33,.04-.45,.11-.12,.07-.24,.16-.37,.27-.13,.1-.29,.19-.49,.27-.2,.07-.47,.11-.82,.11Z" style="fill: #231815;"/>
          <path d="M10.05,56.78c-.73,0-1.31-.2-1.72-.59-.41-.4-.62-.95-.62-1.67s.24-1.23,.71-1.55c.48-.32,1.09-.48,1.83-.48,.44,0,.83,.03,1.19,.09s.68,.14,.97,.25h.04v-.22c0-.23-.08-.41-.25-.54-.17-.13-.38-.2-.64-.19-.25,0-.46,.01-.63,.04-.17,.03-.39,.08-.65,.15-.48,.12-.89,.11-1.23-.03-.35-.14-.59-.41-.71-.82-.12-.43-.09-.78,.08-1.07,.17-.29,.44-.51,.8-.67,.31-.15,.65-.27,1.03-.37,.38-.1,.8-.15,1.24-.15,1.3,0,2.25,.31,2.86,.94,.61,.63,.91,1.68,.91,3.16v2.3c0,.41-.12,.74-.37,1.01-.25,.27-.59,.4-1.03,.4-.48,0-.83-.13-1.06-.4-.23-.27-.35-.59-.35-.98v-.34h-.3c0,.26-.05,.52-.14,.79-.09,.27-.29,.49-.58,.67-.29,.18-.76,.27-1.39,.27Zm.15-3.26c0,.17,.06,.29,.19,.36,.12,.07,.39,.1,.81,.1,.38,0,.64-.03,.79-.1,.15-.07,.22-.19,.22-.36,0-.16-.07-.27-.22-.33-.15-.06-.41-.1-.79-.1-.42,0-.69,.03-.81,.1-.12,.06-.19,.18-.19,.33Z" style="fill: #231815;"/>
          <path d="M15.99,47.28c0-.43,.13-.77,.39-1.03s.63-.39,1.09-.39c.5,0,.86,.13,1.11,.39,.24,.26,.36,.6,.36,1.03s-.12,.75-.36,1c-.24,.25-.61,.38-1.11,.38s-.86-.13-1.11-.38c-.25-.25-.38-.58-.38-.99Zm1.49,9.5c-.47,0-.81-.13-1.04-.39-.23-.26-.34-.58-.34-.97v-5.09c0-.43,.11-.76,.34-1.01,.23-.25,.57-.37,1.04-.37s.82,.12,1.05,.37c.23,.25,.35,.58,.35,.98v5.12c0,.39-.12,.71-.36,.97-.24,.26-.59,.39-1.03,.39Z" style="fill: #231815;"/>
          <path d="M23.36,56.83c-.77,0-1.46-.16-2.05-.48-.59-.32-1.06-.78-1.4-1.38-.34-.59-.51-1.29-.51-2.1s.17-1.5,.51-2.1c.34-.59,.81-1.06,1.41-1.38,.6-.33,1.29-.49,2.07-.49,.61,0,1.16,.06,1.63,.19,.47,.13,.84,.32,1.12,.58,.27,.26,.41,.58,.41,.97,0,.47-.12,.83-.36,1.09-.24,.26-.58,.39-1.03,.39-.3,0-.59-.04-.88-.13-.29-.09-.67-.13-1.12-.13-.38,0-.69,.06-.95,.18-.26,.12-.39,.34-.39,.65s.13,.56,.39,.71c.26,.14,.57,.22,.95,.22,.31,0,.57-.03,.77-.09s.41-.12,.59-.18c.19-.06,.4-.09,.64-.09,.51,0,.88,.15,1.12,.44,.24,.29,.36,.67,.36,1.12,0,.39-.14,.73-.43,1.03-.29,.3-.68,.54-1.17,.71-.5,.17-1.06,.26-1.68,.26Z" style="fill: #231815;"/>
          <path d="M28.66,56.78c-.44,0-.78-.13-1.03-.39-.25-.26-.38-.59-.38-.97v-8.61c0-.42,.13-.77,.38-1.06,.25-.29,.61-.43,1.08-.43s.8,.14,1.03,.43c.23,.29,.35,.64,.35,1.07v4.45h.27c0-.57,.1-1.01,.3-1.34,.2-.33,.47-.56,.79-.71,.32-.14,.65-.22,.99-.22,.59,0,1.05,.15,1.36,.44,.31,.29,.53,.68,.64,1.17,.11,.49,.17,1.02,.17,1.59v3.21c0,.41-.13,.74-.39,.99-.26,.25-.61,.38-1.05,.38s-.8-.13-1.06-.38c-.26-.25-.39-.58-.39-.99v-2.63c0-.36-.07-.63-.21-.83-.14-.2-.34-.3-.61-.3s-.47,.11-.61,.33c-.14,.22-.21,.5-.21,.83v2.6c0,.39-.13,.71-.38,.97-.25,.26-.6,.39-1.05,.39Z" style="fill: #231815;"/>
          <path d="M37.76,56.78c-.69,0-1.26-.26-1.7-.79-.44-.53-.66-1.26-.67-2.22v-3.44c-.01-.43,.12-.76,.38-1,.26-.24,.62-.36,1.08-.36s.79,.12,1.06,.36c.27,.24,.4,.58,.4,1v3.11c0,.74,.29,1.12,.88,1.12,.29,0,.48-.11,.58-.32,.1-.21,.15-.49,.15-.83v-3.08c0-.39,.13-.71,.4-.97,.27-.26,.61-.39,1.04-.39s.79,.13,1.03,.39c.24,.26,.36,.59,.36,.97v4.88c0,.48-.11,.85-.32,1.14-.21,.28-.56,.42-1.03,.42s-.83-.14-1.09-.42c-.26-.28-.39-.66-.39-1.14v-.25h-.27c0,.58-.17,1.02-.51,1.34-.34,.32-.8,.48-1.38,.48Z" style="fill: #231815;"/>
          <path d="M44.97,56.78c-.44,0-.79-.13-1.05-.39-.26-.26-.39-.59-.39-.97v-4.92c0-.42,.12-.77,.37-1.06,.25-.29,.6-.43,1.07-.43s.8,.14,1.04,.43c.24,.29,.36,.65,.36,1.09v.74h.27c0-.57,.1-1.01,.3-1.34,.2-.33,.46-.56,.78-.71,.32-.14,.63-.22,.95-.22,.76,0,1.32,.28,1.68,.83,.36,.55,.54,1.33,.54,2.34v3.24c0,.39-.13,.71-.39,.97-.26,.26-.6,.39-1.04,.39s-.8-.13-1.06-.39c-.26-.26-.39-.59-.39-.97v-2.63c0-.36-.07-.63-.2-.83-.13-.2-.33-.3-.59-.3-.3,0-.51,.11-.65,.33-.13,.22-.2,.5-.2,.83v2.6c0,.39-.12,.71-.37,.97-.25,.26-.59,.39-1.03,.39Z" style="fill: #231815;"/>
          <path d="M55.13,59.85c-.6,0-1.12-.06-1.54-.19-.42-.13-.83-.33-1.21-.59-.34-.24-.58-.57-.71-1-.14-.43-.07-.86,.21-1.29,.18-.27,.38-.45,.6-.55,.22-.1,.44-.14,.65-.13,.21,.01,.4,.06,.56,.14,.35,.17,.62,.29,.81,.36,.19,.07,.41,.11,.66,.11,.37,0,.68-.13,.93-.39,.25-.26,.38-.62,.38-1.09v-1.2h-.27c-.07,.53-.27,.94-.6,1.24-.33,.3-.79,.45-1.36,.45-.44,0-.86-.11-1.28-.33-.42-.22-.76-.57-1.03-1.04s-.4-1.11-.4-1.89c0-1.15,.25-2.01,.76-2.57,.51-.57,1.16-.85,1.96-.85,.56,0,1.03,.19,1.43,.56,.4,.37,.59,.89,.59,1.55h.04v-.85c0-.35,.11-.65,.33-.91,.22-.26,.57-.39,1.05-.39,.51,0,.87,.13,1.09,.39,.22,.26,.33,.57,.33,.91v4.68c.02,1.03-.1,1.91-.36,2.63-.26,.72-.69,1.27-1.28,1.65-.59,.38-1.38,.57-2.36,.57Zm-1.1-7.63c0,.54,.36,.8,1.07,.8,.47,0,.79-.06,.98-.19,.19-.13,.28-.33,.28-.61s-.1-.49-.29-.59c-.19-.11-.52-.16-.99-.16-.34,0-.6,.05-.78,.16-.18,.11-.28,.31-.28,.59Z" style="fill: #231815;"/>
        </g>
      </g>
    </g>
  </g>
</svg>