<?xml version="1.0" encoding="UTF-8"?>
<svg id="b" data-name="圖層 2" xmlns="http://www.w3.org/2000/svg" width="196.32" height="100.21" viewBox="0 0 196.32 100.21">
  <g id="c" data-name="menu">
    <g>
      <g>
        <path d="M93.79,45.56c-.15-.4-.53-.65-.94-.65-.08,0-.16,0-.24,.03-.53,.13-1.47,.34-2.81,.6-1.32,.26-2.48,.43-3.45,.49-.02,0-.04,0-.06,0-.5,.06-1.28,.09-2.33,.09-3,0-6.49-.65-10.4-1.93,1.74-1.12,3.93-2.74,6.51-4.82,.7,.1,1.09,.22,1.31,.3-.03,.04-.06,.09-.09,.14-.23,.35-.22,.82,.03,1.16,.19,.26,.49,.4,.8,.4,.1,0,.2-.01,.3-.05,1.2-.38,2.36-1,3.44-1.86,1.23-.98,1.86-2.15,1.86-3.49,0-.63-.1-1.14-.3-1.55-.28-.62-.89-1.42-2.24-1.77-.88-.23-2.31-.34-4.39-.34l-12.59,.2h-9.11c-.36-.69-.98-1.3-1.86-1.83,.04-.16,.04-.32,0-.48,.16-.08,.48-.2,1.09-.3,1.54-.26,3.77-.39,6.63-.39,3.46,0,5.98,.13,7.49,.39,.37,.06,.61,.13,.77,.19-.12,.31-.08,.66,.12,.94,.19,.27,.5,.42,.82,.42,.1,0,.19-.01,.29-.04,.81-.24,1.58-.67,2.29-1.26,.84-.7,1.28-1.69,1.28-2.86,0-1.79-.84-2.56-1.54-2.9-.1-.05-.21-.09-.32-.13,.2-.13,.4-.28,.59-.44,.84-.7,1.28-1.69,1.28-2.86,0-1.79-.84-2.56-1.54-2.9-.8-.38-2.12-.56-4.16-.56,0,0,0,0-.01,0l-7.67,.1h-4.79c-2.25,0-3.86,.19-4.94,.57-1.35,.48-2.1,1.58-2.1,3.09,0,1.04,.37,2.38,1.97,3.3-.82,.33-1.41,.9-1.71,1.65-.05-.1-.12-.19-.21-.27-.19-.18-.43-.27-.68-.27-.15,0-.31,.03-.45,.11-.06,.03-.24,.1-.67,.1-.23,0-.42-.29-.56-.88-.25-1-.34-2.73-.28-5.15,0-1.16,.02-2.2,.05-3.11,14.43,.01,24.23,.35,29.18,.99l-.06,1.34c-.14,2.57-.21,4.17-.21,4.75,0,1.66,.21,2.77,.66,3.5,.02,.03,.03,.05,.05,.07,1.08,1.41,2.55,2.13,4.37,2.13,1.43,0,2.68-.37,3.7-1.11,.48-.35,.96-.76,1.44-1.23,0-.02-.02-.04-.02-.05-.12,.02-.24-.01-.33-.13-.6-.79-1.02-3.28-1.02-4.11,0-2.13,.17-4.46,.5-6.92,0-.01,0-.02,0-.04,.14-1.42,.21-2.35,.21-2.86,0-2.71-1.56-4.27-4.27-4.27-1.67,0-3.74,.5-6.32,1.53-2.4-.04-4.89-.07-7.47-.1,.37-.23,.74-.49,1.09-.78,1.22-1.01,1.85-2.34,1.85-3.94,0-1.73-.91-2.96-2.55-3.46-1.34-.41-3.91-.61-7.86-.61-2.36,0-4.33,.03-5.85,.1l-11.63,.1h-12.56c-4.69,0-7.88,.23-9.75,.69-2.97,.74-3.42,2.75-3.42,3.88,0,1.99,1.14,3.29,2.57,4.13-2.77,.04-5.22,.09-7.35,.16-.58-1.57-1.99-2.43-4.03-2.43-1.6,0-3.65,.55-6.23,1.66,0,.02,.02,.03,.03,.05,.04,.15,.07,.3,.11,.45,.34,.65,1.81,6.51,1.81,9.68,0,1.15-.2,2.21-.59,3.14-.28,.68-1.54,2.34-2.18,2.89,1.73,2.15,3.68,3.25,5.81,3.25,.63,0,1.09-.04,1.45-.13,1.6-.34,2.71-1.15,3.29-2.39,.51-1.1,.76-2.88,.76-5.43v-3.57c6.15-.48,15.11-.79,26.65-.93-.03,.65-.04,1.43-.04,2.36l-.1,4.47c0,2.49,.09,4.27,.27,5.48,.21,1.42,.65,2.4,1.36,3.01,.69,.6,1.65,.91,2.85,.91,1.43,0,2.77-.61,3.98-1.83,.22-.22,.44-.46,.64-.7,0,.33,.17,.64,.45,.82,.07,.05,.17,.11,.17,.39,0,.24-.1,.68-.56,1.41-.42,.66-1,1.3-1.74,1.91-3.15,2.6-7.88,3.83-8.78,4.06-.1,.55-.17,1.06-.17,1.51,0,1.43,.31,2.69,.91,3.75-.7-.37-1.52-.56-2.46-.56-.65,0-1.3,.1-1.94,.29-1.2-.12-2.43-.19-3.68-.19l-1.1,.03c.58-.46,1.15-.93,1.71-1.4,.21-.15,.8-.6,2.88-2.26,.34-.27,.93-.73,1.77-1.36,.89-.67,1.65-1.35,2.27-2,.76-.8,1.14-1.65,1.14-2.53,0-.82-.31-1.98-1.76-2.85-.4-.24-.85-.44-1.33-.58,.38-.21,.74-.46,1.1-.75,.84-.7,1.28-1.69,1.28-2.86,0-1.65-.74-2.44-1.36-2.8-.15-.09-.31-.16-.5-.23,.2-.13,.39-.28,.58-.43,.84-.7,1.28-1.69,1.28-2.86,0-1.65-.74-2.44-1.36-2.8-.76-.44-1.94-.65-3.73-.65,0,0-.01,0-.02,0l-6.23,.1h-6.01c-2.59,0-4.37,.19-5.45,.57-1.35,.48-2.1,1.58-2.1,3.09,0,1.04,.37,2.38,1.97,3.3-1.27,.51-1.97,1.58-1.97,3.04,0,.97,.32,2.18,1.64,3.09h-1.55c-3.47,0-5.86,.22-7.3,.66-1.74,.54-2.7,1.86-2.7,3.72,0,1.16,.43,2.17,1.27,3.01,.36,.36,.77,.68,1.21,.96,1.06-.53,4.1-1.22,4.68-1.29,.79-.1,1.75-.19,2.88-.25-.41,.28-.8,.65-1.15,1.11-.68,.89-1.02,1.9-1.02,3.01,0,.2,.03,.54,.23,1.37,.09,.35,.36,.62,.7,.72,.09,.02,.18,.04,.27,.04,.26,0,.52-.1,.71-.29,.22-.22,.36-.22,.42-.22,.23,0,.85,.11,2.15,.96h-2.25c-4.42,.07-7.31,.28-8.86,.64-1.92,.45-2.97,1.74-2.97,3.63,0,1.11,.52,2.15,1.55,3.09,.44,.41,.91,.76,1.4,1.06,1.05-.37,3.59-.87,3.84-.93,1.2-.27,3.03-.49,5.46-.68-.59,.99-1.25,1.9-1.98,2.71-.01,.01-.02,.02-.03,.04-1.97,2.43-4.09,4.38-6.31,5.82-2.14,1.39-3.92,2.09-5.28,2.09-1.07,0-1.31-.4-1.39-.54-.18-.31-.51-.49-.86-.49-.07,0-.15,0-.22,.02-.42,.1-.73,.45-.78,.88-.22,2.39,.11,4.36,1,5.87,.96,1.63,2.48,2.49,4.39,2.49s4.04-.88,6.22-2.69c.1,.27,.31,.48,.59,.59,1.88,.69,3.64,1.94,5.22,3.71,.01,.01,.03,.03,.04,.04,.19,.2,.64,.65,1.31,1.36,.71,.74,1.45,1.41,2.21,2,.89,.68,1.94,1.02,3.11,1.02,1.75,0,3.2-.77,4.2-2.22,.94-1.38,1.4-3.75,1.4-7.26,0-1.03-.04-1.88-.11-2.53-.13-2.53-.2-5.29-.2-8.2,0-.28,0-.56,0-.83,.22,.62,.53,1.22,.93,1.81,.93,1.35,2.2,2.07,3.69,2.07,1.08,0,1.98-.33,2.68-.98,.57-.53,1.24-1.43,2.04-2.73,.22-.3,.49-.72,.85-1.33l.47-.8c.07-.09,.22-.27,.46-.55,.02-.02,.04-.05,.06-.08,.91-1.34,1.54-2.32,1.9-3.01,.42-.8,.63-1.47,.63-2.05,0-.49-.1-.94-.29-1.35,.51,.27,1.1,.41,1.74,.41,.74,0,1.51-.17,2.29-.52-.62,.57-1.13,1.22-1.53,1.94-.56,1-.84,1.97-.84,2.89,0,.84,.26,1.6,.78,2.26,.52,.67,1.25,1.1,2.18,1.28,.73,.15,1.38,.22,1.93,.22,2.12,0,4.77-.58,7.89-1.73,0,.1,.01,.19,.04,.29,.11,.39,.44,.67,.84,.72,.38,.05,.54,.2,.63,.31,.13,.15,.2,.34,.22,.56h-8.49c-4.01,0-6.66,.2-8.09,.6-1.76,.5-2.72,1.76-2.72,3.57,0,1.44,.56,2.69,1.65,3.7,.39,.36,.79,.67,1.19,.94,.37-.14,.75-.25,1.15-.3,.44-.05,2.86-.56,3.55-.71,.28-.06,.6-.12,.94-.17,0,0,.01,0,.02,0,.03-.01,.06-.01,.09-.01,1.42-.22,3.36-.39,5.82-.5-1.72,1.38-3.6,2.51-5.64,3.39-2.86,1.23-12.71,1.17-12.86,1.12-.75,1.45-1.13,2.86-1.13,4.2,0,1.49,.45,2.72,1.35,3.66,.86,.9,1.92,1.45,3.15,1.62,.36,.08,.88,.12,1.61,.12,3.02,0,6.6-1.12,10.65-3.34,4-2.19,7.86-5.34,11.46-9.36l1.36-1.62,6.6-.1c1.72,0,3.13,.05,4.23,.16-.03,.09-.06,.18-.08,.26,0,.02-.01,.05-.02,.07-.48,1.92-.82,2.76-1.03,3.13-.22,.4-.55,.69-1,.87-.91,.3-2.2,.45-3.84,.45s-2.99,.07-3.93,.22c-.48,.07-.83,.47-.85,.96-.02,.48,.31,.91,.78,1.01,1.08,.24,1.96,.6,2.59,1.06,.67,.49,1.5,1.35,2.46,2.57,.01,.02,.03,.03,.04,.05,1.23,1.37,2.27,2.34,3.2,2.97,.86,.58,1.82,.88,2.87,.88,.24,0,.48-.02,.73-.05,1.26-.19,2.26-1.09,3.03-2.65,.63-1.29,1.2-2.94,1.75-5.05,.12-.28,.21-.65,.33-1.13,.17-.68,.42-1.71,.75-3.07,.77-2.95,1.15-4.91,1.15-5.96,0-1.15-.3-2.1-.88-2.79,1.32-.05,2.39-.42,3.19-1.1,.74-.63,1.82-1.87,3.31-3.78,1.34-1.79,2.63-3,3.85-3.6,.46-.23,.67-.76,.49-1.24ZM58.32,22.99c1.49-.49,3.77-.39,6.63-.39,3.46,0,6.06-.13,7.49,.39,.63,.23,.75,.84,.74,.87-.28,0-.57-.01-.88-.01,0,0,0,0-.01,0l-7.67,.1h-4.79c-.98,0-1.83,.04-2.58,.11,0-.06,.04-.73,1.06-1.06Zm-7.91-14.83h2.98c5.04,0,8.8,.14,11.18,.4,.48,.05,.89,.11,1.22,.17,.7,.12,1.19,.78,1.11,1.48,0,0,0,0,0,0-5.2-.04-10.72-.07-16.5-.07v-1.99Zm-8.18,2.1c-6.01,0-11.34,.03-15.95,.08,0,0,0,0,0,0-.07-.68,.41-1.31,1.08-1.45,.31-.06,.69-.12,1.15-.17,2.58-.29,7.2-.47,13.75-.55,0,.5-.02,1.68-.04,2.09Zm-5.88,20.34c-.69,0-1.42,.11-2.16,.3-1.67-.13-5.18-.19-10.44-.19h-3.01c.04-.15,.03-.32,0-.47,.18-.08,.53-.2,1.18-.3,1.68-.26,4.47-.4,8.28-.4,4.22,0,5.71,.37,6.22,.58-.06,.16-.08,.32-.06,.48Zm-14.44-7.57c8.61-1.36,14.48,.8,14.47,.83-.09,0-.18,0-.27,0,0,0-.01,0-.02,0l-6.23,.1h-6.01c-1.2,0-2.23,.04-3.09,.12,0-.06-.38-.81,1.15-1.05Zm.43,39.59c-.11,1.38-.48,2.32-1.09,2.79-.68,.52-1.57,.77-2.72,.77-.51,0-1.37-.07-2.55-.2-1.13-.14-1.91-.21-2.36-.21-.14,0-.26,0-.38,0,.18-.18,.37-.37,.55-.57,2.78-2.95,5.45-6.3,7.92-9.94,.26-.38,.53-.8,.83-1.27-.01,3.6-.08,6.5-.2,8.63Zm3.08-21.92l-.26-.19c-.54-.41-1.24-.95-2.07-1.62-.88-.7-1.65-1.21-2.34-1.55,1.26-.02,2.63-.04,4.11-.04,2.02,0,3.68,.03,4.96,.1-1.49,1.23-2.96,2.34-4.41,3.3Zm5.99,11.67c-.13,0-.33-.03-.62-.32-.19-.19-.45-.29-.71-.29-.13,0-.26,.02-.38,.08-.08,.03-.15,.08-.22,.13,0-.46,.02-.88,.03-1.26,1.81,.01,3.08,.05,3.97,.1-1.24,1.44-1.88,1.57-2.07,1.57Zm21.38-24.63c.02,.54,.13,1.14,.46,1.72-.16-.01-.33-.02-.49-.02-.27,0-.54,.01-.81,.04-.06,0-.11,.02-.17,.03,.37-.55,.71-1.14,1-1.77Zm-2.07,18.6c-1.1,0-1.46-.19-1.56-.25,.02-.38-.18-.76-.52-.94-.13-.07-.27-.11-.41-.13,.07-.04,.13-.09,.2-.14,.99-.7,2.46-1.86,4.4-3.46-.03,.19-.05,.39-.05,.59,0,.77,.21,1.53,.62,2.28,.45-.03,4.27,.3,4.81,.45-2.96,1.06-5.47,1.59-7.5,1.59Zm9.42-6.99c.16,0,.32,0,.48,0l9.24-.1h.49c-.46,.29-4.46,1.97-4.46,1.97-.58-.25-5-1.59-5.75-1.87Zm15.73,14.97l-8.01,.09c0-.1,0-.21,0-.31,0-1.34-.68-2.38-1.91-2.95-1.09-.47-2.23-.7-3.43-.71,1.4-.66,2.83-1.38,4.27-2.17l2.3,1.11c2.03,.95,4.28,2.07,6.69,3.35,.76,.44,1.44,.82,2.03,1.13-.68,.07-1.33,.23-1.95,.47Z" style="fill: #231815;"/>
        <g>
          <path d="M196.27,26.24c-.14-.42-.52-.69-.95-.69-.06,0-.11,0-.17,.01l-2.94,.51c-.62,.07-1.35,.17-2.17,.31-.8,.13-1.75,.27-2.92,.4-1.56,.13-2.73,.2-3.46,.2-2.43,0-4.93-.32-7.42-.94-2.13-.53-4.48-1.4-7.01-2.58l3.64-3.09c3.2-2.71,5.36-4.66,6.61-5.94,1.41-1.45,2.12-2.87,2.12-4.22,0-1.45-.63-2.58-1.83-3.27-1.04-.6-2.31-.9-3.77-.9s-2.83,.27-4.01,.82h-10.28c.45-.81,.68-1.6,.68-2.37,0-1.4-.59-2.57-1.69-3.37-1.02-.74-2.37-1.11-4.01-1.11-.92,0-2.01,.18-3.34,.55-.41,.11-.71,.48-.73,.91-.02,.43,.23,.83,.63,.99,.37,.15,.39,.3,.39,.5,0,.22-.09,.73-.73,1.61-.55,.77-1.32,1.55-2.27,2.31-2.58,2.05-4.98,3.57-7.14,4.52-2.11,.93-8.93,1.42-10.19,1.04-.54,1.69-.84,3.28-.84,4.73,0,1.91,.53,3.4,1.57,4.44,1.04,1.04,2.46,1.57,4.23,1.57s3.68-.7,6.04-2.14c1.01-.62,2.19-1.4,3.52-2.35-.43,.77-.65,1.66-.65,2.67,0,.69,.12,1.4,.33,2.11,1.18-.03,5.58,.86,7.16,1.51-2.17,1.31-4.44,2.34-6.75,3.09-2.85,.92-5.48,1.38-7.82,1.38-1.68,0-3.05-.24-4.07-.72-1.26-.59-1.35-1.19-1.38-1.39-.06-.41-.37-.74-.78-.83-.07-.02-.14-.02-.21-.02-.33,0-.65,.17-.84,.45-1.13,1.73-1.7,3.77-1.7,6.07,0,1.75,.41,3.3,1.22,4.61,.88,1.43,2.07,2.24,3.55,2.41,.42,.05,.88,.08,1.35,.08,1.1,0,2.31-.14,3.64-.41-.71,.73-1.08,1.72-1.08,2.92,0,1.5,.55,2.8,1.64,3.84,.95,.92,2.12,1.64,3.49,2.16-.05,.02-.1,.03-.16,.05-1.91,.65-2.93,2.09-2.93,4.17,0,1.51,.57,2.81,1.7,3.85,.77,.71,1.66,1.29,2.66,1.72-1.91,.04-3.48,.12-4.67,.23-2.02,.19-3.49,.59-4.52,1.22-.82,.51-1.81,1.53-1.81,3.51,0,1.57,.55,2.9,1.62,3.98,.55,.55,1.19,1.01,1.89,1.38,.39-.15,5.46-1.97,8.61-2.21,2.44-.19,5.9-.32,10.29-.39,.08,2.68,.23,4.77,.45,6.24,.27,1.82,.76,3.09,1.49,3.86,.77,.82,1.93,1.23,3.44,1.23,1.85,0,3.4-.66,4.62-1.95,1.06-1.14,2.11-2.57,3.1-4.27,.21-.36,.18-.81-.09-1.14-.19-.24-.48-.37-.78-.37-.11,0-.21,.02-.32,.05-.63,.21-1.01,.26-1.22,.26-.4,0-.69-.11-.91-.69-.18-.46-.41-1.38-.57-3.24,6.27,.02,10.62,.26,12.94,.7,1.37,.26,5.44,1.54,5.6,1.58,2.43-1.26,3.67-3.04,3.67-5.33,0-1.8-.89-2.75-1.63-3.24-.93-.61-2.44-.99-4.6-1.18-1.52-.13-3.7-.21-6.48-.24,3.22-1.26,4.84-3.23,4.84-5.86,0-1.93-.92-3.28-2.66-3.91-.09-.03-.19-.06-.29-.1,1.43-.55,2.67-1.22,3.68-2,1.28-.98,1.92-2.4,1.92-4.22,0-1.94-.98-3.3-2.83-3.91-1.55-.52-4.33-.77-8.49-.77l-5.29,.09c.05-1.95-.13-3.29-.55-4.17-.57-1.18-1.9-1.9-3.95-2.15-.41-.05-.82-.08-1.21-.08-1.15,0-2.18,.23-3.08,.68,1.42-.91,2.81-1.89,4.17-2.92l5.94,3.46c3.34,1.98,6,3.44,7.9,4.33,2,.95,3.88,1.42,5.59,1.42,1.86,0,3.44-.5,4.71-1.49,1.16-.9,2.32-2.16,3.46-3.73,2.21-2.99,4.08-4.88,5.57-5.62,.44-.22,.66-.74,.5-1.21Zm-29.49,19.22c3.46,.08,6.14,.28,7.98,.58,1.48,.24,2.03,.54,2.22,.68-.05,.09-.13,.22-.27,.41-.22,.31-.24,.7-.08,1.03-1.4-.22-3.24-.32-5.54-.32l-4.31,.08v-2.45Zm-.1,10.23c2.58,.08,4.58,.26,5.97,.52,1.42,.27,1.64,.62,1.64,.62,0,.11-.11,.27-.2,.37-.27,.33-.29,.8-.07,1.16-.19,0-.39,0-.58,0h-6.77v-2.67Zm-18.36-18.4c2.57-1.05,5.08-2.31,7.52-3.72,.04,.04,.1,.09,.2,.14,.39,.19,1.18,3.86,1.26,4.01h-5.32c-2,0-3.71,.06-5.15,.17,.49-.19,.98-.38,1.49-.59Zm9.4,21.07h-7.89c-.48,0-.95,0-1.4,0,.21-.33,.21-.76-.01-1.09,0-.02-.04-.1-.04-.26h0s.27-.43,2.09-.75c1.69-.3,4.15-.49,7.31-.57-.03,.77-.04,1.66-.05,2.67Zm.2-10.44l-5.63-.09c-2.52,0-4.52,.15-6.04,.44,.22-.32,.23-.74,.04-1.07-.1-.16-.1-.24-.1-.24h0s.24-.39,1.8-.72c2.03-.43,5.39-.69,10-.78l-.07,2.46Zm3.85-28.2l-1.44-.79c-2.09-1.18-3.58-1.95-4.55-2.35-1.04-.42-2.15-.64-3.29-.64-.02,0-.04,0-.06,0-.38,.02-.74,.08-1.1,.16,.52-.4,1.06-.81,1.61-1.24,2.78-.06,7.66-.09,14.52-.09-1.48,1.36-3.39,3.02-5.69,4.95Z" style="fill: #231815;"/>
          <path d="M131.55,53.73c-.34-1.64-.58-4.11-.64-7.37v-4.48c0-9.27,.21-17.09,.61-23.24,.23-2.42-.03-4.13-.8-5.2-.81-1.12-2.15-1.69-3.98-1.69-1.61,0-3.01,.36-4.16,1.07-.87,.54-1.83,1.31-2.87,2.29,.08-2.57,.16-4.6,.26-6.07,0-.01,0-.02,0-.03,.07-2.55-.23-4.3-.94-5.34-.78-1.14-2.14-1.72-4.05-1.72-1.68,0-3.17,.39-4.45,1.17-1.2,.73-2.39,1.71-3.53,2.93-.3,.32-.36,.81-.14,1.19,.18,.31,.51,.5,.86,.5,.08,0,.16,0,.24-.03,.14-.03,.38-.07,.78-.07,.78,0,1.25,.26,1.56,.88,.41,.82,.65,2.15,.71,3.96V50.62l-3.3,.44c.13-14.23,.34-24.24,.6-29.78,.15-2.48-.12-4.21-.83-5.3-.78-1.18-2.14-1.78-4.06-1.78-1.68,0-3.17,.39-4.45,1.17-1.21,.73-2.37,1.73-3.45,2.95-.29,.33-.33,.81-.11,1.18,.18,.3,.51,.48,.86,.48,.08,0,.16,0,.24-.03,.13-.03,.38-.07,.78-.07,.97,0,1.3,.43,1.49,.85,.38,.82,.61,2.17,.67,3.99v27.53c-3.19,1.02-3.88,3.11-3.88,4.75s.71,3.68,2.14,6.19c1.36-.69,7.22-2.67,9.59-3.17l2.04-.41c5.84-1.16,10.42-2.02,13.64-2.58,.19,1.36,.53,2.46,1.03,3.36,.5,.91,1.54,2,3.64,2,2.33,0,4.52-1.45,6.51-4.31-.08-.05-2.14-2.03-2.62-4.37Zm-8.67-4.74l-3.62,.53c0-7.08,.08-14.72,.2-22.74,.06-3.57,.12-6.69,.19-9.35,.05,0,.09,0,.14,0,.08,0,.16,0,.24-.03,.13-.03,.38-.07,.78-.07,.7,0,1.12,.24,1.4,.81,.38,.79,.6,2.07,.67,3.82v27.02Z" style="fill: #231815;"/>
        </g>
      </g>
      <g>
        <g>
          <path d="M113.65,94.87c-1.07,0-1.91-.26-2.52-.79-.61-.53-1.1-1.25-1.46-2.17-.36-.92-.7-1.97-1.01-3.14l-2.55-9.47c-.19-.74-.15-1.42,.13-2.06,.28-.64,.83-1.07,1.66-1.28,.77-.21,1.45-.16,2.05,.16,.6,.32,1,.87,1.21,1.66l2.37,8.65c.21,.75,.43,1.31,.67,1.66s.62,.46,1.14,.34c.49-.12,.75-.39,.79-.82,.03-.42-.05-1.02-.26-1.79l-1.68-6.39c-.23-.88-.2-1.63,.09-2.27,.29-.64,.86-1.06,1.72-1.25,.88-.21,1.58-.1,2.12,.33,.53,.43,.9,1.03,1.09,1.8l2.13,8.39c.23,.86,.48,1.44,.75,1.74,.27,.3,.63,.39,1.06,.26,.49-.14,.73-.42,.71-.83-.02-.41-.08-1.01-.18-1.8-.16-1.23-.29-2.24-.41-3.02-.11-.79-.2-1.45-.26-1.97-.06-.53-.09-1.01-.09-1.45,0-.98,.29-1.82,.87-2.51,.58-.69,1.37-1.04,2.37-1.04s1.79,.31,2.31,.93c.53,.62,.79,1.48,.79,2.56,0,.7-.1,1.44-.3,2.21-.2,.77-.4,1.5-.59,2.18l-1.47,5.08c-.33,1.16-.66,2.2-.99,3.12-.32,.92-.76,1.65-1.3,2.18-.54,.54-1.31,.8-2.31,.8-1.21,0-2.16-.38-2.84-1.13-.68-.75-1.21-1.99-1.58-3.71h-.18c-.35,1.72-.82,2.95-1.39,3.71-.58,.75-1.46,1.13-2.63,1.13Z" style="fill: #231815;"/>
          <path d="M133.84,94.79c-1.23,0-2.23-.46-3-1.39-.77-.93-1.17-2.24-1.18-3.92l-.03-6.07c0-.75,.23-1.35,.7-1.78,.46-.43,1.1-.64,1.91-.64s1.39,.21,1.87,.64c.47,.43,.71,1.02,.71,1.78v5.5c0,1.31,.52,1.97,1.55,1.97,.51,0,.85-.19,1.03-.57,.17-.38,.26-.86,.26-1.46v-5.44c0-.68,.24-1.26,.71-1.72,.47-.46,1.09-.7,1.84-.7s1.4,.23,1.83,.7c.43,.46,.64,1.04,.64,1.72v8.62c0,.84-.19,1.51-.57,2.01-.38,.5-.99,.75-1.83,.75s-1.47-.25-1.93-.75c-.46-.5-.7-1.17-.7-2.01v-.45h-.47c0,1.02-.3,1.81-.91,2.37-.6,.56-1.42,.84-2.43,.84Z" style="fill: #231815;"/>
          <path d="M148.62,94.79c-.74,0-1.34-.23-1.8-.7-.46-.46-.7-1.05-.7-1.75v-5.86c-.46,.11-.87,.04-1.24-.18s-.66-.57-.88-1.03c-.22-.46-.33-.96-.33-1.5s.11-1.05,.34-1.51c.23-.46,.53-.82,.91-1.07,.38-.24,.79-.3,1.25-.16,.09-1.3,.3-2.45,.63-3.46,.33-1.01,.85-1.8,1.54-2.38,.69-.58,1.6-.87,2.72-.87,.96,0,1.74,.2,2.31,.59s.99,.88,1.22,1.46,.31,1.17,.22,1.76c-.09,.58-.32,1.08-.71,1.51-.39,.43-.96,.64-1.71,.64-.53,0-.96-.11-1.31-.32-.35-.21-.64-.47-.88-.78s-.44-.6-.62-.88c-.44-.7-.89-.94-1.34-.71-.23,.12-.35,.32-.37,.59-.02,.27,.07,.58,.26,.93l.58,1c.3,.49,.61,.81,.95,.96,.33,.15,.75,.19,1.26,.12l1.26-.18c.81-.12,1.46,.1,1.97,.66,.51,.56,.76,1.25,.76,2.08s-.26,1.55-.78,2.06c-.52,.52-1.15,.73-1.91,.64l-1.1-.13v6c0,.7-.23,1.28-.68,1.75-.46,.46-1.07,.7-1.84,.7Z" style="fill: #231815;"/>
          <path d="M154.77,87.95c0-1.38,.28-2.6,.83-3.65,.55-1.05,1.34-1.88,2.37-2.47s2.25-.89,3.67-.89c1.1,0,2.1,.2,2.98,.6,.89,.4,1.58,.94,2.09,1.62,.51,.68,.76,1.42,.76,2.22s-.25,1.44-.74,1.79c-.49,.35-1.22,.53-2.18,.53h-5.52c0,.46,.18,.83,.54,1.13,.36,.3,.97,.45,1.83,.45,.44,0,.85-.04,1.22-.13,.38-.09,.76-.17,1.16-.25,.39-.08,.84-.12,1.33-.12,.7,0,1.28,.25,1.74,.75,.46,.5,.68,1.19,.68,2.06,0,1.03-.53,1.84-1.59,2.42-1.06,.58-2.45,.87-4.17,.87-1.21,0-2.34-.24-3.41-.71-1.06-.47-1.92-1.22-2.59-2.25-.67-1.03-1-2.34-1-3.96Zm8.52-1.13c.26,0,.35-.12,.26-.37-.07-.25-.28-.5-.63-.76-.35-.26-.86-.39-1.53-.39-.77,0-1.35,.17-1.72,.5-.38,.33-.57,.67-.57,1.03h4.18Z" style="fill: #231815;"/>
          <path d="M171.26,94.79c-.77,0-1.39-.23-1.85-.7-.46-.46-.7-1.04-.7-1.72v-8.7c0-.74,.22-1.36,.66-1.87,.44-.51,1.07-.76,1.89-.76s1.42,.25,1.84,.76c.42,.51,.63,1.15,.63,1.92v1.31h.47c0-1,.18-1.79,.54-2.37,.36-.58,.82-.99,1.38-1.25,.56-.25,1.12-.38,1.68-.38,1.35,0,2.34,.49,2.97,1.46s.95,2.35,.95,4.14v5.73c0,.68-.23,1.26-.68,1.72-.46,.46-1.07,.7-1.84,.7s-1.42-.23-1.88-.7c-.46-.46-.7-1.04-.7-1.72v-4.65c0-.63-.12-1.12-.35-1.47-.24-.35-.58-.53-1.04-.53-.53,0-.91,.19-1.14,.58s-.36,.88-.36,1.47v4.6c0,.68-.22,1.26-.66,1.72-.44,.46-1.04,.7-1.81,.7Z" style="fill: #231815;"/>
          <path d="M189.22,100.21c-1.07,0-1.98-.11-2.72-.34-.75-.23-1.46-.58-2.14-1.05-.6-.42-1.02-1.01-1.26-1.76-.25-.75-.12-1.52,.37-2.29,.32-.47,.67-.8,1.07-.97,.39-.18,.78-.25,1.16-.22,.38,.03,.71,.11,.99,.25,.61,.3,1.09,.51,1.43,.64,.34,.13,.73,.2,1.17,.2,.65,0,1.2-.23,1.64-.68,.45-.46,.67-1.1,.67-1.92v-2.13h-.47c-.12,.93-.48,1.66-1.06,2.2-.59,.54-1.39,.8-2.41,.8-.77,0-1.53-.19-2.26-.58-.74-.39-1.34-1-1.81-1.84-.47-.84-.71-1.95-.71-3.34,0-2.03,.45-3.55,1.34-4.55,.89-1,2.05-1.5,3.47-1.5,.98,0,1.82,.33,2.52,.99,.7,.66,1.05,1.57,1.05,2.75l.08-.03v-1.47c0-.61,.2-1.15,.59-1.62,.39-.46,1.01-.7,1.85-.7,.89,0,1.54,.23,1.93,.7,.39,.46,.59,1,.59,1.62l.03,8.28c.02,1.82-.21,3.37-.67,4.65-.46,1.28-1.22,2.25-2.26,2.92-1.04,.67-2.43,1-4.17,1Zm-1.95-13.49c0,.95,.63,1.42,1.89,1.42,.82,0,1.4-.11,1.74-.34,.33-.23,.5-.59,.5-1.08s-.17-.86-.51-1.05c-.34-.19-.92-.29-1.75-.29-.6,0-1.06,.1-1.38,.29-.32,.19-.49,.54-.49,1.05Z" style="fill: #231815;"/>
        </g>
        <g>
          <path d="M2.81,82.29c-.83,0-1.5-.24-2.02-.72-.52-.48-.78-1.14-.78-1.99s.24-1.49,.71-2c.47-.51,1.17-.76,2.1-.76H13.51c.93,0,1.63,.25,2.1,.76,.47,.51,.71,1.17,.71,2s-.26,1.51-.78,1.99c-.52,.48-1.2,.72-2.02,.72-.56,0-1.01-.06-1.35-.19-.34-.12-.62-.27-.83-.45-.22-.17-.42-.32-.62-.45-.2-.12-.45-.19-.75-.19l-.22,.45c.07,.15,.18,.36,.35,.63,.17,.27,.32,.66,.47,1.17,.15,.51,.22,1.19,.22,2.05v7.18c0,.68-.25,1.24-.76,1.69-.51,.45-1.12,.67-1.85,.67s-1.37-.22-1.88-.67c-.51-.45-.76-1.01-.76-1.69v-7.18c0-.86,.07-1.54,.22-2.05,.15-.51,.31-.89,.48-1.17,.17-.27,.29-.48,.36-.63l-.25-.45c-.3,0-.55,.06-.75,.19-.2,.12-.41,.27-.62,.45-.22,.17-.49,.32-.82,.45-.33,.12-.79,.19-1.37,.19Z" style="fill: #231815;"/>
          <path d="M16.79,94.86c-1.23,0-2.18-.33-2.87-.99-.69-.66-1.03-1.59-1.03-2.78s.4-2.06,1.19-2.6c.79-.54,1.81-.81,3.06-.81,.73,0,1.39,.05,1.99,.15s1.13,.24,1.61,.42h.07v-.37c0-.38-.14-.68-.42-.91-.28-.22-.64-.33-1.07-.31-.41,0-.77,.02-1.06,.07-.29,.05-.65,.13-1.08,.25-.79,.2-1.48,.18-2.06-.05-.58-.23-.98-.69-1.19-1.37-.2-.71-.15-1.31,.14-1.79,.29-.48,.73-.85,1.33-1.12,.51-.25,1.09-.46,1.73-.62,.64-.17,1.33-.25,2.07-.25,2.17,0,3.76,.53,4.78,1.58,1.02,1.05,1.53,2.81,1.53,5.28v3.85c0,.68-.21,1.24-.62,1.69-.41,.45-.99,.67-1.71,.67-.79,0-1.39-.22-1.78-.67-.39-.45-.58-.99-.58-1.64v-.57h-.5c0,.43-.08,.87-.24,1.32-.16,.45-.48,.82-.97,1.12-.49,.3-1.26,.45-2.32,.45Zm.25-5.44c0,.28,.1,.48,.31,.6,.21,.12,.66,.17,1.35,.17,.63,0,1.07-.06,1.32-.17,.25-.12,.37-.31,.37-.6,0-.26-.12-.45-.37-.56-.25-.11-.69-.16-1.32-.16-.7,0-1.15,.05-1.35,.16-.21,.11-.31,.29-.31,.56Z" style="fill: #231815;"/>
          <path d="M26.7,78.98c0-.71,.22-1.29,.66-1.73s1.05-.66,1.83-.66c.83,0,1.44,.22,1.85,.65,.41,.43,.61,1,.61,1.71s-.2,1.25-.61,1.68c-.41,.42-1.02,.63-1.85,.63s-1.43-.21-1.85-.63c-.42-.42-.63-.97-.63-1.65Zm2.48,15.87c-.78,0-1.36-.22-1.74-.65-.38-.43-.57-.97-.57-1.61v-8.5c0-.71,.19-1.28,.57-1.69,.38-.41,.96-.62,1.74-.62s1.36,.21,1.75,.62c.39,.41,.58,.96,.58,1.64v8.55c0,.65-.2,1.18-.61,1.61-.41,.43-.98,.65-1.73,.65Z" style="fill: #231815;"/>
          <path d="M39.03,94.93c-1.29,0-2.43-.27-3.43-.81-.99-.54-1.77-1.3-2.34-2.3-.56-.99-.84-2.16-.84-3.5s.28-2.51,.84-3.5c.56-.99,1.35-1.76,2.35-2.31,1-.55,2.16-.82,3.47-.82,1.03,0,1.93,.11,2.72,.32,.79,.22,1.41,.54,1.86,.97,.46,.43,.68,.97,.68,1.61,0,.78-.2,1.39-.6,1.83-.4,.44-.97,.66-1.71,.66-.5,0-.99-.07-1.48-.22-.49-.15-1.11-.22-1.88-.22-.63,0-1.16,.1-1.59,.3-.43,.2-.65,.56-.65,1.09s.22,.94,.65,1.18c.43,.24,.96,.36,1.59,.36,.51,0,.94-.05,1.29-.15s.68-.2,.99-.3c.31-.1,.67-.15,1.07-.15,.84,0,1.47,.24,1.88,.73,.41,.49,.61,1.11,.61,1.88,0,.65-.24,1.22-.72,1.73-.48,.51-1.13,.9-1.96,1.19-.83,.29-1.76,.43-2.81,.43Z" style="fill: #231815;"/>
          <path d="M47.87,94.86c-.73,0-1.3-.22-1.73-.66-.42-.44-.63-.98-.63-1.63v-14.38c0-.7,.21-1.28,.63-1.76,.42-.48,1.02-.72,1.8-.72s1.34,.24,1.73,.72c.39,.48,.58,1.08,.58,1.79v7.43h.45c0-.94,.17-1.69,.51-2.24,.34-.55,.78-.94,1.32-1.18,.54-.24,1.09-.36,1.65-.36,.99,0,1.75,.24,2.27,.73,.52,.49,.88,1.14,1.07,1.95,.19,.81,.29,1.7,.29,2.66v5.37c0,.68-.22,1.23-.66,1.65-.44,.42-1.02,.63-1.75,.63s-1.33-.21-1.76-.63c-.43-.42-.65-.97-.65-1.65v-4.4c0-.6-.12-1.06-.35-1.39-.23-.33-.57-.5-1.02-.5s-.79,.18-1.02,.55c-.23,.36-.35,.83-.35,1.39v4.35c0,.65-.21,1.19-.63,1.63-.42,.44-1.01,.66-1.75,.66Z" style="fill: #231815;"/>
          <path d="M63.07,94.86c-1.16,0-2.1-.44-2.83-1.32-.73-.88-1.1-2.11-1.12-3.7l-.02-5.74c0-.71,.22-1.27,.66-1.68,.44-.41,1.04-.61,1.8-.61s1.32,.2,1.76,.61c.45,.41,.67,.96,.67,1.68v5.19c0,1.24,.49,1.86,1.47,1.86,.48,0,.8-.18,.97-.53,.17-.36,.25-.82,.25-1.38v-5.14c0-.65,.22-1.19,.67-1.63,.45-.44,1.03-.66,1.74-.66s1.32,.22,1.73,.66c.41,.44,.61,.98,.61,1.63v8.15c0,.79-.18,1.43-.53,1.9-.36,.47-.93,.71-1.73,.71s-1.39-.24-1.83-.71c-.44-.47-.66-1.11-.66-1.9v-.42h-.45c0,.96-.29,1.71-.86,2.24-.57,.53-1.34,.79-2.3,.79Z" style="fill: #231815;"/>
          <path d="M75.12,94.86c-.73,0-1.31-.22-1.75-.66-.44-.44-.66-.98-.66-1.63v-8.22c0-.7,.21-1.28,.62-1.76,.41-.48,1.01-.72,1.79-.72s1.34,.24,1.74,.72c.4,.48,.6,1.08,.6,1.81v1.24h.45c0-.94,.17-1.69,.51-2.24,.34-.55,.77-.94,1.3-1.18,.53-.24,1.06-.36,1.59-.36,1.28,0,2.21,.46,2.81,1.38,.6,.92,.89,2.22,.89,3.91v5.42c0,.65-.22,1.19-.65,1.63-.43,.44-1.01,.66-1.74,.66s-1.34-.22-1.78-.66c-.44-.44-.66-.98-.66-1.63v-4.4c0-.6-.11-1.06-.34-1.39-.22-.33-.55-.5-.98-.5-.5,0-.86,.18-1.08,.55-.22,.36-.34,.83-.34,1.39v4.35c0,.65-.21,1.19-.62,1.63-.41,.44-.99,.66-1.71,.66Z" style="fill: #231815;"/>
          <path d="M92.09,99.98c-1.01,0-1.87-.11-2.57-.32-.7-.22-1.38-.55-2.02-.99-.56-.4-.96-.95-1.19-1.66-.23-.71-.12-1.43,.35-2.16,.3-.45,.63-.75,1.01-.92,.37-.17,.74-.24,1.09-.21,.36,.02,.67,.1,.93,.24,.58,.28,1.03,.48,1.35,.61,.32,.12,.69,.19,1.11,.19,.61,0,1.13-.22,1.55-.65,.42-.43,.63-1.03,.63-1.81v-2.01h-.45c-.12,.88-.45,1.57-1.01,2.07-.55,.51-1.31,.76-2.27,.76-.73,0-1.44-.18-2.14-.55-.7-.36-1.27-.94-1.71-1.74s-.67-1.85-.67-3.15c0-1.92,.42-3.35,1.27-4.3,.84-.94,1.94-1.42,3.28-1.42,.93,0,1.72,.31,2.38,.93,.66,.62,.99,1.49,.99,2.6l.07-.02v-1.39c0-.58,.19-1.09,.56-1.53,.37-.44,.96-.66,1.75-.66,.84,0,1.45,.22,1.83,.66,.37,.44,.56,.95,.56,1.53l.02,7.83c.02,1.72-.2,3.19-.63,4.4-.44,1.21-1.15,2.13-2.14,2.76-.99,.63-2.3,.94-3.94,.94Zm-1.84-12.74c0,.89,.6,1.34,1.79,1.34,.78,0,1.32-.11,1.64-.32,.31-.21,.47-.55,.47-1.02s-.16-.81-.48-.99c-.32-.18-.87-.27-1.65-.27-.56,0-1,.09-1.3,.27-.31,.18-.46,.51-.46,.99Z" style="fill: #231815;"/>
        </g>
      </g>
    </g>
  </g>
</svg>