<?xml version="1.0" encoding="UTF-8"?>
<svg id="_圖層_2" data-name="圖層 2" xmlns="http://www.w3.org/2000/svg" width="74.31" height="108.8" viewBox="0 0 74.31 108.8">
  <g id="layout">
    <g>
      <g>
        <path d="M55.82,37.12c-.68-1.1-1.77-1.46-3-1.02-.48,.17-.96,.33-1.42,.53-.28,.12-.48,.08-.71-.13-.72-.64-1.55-.8-2.46-.43-.47,.19-.96,.33-1.42,.53-.32,.14-.53,.1-.8-.15-.81-.78-1.77-.99-2.84-.58-.61,.23-1.22,.45-1.91,.7-.09-.25-.16-.43-.23-.62-.46-1.25-.9-2.51-1.39-3.76-.44-1.15-1.31-1.76-2.52-1.61-.78,.09-1.59,.35-2.29,.72-1.34,.72-1.75,2.04-1.22,3.47,1.16,3.17,2.32,6.34,3.48,9.51l.21,.58c-.66-.2-1.23-.4-1.82-.54-1.32-.3-2.46,.09-3.42,1.01-.54,.52-.72,1.19-.54,1.89,.25,.97,.73,1.86,1.54,2.49,3.17,2.48,6.34,4.96,9.54,7.39,.81,.61,1.4,1.29,1.66,2.29,.2,.74,.52,1.45,.78,2.17,.15-.04,.22-.06,.28-.08,.48-.17,.95-.35,1.43-.52-.03-.13-.08-.26-.11-.39-.05-.14-.09-.28-.13-.43-.11-.32-.23-.63-.35-.95,0,0,0,0,0-.01,0,0,0,0,0,0-.06-.13-.11-.21-.12-.3-.31-1.48-1.24-2.45-2.43-3.33-3.07-2.28-6.06-4.67-9.07-7.03-.36-.28-.66-.66-.92-1.04-.45-.68-.37-.87,.38-1.22,.68-.32,1.33-.11,1.94,.15,.74,.32,1.45,.73,2.15,1.14,.18,.1,.31,.34,.39,.54,.31,.78,.59,1.58,.89,2.4l1.74-.64-.22-.59c-1.83-5-3.66-10.01-5.49-15.01-.27-.75-.19-1.03,.49-1.43,.24-.15,.52-.26,.79-.33,.83-.23,1.08-.09,1.38,.72,1.13,3.09,2.26,6.17,3.39,9.26l.23,.62,1.74-.64-1.52-4.14c.75-.27,1.41-.55,2.1-.76,.47-.14,.82,.16,1.01,.55,.3,.61,.54,1.26,.79,1.89,.18,.45,.33,.91,.51,1.39l1.71-.63-.85-2.33c.66-.24,1.25-.49,1.87-.66,.15-.04,.44,.09,.54,.22,.23,.32,.41,.68,.55,1.05,.32,.82,.61,1.65,.93,2.52l1.72-.63-.92-2.5c.64-.24,1.21-.47,1.79-.64,.15-.04,.43,.09,.54,.23,.19,.23,.32,.52,.43,.81,.94,2.54,1.87,5.08,2.79,7.63,.08,.21,.13,.45,.12,.68-.03,2.47-.07,4.94-.1,7.41,0,0,0,.02,0,.03,.02,.22,0,.42-.05,.62,0,0,0,.02,0,.02,0,.34-.02,.69-.06,1.03-.02,.13-.03,.26-.05,.4,0,.07-.03,.36-.02,.15,0,.12-.02,.23-.04,.34,.55-.2,1.1-.4,1.66-.61,.36-.13,.38-.35,.38-.65,.04-2.99,.09-5.98,.12-8.97,0-.28-.05-.58-.14-.84-.94-2.6-1.89-5.19-2.85-7.78-.15-.4-.33-.81-.55-1.17Z" style="fill: #fff;"/>
        <path d="M46.75,61.48H20.82c-3.24,0-5.88-2.63-5.88-5.88V6.53c0-3.24,2.63-5.88,5.88-5.88h25.02c3.24,0,5.88,2.63,5.88,5.88v31.26" style="fill: none; stroke: #fff; stroke-miterlimit: 10; stroke-width: 1.3px;"/>
        <path d="M41.18,36.49c1.35-1.43,2.17-3.35,2.17-5.46,0-4.39-3.56-7.96-7.96-7.96s-7.96,3.56-7.96,7.96,3.56,7.96,7.96,7.96l-1.14-5.91,2.5-1.62,2,.94,2.43,4.1" style="fill: #fff; opacity: .4;"/>
      </g>
      <g style="opacity: .9;">
        <path d="M23.59,89.44v.89H12.9v-.89h4.47v-9.31h.94v3.67h4.46v.89h-4.46v4.75h5.28Z" style="fill: #fff;"/>
        <path d="M27.54,85.32c-.46-.36-1.34-.92-2.04-1.31l.52-.62c.67,.35,1.6,.89,2.05,1.24l-.53,.7Zm-1.64,4.82c.54-.89,1.28-2.42,1.85-3.74l.7,.53c-.49,1.22-1.16,2.67-1.74,3.75l-.8-.54Zm2.36-7.9c-.46-.43-1.42-1.09-2.15-1.54l.55-.6c.72,.43,1.68,1.06,2.17,1.46l-.58,.67Zm8.07,1.38v2.01h-.85v-1.29h-6.15v1.29h-.83v-2.01h1.25v-3.23h5.33v3.23h1.26Zm-1.19,6.39c0,.44-.1,.65-.43,.78-.32,.13-.86,.13-1.71,.13-.04-.22-.13-.52-.25-.73,.61,.02,1.18,.02,1.33,.02,.17-.01,.22-.06,.22-.2v-1.51c-1.25,.28-2.51,.58-3.5,.79l-.28-.72c.97-.18,2.39-.47,3.78-.76v-1.93h-3.8v1.15c0,1.19-.17,2.83-1.06,3.97-.14-.16-.5-.42-.7-.5,.82-1.03,.91-2.43,.91-3.47v-1.87h5.49v4.85Zm-4.58-6.39h1.4v-1.7h2.27v-.8h-3.67v2.51Zm.59,2.87c.94,.1,2.13,.36,2.77,.64l-.28,.64c-.64-.28-1.82-.58-2.77-.7l.28-.58Zm3.08-3.97h-1.52v1.1h1.52v-1.1Z" style="fill: #fff;"/>
        <path d="M48.21,90.03c.2,0,.24-.17,.26-1.62,.16,.13,.47,.25,.68,.31-.06,1.68-.25,2.06-.86,2.06h-.64c-.67,0-.83-.24-.83-1.04v-2.72h-.74c-.17,1.74-.62,3.11-2.13,3.91-.11-.22-.35-.52-.52-.66h-3.57v.64h-.68v-4.04c-.22,.29-.42,.55-.65,.79-.07-.13-.29-.46-.42-.6,.65-.65,1.25-1.58,1.61-2.54l.62,.19c-.1,.25-.2,.48-.31,.73h1.44c-.1-.22-.23-.44-.36-.64l.58-.25c.2,.26,.4,.61,.52,.89h1.56v.65h-1.69v.72h1.46v.61h-1.46v.74h1.51v.62h-1.51v.84h1.67v.46c1.09-.66,1.44-1.73,1.57-3.06h-1.06v-6.63h4.44v6.63h-1.13v2.72c0,.25,.02,.29,.19,.29h.46Zm-8.32-8.65h-1.71v-.68h1.71v-.74h.73v2.15h-.73v-.72Zm-1.23,.95h2.17v2.12h-2.17v-2.12Zm.56,1.58h1.02v-1.04h-1.02v1.04Zm2.15,2.17h-1.5v.72h1.5v-.72Zm0,1.33h-1.5v.74h1.5v-.74Zm-1.5,2.21h1.5v-.84h-1.5v.84Zm3.8-5.18h-2.19v-2.11h2.19v2.11Zm-1.21-2.33h-.73v-2.16h.73v.74h1.58v.68h-1.58v.73Zm.64,.75h-1.06v1.03h1.06v-1.03Zm1.93-.5h2.87v-1.16h-2.87v1.16Zm0,1.93h2.87v-1.19h-2.87v1.19Zm0,1.92h2.87v-1.19h-2.87v1.19Z" style="fill: #fff;"/>
        <path d="M54.99,84.42c-.16,.28-.31,.56-.49,.83h5.97v5.68h-.88v-.47h-5.21v.47h-.85v-4.45c-.61,.67-1.32,1.27-2.13,1.76-.12-.2-.38-.53-.55-.68,1.34-.78,2.38-1.89,3.12-3.14h-2.83v-.74h3.25c.14-.29,.29-.59,.4-.88h-2.77v-.72h3.03c.1-.28,.18-.55,.25-.84-1.12,.06-2.24,.08-3.27,.08-.01-.2-.1-.49-.18-.68,2.9-.02,6.52-.22,8.42-.6l.56,.65c-1.2,.25-2.83,.41-4.55,.5-.08,.3-.18,.59-.28,.89h4.94v.72h-5.19c-.12,.29-.25,.59-.4,.88h6.28v.74h-6.66Zm4.61,1.54h-5.21v.83h5.21v-.83Zm0,1.44h-5.21v.84h5.21v-.84Zm0,2.35v-.89h-5.21v.89h5.21Z" style="fill: #fff;"/>
        <path d="M5.22,104.84c-.26,.66-.58,1.42-.88,1.88l-.58-.23c.17-.31,.37-.74,.53-1.16h-1.01v2.52c0,.38-.07,.55-.35,.67-.26,.11-.68,.11-1.31,.11-.04-.2-.13-.46-.24-.65,.47,.01,.84,.01,.97,0,.12,0,.16-.04,.16-.14v-2.07c-.52,.83-1.3,1.63-2.03,2.1-.11-.18-.32-.42-.49-.56,.73-.4,1.52-1.18,2.03-1.97H.2v-.61H2.63c-.35-.26-.83-.58-1.22-.79l.36-.38c.35,.18,.73,.42,1.06,.62,.35-.26,.72-.59,1.01-.9H.64v-.59h3.74l.16-.04,.47,.33c-.49,.59-1.19,1.19-1.83,1.62l-.1,.12h1.54l.12-.04,.49,.16Zm-3.87-3.03H.47v-2.28H5.05v-.66H.95v-.6H10.1v.6H5.92v.66h4.67v2.28h-.89v-1.69h-3.78v2.21h-.88v-2.21H1.34v1.69Zm.28-.01c.74-.08,1.78-.24,2.83-.41l.04,.53c-.94,.19-1.83,.37-2.63,.52l-.24-.63Zm.6-1.57c.72,.14,1.65,.41,2.16,.65l-.23,.49c-.5-.23-1.44-.53-2.18-.7l.25-.44Zm8.07,5.85s-.01,.22-.04,.32c-.13,1.22-.29,1.75-.52,1.98-.19,.16-.38,.22-.67,.23-.24,.01-.73,.01-1.22-.02-.01-.19-.1-.44-.2-.62,.49,.05,.95,.06,1.12,.05,.18,0,.28,0,.36-.08,.13-.13,.23-.47,.34-1.22h-1.69c-.36,1.03-1.12,1.67-2.72,2.06-.07-.18-.28-.46-.41-.6,1.32-.29,1.99-.74,2.34-1.46h-1.62v-.62h1.82c.04-.2,.07-.41,.1-.64h.76c-.02,.23-.06,.43-.1,.64h2.36Zm-.2-2.67c-.32,.53-.8,.95-1.37,1.3,.68,.23,1.48,.4,2.3,.49-.16,.14-.35,.42-.43,.61-.95-.14-1.85-.38-2.6-.73-.77,.32-1.65,.56-2.58,.73-.02-.17-.14-.49-.24-.65,.73-.1,1.46-.25,2.11-.47-.37-.23-.7-.48-.97-.78-.23,.19-.49,.36-.77,.53-.11-.16-.35-.36-.5-.46,.91-.48,1.56-1.13,1.9-1.72l.72,.11c-.1,.16-.19,.3-.3,.46h3.42v.58h-.68Zm-.8-.94c-.66-.23-1.87-.53-2.79-.66l.19-.49c.91,.11,2.12,.37,2.77,.59l-.17,.56Zm-.07-1.8c-.68,.3-1.65,.53-2.34,.67l-.28-.41c.67-.16,1.68-.5,2.25-.73l.36,.47Zm-2.46,2.85c.31,.34,.73,.64,1.24,.88,.55-.25,1.01-.59,1.32-1h-2.45l-.11,.12Z" style="fill: #fff;"/>
        <path d="M16.08,99.8h.65v7.6h-.65v-.42h-2.95v-7.17h.65v6.38h.79v-8.26h.76v8.26h.76v-6.39Zm6.78-.8c-.4,1.01-1.02,1.85-1.77,2.54,.72,.48,1.62,.88,2.67,1.13-.18,.17-.42,.52-.54,.73-1.1-.29-2.04-.77-2.79-1.32-.92,.68-2,1.18-3.11,1.49-.1-.22-.31-.53-.46-.71,1.03-.24,2.06-.7,2.94-1.31-.43-.4-.78-.82-1.06-1.25-.36,.41-.76,.75-1.16,1.04-.13-.14-.48-.42-.66-.55,1.07-.7,2-1.79,2.51-3l.83,.2c-.12,.28-.24,.53-.4,.79h2.28l.16-.04,.56,.24Zm-2.06,7.62h2.7v.73h-2.7v1.4h-.88v-1.4h-2.72v-.73h2.72v-.85h-2.11v-.68h2.11v-.79h-2.18v-.68h2.18v-.77h.88v.77h2.21v.68h-2.21v.79h2.17v.68h-2.17v.85Zm-1.54-6.92c.29,.47,.67,.94,1.18,1.36,.5-.44,.94-.96,1.26-1.54h-2.3l-.13,.18Z" style="fill: #fff;"/>
        <path d="M30.59,103.12v5.62h-.84v-1.19c-1.48,.19-2.94,.36-4.07,.5l-.08-.8c.34-.04,.73-.07,1.14-.11v-4.03h-1.03v-.74h10.48v.74h-5.6Zm-2.61-1.33h-.85v-3.61h7.72v3.61h-.88v-2.95h-6v2.95Zm1.77,1.33h-2.21v.82h2.21v-.82Zm0,1.49h-2.21v.83h2.21v-.83Zm-2.21,2.47c.7-.08,1.45-.17,2.21-.26v-.72h-2.21v.98Zm5.8-6.96h-4.85v-.59h4.85v.59Zm-4.83,1.27v-.59h4.83v.59h-4.83Zm7.35,2.67c-.36,1.13-.97,2.04-1.73,2.78,.66,.49,1.45,.86,2.33,1.08-.17,.17-.41,.48-.53,.71-.91-.26-1.73-.71-2.41-1.26-.74,.58-1.58,1.01-2.44,1.29-.1-.22-.31-.53-.48-.7,.8-.23,1.61-.64,2.31-1.15-.59-.62-1.07-1.36-1.4-2.18l.2-.06h-.68v-.72h4.11l.16-.02,.55,.23Zm-3.56,.52c.29,.66,.71,1.24,1.21,1.74,.53-.49,.96-1.08,1.26-1.74h-2.47Z" style="fill: #fff;"/>
        <path d="M40.12,105.38c-.29,.85-.79,1.79-1.24,2.39-.14-.11-.44-.34-.62-.43,.47-.56,.89-1.38,1.13-2.16l.73,.2Zm1.48-.84v4.16h-.88v-4.16h-2.39v-.77h2.39v-1.26h-2.45v-.75h3.31c.23-.55,.5-1.34,.65-1.9l.82,.17c-.22,.58-.44,1.22-.67,1.73h1.52v.75h-2.3v1.26h2.17v.77h-2.17Zm2.12-4.75h-5.25v-.74h2.35c-.16-.36-.36-.77-.53-1.09l.86-.23c.25,.41,.52,.92,.67,1.32h1.9v.74Zm-4.02,1.92c-.06-.44-.25-1.14-.46-1.67l.71-.17c.24,.52,.44,1.19,.49,1.63l-.74,.2Zm3.05,3.39c.38,.59,.8,1.37,1.01,1.88l-.64,.36c-.19-.52-.62-1.34-.98-1.92l.61-.32Zm6.39-2.46h-1.32v6.04h-.86v-6.04h-1.64v.42c0,1.72-.16,4.07-1.25,5.62-.14-.17-.49-.44-.68-.54,1.01-1.44,1.1-3.49,1.1-5.09v-4.12c1.34-.22,2.88-.58,3.73-.94l.72,.66c-.98,.37-2.36,.67-3.62,.86v2.28h3.83v.84Z" style="fill: #fff;"/>
        <path d="M61.61,100.57s-.01,.34-.01,.46c-.13,5.02-.24,6.69-.65,7.2-.2,.31-.44,.41-.8,.44-.34,.05-.9,.04-1.45,0-.02-.24-.12-.61-.25-.84,.58,.05,1.1,.06,1.33,.06,.2,0,.31-.04,.43-.19,.28-.35,.42-1.93,.54-6.28h-1.71c-.14,3.19-.7,5.8-2.81,7.39-.13-.19-.44-.49-.66-.64,.19-.13,.36-.28,.53-.42-1.82,.22-3.68,.42-5.02,.56l-.13-.78c.72-.06,1.62-.14,2.6-.24v-1.03h-2.27v-.68h2.27v-.73h-2.24v-3.56h2.24v-.75h-2.59v-.7h2.59v-.79c-.77,.06-1.55,.11-2.25,.13-.04-.19-.12-.48-.22-.66,1.77-.1,3.93-.31,5.17-.59l.44,.68c-.65,.14-1.46,.25-2.34,.35v.88h2.54v.7h-2.54v.75h2.33v3.56h-2.33v.73h2.35v.68h-2.35v.95c.78-.07,1.6-.16,2.4-.25v.06c1.04-1.42,1.35-3.35,1.46-5.6h-1.4v-.84h1.43c.02-.84,.02-1.71,.02-2.63h.84c0,.9,0,1.79-.02,2.63h2.54Zm-9.58,2.18h1.51v-.86h-1.51v.86Zm1.51,1.46v-.88h-1.51v.88h1.51Zm.8-2.33v.86h1.57v-.86h-1.57Zm1.57,1.45h-1.57v.88h1.57v-.88Z" style="fill: #fff;"/>
        <path d="M68.75,100.68c-.1-.16-.24-.37-.4-.59-3.56,.29-3.99,.35-4.25,.46-.05-.17-.17-.56-.26-.77,.19-.02,.4-.14,.62-.35,.25-.18,1.06-.92,1.6-1.69l.82,.29c-.53,.61-1.09,1.19-1.64,1.64l2.64-.19c-.23-.28-.46-.55-.68-.78l.61-.32c.58,.59,1.28,1.4,1.61,1.93l-.66,.37Zm-4.91,7.32c.4-.54,.77-1.45,.96-2.13l.74,.3c-.2,.72-.53,1.64-.94,2.23l-.77-.4Zm4.77-3.31c0,.4-.08,.56-.37,.68-.28,.11-.72,.11-1.4,.11-.05-.19-.17-.44-.26-.62,.5,.01,.95,.01,1.07,0,.14,0,.18-.04,.18-.17v-.98c-.82,.29-1.6,.55-2.3,.77l-.28-.65c.67-.16,1.61-.4,2.58-.67v-1.59h-2.52v1.24c0,.9-.11,2.08-.78,2.88-.13-.14-.44-.41-.62-.5,.58-.7,.64-1.64,.64-2.39v-1.91h4.08v3.81Zm-2.82-2.81c.61,.22,1.46,.54,1.91,.77l-.32,.49c-.46-.23-1.3-.59-1.92-.8l.34-.46Zm4.81,5.94c.56,0,.66-.14,.71-1.24,.2,.13,.55,.25,.78,.31-.11,1.34-.38,1.67-1.42,1.67h-2.58c-1.29,0-1.65-.22-1.65-1.08v-1.48h.86v1.46c0,.3,.13,.35,.84,.35h2.46Zm-.94-.61c-.28-.38-.82-1.03-1.25-1.49l.6-.4c.43,.44,.98,1.06,1.27,1.43l-.62,.46Zm1.6-1.83c-1.08,0-1.36-.23-1.36-1.08v-2.52h.83v.95h2.91v.71h-2.91v.86c0,.29,.1,.34,.59,.34h1.76c.37,0,.44-.11,.48-.83,.18,.13,.52,.25,.74,.3-.1,1.01-.35,1.27-1.14,1.27h-1.91Zm-.17-4.1c-.94,0-1.18-.31-1.18-1.2v-2.18h.83v.89h2.91v.71h-2.91v.61c0,.33,.06,.46,.37,.46h1.98c.25,0,.7-.02,.91-.06,.01,.22,.05,.53,.08,.72-.18,.06-.6,.06-.97,.06h-2.03Zm2.13,4.55c.36,.68,.8,1.61,.97,2.16l-.8,.26c-.18-.56-.58-1.5-.94-2.2l.77-.23Z" style="fill: #fff;"/>
      </g>
    </g>
  </g>
</svg>