<?xml version="1.0" encoding="UTF-8"?>
<svg id="b" data-name="圖層 2" xmlns="http://www.w3.org/2000/svg" width="368.63" height="268.96" viewBox="0 0 368.63 268.96">
  <g id="c" data-name="layout">
    <g>
      <g>
        <path d="M248.44,110.6l-119.6-16.94c-3.61-.51-6.48-3.28-7.13-6.86l-10.83-59.6c-.81-4.44,2.02-8.74,6.42-9.75L183.42,2.22c3.36-.77,6.85,.57,8.82,3.39l64.31,91.78c4.24,6.06-.79,14.26-8.11,13.22Z" style="fill: #fff; stroke: #000; stroke-linecap: round; stroke-miterlimit: 10; stroke-width: 4px;"/>
        <line x1="189.73" y1="3.25" x2="123.97" y2="91.19" style="fill: #fff; stroke: #000; stroke-linecap: round; stroke-miterlimit: 10; stroke-width: 4px;"/>
        <line x1="112.23" y1="20.93" x2="256.73" y2="106.8" style="fill: #fff; stroke: #000; stroke-linecap: round; stroke-miterlimit: 10; stroke-width: 4px;"/>
      </g>
      <path d="M157.38,47.76c.14,107.32-88.72,179.88-155.38,219.2" style="fill: none; stroke: #000; stroke-linecap: round; stroke-miterlimit: 10; stroke-width: 4px;"/>
      <path d="M259.38,107.6s8.71,26.94,33.89,31.83c26.27,5.11,58.67-14.77,65.96-30.15" style="fill: none; stroke: #000; stroke-linecap: round; stroke-miterlimit: 10; stroke-width: 4px;"/>
      <path d="M255.22,105.78s27.59-6.44,56.2,20.96c28.61,27.4,50.39,14.13,55.21,7.95" style="fill: none; stroke: #000; stroke-linecap: round; stroke-miterlimit: 10; stroke-width: 4px;"/>
    </g>
  </g>
</svg>