<?xml version="1.0" encoding="UTF-8"?>
<svg id="b" data-name="圖層 2" xmlns="http://www.w3.org/2000/svg" width="57.21" height="57.21" viewBox="0 0 57.21 57.21">
  <g id="c" data-name="menu">
    <g>
      <path d="M0,57.21H41.21c8.84,0,16-7.16,16-16V16C57.21,7.16,50.04,0,41.21,0H16C7.16,0,0,7.16,0,16V57.21Z" style="fill: #0082c2;"/>
      <g>
        <g>
          <g>
            <g>
              <path d="M18.56,40.47l-13.73,3.87c-.24,.07-.44-.19-.33-.41L14.31,25.41c.03-.06,.09-.11,.16-.14l7.69-2.56c.21-.07,.41,.11,.37,.33l-3.77,17.21c-.02,.1-.1,.18-.2,.21Z" style="fill: #faf6ed;"/>
              <path d="M18.56,40.47l-13.73,3.87c-.24,.07-.44-.19-.33-.41L14.31,25.41c.03-.06,.09-.11,.16-.14l7.69-2.56c.21-.07,.41,.11,.37,.33l-3.77,17.21c-.02,.1-.1,.18-.2,.21Z" style="fill: none; stroke: #000; stroke-linecap: round; stroke-miterlimit: 10; stroke-width: 1.5px;"/>
            </g>
            <g>
              <path d="M28.21,44.35l-9.27-3.84c-.13-.05-.2-.19-.17-.32l3.8-17.34c.04-.16,.2-.26,.35-.21l5.47,1.56c.12,.03,.21,.15,.21,.27v19.62c0,.2-.21,.34-.39,.26Z" style="fill: #faf6ed;"/>
              <path d="M28.21,44.35l-9.27-3.84c-.13-.05-.2-.19-.17-.32l3.8-17.34c.04-.16,.2-.26,.35-.21l5.47,1.56c.12,.03,.21,.15,.21,.27v19.62c0,.2-.21,.34-.39,.26Z" style="fill: none; stroke: #000; stroke-linecap: round; stroke-miterlimit: 10; stroke-width: 1.5px;"/>
            </g>
          </g>
          <g>
            <g>
              <path d="M38.65,40.47l13.73,3.87c.24,.07,.44-.19,.33-.41l-9.81-18.52c-.03-.06-.09-.11-.16-.14l-7.69-2.56c-.21-.07-.41,.11-.37,.33l3.77,17.21c.02,.1,.1,.18,.2,.21Z" style="fill: #faf6ed;"/>
              <path d="M38.65,40.47l13.73,3.87c.24,.07,.44-.19,.33-.41l-9.81-18.52c-.03-.06-.09-.11-.16-.14l-7.69-2.56c-.21-.07-.41,.11-.37,.33l3.77,17.21c.02,.1,.1,.18,.2,.21Z" style="fill: none; stroke: #000; stroke-linecap: round; stroke-miterlimit: 10; stroke-width: 1.5px;"/>
            </g>
            <g>
              <path d="M28.99,44.35l9.27-3.84c.13-.05,.2-.19,.17-.32l-3.8-17.34c-.04-.16-.2-.26-.35-.21l-5.47,1.56c-.12,.03-.21,.15-.21,.27v19.62c0,.2,.21,.34,.39,.26Z" style="fill: #faf6ed;"/>
              <path d="M28.99,44.35l9.27-3.84c.13-.05,.2-.19,.17-.32l-3.8-17.34c-.04-.16-.2-.26-.35-.21l-5.47,1.56c-.12,.03-.21,.15-.21,.27v19.62c0,.2,.21,.34,.39,.26Z" style="fill: none; stroke: #000; stroke-linecap: round; stroke-miterlimit: 10; stroke-width: 1.5px;"/>
            </g>
          </g>
        </g>
        <g>
          <path d="M35.12,19.35c0,3.6-6.51,10.81-6.51,10.81,0,0-6.51-7.21-6.51-10.81s2.92-6.51,6.51-6.51,6.51,2.92,6.51,6.51Z" style="fill: #faf6ed; stroke: #000; stroke-linecap: round; stroke-miterlimit: 10; stroke-width: 1.5px;"/>
          <circle cx="28.6" cy="18.59" r="2.1"/>
        </g>
      </g>
    </g>
  </g>
</svg>