<?xml version="1.0" encoding="UTF-8"?>
<svg id="_圖層_2" data-name="圖層 2" xmlns="http://www.w3.org/2000/svg" width="80.68" height="37.33" viewBox="0 0 80.68 37.33">
  <g id="P2">
    <g>
      <path d="M0,37.33H66.56c7.8,0,14.12-6.32,14.12-14.12V14.12C80.68,6.32,74.36,0,66.56,0H14.12C6.32,0,0,6.32,0,14.12v23.22Z" style="fill: #b4b4b5;"/>
      <g>
        <path d="M16.87,24.37c0,.81-.16,1.25-.7,1.52-.51,.27-1.24,.3-2.21,.3-.1-.48-.37-1.17-.6-1.6,.59,.03,1.22,.03,1.43,.02,.19,0,.25-.06,.25-.25v-1.41h-2.79c-.17,1.21-.54,2.4-1.17,3.3-.29-.3-1.03-.87-1.41-1.06,.98-1.43,1.08-3.43,1.08-4.98v-3.63h6.12v7.81Zm7.22-10.6v1.7H9.73v-1.7h3.38c-.29-.54-.75-1.22-1.19-1.75l1.79-.62c.57,.6,1.21,1.46,1.48,2.06l-.87,.3h4.41c.48-.73,.98-1.67,1.3-2.4l2.05,.6c-.38,.62-.81,1.24-1.21,1.79h3.22Zm-9.05,7.79v-1.03h-2.6c0,.33-.02,.67-.05,1.03h2.65Zm-2.6-3.52v1.09h2.6v-1.09h-2.6Zm7.52,5.16h-1.73v-6.47h1.73v6.47Zm1.43-6.92h1.86v7.89c0,.94-.17,1.4-.81,1.7-.6,.29-1.46,.33-2.6,.32-.1-.51-.4-1.29-.68-1.78,.81,.03,1.63,.03,1.9,.02,.25,0,.33-.06,.33-.29v-7.86Z" style="fill: #fff;"/>
        <path d="M27.66,19.85c-.4,.4-.79,.78-1.19,1.11-.14-.43-.62-1.49-.91-1.95,1.32-.98,2.79-2.54,3.65-4.08l1.67,.67c-.37,.65-.79,1.3-1.27,1.95v8.71h-1.95v-6.41Zm2.94-7.71c-.97,1.48-2.47,3.05-3.87,4.01-.22-.43-.67-1.21-.97-1.6,1.14-.76,2.43-2.05,3.05-3.09l1.79,.68Zm9.84,11.85v1.79h-10.05v-1.79h4.19v-3.24h-3.16v-1.79h3.16v-2.79h-3.7v-1.79h4.05c-.19-.67-.67-1.67-1.11-2.43l1.75-.59c.48,.75,1.03,1.78,1.24,2.46l-1.52,.56h4.75v1.79h-3.48v2.79h3v1.79h-3v3.24h3.89Z" style="fill: #fff;"/>
      </g>
      <g>
        <rect x="44.94" y="17.22" width="14.76" height="2.89" style="fill: #fff;"/>
        <polygon points="71.69 18.67 58.53 13.03 58.53 24.3 71.69 18.67" style="fill: #fff;"/>
      </g>
    </g>
  </g>
</svg>