<?xml version="1.0" encoding="UTF-8"?>
<svg id="b" data-name="圖層 2" xmlns="http://www.w3.org/2000/svg" width="57.21" height="57.21" viewBox="0 0 57.21 57.21">
  <g id="c" data-name="menu">
    <g>
      <path d="M0,57.21H41.21c8.84,0,16-7.16,16-16V16C57.21,7.16,50.04,0,41.21,0H16C7.16,0,0,7.16,0,16V57.21Z" style="fill: #0082c2;"/>
      <g>
        <g>
          <path d="M53.09,29.88v.93c0,3.32-2.69,6.01-6.01,6.01H10.13c-3.32,0-6.01-2.69-6.01-6.01h0c0-2.68,1.77-5.03,4.35-5.78l3.87-1.12c1.22-.35,2.3-1.09,3.08-2.09l3.51-4.53c1.14-1.47,2.89-2.33,4.75-2.33h15.68c2.15,0,4.14,1.15,5.22,3.02l2.23,3.88c.56,.97,1.38,1.77,2.36,2.3l.76,.41c1.95,1.05,3.16,3.08,3.16,5.29Z" style="fill: #faf6ed; stroke: #000; stroke-linecap: round; stroke-miterlimit: 10; stroke-width: 1.5px;"/>
          <circle cx="43.3" cy="36.83" r="5.4" style="fill: #faf6ed; stroke: #000; stroke-linecap: round; stroke-miterlimit: 10; stroke-width: 1.5px;"/>
          <circle cx="13.77" cy="36.83" r="5.4" style="fill: #faf6ed; stroke: #000; stroke-linecap: round; stroke-miterlimit: 10; stroke-width: 1.5px;"/>
        </g>
        <path d="M29.48,18.27v5.12h-5.88c-2.13,0-3.33-2.45-2.02-4.13h0c.48-.62,1.23-.99,2.02-.99h5.88Z" style="fill: #fff; stroke: #000; stroke-linecap: round; stroke-miterlimit: 10; stroke-width: 1.5px;"/>
        <path d="M39.46,23.39h-6.69v-5.12h6.69c.92,0,1.76,.49,2.22,1.29h0c.98,1.71-.26,3.83-2.22,3.83Z" style="fill: #fff; stroke: #000; stroke-linecap: round; stroke-miterlimit: 10; stroke-width: 1.5px;"/>
        <line x1="25.66" y1="25.9" x2="28.98" y2="25.9" style="fill: #faf6ed; stroke: #000; stroke-linecap: round; stroke-miterlimit: 10; stroke-width: 1.5px;"/>
        <line x1="39.98" y1="25.9" x2="43.3" y2="25.9" style="fill: #faf6ed; stroke: #000; stroke-linecap: round; stroke-miterlimit: 10; stroke-width: 1.5px;"/>
        <line x1="4.92" y1="42.23" x2="53.09" y2="42.23" style="fill: none; stroke: #000; stroke-linecap: round; stroke-miterlimit: 10; stroke-width: 1.5px;"/>
      </g>
    </g>
  </g>
</svg>