<?xml version="1.0" encoding="UTF-8"?>
<svg id="b" data-name="圖層 2" xmlns="http://www.w3.org/2000/svg" width="57.21" height="57.21" viewBox="0 0 57.21 57.21">
  <g id="c" data-name="menu">
    <g>
      <path d="M0,57.21H41.21c8.84,0,16-7.16,16-16V16C57.21,7.16,50.04,0,41.21,0H16C7.16,0,0,7.16,0,16V57.21Z" style="fill: #00a44e;"/>
      <g>
        <path d="M35.44,19.33c-1.06,0-2.03,.35-2.83,.92,0-.08,.01-.16,.01-.24,0-3.96-3.21-7.18-7.18-7.18-2.55,0-4.78,1.33-6.05,3.33-.84-1.45-2.4-2.44-4.2-2.44-2.69,0-4.88,2.18-4.88,4.88,0,.29,.04,.57,.08,.84-.67-.34-1.42-.56-2.22-.56-2.69,0-4.88,2.18-4.88,4.88s2.1,4.78,4.72,4.86c.11,3.87,3.27,6.97,7.17,6.97,3.17,0,5.85-2.06,6.81-4.9,1.23,2.2,3.57,3.69,6.27,3.69,3.32,0,6.1-2.25,6.92-5.31,.09,0,.17,.03,.25,.03,2.69,0,4.88-2.18,4.88-4.88s-2.18-4.88-4.88-4.88Z" style="fill: #faf6ed; stroke: #000; stroke-linecap: round; stroke-miterlimit: 10; stroke-width: 1.5px;"/>
        <path d="M50.14,31.82c-.82,0-1.57,.27-2.19,.71,0-.06,0-.12,0-.18,0-3.06-2.48-5.54-5.54-5.54-1.97,0-3.69,1.03-4.67,2.57-.65-1.12-1.85-1.89-3.25-1.89-2.08,0-3.77,1.69-3.77,3.77,0,.22,.03,.44,.07,.65-.52-.27-1.09-.43-1.71-.43-2.08,0-3.77,1.69-3.77,3.77s1.62,3.69,3.65,3.75c.08,2.99,2.53,5.39,5.54,5.39,2.45,0,4.52-1.59,5.26-3.79,.95,1.7,2.76,2.85,4.84,2.85,2.56,0,4.71-1.74,5.35-4.1,.07,0,.13,.02,.2,.02,2.08,0,3.77-1.69,3.77-3.77s-1.69-3.77-3.77-3.77Z" style="fill: #faf6ed; stroke: #000; stroke-linecap: round; stroke-miterlimit: 10; stroke-width: 1.5px;"/>
      </g>
    </g>
  </g>
</svg>