<?xml version="1.0" encoding="UTF-8"?>
<svg id="b" data-name="圖層 2" xmlns="http://www.w3.org/2000/svg" width="47.01" height="47.01" viewBox="0 0 47.01 47.01">
  <g id="c" data-name="layout">
    <g>
      <rect x="0" y="0" width="47.01" height="47.01" rx="23.5" ry="23.5" style="fill: #b4b4b5;"/>
      <path d="M25.73,20.82c.13-.13,.56-.42,1.82-.42,.7,0,1.46,.07,2.26,.21l1.24,.21,1.07-6.01-1.24-.23c-3.99-.75-7.19-.49-9.14,.75-1.25,.8-2.14,1.86-2.64,3.18-.35,.93-.53,2.25-.53,4.02v1.27h-3.72v5.69h3.72v17.52h6.72V29.48h4.84v-5.69h-4.84v-.93c0-1.55,.35-1.98,.42-2.04Z" style="fill: #fff;"/>
    </g>
  </g>
</svg>