<?xml version="1.0" encoding="UTF-8"?>
<svg id="b" data-name="圖層 2" xmlns="http://www.w3.org/2000/svg" width="47.01" height="47.01" viewBox="0 0 47.01 47.01">
  <g id="c" data-name="layout">
    <g>
      <rect x="0" y="0" width="47.01" height="47.01" rx="23.5" ry="23.5" style="fill: #b4b4b5;"/>
      <g>
        <path d="M20.92,17.25s1.71-1.04,4.16,.44l3.06-3.07s1-1.06,2.89-.76c0,0,2.84,.85,1.66,3.98,0,0-.39,.6-.47,.71l-5.47,5.52s-1.98,1.81-4.18,0c0,0-1.19-1.06-2.36,.22,0,0-.73,1.01,.09,2.02,0,0,2.19,2.47,5.8,1.55,0,0,1.49-.34,2.59-1.28l6.04-6.05s1.85-1.99,1.39-5.06c0,0-.53-4.71-6.02-4.88,0,0-2.05-.12-4.03,1.59l-5.14,5.08Z" style="fill: #fff;"/>
        <path d="M26.07,29.54s-1.68,1.08-4.17-.34l-2.98,3.14s-.97,1.09-2.87,.83c0,0-2.86-.79-1.75-3.93,0,0,.37-.6,.45-.72l5.33-5.65s1.94-1.86,4.18-.1c0,0,1.22,1.03,2.35-.28,0,0,.7-1.03-.14-2.02,0,0-2.25-2.42-5.84-1.41,0,0-1.48,.37-2.56,1.34l-5.89,6.19s-1.8,2.04-1.26,5.1c0,0,.65,4.69,6.14,4.73,0,0,2.05,.07,3.99-1.69l5.02-5.2Z" style="fill: #fff;"/>
      </g>
    </g>
  </g>
</svg>