<?xml version="1.0" encoding="UTF-8"?>
<svg id="_圖層_2" data-name="圖層 2" xmlns="http://www.w3.org/2000/svg" width="87.6" height="79.68" viewBox="0 0 87.6 79.68">
  <g id="layout">
    <g>
      <polygon points="86.53 78.68 19.82 78.68 24.16 16.81 82.2 16.81 86.53 78.68" style="fill: #fff; stroke: #000; stroke-linecap: round; stroke-miterlimit: 10; stroke-width: 2px;"/>
      <path d="M39.76,32.38V14.42c0-7.41,6.01-13.42,13.42-13.42h0c7.41,0,13.42,6.01,13.42,13.42v17.96" style="fill: none; stroke: #000; stroke-miterlimit: 10; stroke-width: 2px;"/>
      <polygon points="47.93 78.68 1.07 78.68 4.12 35.23 44.88 35.23 47.93 78.68" style="fill: #faf6ed; stroke: #000; stroke-linecap: round; stroke-miterlimit: 10; stroke-width: 2px;"/>
      <path d="M33.92,40.77v12.62c0,5.2-4.22,9.42-9.42,9.42h0c-5.2,0-9.42-4.22-9.42-9.42v-12.62" style="fill: none; stroke: #000; stroke-miterlimit: 10; stroke-width: 2px;"/>
      <line x1="1.81" y1="68.2" x2="47.25" y2="68.2" style="fill: none; stroke: #000; stroke-miterlimit: 10; stroke-width: 2px;"/>
      <line x1="46.65" y1="60.43" x2="85.35" y2="60.43" style="fill: none; stroke: #000; stroke-miterlimit: 10; stroke-width: 2px;"/>
    </g>
  </g>
</svg>