<?xml version="1.0" encoding="UTF-8"?>
<svg id="_圖層_2" data-name="圖層 2" xmlns="http://www.w3.org/2000/svg" width="91.17" height="78.4" viewBox="0 0 91.17 78.4">
  <g id="layout">
    <g>
      <rect x="48.45" y="1" width="41.72" height="76.38" style="fill: #faf6ed; stroke: #000; stroke-linecap: round; stroke-miterlimit: 10; stroke-width: 2px;"/>
      <polygon points="64.64 41.82 48.07 18.95 17.57 18.95 1 41.82 1 77.4 64.64 77.4 64.64 41.82" style="fill: #faf6ed; stroke: #000; stroke-linecap: round; stroke-miterlimit: 10; stroke-width: 2px;"/>
      <polyline points="17.57 18.95 34.14 41.82 34.14 77.4" style="fill: none; stroke: #000; stroke-linecap: round; stroke-miterlimit: 10; stroke-width: 2px;"/>
      <line x1="34.14" y1="41.82" x2="64.64" y2="41.82" style="fill: none; stroke: #000; stroke-linecap: round; stroke-miterlimit: 10; stroke-width: 2px;"/>
      <line x1="28.87" y1="34.19" x2="59.37" y2="34.19" style="fill: none; stroke: #000; stroke-miterlimit: 10; stroke-width: 2px;"/>
      <line x1="23.59" y1="26.57" x2="54.1" y2="26.57" style="fill: none; stroke: #000; stroke-miterlimit: 10; stroke-width: 2px;"/>
      <path d="M15.48,57.78h4.17c2.05,0,3.71,1.66,3.71,3.71v15.91H11.77v-15.91c0-2.05,1.66-3.71,3.71-3.71Z" style="fill: #fff; stroke: #000; stroke-linecap: round; stroke-miterlimit: 10; stroke-width: 2px;"/>
      <rect x="46.8" y="55.03" width="5.18" height="9.81"/>
      <rect x="68.5" y="7.89" width="5.18" height="9.81"/>
      <rect x="78.92" y="7.89" width="5.18" height="9.81"/>
      <rect x="78.92" y="25.14" width="5.18" height="9.81"/>
      <rect x="78.92" y="42.39" width="5.18" height="9.81"/>
      <rect x="68.5" y="25.14" width="5.18" height="9.81"/>
      <rect x="68.5" y="42.39" width="5.18" height="9.81"/>
    </g>
  </g>
</svg>