<?xml version="1.0" encoding="UTF-8"?>
<svg id="_圖層_2" data-name="圖層 2" xmlns="http://www.w3.org/2000/svg" width="100.52" height="100.55" viewBox="0 0 100.52 100.55">
  <g id="_圖層_2-2" data-name="圖層 2">
    <g>
      <path d="M100.51,44.21c0-8.51,0-17.02,0-25.53,0-1.88-.67-2.56-2.54-2.58-.58,0-1.17,0-1.76,0h-3.74s0-3.16,0-3.16c0-1.73,0-3.41,0-5.1C92.43,3.08,89.34,0,84.59,0,61.71,0,38.82,0,15.93,.02c-.93,0-1.78,.11-2.53,.31-3.24,.88-5.29,3.66-5.34,7.26-.02,1.76-.02,3.52-.01,5.26v2.77s-.42,.21-.42,.21c-.06,.03-.11,.06-.15,.08-.12,.07-.29,.16-.52,.17-1.14,.01-2.29,.02-3.43,.03h-.85C.63,16.12,0,16.75,0,18.8c0,8.47,0,16.93,0,25.4,0,2.01,.59,2.59,2.61,2.6h1.67s3.01,0,3.01,0h.75v11.25c0,7.92,0,15.84,0,23.77,0,3.08,.88,5.08,2.7,6.13,2.58,1.48,2.78,3.41,2.78,5.59,0,3.51,2.65,6.44,6.19,6.82,2.3,.24,4.69,.26,7.01,.07,3.96-.34,6.64-3.35,6.68-7.48,0-.53,0-1.06,0-1.61v-1.52s33.7,0,33.7,0v1.66c0,.6,0,1.15,0,1.71,.06,3.88,2.7,6.84,6.42,7.2,2.27,.22,4.74,.21,7.25-.02,3.09-.29,5.54-2.58,6.11-5.7,.13-.69,.13-1.41,.13-2.18,0-.55,0-1.09,.05-1.63,.04-.51,.33-1.38,.96-1.69,3.04-1.49,4.44-3.94,4.43-7.7-.03-7.75-.02-15.5-.02-23.24v-11.4s5.43,0,5.43,0c2-.01,2.62-.62,2.62-2.59Zm-92.54-1.29h-3.96V20.12h3.96v22.8ZM12.07,6.7c.06-1.4,1.14-2.47,2.74-2.72,.36-.06,.71-.07,1.04-.07h.45s39.84,0,39.84,0h28.23s.16,0,.16,0c.29,0,.58,0,.88,.03,1.81,.16,3.06,1.43,3.1,3.15,.04,1.89,.04,3.76,.03,5.73,0,.81,0,1.63,0,2.47v.75H12.03v-.75c0-.83,0-1.66-.01-2.48-.02-2.01-.03-4.08,.06-6.12Zm76.38,13.4V58.96H12.02V20.1H88.45ZM29.51,93.47c-.19,1.88-1.5,3.07-3.41,3.12-.91,.02-1.81,.03-2.71,.03s-1.73-.01-2.6-.03c-2.08-.05-3.41-1.4-3.48-3.51-.02-.55-.01-1.1,0-1.68v-1.55h12.22v.75c0,.3,0,.59,.01,.88,.02,.65,.03,1.32-.04,1.98Zm53.59,.42c-.27,1.6-1.45,2.63-3.07,2.68-1,.03-2.01,.05-3.01,.05-.94,0-1.88-.01-2.81-.05-1.78-.06-3.04-1.32-3.21-3.19-.05-.63-.04-1.25-.03-1.9,0-.29,.01-.6,.01-.92v-.75h12.16v.75c0,.32,.01,.64,.03,.96,.03,.77,.06,1.57-.07,2.37Zm1.23-7.97H47.86s-31.7,0-31.7,0c-2.94,0-4.19-1.24-4.19-4.14,0-5.15,0-10.3,0-15.46v-1.4c0-.26,.02-.52,.04-.82l.06-1.15H88.43l.08,1.11c.03,.3,.05,.59,.05,.88,0,5.58,0,11.15,0,16.73,0,3-1.23,4.23-4.23,4.23Zm12.21-43.03h-3.97V20.08h3.97v22.81Z"/>
      <path d="M12.77,58.21V20.85H87.7V58.21H12.77Z" style="fill: #fff; stroke: #fff; stroke-miterlimit: 10; stroke-width: 1.5px;"/>
      <path d="M12.77,63.71H87.72c.03,.45,.08,.85,.08,1.25,0,5.58,0,11.15,0,16.73,0,2.58-.89,3.48-3.48,3.48-22.72,0-45.44,0-68.17,0-2.52,0-3.44-.91-3.44-3.39,0-5.62,0-11.24,0-16.85,0-.37,.03-.74,.06-1.21Zm21.38,10.75c.02-4.46-3.58-8.09-8.03-8.1-4.4,0-8.03,3.56-8.07,7.93-.04,4.47,3.52,8.12,7.96,8.17,4.44,.04,8.11-3.56,8.13-8Zm48.3,0c.02-4.46-3.59-8.09-8.04-8.09-4.4,0-8.02,3.57-8.06,7.94-.04,4.47,3.53,8.12,7.97,8.16,4.44,.04,8.1-3.57,8.12-8.01Zm-32.2,2.66c2.6,0,5.19,.03,7.79-.01,1.79-.03,2.99-1.2,2.94-2.76-.04-1.51-1.2-2.62-2.94-2.63-5.19-.03-10.38-.05-15.57,.03-.76,.01-1.63,.42-2.22,.92-.83,.7-.93,1.77-.5,2.78,.5,1.17,1.49,1.66,2.72,1.66,2.6,.01,5.19,0,7.79,0Z" style="fill: #fff; stroke: #fff; stroke-miterlimit: 10; stroke-width: 1.5px;"/>
      <path d="M87.78,15.29H12.78c0-2.89-.08-5.73,.04-8.56,.05-1.13,.95-1.83,2.11-2.01,.45-.07,.92-.05,1.38-.05,22.64,0,45.27,0,67.91,0,.38,0,.76,0,1.13,.03,1.39,.13,2.38,1.03,2.41,2.42,.06,2.68,.02,5.36,.02,8.18ZM50.25,7.3c-3.14,0-6.29,0-9.43,0-3.02,0-6.03-.03-9.05,.01-1.93,.03-3.09,1.25-2.93,2.98,.14,1.57,1.31,2.41,3.38,2.42,12.03,0,24.05,0,36.08,0,.42,0,.84-.01,1.25-.1,1.45-.31,2.28-1.49,2.12-2.95-.16-1.48-1.31-2.35-3.19-2.35-6.08-.01-12.15,0-18.23,0Z" style="fill: #fff; stroke: #fff; stroke-miterlimit: 10; stroke-width: 1.5px;"/>
      <path d="M28.78,90.6c0,.97,.08,1.89-.02,2.79-.15,1.51-1.14,2.41-2.68,2.45-1.76,.05-3.52,.05-5.27,0-1.69-.04-2.69-1.08-2.74-2.78-.03-.79,0-1.58,0-2.46h10.72Z" style="fill: #fff; stroke: #fff; stroke-miterlimit: 10; stroke-width: 1.5px;"/>
      <path d="M71.73,90.55h10.66c0,1.08,.14,2.17-.04,3.2-.21,1.22-1.07,2.02-2.36,2.06-1.92,.06-3.85,.07-5.77,0-1.42-.05-2.36-1.02-2.48-2.51-.08-.87-.01-1.74-.01-2.75Z" style="fill: #fff; stroke: #fff; stroke-miterlimit: 10; stroke-width: 1.5px;"/>
      <path d="M7.22,42.17h-2.46V20.87h2.46v21.3Z" style="fill: #fff; stroke: #fff; stroke-miterlimit: 10; stroke-width: 1.5px;"/>
      <path d="M93.31,20.83h2.47v21.31h-2.47V20.83Z" style="fill: #fff; stroke: #fff; stroke-miterlimit: 10; stroke-width: 1.5px;"/>
      <g>
        <polygon points="26.11 71.73 26.11 71.72 26.11 71.73 26.11 71.73"/>
        <path d="M26.1,81.71c4.01,0,7.28-3.25,7.3-7.25,0-1.96-.75-3.8-2.13-5.2-1.38-1.38-3.2-2.15-5.15-2.15-4,0-7.28,3.22-7.32,7.19-.04,4.04,3.2,7.37,7.22,7.41l.07,.75h0v-.75Zm-3.43-7.29c0-1.86,1.58-3.44,3.44-3.44h.07c.91,.02,1.79,.43,2.43,1.12,.63,.68,.97,1.59,.92,2.48-.1,1.81-1.63,3.27-3.42,3.27-1.91-.05-3.45-1.62-3.44-3.43Z"/>
      </g>
      <g>
        <path d="M74.41,81.71c4.01,0,7.28-3.26,7.3-7.26,0-1.96-.75-3.8-2.13-5.19-1.38-1.38-3.21-2.15-5.15-2.15-4,0-7.28,3.23-7.31,7.2-.03,4.04,3.21,7.36,7.23,7.4l.07,.75h0v-.75Zm-3.43-7.18c-.03-.89,.32-1.79,.95-2.46,.64-.68,1.53-1.07,2.44-1.09h.05c.89,0,1.77,.38,2.42,1.04,.65,.66,1.02,1.55,1,2.44-.03,1.82-1.59,3.37-3.4,3.38-1.86,0-3.4-1.49-3.47-3.32Z"/>
        <polygon points="74.42 71.73 74.42 71.73 74.42 71.73 74.42 71.73"/>
      </g>
      <path d="M40.73,73.24c-.73,.62-.45,1.54-.29,1.91,.35,.82,1,1.2,2.03,1.21s2.07,0,3.11,0h4.67s4.67,0,4.67,0c1.03,0,2.07,0,3.1-.02,.71-.01,1.32-.25,1.72-.66,.33-.35,.5-.81,.49-1.32-.03-1.15-.89-1.89-2.2-1.9-5.18-.03-10.37-.05-15.56,.03-.52,0-1.24,.31-1.75,.74Z"/>
      <path d="M68.48,8.06c-2.67,0-5.35,0-8.02,0h-19.63s-5.23,0-5.23,0c-1.27,0-2.54,0-3.82,.02-.77,0-1.38,.24-1.76,.67-.34,.37-.49,.89-.43,1.49,.04,.43,.16,1.73,2.63,1.73h14.43c7.22,0,14.43,0,21.65,0,.36,0,.74,0,1.09-.08,1.06-.23,1.65-1.04,1.53-2.13-.15-1.39-1.41-1.68-2.44-1.68Z"/>
      <path d="M26.05,77.09c-1.43-.04-2.63-1.26-2.63-2.67,0-1.47,1.27-2.72,2.74-2.69,1.47,.03,2.7,1.35,2.62,2.8-.08,1.43-1.32,2.6-2.74,2.56Z" style="fill: #fff; stroke: #fff; stroke-miterlimit: 10; stroke-width: 1.5px;"/>
      <path d="M74.43,77.09c-1.42,.01-2.66-1.17-2.71-2.6-.05-1.46,1.18-2.75,2.66-2.77,1.46-.02,2.73,1.26,2.71,2.72-.02,1.42-1.24,2.63-2.66,2.65Z" style="fill: #fff; stroke: #fff; stroke-miterlimit: 10; stroke-width: 1.5px;"/>
    </g>
  </g>
</svg>