<?xml version="1.0" encoding="UTF-8"?>
<svg id="_圖層_2" data-name="圖層 2" xmlns="http://www.w3.org/2000/svg" width="134.37" height="78" viewBox="0 0 134.37 76.55">
  <g id="_圖層_2-2" data-name="圖層 2">
    <g>
      <g>
        <path d="M132.37,41.68v2.49c0,8.84-7.17,16.01-16.01,16.01H18.01c-8.84,0-16.01-7.17-16.01-16.01h0c0-7.13,4.72-13.4,11.57-15.38l10.3-2.97c3.26-.94,6.13-2.89,8.21-5.57l9.35-12.05c3.03-3.91,7.7-6.2,12.65-6.2h41.75c5.73,0,11.03,3.07,13.88,8.04l5.93,10.33c1.48,2.59,3.66,4.71,6.29,6.13l2.03,1.09c5.18,2.79,8.41,8.2,8.41,14.09Z" style="fill: #fff; stroke: #000; stroke-linecap: round; stroke-miterlimit: 10; stroke-width: 4px;"/>
        <ellipse cx="106.32" cy="60.18" rx="14.82" ry="14.82" transform="translate(-11.41 92.8) rotate(-45)" style="fill: #fff; stroke: #000; stroke-linecap: round; stroke-miterlimit: 10; stroke-width: 4px;"/>
        <ellipse cx="27.71" cy="60.18" rx="14.82" ry="14.82" transform="translate(-34.43 37.22) rotate(-45)" style="fill: #fff; stroke: #000; stroke-linecap: round; stroke-miterlimit: 10; stroke-width: 4px;"/>
      </g>
      <path d="M69.53,10.76v13.62h-15.65c-5.67,0-8.85-6.51-5.38-10.99h0c1.29-1.66,3.28-2.63,5.38-2.63h15.65Z" style="fill: #fff; stroke: #000; stroke-linecap: round; stroke-miterlimit: 10; stroke-width: 4px;"/>
      <path d="M96.09,24.38h-17.8V10.76h17.8c2.44,0,4.7,1.31,5.91,3.43h0c2.6,4.54-.68,10.19-5.91,10.19Z" style="fill: #fff; stroke: #000; stroke-linecap: round; stroke-miterlimit: 10; stroke-width: 4px;"/>
      <line x1="59.34" y1="31.09" x2="68.19" y2="31.09" style="fill: #fff; stroke: #000; stroke-linecap: round; stroke-miterlimit: 10; stroke-width: 4px;"/>
      <line x1="97.46" y1="31.09" x2="106.32" y2="31.09" style="fill: #fff; stroke: #000; stroke-linecap: round; stroke-miterlimit: 10; stroke-width: 4px;"/>
    </g>
  </g>
</svg>