<?xml version="1.0" encoding="UTF-8"?>
<svg id="_圖層_2" data-name="圖層 2" xmlns="http://www.w3.org/2000/svg" width="203.76" height="115.16" viewBox="0 0 203.76 115.16">
  <g id="_圖層_2-2" data-name="圖層 2">
    <g>
      <g>
        <path d="M201.76,62.8v3.81c0,13.54-10.98,24.52-24.52,24.52H26.52c-13.54,0-24.52-10.98-24.52-24.52h0c0-10.93,7.23-20.54,17.73-23.56l15.78-4.55c4.99-1.44,9.4-4.43,12.58-8.53l14.32-18.47c4.65-5.99,11.8-9.49,19.38-9.49h63.98c8.79,0,16.9,4.7,21.27,12.32l9.08,15.83c2.28,3.97,5.61,7.22,9.64,9.39l3.1,1.67c7.94,4.28,12.89,12.57,12.89,21.59Z" style="fill: #fff; stroke: #000; stroke-linecap: round; stroke-miterlimit: 10; stroke-width: 4px;"/>
        <ellipse cx="161.84" cy="91.14" rx="22.75" ry="11.17" transform="translate(-17.04 141.13) rotate(-45)" style="fill: #fff; stroke: #000; stroke-linecap: round; stroke-miterlimit: 10; stroke-width: 4px;"/>
        <ellipse cx="41.4" cy="91.14" rx="22.75" ry="11.17" transform="translate(-52.32 55.96) rotate(-45)" style="fill: #fff; stroke: #000; stroke-linecap: round; stroke-miterlimit: 10; stroke-width: 4px;"/>
      </g>
      <path d="M105.47,15.42v20.87h-23.99c-8.68,0-13.57-9.98-8.24-16.84h0c1.98-2.55,5.02-4.04,8.24-4.04h23.99Z" style="fill: #fff; stroke: #000; stroke-linecap: round; stroke-miterlimit: 10; stroke-width: 4px;"/>
      <path d="M146.16,36.29h-27.27V15.42h27.27c3.74,0,7.2,2,9.06,5.25h0c3.98,6.96-1.04,15.62-9.06,15.62Z" style="fill: #fff; stroke: #000; stroke-linecap: round; stroke-miterlimit: 10; stroke-width: 4px;"/>
      <line x1="89.86" y1="46.57" x2="103.42" y2="46.57" style="fill: #fff; stroke: #000; stroke-linecap: round; stroke-miterlimit: 10; stroke-width: 4px;"/>
      <line x1="148.27" y1="46.57" x2="161.84" y2="46.57" style="fill: #fff; stroke: #000; stroke-linecap: round; stroke-miterlimit: 10; stroke-width: 4px;"/>
      <line x1="5.29" y1="113.16" x2="201.76" y2="113.16" style="fill: none; stroke: #000; stroke-linecap: round; stroke-miterlimit: 10; stroke-width: 4px;"/>
    </g>
  </g>
</svg>