<?xml version="1.0" encoding="UTF-8"?>
<svg id="_圖層_2" data-name="圖層 2" xmlns="http://www.w3.org/2000/svg" width="134.37" height="87.31" viewBox="0 0 134.37 87.31">
  <g id="_圖層_2-2" data-name="圖層 2">
    <g>
      <path d="M134.37,64.62c-.47,1.9-.78,3.85-1.44,5.68-3.99,11.02-13.97,17.54-25.67,16.86-13.49-.78-24.32-13.38-23.14-26.84,.71-8.09,4.37-14.42,10.99-19.08,.28-.2,.56-.41,.97-.7-1.42-2.84-2.83-5.68-4.41-8.84-1.35,1.52-2.73,2.79-3.75,4.3-1.62,2.43-3.13,4.95-4.46,7.55-2.43,4.76-4.86,9.52-8.65,13.37-1.34,1.36-2.92,2.49-4.34,3.78-.38,.34-.77,.87-.82,1.34-.43,4.03-2.5,6.8-6.35,7.98-3.87,1.18-7.14-.01-9.72-3.11-.05-.06-.14-.1-.33-.23-2.39,9.95-8.3,16.72-18.16,19.61-6.54,1.91-12.95,1.1-18.89-2.27C4.01,77.12-.3,61.99,6.32,49.98c6.85-12.42,23.47-17.59,36.81-8.43,2.3-2.71,4.63-5.42,6.91-8.17,.19-.23,.16-.74,.07-1.07-1.33-5.11-2.68-10.22-4.07-15.5-1.42,0-2.85,0-4.28,0-.52,0-1.06,.01-1.57-.08-1.14-.22-1.78-.95-1.72-2.12,.06-1.18,.79-1.91,1.93-1.93,4.59-.05,9.19-.05,13.78,0,1.22,.01,1.99,.89,2.01,2,.02,1.13-.68,1.98-1.92,2.09-1.25,.1-2.52,.02-3.95,.02,3.18,12.02,6.31,23.86,9.43,35.66,1.39,.39,2.4,.02,3.42-.87,3.37-2.96,5.93-6.53,8.2-10.34,2.45-4.13,4.75-8.36,7.29-12.43,1.79-2.87,4.02-5.41,6.83-7.36,.56-.39,.7-.73,.36-1.4-2.36-4.63-4.67-9.29-7-13.94-.63-1.25-1.66-1.88-3.05-1.9-1.71-.02-3.41,0-5.12-.03-1.67-.03-2.62-.84-2.59-2.15,.03-1.25,.96-1.99,2.57-2,1.66-.01,3.33-.02,4.99,0,3.23,.05,5.57,1.5,7.02,4.41,4.72,9.46,9.46,18.91,14.19,28.36,.97,1.95,1.96,3.89,2.81,5.59,2.83-.49,5.46-1.16,8.13-1.39,9.59-.8,19.37,4.82,23.72,13.44,1.31,2.6,2.23,5.31,2.61,8.2,.04,.34,.17,.66,.25,.99v4.99ZM40.32,44.85c-8.55-6.16-21.56-4.95-28.77,4.69-7.02,9.39-4.95,22.53,4.69,29.63,9.21,6.78,22.39,4.59,29.3-4.95,6.62-9.14,4.05-21.18-2.11-26.62-3.17,3.73-6.36,7.44-9.48,11.21-.26,.31-.19,1.03-.06,1.51,.56,2.11,.22,4.01-1.27,5.61-1.48,1.59-3.36,2.18-5.49,1.68-3.09-.72-4.93-3.69-4.3-6.8,.59-2.91,3.43-4.83,6.49-4.44,.45,.06,1.14,.01,1.39-.27,3.24-3.72,6.42-7.5,9.62-11.27Zm57.69-.48c-9.54,5.74-12.67,18.75-6.94,28.3,6.01,10.03,18.86,13.43,28.64,7.59,10.13-6.05,13.51-18.83,7.68-28.72-6.2-10.51-18.58-12.34-25.62-8.95,2.03,4.06,4.09,8.1,6.06,12.18,.5,1.05,1.08,1.55,2.29,1.7,3.26,.41,5.42,3.68,4.65,6.83-.59,2.4-2.14,3.92-4.53,4.38-2.35,.45-4.35-.37-5.72-2.34-1.41-2.02-1.41-4.15-.21-6.3,.22-.4,.49-1.03,.33-1.36-2.16-4.43-4.39-8.83-6.63-13.31Zm-29.49,12.59c.19-.13,.33-.23,.46-.33,4.23-3.19,7.01-7.52,9.34-12.16,3.03-6.02,5.9-12.12,11.51-16.41-.58-1.17-1.13-2.27-1.78-3.56-1.16,1.11-2.23,2.01-3.17,3.04-2.97,3.25-5.19,7.01-7.22,10.89-2.99,5.72-6.33,11.18-11.11,15.63-.12,.11-.17,.28-.23,.39,.73,.84,1.42,1.62,2.19,2.51Zm-15.29-.41c.51-.53,.99-1.25,1.66-1.69,.91-.6,.93-1.25,.67-2.2-1.14-4.08-2.2-8.18-3.29-12.27-.2-.74-.41-1.47-.66-2.39-1.86,2.19-3.58,4.22-5.22,6.14,1.42,2.02,2.95,3.85,4.08,5.9,1.13,2.05,1.85,4.31,2.77,6.51Zm7.49,9.77c2.6,0,4.77-2.12,4.82-4.72,.05-2.62-2.16-4.85-4.81-4.85-2.65,0-4.86,2.22-4.82,4.85,.04,2.6,2.2,4.72,4.81,4.73Z"/>
      <path d="M35.85,29.96c2.1,.77,4.11,1.47,6.08,2.26,.54,.21,1.25,.62,1.37,1.08,.19,.71,.16,1.65-.18,2.28-.5,.92-1.53,.89-2.46,.57-1.69-.58-3.34-1.33-5.06-1.76-9.36-2.31-17.9-.46-25.31,5.67-2.42,2-4.27,4.69-6.32,7.11-.96,1.14-1.88,1.52-2.92,.94-1.18-.66-1.4-1.89-.54-3.28,2.62-4.23,6.03-7.7,10.22-10.38,1.1-.7,2.25-1.32,3.48-2.03-.92-1.91-1.8-3.8-2.76-5.65-.13-.25-.63-.38-.98-.42-.74-.07-1.49,.02-2.22-.08-1.1-.14-1.73-.83-1.75-1.94-.02-1.1,.56-1.81,1.66-2.02,.38-.07,.78-.09,1.17-.09,9.75,0,19.5,0,29.26,0,1.93,0,2.89,.72,2.87,2.09-.01,1.36-.96,2.12-2.91,2-1.34-.08-2.03,.3-2.18,1.67-.07,.68-.35,1.33-.52,1.98Zm-3.36-3.52H15.95c.76,1.57,1.46,3,2.17,4.48,4.5-1.43,8.97-1.92,13.52-1.5,.3-1.06,.56-1.97,.84-2.98Z"/>
      <g>
        <path d="M102.97,31.89c-.13,0-.2-.01-.23-.02,0-.01-.05-.07-.11-.2-1.1-2.3-2.21-4.6-3.32-6.89-1.28-2.66-2.57-5.31-3.84-7.98,0,0,0,0,0,0,.03,0,2.54,0,3.76,0h10.49c1.22,0,2.44,0,3.66,0,.11,0,.21,0,.29,.01,0,.07,0,.16,0,.27,.01,4.85,.01,9.7,0,14.55,0,.09,0,.17,0,.24-.05,0-.11,0-.18,0-.84,0-1.68,0-2.52,0h-4.21c-1.26,0-2.52,0-3.78,.01h-.02Z" style="fill: #fff;"/>
        <path d="M99.18,19.12h2.61s2.68,0,2.68,0h2.65s2.66,0,2.66,0c.52,0,1.04,0,1.56,0,0,3.52,0,7,0,10.42-.15,0-.3,0-.45,0h-2.07s-2.08,0-2.08,0c-.85,0-1.7,0-2.55,0-.93-1.93-1.86-3.85-2.79-5.78-.75-1.55-1.49-3.09-2.24-4.64m-.06-4.67c-1.19,0-2.38,0-3.57,0-2.22,.01-3.13,1.38-2.19,3.35,2.37,4.97,4.78,9.91,7.16,14.87,.51,1.06,1.26,1.55,2.44,1.55,.01,0,.03,0,.04,0,1.25-.01,2.5-.02,3.75-.02,1.38,0,2.76,0,4.15,0,.87,0,1.74,0,2.6,0,1.82-.01,2.51-.72,2.51-2.57,.01-4.85,.01-9.71,0-14.56,0-1.9-.71-2.6-2.62-2.61-1.2,0-2.4,0-3.61,0-1.77,0-3.54,0-5.32,0-1.79,0-3.57,0-5.35,0h0Z"/>
      </g>
      <path d="M40.32,44.85c-3.2,3.77-6.38,7.54-9.62,11.27-.25,.29-.93,.33-1.39,.27-3.06-.39-5.9,1.53-6.49,4.44-.63,3.11,1.22,6.07,4.3,6.8,2.13,.5,4.01-.09,5.49-1.68,1.49-1.6,1.83-3.5,1.27-5.61-.13-.48-.2-1.2,.06-1.51,3.12-3.77,6.31-7.48,9.48-11.21,6.16,5.44,8.73,17.48,2.11,26.62-6.91,9.54-20.09,11.73-29.3,4.95-9.64-7.1-11.72-20.24-4.69-29.63,7.22-9.65,20.23-10.86,28.77-4.69Z" style="fill: #fff;"/>
      <path d="M98.01,44.36c2.25,4.48,4.47,8.88,6.63,13.31,.16,.33-.1,.95-.33,1.36-1.2,2.16-1.2,4.29,.21,6.3,1.38,1.97,3.38,2.8,5.72,2.34,2.4-.46,3.94-1.98,4.53-4.38,.77-3.15-1.39-6.42-4.65-6.83-1.21-.15-1.79-.65-2.29-1.7-1.97-4.09-4.03-8.13-6.06-12.18,7.03-3.39,19.42-1.57,25.62,8.95,5.83,9.89,2.45,22.67-7.68,28.72-9.78,5.85-22.63,2.44-28.64-7.59-5.73-9.56-2.59-22.57,6.94-28.3Z" style="fill: #fff;"/>
      <path d="M68.52,56.95c-.77-.89-1.46-1.67-2.19-2.51,.06-.11,.11-.28,.23-.39,4.78-4.45,8.12-9.91,11.11-15.63,2.03-3.88,4.25-7.64,7.22-10.89,.94-1.02,2.01-1.93,3.17-3.04,.64,1.29,1.2,2.4,1.78,3.56-5.61,4.29-8.48,10.4-11.51,16.41-2.34,4.64-5.11,8.96-9.34,12.16-.14,.1-.28,.2-.46,.33Z" style="fill: #fff;"/>
      <path d="M60.72,66.31c-2.6,0-4.77-2.13-4.81-4.73-.04-2.63,2.17-4.85,4.82-4.85,2.65,0,4.86,2.23,4.81,4.85-.05,2.6-2.22,4.72-4.82,4.72Zm-.01-2.15c1.46,0,2.69-1.21,2.68-2.66-.01-1.43-1.29-2.68-2.71-2.65-1.37,.03-2.59,1.24-2.62,2.62-.04,1.42,1.21,2.68,2.66,2.69Z" style="fill: #fff;"/>
      <path d="M60.71,64.16c-1.45,0-2.69-1.27-2.66-2.69,.04-1.37,1.25-2.59,2.62-2.62,1.42-.03,2.7,1.22,2.71,2.65,.01,1.45-1.22,2.67-2.68,2.66Z"/>
    </g>
  </g>
</svg>