<?xml version="1.0" encoding="UTF-8"?>
<svg id="_圖層_2" data-name="圖層 2" xmlns="http://www.w3.org/2000/svg" width="6.78" height="11.14" viewBox="0 0 6.78 11.14">
  <g id="_圖層_2-2" data-name="圖層 2">
    <g>
      <path d="M3.92,4.88c-.1,.45-.19,.9-.29,1.35-.03,.14,0,.25,.07,.38,.75,1.18,1.5,2.36,2.25,3.54,.14,.23,.16,.46,.03,.69-.13,.22-.33,.32-.59,.3-.22-.02-.38-.13-.49-.31-.54-.85-1.08-1.7-1.61-2.55-.42-.67-.85-1.34-1.27-2.01-.06-.1-.09-.18-.06-.3,.14-.62,.27-1.24,.4-1.87,0-.02,0-.05,0-.09-.29,.26-.68,.43-.84,.8-.11,.25-.12,.54-.17,.81-.04,.27-.07,.54-.1,.82-.04,.28-.26,.45-.52,.41-.26-.04-.42-.26-.38-.54,.07-.54,.14-1.08,.2-1.62,.03-.3,.16-.55,.4-.74,.38-.31,.74-.63,1.12-.94,.43-.34,.9-.54,1.46-.49,.3,.03,.55,.15,.68,.43,.19,.43,.39,.86,.52,1.31,.13,.42,.34,.7,.74,.87,.35,.14,.69,.32,1.03,.48,.27,.13,.37,.37,.25,.61-.11,.23-.36,.3-.63,.17-.47-.22-.94-.45-1.42-.67-.3-.13-.52-.33-.64-.64-.03-.07-.06-.13-.09-.19-.01,0-.03,0-.04,0Z" style="fill: #b4b4b5;"/>
      <path d="M1.77,7.08c.05,.06,.09,.1,.12,.14,.22,.29,.43,.58,.65,.87,.07,.08,.07,.16,.04,.26-.06,.19-.1,.38-.16,.57-.03,.1-.08,.2-.14,.29-.41,.56-.83,1.13-1.25,1.69-.2,.27-.53,.34-.79,.15-.27-.19-.32-.53-.11-.81,.37-.51,.75-1.01,1.13-1.52,.07-.09,.12-.2,.15-.3,.12-.43,.24-.86,.37-1.32Z" style="fill: #b4b4b5;"/>
      <path d="M3.98,0c.59,0,1.06,.49,1.05,1.08,0,.59-.49,1.06-1.08,1.05-.59-.01-1.06-.49-1.06-1.06C2.9,.47,3.39,0,3.98,0Z" style="fill: #b4b4b5;"/>
    </g>
  </g>
</svg>