<?xml version="1.0" encoding="UTF-8"?>
<svg id="_圖層_2" data-name="圖層 2" xmlns="http://www.w3.org/2000/svg" width="11.14" height="11.14" viewBox="0 0 11.14 11.14">
  <g id="_圖層_2-2" data-name="圖層 2">
    <g>
      <path d="M.87,2.36h-.27v2.33h.27V2.36Z" style="fill: #b4b4b5;"/>
      <path d="M11.14,2.12c0-.25-.11-.36-.36-.36-.06,0-.13,0-.19,0h-.33s0-.27,0-.27c0-.19,0-.37,0-.55C10.26,.38,9.88,0,9.32,0,6.82,0,4.32,0,1.82,0c-.11,0-.21,.01-.3,.04-.39,.11-.64,.44-.64,.87,0,.19,0,.39,0,.58v.25s0,0,0,0c0,0-.01,0-.02,.01,0,0-.01,0-.02,0-.12,0-.25,0-.37,0h-.09C.11,1.76,0,1.87,0,2.14c0,.92,0,1.85,0,2.77,0,.27,.1,.36,.37,.37h.18s.33,0,.33,0v1.15c0,.87,0,1.73,0,2.6,0,.37,.11,.61,.34,.74,.24,.14,.26,.31,.26,.54,0,.43,.32,.78,.75,.83,.14,.01,.28,.02,.43,.02,.12,0,.24,0,.35-.01,.48-.04,.8-.4,.8-.9,0-.06,0-.12,0-.18v-.08s3.52,0,3.52,0v.1c0,.06,0,.13,0,.19,0,.47,.33,.82,.78,.87,.26,.02,.53,.02,.81,0,.37-.04,.67-.31,.74-.69,.02-.08,.02-.16,.02-.25,0-.06,0-.12,0-.17,0-.04,.03-.1,.06-.12,.36-.18,.53-.47,.53-.92,0-.85,0-1.69,0-2.54v-1.16s.51,0,.51,0c.26,0,.37-.1,.37-.36,0-.93,0-1.86,0-2.79ZM.87,4.69h-.27V2.36h.27v2.33ZM9.67,.86c0,.14,0,.28,0,.42,0-.14,0-.28,0-.42,0-.02,0-.04,0-.05,0,.02,0,.03,0,.05Zm0,.79s0,.07,0,.1h0s0-.07,0-.1Zm-.27-1.06s0,0,.01,0c0,0,0,0-.01,0h0Zm-7.59,0h.05S6.21,.59,6.21,.59h3.08s.02,0,.02,0c0,0,0,0,0,0-.01,0-.03,0-.04,0-2.47,0-4.94,0-7.42,0-.02,0-.04,0-.06,0,0,0,0,0,.01,0Zm5.86,.87s-.09,.01-.14,.01c-1.31,0-2.63,0-3.94,0-.23,0-.35-.09-.37-.26-.02-.19,.11-.32,.32-.33,.33,0,.66,0,.99,0,.34,0,.69,0,1.03,0,.66,0,1.33,0,1.99,0,.21,0,.33,.1,.35,.26,.02,.16-.07,.29-.23,.32ZM1.48,2.36H9.66V6.44H1.48V2.36Zm0,6.45c0-.5,0-.99,0-1.49v-.14c0,.54,0,1.09,0,1.63Zm0-1.77s0,.02,0,.03v-.03H9.66v.05s0,0,0,0c0-.02,0-.03,0-.05H1.48Zm5.27,1.16c0,.17-.13,.3-.32,.3-.28,0-.57,0-.85,0s-.57,0-.85,0c-.13,0-.24-.05-.3-.18-.05-.11-.04-.23,.05-.3,.06-.05,.16-.1,.24-.1,.57,0,1.13,0,1.7,0,.19,0,.32,.12,.32,.29Zm-4.69,1.84v-.06h0s0,.04,0,.06Zm.88-2.71c.49,0,.88,.4,.88,.88,0,.48-.4,.88-.89,.87-.48,0-.87-.4-.87-.89,0-.48,.4-.87,.88-.87Zm-.87,2.98c.03,.15,.13,.23,.29,.24-.16,0-.26-.09-.29-.24Zm.87,.24s-.02,0-.03,0c.01,0,.02,0,.03,0,0,0,.01,0,.02,0,0,0-.01,0-.02,0Zm.29-.27s0,.02,0,.03c0-.01,0-.02,0-.03,0,0,0,0,0,0,0,0,0,0,0,0Zm0-.3h0s0,0,0,0c0,0,0,0,0,0Zm0,.07s0,.02,0,.03c0,0,0,0,0,0,0-.01,0-.02,0-.03Zm4.96,.5s-.04,0-.06,0c.02,0,.04,0,.06,0,.06,0,.12,0,.19,0-.06,0-.12,0-.19,0Zm-2.88-1.16H2.15c2.12,0,4.24,0,6.36,0h-3.2Zm3.68,1.1s.06-.07,.07-.11c-.01,.04-.04,.08-.07,.11Zm.09-.51h0s0,.01,0,.02c0,0,0-.01,0-.02Zm-.87-.88h0s0,0,0,0c-.49,0-.87-.4-.87-.89,0-.48,.4-.87,.88-.87,.49,0,.88,.4,.88,.88,0,.48-.4,.87-.88,.87Zm1.46-.08c0,.26-.08,.36-.31,.38,.23-.02,.31-.12,.31-.38h0Zm0-1.83s0,0,0,0c0,0,0,0,0,0,0,.61,0,1.22,0,1.83,0-.61,0-1.22,0-1.83Z" style="fill: #b4b4b5;"/>
      <path d="M2.93,8.5c.15,0,.29-.12,.3-.28,0-.16-.13-.3-.29-.31-.16,0-.3,.13-.3,.29,0,.15,.13,.29,.29,.29Z" style="fill: #b4b4b5;"/>
      <path d="M8.21,7.91c-.16,0-.3,.14-.29,.3,0,.16,.14,.28,.3,.28,.15,0,.29-.13,.29-.29,0-.16-.14-.3-.3-.3Z" style="fill: #b4b4b5;"/>
    </g>
  </g>
</svg>