<?xml version="1.0" encoding="UTF-8"?>
<svg id="_圖層_2" data-name="圖層 2" xmlns="http://www.w3.org/2000/svg" width="13.69" height="13.74" viewBox="0 0 13.69 13.74">
  <g id="_燈箱" data-name="燈箱">
    <path d="M4.4,5.03c1.13,1.67,2.66,2.97,4.23,4.29,.32-.27,.63-.55,.95-.79,.66-.5,.94-.5,1.6-.03,.66,.47,1.32,.95,1.97,1.43,.53,.39,.64,.74,.48,1.38-.51,1.97-1.91,2.78-3.94,2.27-1.61-.41-2.97-1.29-4.23-2.33C3.31,9.49,1.5,7.47,.43,4.87,.08,4.02-.11,3.13,.07,2.19,.31,1.02,1.71-.12,2.87,0c.31,.03,.66,.3,.88,.56,.54,.65,.99,1.37,1.51,2.04,.35,.45,.34,.89,.02,1.32-.27,.37-.58,.72-.89,1.11Z"/>
  </g>
</svg>