<?xml version="1.0" encoding="UTF-8"?>
<svg id="_圖層_2" data-name="圖層 2" xmlns="http://www.w3.org/2000/svg" width="61.01" height="28.23" viewBox="0 0 61.01 28.23">
  <g id="_燈箱" data-name="燈箱">
    <g>
      <path d="M61.01,28.23H14.12C6.32,28.23,0,21.91,0,14.12H0C0,6.32,6.32,0,14.12,0H46.89c7.8,0,14.12,6.32,14.12,14.12v14.12Z" style="fill: #b4b4b5;"/>
      <g>
        <path d="M12.76,18.43c0,.61-.12,.95-.53,1.15-.38,.2-.94,.23-1.67,.23-.07-.36-.28-.89-.46-1.21,.44,.02,.92,.02,1.08,.01,.14,0,.19-.05,.19-.19v-1.07h-2.11c-.13,.91-.41,1.81-.89,2.49-.22-.23-.78-.66-1.07-.8,.74-1.08,.82-2.59,.82-3.77v-2.75h4.63v5.9Zm5.46-8.01v1.28H7.36v-1.28h2.55c-.22-.41-.56-.92-.9-1.32l1.36-.47c.43,.46,.91,1.1,1.12,1.56l-.66,.23h3.33c.36-.55,.74-1.26,.98-1.81l1.55,.46c-.29,.47-.61,.94-.91,1.35h2.44Zm-6.84,5.89v-.78h-1.97c0,.25-.01,.5-.04,.78h2Zm-1.97-2.66v.83h1.97v-.83h-1.97Zm5.68,3.9h-1.31v-4.89h1.31v4.89Zm1.08-5.23h1.4v5.96c0,.71-.13,1.05-.61,1.28-.46,.22-1.1,.25-1.97,.24-.07-.38-.3-.97-.52-1.34,.61,.02,1.24,.02,1.44,.01,.19,0,.25-.05,.25-.22v-5.94Z" style="fill: #fff;"/>
        <path d="M20.92,15.01c-.3,.3-.6,.59-.9,.84-.11-.32-.47-1.13-.68-1.48,1-.74,2.11-1.92,2.76-3.08l1.26,.5c-.28,.49-.6,.98-.96,1.47v6.58h-1.48v-4.85Zm2.22-5.83c-.73,1.12-1.87,2.3-2.93,3.04-.17-.32-.5-.91-.73-1.21,.86-.58,1.83-1.55,2.3-2.34l1.36,.52Zm7.44,8.96v1.35h-7.59v-1.35h3.17v-2.45h-2.39v-1.36h2.39v-2.11h-2.79v-1.36h3.06c-.14-.5-.5-1.26-.84-1.83l1.32-.44c.36,.56,.78,1.34,.94,1.86l-1.15,.42h3.59v1.36h-2.63v2.11h2.27v1.36h-2.27v2.45h2.94Z" style="fill: #fff;"/>
      </g>
      <g>
        <rect x="33.98" y="13.02" width="11.16" height="2.18" style="fill: #fff;"/>
        <polygon points="54.22 14.12 44.26 9.86 44.26 18.38 54.22 14.12" style="fill: #fff;"/>
      </g>
    </g>
  </g>
</svg>