<?xml version="1.0" encoding="UTF-8"?>
<svg id="_圖層_2" data-name="圖層 2" xmlns="http://www.w3.org/2000/svg" width="57.21" height="57.21" viewBox="0 0 57.21 57.21">
  <g id="_燈箱" data-name="燈箱">
    <g>
      <path d="M57.21,57.21H16C7.16,57.21,0,50.04,0,41.21V16C0,7.16,7.16,0,16,0h25.21c8.84,0,16,7.16,16,16V57.21Z" style="fill: #00a44e;"/>
      <g>
        <path d="M51.27,35.66c-.16,.64-.26,1.3-.49,1.91-1.35,3.71-4.71,5.91-8.66,5.69-4.55-.26-8.2-4.51-7.8-9.05,.24-2.73,1.47-4.86,3.71-6.43,.1-.07,.19-.14,.33-.24-.48-.96-.96-1.91-1.49-2.98-.45,.51-.92,.94-1.26,1.45-.55,.82-1.06,1.67-1.5,2.55-.82,1.61-1.64,3.21-2.92,4.51-.45,.46-.99,.84-1.46,1.27-.13,.12-.26,.29-.28,.45-.14,1.36-.84,2.29-2.14,2.69-1.3,.4-2.41,0-3.28-1.05-.02-.02-.05-.03-.11-.08-.81,3.35-2.8,5.64-6.12,6.61-2.2,.65-4.37,.37-6.37-.77-4.11-2.33-5.56-7.43-3.33-11.48,2.31-4.19,7.91-5.93,12.41-2.84,.78-.91,1.56-1.83,2.33-2.76,.06-.08,.05-.25,.02-.36-.45-1.72-.9-3.45-1.37-5.22-.48,0-.96,0-1.44,0-.18,0-.36,0-.53-.03-.39-.07-.6-.32-.58-.71,.02-.4,.27-.64,.65-.65,1.55-.02,3.1-.02,4.65,0,.41,0,.67,.3,.68,.67,0,.38-.23,.67-.65,.7-.42,.03-.85,0-1.33,0,1.07,4.05,2.13,8.05,3.18,12.02,.47,.13,.81,0,1.15-.29,1.13-1,2-2.2,2.76-3.49,.83-1.39,1.6-2.82,2.46-4.19,.6-.97,1.35-1.82,2.3-2.48,.19-.13,.23-.25,.12-.47-.8-1.56-1.57-3.13-2.36-4.7-.21-.42-.56-.64-1.03-.64-.58,0-1.15,0-1.73,0-.56-.01-.88-.28-.87-.72,.01-.42,.32-.67,.87-.67,.56,0,1.12,0,1.68,0,1.09,.02,1.88,.51,2.37,1.49,1.59,3.19,3.19,6.38,4.79,9.56,.33,.66,.66,1.31,.95,1.88,.95-.17,1.84-.39,2.74-.47,3.23-.27,6.53,1.63,8,4.53,.44,.88,.75,1.79,.88,2.76,.01,.11,.06,.22,.09,.34v1.68Zm-31.71-6.67c-2.88-2.08-7.27-1.67-9.7,1.58-2.37,3.17-1.67,7.6,1.58,9.99,3.11,2.29,7.55,1.55,9.88-1.67,2.23-3.08,1.37-7.14-.71-8.97-1.07,1.26-2.14,2.51-3.2,3.78-.09,.11-.06,.35-.02,.51,.19,.71,.07,1.35-.43,1.89-.5,.54-1.13,.74-1.85,.57-1.04-.24-1.66-1.24-1.45-2.29,.2-.98,1.16-1.63,2.19-1.5,.15,.02,.38,0,.47-.09,1.09-1.26,2.17-2.53,3.25-3.8Zm19.45-.16c-3.22,1.93-4.27,6.32-2.34,9.54,2.03,3.38,6.36,4.53,9.66,2.56,3.41-2.04,4.56-6.35,2.59-9.68-2.09-3.54-6.26-4.16-8.64-3.02,.68,1.37,1.38,2.73,2.04,4.11,.17,.35,.37,.52,.77,.57,1.1,.14,1.83,1.24,1.57,2.3-.2,.81-.72,1.32-1.53,1.48-.79,.15-1.47-.13-1.93-.79-.47-.68-.48-1.4-.07-2.13,.08-.14,.16-.35,.11-.46-.73-1.49-1.48-2.98-2.24-4.49Zm-9.94,4.25c.06-.04,.11-.08,.16-.11,1.43-1.08,2.36-2.53,3.15-4.1,1.02-2.03,1.99-4.09,3.88-5.53-.2-.39-.38-.77-.6-1.2-.39,.37-.75,.68-1.07,1.02-1,1.1-1.75,2.36-2.44,3.67-1.01,1.93-2.13,3.77-3.75,5.27-.04,.04-.06,.1-.08,.13,.25,.28,.48,.55,.74,.85Zm-5.16-.14c.17-.18,.33-.42,.56-.57,.31-.2,.31-.42,.23-.74-.38-1.38-.74-2.76-1.11-4.14-.07-.25-.14-.49-.22-.81-.63,.74-1.21,1.42-1.76,2.07,.48,.68,1,1.3,1.38,1.99,.38,.69,.63,1.45,.93,2.2Zm2.52,3.29c.88,0,1.61-.71,1.62-1.59,.02-.88-.73-1.64-1.62-1.64-.89,0-1.64,.75-1.62,1.63,.01,.88,.74,1.59,1.62,1.59Z"/>
        <path d="M18.05,23.97c.71,.26,1.39,.5,2.05,.76,.18,.07,.42,.21,.46,.36,.06,.24,.05,.56-.06,.77-.17,.31-.52,.3-.83,.19-.57-.19-1.12-.45-1.71-.59-3.16-.78-6.04-.15-8.53,1.91-.81,.67-1.44,1.58-2.13,2.4-.33,.38-.63,.51-.98,.32-.4-.22-.47-.64-.18-1.11,.88-1.42,2.03-2.59,3.44-3.5,.37-.24,.76-.44,1.17-.69-.31-.64-.61-1.28-.93-1.9-.04-.08-.21-.13-.33-.14-.25-.02-.5,0-.75-.03-.37-.05-.58-.28-.59-.65,0-.37,.19-.61,.56-.68,.13-.03,.26-.03,.4-.03,3.29,0,6.58,0,9.86,0,.65,0,.97,.24,.97,.7,0,.46-.32,.71-.98,.67-.45-.03-.68,.1-.73,.56-.02,.23-.12,.45-.18,.67Zm-1.13-1.19h-5.58c.26,.53,.49,1.01,.73,1.51,1.52-.48,3.02-.65,4.56-.5,.1-.36,.19-.66,.28-1.01Z"/>
        <g>
          <path d="M40.68,24.62c-.06,0-.08,0-.08,0l-1.14-2.37c-.44-.9-.87-1.8-1.3-2.71,0,0,4.88,0,4.88,0,0,0,1.23,0,1.25,0,0,.03,0,.06,0,.09,0,1.63,0,3.27,0,4.91,0,.03,0,.06,0,.08-.02,0-3.61,0-3.61,0Z" style="fill: #fff;"/>
          <path d="M42.98,20.32c.17,0,.35,0,.53,0,0,1.16,0,2.33,0,3.51h-.85s-.7,0-.7,0c-.29,0-.58,0-.86,0-.31-.65-.63-1.3-.94-1.96-.25-.52-.5-1.04-.75-1.56h.89s.9,0,.9,0h.9s.89,0,.89,0m0-1.58c-.6,0-1.19,0-1.79,0s-1.19,0-1.79,0c-.41,0-.81,0-1.22,0-.75,0-1.05,.46-.74,1.13,.8,1.67,1.61,3.34,2.41,5.01,.17,.36,.43,.52,.82,.52,0,0,0,0,.01,0,.42,0,.84,0,1.27,0,.46,0,.93,0,1.39,0,.29,0,.59,0,.88,0,.61,0,.85-.24,.85-.87,0-1.64,0-3.27,0-4.91,0-.64-.24-.88-.88-.88-.41,0-.81,0-1.22,0h0Z"/>
        </g>
        <path d="M19.56,28.99c-1.08,1.27-2.15,2.54-3.25,3.8-.08,.1-.31,.11-.47,.09-1.03-.13-1.99,.52-2.19,1.5-.21,1.05,.41,2.05,1.45,2.29,.72,.17,1.35-.03,1.85-.57,.5-.54,.62-1.18,.43-1.89-.04-.16-.07-.4,.02-.51,1.05-1.27,2.13-2.52,3.2-3.78,2.08,1.83,2.94,5.89,.71,8.97-2.33,3.22-6.77,3.96-9.88,1.67-3.25-2.39-3.95-6.82-1.58-9.99,2.43-3.25,6.82-3.66,9.7-1.58Z" style="fill: #fff;"/>
        <path d="M39.01,28.83c.76,1.51,1.51,2.99,2.24,4.49,.05,.11-.04,.32-.11,.46-.41,.73-.4,1.45,.07,2.13,.46,.66,1.14,.94,1.93,.79,.81-.16,1.33-.67,1.53-1.48,.26-1.06-.47-2.17-1.57-2.3-.41-.05-.6-.22-.77-.57-.66-1.38-1.36-2.74-2.04-4.11,2.37-1.14,6.55-.53,8.64,3.02,1.97,3.34,.82,7.64-2.59,9.68-3.3,1.97-7.63,.82-9.66-2.56-1.93-3.22-.87-7.61,2.34-9.54Z" style="fill: #fff;"/>
        <path d="M29.07,33.07c-.26-.3-.49-.56-.74-.85,.02-.04,.04-.1,.08-.13,1.61-1.5,2.74-3.34,3.75-5.27,.68-1.31,1.43-2.58,2.44-3.67,.32-.35,.68-.65,1.07-1.02,.22,.43,.4,.81,.6,1.2-1.89,1.45-2.86,3.51-3.88,5.53-.79,1.56-1.72,3.02-3.15,4.1-.05,.03-.09,.07-.16,.11Z" style="fill: #fff;"/>
        <path d="M26.44,36.23c-.88,0-1.61-.72-1.62-1.59-.01-.89,.73-1.63,1.62-1.63,.89,0,1.64,.75,1.62,1.64-.02,.88-.75,1.59-1.62,1.59Zm0-.72c.49,0,.91-.41,.9-.9,0-.48-.44-.9-.92-.89-.46,.01-.87,.42-.88,.88-.01,.48,.41,.9,.9,.91Z" style="fill: #fff;"/>
        <path d="M26.43,35.5c-.49,0-.91-.43-.9-.91,.01-.46,.42-.87,.88-.88,.48-.01,.91,.41,.92,.89,0,.49-.41,.9-.9,.9Z"/>
      </g>
    </g>
  </g>
</svg>