<?xml version="1.0" encoding="UTF-8"?>
<svg id="_圖層_2" data-name="圖層 2" xmlns="http://www.w3.org/2000/svg" width="57.21" height="57.21" viewBox="0 0 57.21 57.21">
  <g id="_燈箱" data-name="燈箱">
    <g>
      <path d="M57.21,57.21H16C7.16,57.21,0,50.04,0,41.21V16C0,7.16,7.16,0,16,0h25.21c8.84,0,16,7.16,16,16V57.21Z" style="fill: #0082c2;"/>
      <g>
        <g>
          <path d="M51.27,29.79v.86c0,3.07-2.49,5.57-5.57,5.57H11.5c-3.07,0-5.57-2.49-5.57-5.57h0c0-2.48,1.64-4.66,4.02-5.35l3.58-1.03c1.13-.33,2.13-1,2.86-1.94l3.25-4.19c1.05-1.36,2.68-2.15,4.4-2.15h14.52c1.99,0,3.84,1.07,4.83,2.8l2.06,3.59c.52,.9,1.27,1.64,2.19,2.13l.7,.38c1.8,.97,2.93,2.85,2.93,4.9Z" style="fill: #fff; stroke: #000; stroke-linecap: round; stroke-miterlimit: 10; stroke-width: 1.5px;"/>
          <ellipse cx="42.21" cy="36.22" rx="5.15" ry="5.15" transform="translate(-13.25 40.45) rotate(-45)" style="fill: #fff; stroke: #000; stroke-linecap: round; stroke-miterlimit: 10; stroke-width: 1.5px;"/>
          <ellipse cx="14.88" cy="36.22" rx="5.15" ry="5.15" transform="translate(-21.25 21.13) rotate(-45)" style="fill: #fff; stroke: #000; stroke-linecap: round; stroke-miterlimit: 10; stroke-width: 1.5px;"/>
        </g>
        <path d="M29.42,19.04v4.74h-5.44c-1.97,0-3.08-2.26-1.87-3.82h0c.45-.58,1.14-.92,1.87-.92h5.44Z" style="fill: #fff; stroke: #000; stroke-linecap: round; stroke-miterlimit: 10; stroke-width: 1.5px;"/>
        <path d="M38.65,23.77h-6.19v-4.74h6.19c.85,0,1.63,.45,2.06,1.19h0c.9,1.58-.24,3.54-2.06,3.54Z" style="fill: #fff; stroke: #000; stroke-linecap: round; stroke-miterlimit: 10; stroke-width: 1.5px;"/>
        <line x1="25.87" y1="26.1" x2="28.95" y2="26.1" style="fill: #fff; stroke: #000; stroke-linecap: round; stroke-miterlimit: 10; stroke-width: 1.5px;"/>
        <line x1="39.13" y1="26.1" x2="42.21" y2="26.1" style="fill: #fff; stroke: #000; stroke-linecap: round; stroke-miterlimit: 10; stroke-width: 1.5px;"/>
      </g>
    </g>
  </g>
</svg>