<?xml version="1.0" encoding="UTF-8"?>
<svg id="_圖層_2" data-name="圖層 2" xmlns="http://www.w3.org/2000/svg" width="57.21" height="57.21" viewBox="0 0 57.21 57.21">
  <g id="_燈箱" data-name="燈箱">
    <g>
      <path d="M57.21,57.21H16C7.16,57.21,0,50.04,0,41.21V16C0,7.16,7.16,0,16,0h25.21c8.84,0,16,7.16,16,16V57.21Z" style="fill: #00a44e;"/>
      <g>
        <path d="M45.87,22.91c-.22-.18-.32-.46-.27-.74,.03-.14,.04-.28,.04-.43,0-1.21-.94-2.18-2.13-2.26,.04-.16,.06-.33,.06-.51,0-1.08-.75-1.98-1.75-2.22-.3-.07-.52-.3-.59-.59-.24-1-1.14-1.75-2.22-1.75-.17,0-.33,.02-.49,.06-.36,.08-.71-.11-.86-.44-.35-.79-1.14-1.35-2.07-1.35-.25,0-.5,.04-.73,.12-.32,.11-.69,0-.87-.29-.4-.63-1.11-1.06-1.91-1.06-.37,0-.71,.09-1.01,.24-.28,.14-.64,.1-.86-.13-.41-.43-.99-.69-1.63-.69s-1.21,.27-1.63,.69c-.22,.23-.58,.27-.86,.13-.3-.15-.65-.24-1.01-.24-.81,0-1.51,.42-1.91,1.06-.18,.29-.55,.41-.87,.29-.23-.08-.47-.12-.73-.12-.93,0-1.71,.55-2.07,1.35-.15,.33-.5,.52-.86,.44-.16-.04-.32-.06-.49-.06-1.08,0-1.98,.75-2.22,1.75-.07,.3-.3,.52-.59,.59-1,.24-1.75,1.14-1.75,2.22,0,.18,.02,.35,.06,.51-1.19,.08-2.13,1.06-2.13,2.26,0,.29,.32,.62,.47,.89,.03,.05,0,.11-.04,.14-1.09,.62-1.93,1.99-.96,3.41,.05,.08,.13,.16,.21,.21,.63,.45,1.28,.59,1.85,.52,.34-.04,.68,.16,.79,.49,1.61,4.81,7.73,8.39,15.05,8.39s13.86-3.83,15.21-8.89c.09,.01,.18,.03,.28,.03,1.26,0,2.28-1.02,2.28-2.28,0-.7-.32-1.32-.82-1.74Z" style="fill: #fff; stroke: #000; stroke-linecap: round; stroke-miterlimit: 10; stroke-width: 1.5px;"/>
        <path d="M26.75,16.53c-.46-.29-1.02-.42-1.6-.31-.79,.14-1.41,.69-1.69,1.38-.13,.32-.46,.5-.8,.45-.24-.04-.49-.03-.74,.01-1.04,.19-1.72,1.1-1.79,2.12-.01,.18-.19,.29-.36,.25-.29-.07-.61-.11-.9-.05-1.24,.23-2.06,1.41-1.83,2.65" style="fill: none; stroke: #000; stroke-linecap: round; stroke-miterlimit: 10; stroke-width: 1.5px;"/>
        <path d="M32.86,18.31c.46-.28,1.03-.41,1.6-.3,.79,.15,1.41,.69,1.69,1.39,.13,.32,.46,.5,.8,.45,.24-.03,.49-.03,.74,.01,1.16,.22,1.94,1.29,1.84,2.44" style="fill: none; stroke: #000; stroke-linecap: round; stroke-miterlimit: 10; stroke-width: 1.5px;"/>
        <path d="M47.7,25.4H9.51c0,7.71,4.58,14.35,11.16,17.37h-.23v3.57h16.34v-3.57h-.23c6.58-3.01,11.16-9.65,11.16-17.37Z" style="fill: #faf6ed; stroke: #000; stroke-linecap: round; stroke-miterlimit: 10; stroke-width: 1.5px;"/>
      </g>
    </g>
  </g>
</svg>