<?xml version="1.0" encoding="UTF-8"?>
<svg id="_圖層_2" data-name="圖層 2" xmlns="http://www.w3.org/2000/svg" width="57.21" height="57.21" viewBox="0 0 57.21 57.21">
  <g id="_燈箱" data-name="燈箱">
    <g>
      <path d="M57.21,57.21H16C7.16,57.21,0,50.04,0,41.21V16C0,7.16,7.16,0,16,0h25.21c8.84,0,16,7.16,16,16V57.21Z" style="fill: #00a44e;"/>
      <g>
        <polygon points="33.95 17.51 18 45.13 49.9 45.13 33.95 17.51" style="fill: #faf6ed; stroke: #000; stroke-linecap: round; stroke-miterlimit: 10; stroke-width: 1.5px;"/>
        <polygon points="21.57 26.29 10.69 45.13 32.44 45.13 21.57 26.29" style="fill: #faf6ed; stroke: #000; stroke-linecap: round; stroke-miterlimit: 10; stroke-width: 1.5px;"/>
        <path d="M49,28.45c-.41,0-.78,.13-1.09,.35,0-.03,0-.06,0-.09,0-1.53-1.24-2.76-2.76-2.76-.98,0-1.84,.51-2.33,1.28-.32-.56-.92-.94-1.62-.94-1.04,0-1.88,.84-1.88,1.88,0,.11,.01,.22,.03,.32-.26-.13-.55-.21-.85-.21-1.04,0-1.88,.84-1.88,1.88s.81,1.84,1.82,1.87c.04,1.49,1.26,2.69,2.76,2.69,1.22,0,2.25-.79,2.62-1.89,.47,.85,1.38,1.42,2.41,1.42,1.28,0,2.35-.87,2.67-2.04,.03,0,.06,0,.1,0,1.04,0,1.88-.84,1.88-1.88s-.84-1.88-1.88-1.88Z" style="fill: #fff; stroke: #000; stroke-linecap: round; stroke-miterlimit: 10; stroke-width: 1.5px;"/>
        <path d="M9.25,27.43c.63,0,1.22-.21,1.69-.55,0,.05,0,.09,0,.14,0,2.37,1.92,4.3,4.3,4.3,1.53,0,2.86-.8,3.62-1.99,.51,.87,1.44,1.46,2.52,1.46,1.61,0,2.92-1.31,2.92-2.92,0-.17-.02-.34-.05-.5,.4,.21,.85,.33,1.33,.33,1.61,0,2.92-1.31,2.92-2.92s-1.26-2.86-2.83-2.91c-.07-2.32-1.96-4.18-4.29-4.18-1.9,0-3.5,1.23-4.07,2.94-.73-1.32-2.14-2.21-3.75-2.21-1.99,0-3.65,1.35-4.15,3.18-.05,0-.1-.02-.15-.02-1.61,0-2.92,1.31-2.92,2.92s1.31,2.92,2.92,2.92Z" style="fill: #fff; stroke: #000; stroke-linecap: round; stroke-miterlimit: 10; stroke-width: 1.5px;"/>
        <circle cx="44.08" cy="15.77" r="3.7" style="fill: #faf6ed; stroke: #000; stroke-linecap: round; stroke-miterlimit: 10; stroke-width: 1.5px;"/>
      </g>
    </g>
  </g>
</svg>