<?xml version="1.0" encoding="UTF-8"?>
<svg id="_圖層_2" data-name="圖層 2" xmlns="http://www.w3.org/2000/svg" width="129.59" height="120.67" viewBox="0 0 129.59 120.67">
  <g id="layout">
    <g>
      <path d="M121.58,41.6c-.72-.6-1.05-1.52-.87-2.45,.09-.45,.13-.92,.13-1.4,0-3.97-3.09-7.18-7-7.44,.12-.54,.2-1.1,.2-1.68,0-3.54-2.45-6.5-5.75-7.29-.98-.23-1.72-.97-1.95-1.95-.79-3.3-3.75-5.75-7.29-5.75-.55,0-1.09,.06-1.6,.18-1.17,.27-2.33-.36-2.82-1.46-1.16-2.61-3.76-4.43-6.8-4.43-.84,0-1.64,.14-2.39,.4-1.06,.37-2.25-.02-2.86-.97-1.32-2.09-3.64-3.47-6.29-3.47-1.2,0-2.33,.29-3.33,.8-.93,.47-2.11,.33-2.83-.42-1.35-1.4-3.24-2.28-5.35-2.28s-3.99,.88-5.35,2.28c-.73,.75-1.9,.89-2.83,.42-1-.51-2.13-.8-3.33-.8-2.65,0-4.97,1.39-6.29,3.47-.6,.95-1.79,1.33-2.86,.97-.75-.26-1.55-.4-2.39-.4-3.04,0-5.64,1.82-6.8,4.43-.49,1.1-1.65,1.72-2.82,1.46-.51-.12-1.05-.18-1.6-.18-3.54,0-6.5,2.45-7.29,5.75-.23,.98-.97,1.72-1.95,1.95-3.3,.79-5.75,3.75-5.75,7.29,0,.58,.08,1.14,.2,1.68-3.9,.26-7,3.47-7,7.44,0,.94,1.06,2.05,1.56,2.92,.09,.16,.02,.36-.14,.46-3.57,2.03-6.35,6.54-3.17,11.21,.18,.26,.43,.51,.69,.7,2.08,1.47,4.19,1.94,6.08,1.7,1.13-.14,2.24,.52,2.6,1.6,5.3,15.82,25.42,27.6,49.5,27.6s45.59-12.6,50.01-29.23c.3,.04,.59,.09,.9,.09,4.14,0,7.49-3.35,7.49-7.49,0-2.3-1.05-4.34-2.69-5.71Z" style="fill: #fff; stroke: #000; stroke-linecap: round; stroke-miterlimit: 10; stroke-width: 4px;"/>
      <path d="M58.72,20.65c-1.52-.94-3.37-1.36-5.26-1.02-2.61,.48-4.64,2.26-5.57,4.54-.42,1.04-1.53,1.63-2.64,1.46-.78-.12-1.6-.11-2.42,.04-3.42,.62-5.67,3.63-5.88,6.98-.04,.59-.63,.96-1.2,.82-.96-.24-2-.35-2.95-.18-4.07,.74-6.77,4.64-6.03,8.71" style="fill: none; stroke: #000; stroke-linecap: round; stroke-miterlimit: 10; stroke-width: 4px;"/>
      <path d="M78.8,26.48c1.53-.93,3.37-1.35,5.27-.99,2.61,.49,4.63,2.28,5.54,4.57,.42,1.04,1.52,1.64,2.63,1.48,.78-.11,1.6-.11,2.42,.05,3.83,.72,6.39,4.23,6.05,8.03" style="fill: none; stroke: #000; stroke-linecap: round; stroke-miterlimit: 10; stroke-width: 4px;"/>
      <path d="M127.59,49.81H2c0,25.36,15.04,47.19,36.69,57.11h-.76v11.75h53.73v-11.75h-.76c21.64-9.91,36.69-31.74,36.69-57.11Z" style="fill: #faf6ed; stroke: #000; stroke-linecap: round; stroke-miterlimit: 10; stroke-width: 4px;"/>
    </g>
  </g>
</svg>