<?xml version="1.0" encoding="UTF-8"?>
<svg id="_圖層_2" data-name="圖層 2" xmlns="http://www.w3.org/2000/svg" width="25.36" height="23.63" viewBox="0 0 25.36 23.63">
  <g id="menu">
    <g>
      <path d="M23.7,8.18c-.14-.12-.2-.3-.17-.47,.02-.09,.03-.18,.03-.27,0-.77-.6-1.39-1.36-1.44,.02-.11,.04-.21,.04-.33,0-.69-.48-1.26-1.11-1.41-.19-.05-.33-.19-.38-.38-.15-.64-.73-1.11-1.41-1.11-.11,0-.21,.01-.31,.04-.23,.05-.45-.07-.55-.28-.23-.51-.73-.86-1.32-.86-.16,0-.32,.03-.46,.08-.21,.07-.44,0-.55-.19-.26-.4-.71-.67-1.22-.67-.23,0-.45,.06-.65,.15-.18,.09-.41,.06-.55-.08-.26-.27-.63-.44-1.04-.44s-.77,.17-1.04,.44c-.14,.15-.37,.17-.55,.08-.19-.1-.41-.15-.65-.15-.51,0-.96,.27-1.22,.67-.12,.18-.35,.26-.55,.19-.15-.05-.3-.08-.46-.08-.59,0-1.09,.35-1.32,.86-.1,.21-.32,.33-.55,.28-.1-.02-.2-.04-.31-.04-.69,0-1.26,.48-1.41,1.11-.05,.19-.19,.33-.38,.38-.64,.15-1.11,.73-1.11,1.41,0,.11,.02,.22,.04,.33-.76,.05-1.36,.67-1.36,1.44,0,.18,.21,.4,.3,.57,.02,.03,0,.07-.03,.09-.69,.39-1.23,1.27-.61,2.17,.03,.05,.08,.1,.13,.14,.4,.29,.81,.38,1.18,.33,.22-.03,.43,.1,.5,.31,1.03,3.07,4.93,5.35,9.6,5.35s8.84-2.44,9.7-5.67c.06,0,.12,.02,.18,.02,.8,0,1.45-.65,1.45-1.45,0-.45-.2-.84-.52-1.11Z" style="fill: #fff; stroke: #000; stroke-linecap: round; stroke-miterlimit: 10;"/>
      <path d="M11.5,4.12c-.29-.18-.65-.26-1.02-.2-.51,.09-.9,.44-1.08,.88-.08,.2-.3,.32-.51,.28-.15-.02-.31-.02-.47,0-.66,.12-1.1,.7-1.14,1.35,0,.11-.12,.19-.23,.16-.19-.05-.39-.07-.57-.03-.79,.14-1.31,.9-1.17,1.69" style="fill: none; stroke: #000; stroke-linecap: round; stroke-miterlimit: 10;"/>
      <path d="M15.4,5.25c.3-.18,.65-.26,1.02-.19,.51,.09,.9,.44,1.08,.89,.08,.2,.29,.32,.51,.29,.15-.02,.31-.02,.47,0,.74,.14,1.24,.82,1.17,1.56" style="fill: none; stroke: #000; stroke-linecap: round; stroke-miterlimit: 10;"/>
      <path d="M24.86,9.77H.5c0,4.92,2.92,9.15,7.12,11.08h-.15v2.28h10.42v-2.28h-.15c4.2-1.92,7.12-6.16,7.12-11.08Z" style="fill: #faf6ed; stroke: #000; stroke-linecap: round; stroke-miterlimit: 10;"/>
    </g>
  </g>
</svg>