<?xml version="1.0" encoding="UTF-8"?>
<svg id="b" data-name="圖層 2" xmlns="http://www.w3.org/2000/svg" width="258.71" height="132.05" viewBox="0 0 258.71 132.05">
  <g id="c" data-name="under">
    <g>
      <g>
        <path d="M123.59,60.03c-.2-.53-.7-.86-1.24-.86-.11,0-.21,.01-.32,.04-.69,.17-1.94,.44-3.71,.79-1.74,.35-3.27,.57-4.54,.65-.03,0-.05,0-.08,0-.65,.08-1.68,.12-3.07,.12-3.95,0-8.55-.85-13.7-2.54,2.29-1.48,5.17-3.61,8.57-6.35,.92,.13,1.44,.28,1.73,.4-.03,.05-.07,.12-.12,.18-.31,.47-.29,1.08,.04,1.52,.25,.34,.65,.53,1.06,.53,.13,0,.26-.02,.39-.06,1.59-.5,3.11-1.32,4.54-2.45,1.63-1.29,2.45-2.84,2.45-4.6,0-.83-.13-1.5-.39-2.04-.37-.81-1.18-1.87-2.95-2.33-1.15-.3-3.05-.45-5.79-.45l-16.59,.27h-12c-.48-.91-1.3-1.71-2.45-2.41,.05-.21,.05-.42,0-.63,.21-.1,.63-.26,1.43-.4,2.03-.34,4.97-.52,8.74-.52,4.56,0,7.89,.17,9.88,.52,.49,.08,.81,.18,1.01,.25-.15,.4-.1,.87,.16,1.23,.25,.36,.66,.56,1.08,.56,.13,0,.25-.02,.38-.06,1.07-.32,2.08-.88,3.02-1.66,1.1-.92,1.69-2.22,1.69-3.77,0-2.36-1.11-3.38-2.03-3.82-.13-.06-.27-.12-.43-.17,.26-.18,.52-.37,.77-.58,1.1-.92,1.69-2.23,1.69-3.78,0-2.36-1.11-3.38-2.03-3.82-1.06-.5-2.8-.73-5.48-.73,0,0-.01,0-.02,0l-10.1,.13h-6.31c-2.96,0-5.09,.25-6.5,.75-1.78,.64-2.76,2.08-2.76,4.07,0,1.38,.49,3.13,2.59,4.34-1.09,.43-1.85,1.18-2.26,2.18-.07-.13-.16-.25-.27-.35-.25-.23-.57-.35-.9-.35-.2,0-.4,.05-.59,.14-.08,.04-.32,.13-.89,.13-.3,0-.55-.39-.74-1.15-.33-1.31-.45-3.6-.37-6.78,0-1.53,.02-2.9,.07-4.1,19.01,.02,31.93,.45,38.45,1.3l-.08,1.77c-.18,3.39-.27,5.49-.27,6.26,0,2.19,.28,3.66,.88,4.61,.02,.03,.04,.07,.07,.1,1.42,1.86,3.36,2.81,5.76,2.81,1.89,0,3.53-.49,4.88-1.46,.64-.46,1.27-1,1.89-1.62-.01-.02-.02-.05-.03-.07-.15,.03-.32-.01-.43-.17-.79-1.05-1.35-4.32-1.35-5.41,0-2.81,.22-5.88,.66-9.12,0-.02,0-.03,0-.05,.19-1.86,.28-3.1,.28-3.77,0-3.58-2.05-5.63-5.63-5.63-2.21,0-4.93,.66-8.33,2.02-3.17-.05-6.45-.09-9.85-.13,.49-.3,.97-.65,1.44-1.03,1.61-1.34,2.43-3.08,2.43-5.19,0-2.28-1.19-3.9-3.36-4.56-1.76-.54-5.15-.8-10.35-.8-3.11,0-5.7,.05-7.71,.14l-15.33,.13h-16.56c-6.18,0-10.38,.3-12.85,.91-3.92,.98-4.5,3.63-4.5,5.12,0,2.62,1.51,4.33,3.39,5.45-3.64,.06-6.88,.12-9.68,.21-.77-2.08-2.62-3.2-5.31-3.2-2.11,0-4.81,.72-8.21,2.19,.01,.02,.03,.04,.04,.07,.05,.19,.1,.39,.15,.59,.45,.86,2.39,8.57,2.39,12.75,0,1.52-.26,2.91-.77,4.14-.37,.89-2.04,3.09-2.87,3.8,2.28,2.83,4.84,4.29,7.65,4.29,.83,0,1.44-.05,1.91-.17,2.11-.45,3.57-1.51,4.34-3.15,.67-1.45,1-3.79,1-7.16v-4.71c8.11-.63,19.91-1.05,35.12-1.23-.03,.85-.05,1.88-.05,3.11l-.13,5.9c0,3.28,.11,5.63,.35,7.23,.27,1.86,.86,3.16,1.79,3.97,.91,.79,2.18,1.2,3.76,1.2,1.88,0,3.65-.81,5.24-2.41,.29-.29,.57-.6,.84-.92,0,.43,.22,.84,.59,1.09,.1,.07,.22,.15,.22,.52,0,.32-.13,.89-.74,1.85-.55,.87-1.32,1.72-2.29,2.52-4.15,3.42-10.39,5.05-11.57,5.35-.14,.72-.22,1.4-.22,2,0,1.89,.4,3.55,1.2,4.94-.92-.49-2.01-.74-3.24-.74-.85,0-1.71,.13-2.56,.38-1.58-.16-3.21-.25-4.85-.25l-1.45,.04c.76-.61,1.51-1.22,2.25-1.84,.28-.2,1.05-.79,3.79-2.98,.45-.36,1.23-.96,2.33-1.8,1.17-.89,2.18-1.78,2.99-2.64,1-1.06,1.51-2.18,1.51-3.33,0-1.08-.4-2.6-2.32-3.76-.53-.32-1.12-.57-1.75-.77,.5-.28,.98-.61,1.44-.99,1.1-.92,1.69-2.23,1.69-3.77,0-2.18-.98-3.21-1.79-3.7-.2-.11-.41-.22-.65-.31,.26-.17,.51-.37,.76-.57,1.1-.92,1.69-2.23,1.69-3.78,0-2.18-.98-3.21-1.79-3.7-1-.59-2.56-.86-4.91-.86,0,0-.01,0-.02,0l-8.22,.13h-7.92c-3.42,0-5.76,.25-7.18,.75-1.78,.64-2.76,2.08-2.76,4.07,0,1.38,.49,3.13,2.59,4.34-1.67,.67-2.59,2.08-2.59,4.01,0,1.27,.42,2.88,2.15,4.07h-2.05c-4.57,0-7.72,.28-9.61,.87-2.29,.71-3.56,2.45-3.56,4.9,0,1.53,.56,2.86,1.67,3.97,.48,.48,1.01,.9,1.6,1.27,1.4-.7,5.41-1.61,6.17-1.7,1.04-.13,2.31-.25,3.79-.33-.54,.37-1.05,.85-1.51,1.46-.89,1.17-1.35,2.51-1.35,3.96,0,.27,.04,.72,.31,1.8,.12,.46,.47,.82,.93,.95,.12,.03,.23,.05,.35,.05,.35,0,.68-.14,.93-.39,.29-.29,.48-.29,.55-.29,.31,0,1.12,.15,2.84,1.27h-2.97c-5.82,.09-9.64,.37-11.68,.84-2.53,.59-3.92,2.29-3.92,4.79,0,1.46,.69,2.83,2.04,4.07,.58,.54,1.2,1,1.84,1.4,1.39-.49,4.73-1.14,5.06-1.22,1.58-.35,3.99-.65,7.19-.89-.78,1.31-1.65,2.5-2.6,3.57-.01,.02-.03,.03-.04,.05-2.59,3.2-5.39,5.78-8.31,7.67-2.82,1.83-5.16,2.75-6.96,2.75-1.41,0-1.73-.53-1.83-.71-.24-.4-.68-.64-1.13-.64-.1,0-.19,.01-.29,.03-.56,.13-.97,.6-1.02,1.16-.29,3.14,.15,5.74,1.32,7.73,1.26,2.14,3.26,3.28,5.78,3.28s5.33-1.17,8.19-3.55c.13,.35,.41,.64,.78,.77,2.48,.91,4.79,2.56,6.88,4.89,.02,.02,.03,.04,.05,.05,.26,.26,.84,.86,1.73,1.8,.93,.98,1.91,1.86,2.92,2.63,1.18,.9,2.56,1.35,4.1,1.35,2.3,0,4.22-1.01,5.53-2.93,1.24-1.82,1.85-4.95,1.85-9.57,0-1.36-.05-2.48-.14-3.34-.18-3.34-.27-6.97-.27-10.8,0-.37,0-.74,0-1.09,.29,.81,.7,1.61,1.23,2.38,1.22,1.78,2.9,2.73,4.86,2.73,1.42,0,2.61-.44,3.53-1.3,.75-.7,1.63-1.88,2.68-3.59,.29-.39,.65-.95,1.12-1.75l.62-1.05c.1-.12,.3-.36,.6-.72,.03-.03,.05-.07,.08-.1,1.21-1.76,2.02-3.06,2.5-3.97,.56-1.06,.83-1.94,.83-2.7,0-.65-.13-1.25-.38-1.78,.68,.36,1.45,.54,2.29,.54,.98,0,1.99-.23,3.02-.68-.81,.75-1.49,1.61-2.02,2.56-.74,1.32-1.11,2.6-1.11,3.81,0,1.11,.34,2.11,1.02,2.97,.69,.88,1.65,1.45,2.87,1.69,.96,.19,1.82,.29,2.55,.29,2.79,0,6.29-.77,10.4-2.29,0,.13,.01,.26,.05,.38,.14,.51,.58,.89,1.11,.95,.5,.06,.71,.26,.83,.4,.17,.2,.26,.44,.29,.74h-11.19c-5.28,0-8.77,.26-10.66,.79-2.31,.65-3.59,2.32-3.59,4.7,0,1.9,.73,3.54,2.18,4.88,.51,.47,1.04,.88,1.57,1.25,.49-.18,.99-.33,1.51-.39,.58-.07,3.77-.74,4.68-.94,.37-.08,.79-.15,1.24-.22,0,0,.02,0,.02,0,.04-.01,.08-.01,.12-.02,1.87-.29,4.43-.51,7.67-.66-2.26,1.82-4.75,3.31-7.43,4.47-3.77,1.63-16.75,1.54-16.95,1.48-.99,1.91-1.49,3.77-1.49,5.53,0,1.96,.6,3.58,1.78,4.82,1.14,1.19,2.53,1.91,4.15,2.14,.48,.11,1.16,.15,2.13,.15,3.98,0,8.7-1.48,14.04-4.41,5.27-2.89,10.35-7.04,15.1-12.33l1.79-2.13,8.69-.13c2.26,0,4.13,.07,5.57,.21-.04,.12-.07,.23-.11,.34-.01,.03-.02,.06-.03,.09-.63,2.53-1.09,3.64-1.36,4.12-.3,.53-.73,.91-1.32,1.15-1.2,.39-2.9,.59-5.07,.59s-3.94,.09-5.18,.28c-.63,.1-1.1,.63-1.12,1.26-.02,.63,.41,1.19,1.03,1.33,1.43,.32,2.58,.79,3.42,1.4,.89,.64,1.98,1.78,3.24,3.39,.02,.02,.03,.04,.05,.06,1.62,1.81,2.99,3.09,4.21,3.92,1.13,.77,2.4,1.15,3.78,1.15,.31,0,.64-.02,.96-.06,1.66-.26,2.98-1.43,3.99-3.49,.83-1.7,1.58-3.88,2.31-6.65,.15-.37,.28-.86,.44-1.49,.23-.9,.56-2.25,.99-4.05,1.02-3.89,1.52-6.47,1.52-7.85,0-1.52-.4-2.76-1.16-3.67,1.74-.07,3.15-.55,4.2-1.45,.98-.83,2.4-2.46,4.36-4.98,1.77-2.36,3.47-3.95,5.07-4.75,.6-.3,.88-1.01,.65-1.64Zm-46.74-29.74c1.96-.64,4.97-.52,8.74-.52,4.56,0,7.98-.18,9.88,.52,.83,.3,.99,1.11,.98,1.14-.36-.01-.75-.02-1.16-.02,0,0-.01,0-.02,0l-10.1,.13h-6.31c-1.29,0-2.42,.05-3.4,.14,0-.07,.06-.96,1.4-1.4Zm-10.42-19.55h3.93c6.64,0,11.6,.18,14.74,.53,.64,.07,1.17,.15,1.61,.23,.92,.16,1.57,1.02,1.47,1.95,0,0,0,0,0,0-6.85-.06-14.12-.09-21.75-.09v-2.63Zm-10.78,2.76c-7.92,0-14.94,.04-21.02,.1,0,0,0,0,0,0-.09-.9,.53-1.73,1.43-1.9,.41-.08,.91-.16,1.52-.22,3.4-.38,9.49-.62,18.12-.72,0,.66-.03,2.21-.05,2.75Zm-7.75,26.8c-.91,0-1.87,.14-2.85,.39-2.21-.17-6.83-.26-13.76-.26h-3.97c.05-.2,.05-.42,0-.62,.24-.11,.7-.26,1.55-.39,2.22-.35,5.89-.52,10.91-.52,5.56,0,7.53,.49,8.2,.76-.08,.2-.11,.42-.08,.64Zm-19.03-9.98c11.34-1.8,19.08,1.06,19.07,1.09-.11,0-.23,0-.35,0,0,0-.01,0-.02,0l-8.22,.13h-7.92c-1.58,0-2.93,.05-4.07,.16,0-.08-.5-1.06,1.51-1.38Zm.57,52.17c-.15,1.81-.63,3.06-1.43,3.67-.89,.68-2.07,1.01-3.58,1.01-.68,0-1.81-.09-3.36-.26-1.49-.19-2.51-.28-3.11-.28-.18,0-.35,0-.5,.01,.24-.24,.48-.49,.72-.75,3.67-3.89,7.18-8.3,10.43-13.09,.34-.49,.7-1.06,1.09-1.68-.02,4.75-.1,8.56-.26,11.37Zm4.06-28.88l-.34-.25c-.71-.53-1.63-1.25-2.73-2.13-1.16-.93-2.17-1.6-3.08-2.05,1.66-.03,3.46-.05,5.42-.05,2.66,0,4.84,.04,6.53,.13-1.96,1.62-3.9,3.08-5.81,4.35Zm7.9,15.38c-.17,0-.44-.04-.82-.42-.25-.25-.59-.39-.93-.39-.17,0-.34,.03-.5,.1-.11,.04-.2,.1-.29,.17,.01-.61,.03-1.16,.04-1.67,2.39,.01,4.06,.07,5.24,.13-1.63,1.9-2.48,2.07-2.73,2.07Zm28.18-32.46c.02,.71,.18,1.5,.61,2.26-.22-.01-.43-.02-.65-.02-.35,0-.71,.02-1.06,.05-.07,0-.15,.02-.22,.04,.49-.72,.93-1.5,1.32-2.34Zm-2.72,24.51c-1.45,0-1.93-.24-2.05-.33,.02-.5-.24-1-.68-1.24-.17-.09-.35-.15-.54-.17,.09-.06,.17-.12,.26-.18,1.3-.92,3.25-2.45,5.8-4.56-.04,.25-.06,.51-.06,.78,0,1.01,.28,2.02,.82,3,.6-.04,5.63,.39,6.34,.59-3.9,1.39-7.21,2.1-9.88,2.1Zm12.41-9.21c.21,0,.42,0,.64,0l12.17-.14h.65c-.6,.38-5.88,2.6-5.88,2.6-.77-.33-6.59-2.1-7.58-2.46Zm20.73,19.72l-10.55,.11c0-.13,0-.27,0-.41,0-1.76-.89-3.14-2.52-3.89-1.43-.61-2.94-.92-4.53-.93,1.85-.87,3.73-1.82,5.63-2.85l3.03,1.46c2.67,1.25,5.64,2.73,8.82,4.41,1,.59,1.89,1.08,2.68,1.5-.89,.1-1.75,.3-2.57,.61Z" style="fill: #231815;"/>
        <g>
          <path d="M258.65,34.58c-.18-.55-.69-.91-1.25-.91-.07,0-.15,0-.23,.02l-3.87,.67c-.82,.09-1.78,.23-2.86,.41-1.05,.18-2.3,.35-3.84,.53-2.05,.17-3.6,.26-4.56,.26-3.2,0-6.5-.42-9.78-1.24-2.81-.7-5.91-1.84-9.24-3.4l4.79-4.08c4.22-3.58,7.07-6.14,8.71-7.83,1.86-1.91,2.8-3.78,2.8-5.57,0-1.91-.83-3.4-2.41-4.31-1.37-.79-3.04-1.19-4.97-1.19s-3.74,.36-5.28,1.08h-13.55c.6-1.07,.89-2.11,.89-3.13,0-1.85-.77-3.39-2.23-4.44-1.35-.97-3.13-1.46-5.28-1.46-1.21,0-2.64,.24-4.39,.72-.55,.15-.93,.63-.97,1.2-.03,.57,.3,1.09,.83,1.3,.48,.19,.52,.4,.52,.66,0,.29-.13,.96-.96,2.12-.73,1.02-1.73,2.04-2.99,3.04-3.4,2.7-6.56,4.7-9.4,5.95-2.78,1.22-11.77,1.88-13.43,1.37-.72,2.22-1.1,4.32-1.1,6.23,0,2.51,.7,4.48,2.07,5.85,1.37,1.37,3.25,2.07,5.58,2.07s4.85-.92,7.96-2.82c1.33-.81,2.88-1.85,4.64-3.09-.57,1.01-.86,2.19-.86,3.51,0,.91,.16,1.84,.44,2.78,1.56-.04,7.36,1.13,9.44,2-2.86,1.72-5.85,3.09-8.89,4.07-3.75,1.21-7.22,1.82-10.3,1.82-2.22,0-4.02-.32-5.36-.95-1.66-.78-1.78-1.57-1.82-1.83-.08-.54-.49-.97-1.03-1.09-.09-.02-.19-.03-.28-.03-.44,0-.86,.22-1.11,.6-1.48,2.28-2.23,4.96-2.23,7.99,0,2.3,.54,4.35,1.61,6.08,1.16,1.88,2.73,2.95,4.67,3.18,.56,.07,1.16,.1,1.78,.1,1.44,0,3.04-.18,4.8-.54-.93,.97-1.42,2.26-1.42,3.84,0,1.98,.73,3.69,2.16,5.06,1.25,1.21,2.8,2.16,4.6,2.85-.07,.02-.14,.04-.21,.07-2.52,.86-3.86,2.76-3.86,5.49,0,1.99,.75,3.7,2.24,5.08,1.01,.94,2.18,1.7,3.5,2.27-2.52,.05-4.58,.15-6.16,.3-2.66,.25-4.6,.77-5.96,1.6-1.09,.67-2.38,2.01-2.38,4.63,0,2.06,.72,3.83,2.14,5.24,.73,.73,1.57,1.33,2.49,1.82,.52-.19,7.2-2.6,11.34-2.91,3.22-.25,7.78-.42,13.56-.52,.1,3.53,.3,6.29,.59,8.22,.36,2.4,1,4.07,1.96,5.09,1.02,1.08,2.54,1.63,4.53,1.63,2.43,0,4.48-.87,6.08-2.57,1.4-1.5,2.78-3.39,4.08-5.62,.28-.47,.23-1.07-.11-1.5-.26-.31-.63-.49-1.03-.49-.14,0-.28,.02-.42,.07-.83,.28-1.33,.34-1.6,.34-.52,0-.9-.15-1.19-.91-.23-.6-.54-1.82-.75-4.26,8.26,.03,14,.34,17.05,.92,1.81,.34,7.17,2.03,7.37,2.09,3.2-1.66,4.83-4.01,4.83-7.02,0-2.37-1.17-3.63-2.15-4.27-1.23-.8-3.21-1.31-6.06-1.56-2.01-.17-4.87-.28-8.54-.32,4.24-1.67,6.38-4.26,6.38-7.73,0-2.54-1.21-4.32-3.5-5.15-.12-.04-.25-.09-.38-.13,1.89-.73,3.51-1.61,4.84-2.64,1.68-1.29,2.54-3.16,2.54-5.56,0-2.56-1.29-4.34-3.73-5.16-2.05-.68-5.71-1.01-11.19-1.01l-6.97,.11c.06-2.57-.17-4.33-.73-5.49-.75-1.55-2.5-2.5-5.21-2.83-.54-.07-1.08-.1-1.59-.1-1.51,0-2.88,.3-4.06,.9,1.87-1.21,3.7-2.49,5.49-3.85l7.82,4.56c4.4,2.61,7.9,4.53,10.41,5.71,2.63,1.25,5.11,1.88,7.36,1.88,2.45,0,4.53-.66,6.2-1.96,1.53-1.19,3.06-2.84,4.56-4.91,2.91-3.93,5.38-6.43,7.33-7.41,.59-.29,.87-.97,.66-1.59Zm-38.86,25.33c4.56,.11,8.09,.37,10.52,.76,1.95,.32,2.68,.71,2.92,.89-.07,.12-.17,.29-.35,.54-.29,.4-.32,.93-.11,1.36-1.85-.29-4.27-.43-7.3-.43l-5.68,.11v-3.23Zm-.14,13.48c3.39,.11,6.04,.34,7.87,.68,1.87,.35,2.16,.81,2.16,.82,0,.14-.14,.35-.26,.49-.35,.44-.39,1.05-.09,1.53-.25,0-.51,0-.77,0h-8.92v-3.52Zm-24.19-24.25c3.39-1.39,6.69-3.04,9.91-4.91,.05,.06,.13,.11,.26,.18,.51,.26,1.55,5.09,1.65,5.29h-7.01c-2.64,0-4.9,.07-6.78,.22,.64-.24,1.29-.5,1.97-.78Zm12.39,27.77h-10.4c-.64,0-1.25,0-1.85,0,.28-.44,.27-1-.02-1.44-.01-.02-.05-.13-.05-.34h0s.35-.57,2.75-.99c2.23-.39,5.47-.65,9.64-.76-.04,1.01-.06,2.19-.07,3.52Zm.27-13.76l-7.42-.11c-3.33,0-5.95,.19-7.95,.58,.29-.42,.31-.97,.05-1.41-.13-.22-.13-.32-.13-.32h0s.31-.51,2.37-.95c2.67-.57,7.1-.91,13.18-1.03l-.09,3.24Zm5.07-37.16l-1.9-1.05c-2.75-1.56-4.72-2.57-6-3.1-1.37-.56-2.83-.84-4.34-.84-.03,0-.05,0-.08,0-.5,.03-.98,.1-1.44,.22,.69-.52,1.39-1.06,2.12-1.63,3.67-.07,10.09-.12,19.13-.12-1.96,1.8-4.46,3.98-7.5,6.52Z" style="fill: #231815;"/>
          <path d="M173.35,70.81c-.44-2.16-.76-5.42-.85-9.71v-5.9c0-12.21,.27-22.52,.81-30.62,.3-3.19-.04-5.45-1.05-6.85-1.07-1.48-2.83-2.23-5.25-2.23-2.13,0-3.97,.47-5.48,1.41-1.15,.71-2.42,1.72-3.78,3.01,.1-3.39,.22-6.06,.34-8,0-.01,0-.03,0-.04,.1-3.37-.31-5.67-1.24-7.04-1.02-1.5-2.82-2.26-5.34-2.26-2.21,0-4.18,.52-5.87,1.54-1.58,.96-3.15,2.26-4.66,3.86-.4,.43-.47,1.06-.18,1.57,.24,.41,.68,.65,1.14,.65,.1,0,.21-.01,.32-.04,.18-.04,.5-.1,1.03-.1,1.03,0,1.65,.35,2.05,1.16,.54,1.08,.85,2.84,.94,5.22v50.28l-4.35,.59c.18-18.75,.44-31.94,.79-39.24,.2-3.27-.16-5.55-1.09-6.98-1.02-1.56-2.82-2.35-5.35-2.35-2.21,0-4.18,.52-5.87,1.54-1.59,.96-3.12,2.27-4.55,3.89-.38,.43-.44,1.06-.14,1.56,.24,.4,.67,.64,1.13,.64,.11,0,.21-.01,.32-.04,.18-.04,.5-.1,1.03-.1,1.27,0,1.71,.57,1.97,1.12,.5,1.09,.8,2.86,.89,5.26v36.28c-4.2,1.34-5.12,4.1-5.12,6.26s.93,4.85,2.82,8.16c1.8-.91,9.51-3.52,12.64-4.17l2.68-.54c7.7-1.52,13.74-2.66,17.98-3.39,.25,1.79,.7,3.24,1.35,4.42,.66,1.2,2.03,2.63,4.79,2.63,3.07,0,5.95-1.91,8.58-5.68-.1-.06-2.82-2.68-3.45-5.75Zm-11.43-6.25l-4.77,.69c0-9.33,.1-19.4,.27-29.97,.07-4.7,.16-8.81,.25-12.32,.06,0,.12,.01,.18,.01,.11,0,.21-.01,.32-.04,.18-.04,.5-.1,1.03-.1,.93,0,1.48,.32,1.84,1.07,.5,1.04,.79,2.73,.88,5.04v35.61Z" style="fill: #231815;"/>
        </g>
      </g>
      <g>
        <g>
          <path d="M149.77,125.02c-1.41,0-2.52-.35-3.33-1.04-.81-.69-1.45-1.65-1.92-2.86-.47-1.21-.92-2.59-1.33-4.14l-3.36-12.48c-.25-.97-.2-1.88,.17-2.72,.37-.84,1.1-1.4,2.18-1.68,1.02-.28,1.92-.21,2.7,.21,.79,.42,1.32,1.14,1.59,2.18l3.12,11.4c.28,.99,.57,1.72,.88,2.18s.81,.61,1.51,.45c.65-.16,.99-.52,1.04-1.07,.05-.55-.07-1.34-.35-2.36l-2.22-8.42c-.3-1.15-.26-2.15,.12-3,.38-.84,1.14-1.39,2.27-1.65,1.15-.28,2.08-.13,2.79,.43,.7,.57,1.18,1.36,1.44,2.37l2.81,11.05c.3,1.13,.63,1.89,.99,2.29,.36,.39,.83,.51,1.4,.35,.65-.18,.96-.55,.94-1.09-.02-.54-.1-1.33-.24-2.37-.21-1.62-.39-2.95-.54-3.98-.15-1.04-.27-1.91-.35-2.6-.08-.69-.12-1.33-.12-1.91,0-1.29,.38-2.4,1.14-3.31,.76-.91,1.8-1.37,3.12-1.37s2.36,.41,3.05,1.23c.69,.82,1.04,1.95,1.04,3.38,0,.92-.13,1.89-.4,2.91-.27,1.02-.53,1.98-.78,2.88l-1.94,6.69c-.44,1.52-.87,2.89-1.3,4.11-.43,1.21-1,2.17-1.72,2.88-.72,.71-1.73,1.06-3.05,1.06-1.59,0-2.84-.5-3.74-1.49-.9-.99-1.59-2.62-2.08-4.89h-.24c-.46,2.26-1.07,3.89-1.84,4.89-.76,.99-1.92,1.49-3.47,1.49Z" style="fill: #231815;"/>
          <path d="M176.38,124.91c-1.62,0-2.93-.61-3.95-1.84-1.02-1.22-1.54-2.95-1.56-5.16l-.03-8c0-.99,.31-1.77,.92-2.34,.61-.57,1.45-.85,2.51-.85s1.84,.28,2.46,.85c.62,.57,.94,1.35,.94,2.34v7.24c0,1.73,.68,2.6,2.04,2.6,.67,0,1.12-.25,1.35-.74,.23-.5,.35-1.14,.35-1.92v-7.17c0-.9,.31-1.66,.94-2.27,.62-.61,1.43-.92,2.43-.92s1.84,.31,2.41,.92c.57,.61,.85,1.37,.85,2.27v11.37c0,1.11-.25,1.99-.75,2.65-.5,.66-1.3,.99-2.41,.99s-1.94-.33-2.55-.99c-.61-.66-.92-1.54-.92-2.65v-.59h-.62c0,1.34-.4,2.38-1.2,3.12-.8,.74-1.87,1.11-3.21,1.11Z" style="fill: #231815;"/>
          <path d="M195.85,124.91c-.97,0-1.76-.31-2.37-.92-.61-.61-.92-1.38-.92-2.3v-7.73c-.6,.14-1.14,.06-1.63-.24s-.87-.75-1.16-1.35c-.29-.6-.43-1.26-.43-1.98s.15-1.38,.45-1.99c.3-.61,.7-1.08,1.2-1.4,.5-.32,1.05-.39,1.65-.21,.12-1.71,.39-3.23,.83-4.56,.44-1.33,1.11-2.37,2.03-3.14,.91-.76,2.11-1.14,3.59-1.14,1.27,0,2.29,.26,3.05,.78s1.3,1.16,1.61,1.92,.41,1.54,.29,2.32c-.12,.76-.43,1.43-.94,1.99-.51,.57-1.26,.85-2.25,.85-.69,0-1.27-.14-1.73-.42-.46-.28-.85-.62-1.16-1.02s-.58-.79-.81-1.16c-.58-.92-1.17-1.24-1.77-.94-.3,.16-.46,.42-.49,.78-.02,.36,.09,.77,.35,1.23l.76,1.32c.39,.65,.81,1.07,1.25,1.27,.44,.2,.99,.25,1.66,.16l1.66-.24c1.06-.16,1.93,.13,2.6,.87,.67,.74,1,1.65,1,2.74s-.34,2.04-1.02,2.72c-.68,.68-1.52,.96-2.51,.85l-1.46-.17v7.9c0,.92-.3,1.69-.9,2.3-.6,.61-1.41,.92-2.43,.92Z" style="fill: #231815;"/>
          <path d="M203.96,115.9c0-1.82,.36-3.43,1.09-4.82,.73-1.39,1.77-2.47,3.12-3.26,1.35-.79,2.96-1.18,4.83-1.18,1.46,0,2.77,.27,3.93,.8,1.17,.53,2.08,1.24,2.75,2.13,.67,.89,1,1.87,1,2.93s-.32,1.89-.97,2.36c-.65,.46-1.61,.69-2.88,.69h-7.28c0,.6,.24,1.1,.71,1.49,.47,.39,1.28,.59,2.41,.59,.58,0,1.11-.06,1.61-.17,.5-.12,1-.23,1.52-.33,.52-.1,1.1-.16,1.75-.16,.92,0,1.69,.33,2.29,.99,.6,.66,.9,1.57,.9,2.72,0,1.36-.7,2.43-2.1,3.19-1.4,.76-3.23,1.14-5.49,1.14-1.59,0-3.09-.31-4.49-.94-1.4-.62-2.54-1.61-3.41-2.96-.88-1.35-1.32-3.09-1.32-5.22Zm11.23-1.49c.35,0,.46-.16,.35-.49-.09-.32-.37-.66-.83-1-.46-.35-1.13-.52-2.01-.52-1.02,0-1.77,.22-2.27,.66-.5,.44-.75,.89-.75,1.35h5.51Z" style="fill: #231815;"/>
          <path d="M225.69,124.91c-1.02,0-1.83-.31-2.44-.92-.61-.61-.92-1.37-.92-2.27v-11.47c0-.97,.29-1.79,.87-2.46,.58-.67,1.41-1,2.49-1s1.87,.34,2.43,1c.55,.67,.83,1.51,.83,2.53v1.73h.62c0-1.32,.24-2.36,.71-3.12,.47-.76,1.08-1.31,1.82-1.65,.74-.33,1.48-.5,2.22-.5,1.78,0,3.08,.64,3.92,1.92s1.25,3.1,1.25,5.46v7.55c0,.9-.3,1.66-.9,2.27-.6,.61-1.41,.92-2.43,.92s-1.87-.31-2.48-.92c-.61-.61-.92-1.37-.92-2.27v-6.13c0-.83-.16-1.48-.47-1.94-.31-.46-.77-.69-1.37-.69-.69,0-1.2,.25-1.51,.76s-.47,1.16-.47,1.94v6.06c0,.9-.29,1.66-.87,2.27-.58,.61-1.37,.92-2.39,.92Z" style="fill: #231815;"/>
          <path d="M249.36,132.05c-1.41,0-2.6-.15-3.59-.45-.98-.3-1.92-.76-2.82-1.39-.79-.55-1.34-1.33-1.66-2.32-.32-.99-.16-2,.49-3.01,.42-.62,.88-1.05,1.4-1.28,.52-.23,1.03-.33,1.52-.29,.5,.03,.93,.14,1.3,.33,.81,.39,1.44,.68,1.89,.85,.45,.17,.96,.26,1.54,.26,.85,0,1.58-.3,2.17-.9,.59-.6,.88-1.44,.88-2.53v-2.81h-.62c-.16,1.22-.63,2.19-1.4,2.89-.77,.71-1.83,1.06-3.17,1.06-1.02,0-2.01-.25-2.98-.76-.97-.51-1.77-1.32-2.39-2.43-.62-1.11-.94-2.58-.94-4.4,0-2.68,.59-4.68,1.77-6,1.18-1.32,2.7-1.98,4.57-1.98,1.29,0,2.4,.43,3.33,1.3,.92,.87,1.39,2.07,1.39,3.62l.1-.03v-1.94c0-.81,.26-1.52,.78-2.13,.52-.61,1.33-.92,2.44-.92,1.18,0,2.03,.31,2.55,.92,.52,.61,.78,1.32,.78,2.13l.03,10.92c.02,2.4-.27,4.45-.88,6.13-.61,1.69-1.61,2.97-2.98,3.85-1.37,.88-3.21,1.32-5.49,1.32Zm-2.56-17.78c0,1.25,.83,1.87,2.49,1.87,1.09,0,1.85-.15,2.29-.45,.44-.3,.66-.77,.66-1.42s-.23-1.13-.68-1.39c-.45-.25-1.22-.38-2.3-.38-.79,0-1.39,.13-1.82,.38-.43,.25-.64,.72-.64,1.39Z" style="fill: #231815;"/>
        </g>
        <g>
          <path d="M3.7,108.44c-1.09,0-1.98-.32-2.67-.95C.34,106.86,0,105.98,0,104.87s.31-1.97,.93-2.64c.62-.67,1.54-1,2.77-1h14.11c1.22,0,2.14,.33,2.77,1,.62,.67,.93,1.54,.93,2.64s-.34,1.99-1.03,2.62c-.69,.63-1.58,.95-2.67,.95-.74,0-1.34-.08-1.78-.25-.45-.16-.81-.36-1.1-.59-.28-.23-.56-.43-.82-.59-.26-.16-.59-.25-.98-.25l-.29,.59c.09,.2,.24,.47,.46,.83,.22,.36,.43,.87,.62,1.54,.2,.67,.29,1.57,.29,2.7v9.46c0,.89-.33,1.64-1,2.23-.67,.59-1.48,.88-2.44,.88s-1.81-.29-2.47-.88c-.67-.59-1-1.33-1-2.23v-9.46c0-1.13,.1-2.03,.29-2.7,.2-.67,.41-1.18,.64-1.54,.23-.36,.39-.64,.47-.83l-.33-.59c-.39,0-.72,.08-.98,.25-.26,.16-.54,.36-.82,.59-.28,.23-.64,.43-1.08,.59-.44,.16-1.04,.25-1.8,.25Z" style="fill: #231815;"/>
          <path d="M22.13,125c-1.62,0-2.88-.44-3.78-1.31-.91-.87-1.36-2.09-1.36-3.67s.52-2.71,1.57-3.42c1.05-.71,2.39-1.06,4.03-1.06,.96,0,1.83,.07,2.62,.2s1.49,.32,2.13,.56h.1v-.49c0-.5-.19-.9-.56-1.2-.37-.29-.84-.43-1.41-.41-.55,0-1.01,.03-1.39,.1-.38,.07-.86,.18-1.42,.33-1.05,.26-1.95,.24-2.72-.07-.76-.31-1.29-.91-1.57-1.8-.26-.94-.2-1.72,.18-2.36,.38-.63,.97-1.12,1.75-1.47,.68-.33,1.43-.6,2.28-.82,.84-.22,1.75-.33,2.73-.33,2.86,0,4.96,.69,6.3,2.08,1.34,1.39,2.01,3.7,2.01,6.96v5.07c0,.89-.27,1.64-.82,2.23-.55,.59-1.3,.88-2.26,.88-1.05,0-1.83-.29-2.34-.88-.51-.59-.77-1.31-.77-2.16v-.75h-.65c0,.57-.1,1.15-.31,1.74-.21,.59-.63,1.08-1.28,1.47-.64,.39-1.66,.59-3.06,.59Zm.33-7.17c0,.37,.14,.63,.41,.79,.27,.15,.87,.23,1.78,.23,.83,0,1.41-.08,1.73-.23,.33-.15,.49-.41,.49-.79,0-.35-.16-.59-.49-.74-.33-.14-.91-.21-1.73-.21-.92,0-1.51,.07-1.78,.21-.27,.14-.41,.39-.41,.74Z" style="fill: #231815;"/>
          <path d="M35.19,104.08c0-.94,.29-1.7,.87-2.28s1.38-.87,2.41-.87c1.09,0,1.9,.28,2.44,.85,.53,.57,.8,1.32,.8,2.26s-.27,1.65-.8,2.21c-.54,.56-1.35,.83-2.44,.83s-1.88-.28-2.44-.83c-.56-.56-.83-1.28-.83-2.18Zm3.27,20.92c-1.03,0-1.79-.28-2.29-.85-.5-.57-.75-1.28-.75-2.13v-11.2c0-.94,.25-1.68,.75-2.23,.5-.55,1.27-.82,2.29-.82s1.79,.27,2.31,.82c.51,.55,.77,1.27,.77,2.16v11.26c0,.85-.27,1.56-.8,2.13-.54,.57-1.29,.85-2.28,.85Z" style="fill: #231815;"/>
          <path d="M51.43,125.1c-1.7,0-3.21-.35-4.52-1.06-1.31-.71-2.34-1.72-3.08-3.03-.74-1.31-1.11-2.85-1.11-4.62s.37-3.31,1.11-4.62c.74-1.31,1.77-2.32,3.09-3.04,1.32-.72,2.84-1.08,4.57-1.08,1.35,0,2.55,.14,3.58,.43,1.04,.28,1.85,.71,2.46,1.28,.6,.57,.9,1.28,.9,2.13,0,1.03-.26,1.83-.79,2.41-.52,.58-1.28,.87-2.26,.87-.65,0-1.3-.1-1.95-.29-.64-.2-1.47-.29-2.47-.29-.83,0-1.53,.13-2.09,.39-.57,.26-.85,.74-.85,1.44s.28,1.24,.85,1.56c.57,.32,1.27,.47,2.09,.47,.68,0,1.24-.07,1.7-.2s.89-.26,1.31-.39c.41-.13,.88-.2,1.41-.2,1.11,0,1.94,.32,2.47,.97,.53,.64,.8,1.47,.8,2.47,0,.85-.32,1.61-.95,2.28-.63,.67-1.5,1.19-2.59,1.57-1.09,.38-2.32,.57-3.7,.57Z" style="fill: #231815;"/>
          <path d="M63.08,125c-.96,0-1.72-.29-2.28-.87-.56-.58-.83-1.29-.83-2.14v-18.95c0-.92,.28-1.69,.83-2.32,.56-.63,1.35-.95,2.37-.95s1.76,.32,2.28,.95c.51,.63,.77,1.42,.77,2.36v9.79h.59c0-1.24,.22-2.23,.67-2.95,.45-.72,1.03-1.24,1.73-1.56,.71-.32,1.43-.47,2.18-.47,1.31,0,2.31,.32,3,.97,.69,.64,1.16,1.5,1.41,2.57,.25,1.07,.38,2.24,.38,3.5v7.07c0,.9-.29,1.62-.87,2.18-.58,.56-1.35,.83-2.31,.83s-1.76-.28-2.32-.83c-.57-.56-.85-1.28-.85-2.18v-5.79c0-.79-.15-1.4-.46-1.83-.31-.44-.75-.65-1.34-.65s-1.04,.24-1.34,.72c-.31,.48-.46,1.09-.46,1.83v5.73c0,.85-.28,1.57-.83,2.14-.56,.58-1.33,.87-2.31,.87Z" style="fill: #231815;"/>
          <path d="M83.12,125c-1.53,0-2.77-.58-3.73-1.73-.96-1.16-1.45-2.78-1.47-4.88l-.03-7.56c0-.94,.29-1.67,.87-2.21,.58-.53,1.37-.8,2.37-.8s1.74,.27,2.32,.8c.59,.54,.88,1.27,.88,2.21v6.84c0,1.64,.64,2.46,1.93,2.46,.63,0,1.06-.23,1.28-.7,.22-.47,.33-1.07,.33-1.82v-6.78c0-.85,.29-1.57,.88-2.14,.59-.58,1.35-.87,2.29-.87s1.74,.29,2.28,.87c.53,.58,.8,1.29,.8,2.14v10.74c0,1.05-.23,1.88-.7,2.5-.47,.62-1.23,.93-2.28,.93s-1.83-.31-2.41-.93c-.58-.62-.87-1.46-.87-2.5v-.56h-.59c0,1.27-.38,2.25-1.13,2.95-.75,.7-1.76,1.05-3.03,1.05Z" style="fill: #231815;"/>
          <path d="M98.99,125c-.96,0-1.73-.29-2.31-.87-.58-.58-.87-1.29-.87-2.14v-10.84c0-.92,.27-1.69,.82-2.32,.55-.63,1.33-.95,2.36-.95s1.77,.32,2.29,.95c.52,.63,.79,1.43,.79,2.39v1.64h.59c0-1.24,.22-2.23,.67-2.95,.45-.72,1.02-1.24,1.72-1.56,.7-.32,1.4-.47,2.1-.47,1.68,0,2.91,.61,3.7,1.82,.79,1.21,1.18,2.93,1.18,5.16v7.14c0,.85-.28,1.57-.85,2.14-.57,.58-1.33,.87-2.29,.87s-1.76-.29-2.34-.87c-.58-.58-.87-1.29-.87-2.14v-5.79c0-.79-.15-1.4-.44-1.83-.29-.44-.73-.65-1.29-.65-.65,0-1.13,.24-1.42,.72-.29,.48-.44,1.09-.44,1.83v5.73c0,.85-.27,1.57-.82,2.14-.55,.58-1.3,.87-2.26,.87Z" style="fill: #231815;"/>
          <path d="M121.35,131.75c-1.33,0-2.46-.14-3.39-.43-.93-.28-1.82-.72-2.67-1.31-.74-.52-1.27-1.26-1.57-2.19-.31-.94-.15-1.89,.46-2.85,.39-.59,.83-.99,1.33-1.21,.49-.22,.97-.31,1.44-.28,.47,.03,.88,.14,1.23,.31,.76,.37,1.36,.64,1.78,.8,.43,.16,.91,.25,1.46,.25,.81,0,1.49-.28,2.05-.85,.56-.57,.83-1.36,.83-2.39v-2.65h-.59c-.15,1.16-.59,2.07-1.33,2.73-.73,.67-1.73,1-3,1-.96,0-1.9-.24-2.82-.72-.92-.48-1.67-1.24-2.26-2.29s-.88-2.43-.88-4.16c0-2.53,.56-4.42,1.67-5.66,1.11-1.24,2.55-1.87,4.32-1.87,1.22,0,2.27,.41,3.14,1.23,.87,.82,1.31,1.96,1.31,3.42l.1-.03v-1.83c0-.76,.25-1.43,.74-2.01,.49-.58,1.26-.87,2.31-.87,1.11,0,1.92,.29,2.41,.87,.49,.58,.74,1.25,.74,2.01l.03,10.31c.02,2.27-.26,4.2-.83,5.79-.58,1.59-1.52,2.8-2.82,3.63-1.3,.83-3.03,1.24-5.19,1.24Zm-2.42-16.79c0,1.18,.79,1.77,2.36,1.77,1.03,0,1.75-.14,2.16-.43,.41-.28,.62-.73,.62-1.34s-.21-1.07-.64-1.31c-.43-.24-1.15-.36-2.18-.36-.74,0-1.31,.12-1.72,.36-.4,.24-.61,.68-.61,1.31Z" style="fill: #231815;"/>
        </g>
      </g>
    </g>
  </g>
</svg>