<?xml version="1.0" encoding="UTF-8"?>
<svg id="b" data-name="圖層 2" xmlns="http://www.w3.org/2000/svg" width="58.75" height="118.33" viewBox="0 0 58.75 118.33">
  <g id="c" data-name="menu">
    <g>
      <g>
        <path d="M56.62,25.64c-.09-.23-.31-.38-.55-.38-.05,0-.09,0-.14,.02-.31,.08-.86,.2-1.64,.35-.77,.15-1.44,.25-2,.29-.01,0-.02,0-.03,0-.29,.04-.74,.05-1.35,.05-1.74,0-3.77-.38-6.05-1.12,1.01-.65,2.28-1.59,3.78-2.8,.41,.06,.64,.13,.76,.18-.02,.02-.03,.05-.05,.08-.14,.21-.13,.47,.02,.67,.11,.15,.29,.23,.47,.23,.06,0,.12,0,.17-.03,.7-.22,1.37-.58,2-1.08,.72-.57,1.08-1.25,1.08-2.03,0-.37-.06-.66-.17-.9-.16-.36-.52-.82-1.3-1.03-.51-.13-1.34-.2-2.55-.2l-7.32,.12h-5.3c-.21-.4-.57-.75-1.08-1.06,.02-.09,.02-.19,0-.28,.09-.05,.28-.12,.63-.18,.9-.15,2.19-.23,3.85-.23,2.01,0,3.48,.08,4.36,.23,.21,.04,.36,.08,.45,.11-.07,.18-.05,.38,.07,.54,.11,.16,.29,.25,.47,.25,.06,0,.11,0,.17-.02,.47-.14,.92-.39,1.33-.73,.49-.41,.74-.98,.74-1.67,0-1.04-.49-1.49-.9-1.69-.06-.03-.12-.05-.19-.08,.12-.08,.23-.16,.34-.26,.49-.41,.74-.98,.74-1.67,0-1.04-.49-1.49-.9-1.69-.47-.22-1.24-.32-2.42-.32,0,0,0,0,0,0l-4.46,.06h-2.79c-1.31,0-2.25,.11-2.87,.33-.79,.28-1.22,.92-1.22,1.8,0,.61,.22,1.38,1.14,1.92-.48,.19-.82,.52-1,.96-.03-.06-.07-.11-.12-.16-.11-.1-.25-.15-.4-.15-.09,0-.18,.02-.26,.06-.03,.02-.14,.06-.39,.06-.13,0-.24-.17-.33-.51-.15-.58-.2-1.59-.16-2.99,0-.67,.01-1.28,.03-1.81,8.39,0,14.09,.2,16.97,.57l-.04,.78c-.08,1.49-.12,2.42-.12,2.76,0,.97,.12,1.61,.39,2.03,0,.01,.02,.03,.03,.04,.63,.82,1.48,1.24,2.54,1.24,.83,0,1.56-.22,2.15-.64,.28-.2,.56-.44,.83-.72,0-.01,0-.02-.01-.03-.07,.01-.14,0-.19-.07-.35-.46-.59-1.91-.59-2.39,0-1.24,.1-2.59,.29-4.02,0,0,0-.01,0-.02,.08-.82,.12-1.37,.12-1.66,0-1.58-.91-2.48-2.48-2.48-.97,0-2.18,.29-3.67,.89-1.4-.02-2.85-.04-4.35-.06,.22-.13,.43-.29,.63-.46,.71-.59,1.07-1.36,1.07-2.29,0-1.01-.53-1.72-1.48-2.01-.78-.24-2.27-.35-4.57-.35-1.37,0-2.52,.02-3.4,.06l-6.76,.06h-7.3c-2.73,0-4.58,.13-5.67,.4-1.73,.43-1.99,1.6-1.99,2.26,0,1.16,.66,1.91,1.49,2.4-1.61,.02-3.03,.05-4.27,.09-.34-.92-1.16-1.41-2.34-1.41-.93,0-2.12,.32-3.62,.96,0,.01,.01,.02,.02,.03,.02,.09,.04,.17,.07,.26,.2,.38,1.05,3.78,1.05,5.63,0,.67-.11,1.29-.34,1.83-.16,.39-.9,1.36-1.27,1.68,1,1.25,2.14,1.89,3.38,1.89,.37,0,.64-.02,.84-.07,.93-.2,1.58-.67,1.91-1.39,.3-.64,.44-1.67,.44-3.16v-2.08c3.58-.28,8.78-.46,15.5-.54-.01,.38-.02,.83-.02,1.37l-.06,2.6c0,1.45,.05,2.48,.15,3.19,.12,.82,.38,1.4,.79,1.75,.4,.35,.96,.53,1.66,.53,.83,0,1.61-.36,2.31-1.06,.13-.13,.25-.26,.37-.41,0,.19,.1,.37,.26,.48,.04,.03,.1,.07,.1,.23,0,.14-.06,.39-.33,.82-.24,.38-.58,.76-1.01,1.11-1.83,1.51-4.58,2.23-5.1,2.36-.06,.32-.1,.62-.1,.88,0,.83,.18,1.57,.53,2.18-.41-.22-.89-.32-1.43-.32-.38,0-.75,.06-1.13,.17-.7-.07-1.42-.11-2.14-.11l-.64,.02c.34-.27,.67-.54,.99-.81,.12-.09,.46-.35,1.67-1.32,.2-.16,.54-.42,1.03-.79,.52-.39,.96-.78,1.32-1.16,.44-.47,.66-.96,.66-1.47,0-.48-.18-1.15-1.03-1.66-.23-.14-.49-.25-.77-.34,.22-.12,.43-.27,.64-.44,.49-.41,.74-.98,.74-1.67,0-.96-.43-1.42-.79-1.63-.09-.05-.18-.1-.29-.14,.11-.08,.23-.16,.33-.25,.49-.41,.74-.98,.74-1.67,0-.96-.43-1.42-.79-1.63-.44-.26-1.13-.38-2.17-.38,0,0,0,0,0,0l-3.63,.06h-3.5c-1.51,0-2.54,.11-3.17,.33-.79,.28-1.22,.92-1.22,1.8,0,.61,.22,1.38,1.14,1.92-.74,.29-1.14,.92-1.14,1.77,0,.56,.19,1.27,.95,1.79h-.9c-2.02,0-3.41,.13-4.24,.38-1.01,.31-1.57,1.08-1.57,2.16,0,.67,.25,1.26,.74,1.75,.21,.21,.45,.4,.71,.56,.62-.31,2.39-.71,2.72-.75,.46-.06,1.02-.11,1.67-.15-.24,.16-.46,.38-.67,.64-.39,.52-.59,1.11-.59,1.75,0,.12,.02,.32,.14,.8,.05,.2,.21,.36,.41,.42,.05,.01,.1,.02,.15,.02,.15,0,.3-.06,.41-.17,.13-.13,.21-.13,.24-.13,.14,0,.49,.06,1.25,.56h-1.31c-2.57,.04-4.25,.16-5.15,.37-1.11,.26-1.73,1.01-1.73,2.11,0,.64,.3,1.25,.9,1.8,.26,.24,.53,.44,.81,.62,.61-.22,2.09-.5,2.23-.54,.7-.15,1.76-.29,3.17-.39-.34,.58-.73,1.1-1.15,1.57,0,0-.01,.01-.02,.02-1.14,1.41-2.38,2.55-3.67,3.38-1.24,.81-2.28,1.21-3.07,1.21-.62,0-.76-.23-.81-.31-.11-.18-.3-.28-.5-.28-.04,0-.09,0-.13,.01-.25,.06-.43,.26-.45,.51-.13,1.39,.07,2.53,.58,3.41,.56,.95,1.44,1.45,2.55,1.45s2.35-.51,3.61-1.57c.06,.16,.18,.28,.34,.34,1.09,.4,2.11,1.13,3.03,2.16,0,0,.01,.02,.02,.02,.11,.11,.37,.38,.76,.79,.41,.43,.84,.82,1.29,1.16,.52,.39,1.13,.59,1.81,.59,1.02,0,1.86-.45,2.44-1.29,.55-.8,.82-2.18,.82-4.22,0-.6-.02-1.09-.06-1.47-.08-1.47-.12-3.08-.12-4.77,0-.17,0-.33,0-.48,.13,.36,.31,.71,.54,1.05,.54,.79,1.28,1.2,2.14,1.2,.63,0,1.15-.19,1.56-.57,.33-.31,.72-.83,1.18-1.58,.13-.17,.29-.42,.49-.77l.27-.47c.04-.05,.13-.16,.27-.32,.01-.01,.02-.03,.03-.04,.53-.78,.89-1.35,1.1-1.75,.25-.47,.36-.86,.36-1.19,0-.29-.06-.55-.17-.79,.3,.16,.64,.24,1.01,.24,.43,0,.88-.1,1.33-.3-.36,.33-.66,.71-.89,1.13-.33,.58-.49,1.15-.49,1.68,0,.49,.15,.93,.45,1.31,.3,.39,.73,.64,1.26,.75,.43,.09,.8,.13,1.12,.13,1.23,0,2.77-.34,4.59-1.01,0,.06,0,.11,.02,.17,.06,.23,.26,.39,.49,.42,.22,.03,.31,.11,.37,.18,.07,.09,.12,.19,.13,.33h-4.94c-2.33,0-3.87,.11-4.7,.35-1.02,.29-1.58,1.03-1.58,2.08,0,.84,.32,1.56,.96,2.15,.23,.21,.46,.39,.69,.55,.22-.08,.44-.15,.67-.17,.26-.03,1.67-.33,2.07-.41,.16-.03,.35-.07,.55-.1,0,0,0,0,.01,0,.02,0,.04,0,.05,0,.83-.13,1.96-.22,3.38-.29-1,.8-2.1,1.46-3.28,1.97-1.66,.72-7.39,.68-7.48,.65-.44,.84-.66,1.66-.66,2.44,0,.86,.26,1.58,.78,2.13,.5,.52,1.12,.84,1.83,.94,.21,.05,.51,.07,.94,.07,1.75,0,3.84-.65,6.19-1.94,2.33-1.27,4.57-3.1,6.66-5.44l.79-.94,3.83-.06c1,0,1.82,.03,2.46,.09-.02,.05-.03,.1-.05,.15,0,.01,0,.03-.01,.04-.28,1.12-.48,1.61-.6,1.82-.13,.23-.32,.4-.58,.51-.53,.17-1.28,.26-2.24,.26s-1.74,.04-2.29,.13c-.28,.04-.48,.28-.49,.56,0,.28,.18,.53,.46,.59,.63,.14,1.14,.35,1.51,.62,.39,.28,.87,.79,1.43,1.49,0,0,.02,.02,.02,.03,.71,.8,1.32,1.36,1.86,1.73,.5,.34,1.06,.51,1.67,.51,.14,0,.28,0,.43-.03,.73-.11,1.32-.63,1.76-1.54,.36-.75,.7-1.71,1.02-2.93,.07-.16,.12-.38,.19-.66,.1-.4,.24-.99,.43-1.79,.45-1.72,.67-2.85,.67-3.46,0-.67-.18-1.22-.51-1.62,.77-.03,1.39-.24,1.85-.64,.43-.37,1.06-1.08,1.92-2.2,.78-1.04,1.53-1.74,2.24-2.1,.27-.13,.39-.44,.29-.72Zm-20.62-13.12c.86-.28,2.19-.23,3.85-.23,2.01,0,3.52-.08,4.36,.23,.37,.13,.44,.49,.43,.51-.16,0-.33,0-.51,0,0,0,0,0,0,0l-4.46,.06h-2.79c-.57,0-1.07,.02-1.5,.06,0-.03,.02-.42,.62-.62ZM31.4,3.89h1.74c2.93,0,5.12,.08,6.5,.23,.28,.03,.52,.07,.71,.1,.41,.07,.69,.45,.65,.86,0,0,0,0,0,0-3.02-.03-6.23-.04-9.6-.04v-1.16Zm-4.76,1.22c-3.5,0-6.59,.02-9.27,.05,0,0,0,0,0,0-.04-.4,.24-.76,.63-.84,.18-.03,.4-.07,.67-.1,1.5-.17,4.19-.27,8-.32,0,.29-.01,.98-.02,1.21Zm-3.42,11.83c-.4,0-.82,.06-1.26,.17-.97-.07-3.01-.11-6.07-.11h-1.75c.02-.09,.02-.18,0-.27,.11-.05,.31-.11,.68-.17,.98-.15,2.6-.23,4.81-.23,2.45,0,3.32,.22,3.62,.34-.03,.09-.05,.19-.03,.28Zm-8.39-4.4c5-.79,8.42,.47,8.41,.48-.05,0-.1,0-.15,0,0,0,0,0,0,0l-3.63,.06h-3.5c-.7,0-1.29,.02-1.8,.07,0-.04-.22-.47,.67-.61Zm.25,23.02c-.06,.8-.28,1.35-.63,1.62-.39,.3-.91,.45-1.58,.45-.3,0-.8-.04-1.48-.12-.66-.08-1.11-.12-1.37-.12-.08,0-.15,0-.22,0,.11-.11,.21-.22,.32-.33,1.62-1.72,3.17-3.66,4.6-5.78,.15-.22,.31-.47,.48-.74,0,2.09-.05,3.78-.12,5.02Zm1.79-12.74l-.15-.11c-.31-.24-.72-.55-1.2-.94-.51-.41-.96-.7-1.36-.9,.73-.01,1.53-.02,2.39-.02,1.17,0,2.14,.02,2.88,.06-.86,.72-1.72,1.36-2.56,1.92Zm3.48,6.78c-.08,0-.19-.02-.36-.19-.11-.11-.26-.17-.41-.17-.08,0-.15,.01-.22,.04-.05,.02-.09,.04-.13,.07,0-.27,.01-.51,.02-.73,1.05,0,1.79,.03,2.31,.06-.72,.84-1.09,.91-1.2,.91Zm12.43-14.32c0,.31,.08,.66,.27,1-.1,0-.19,0-.29,0-.16,0-.31,0-.47,.02-.03,0-.07,0-.1,.02,.22-.32,.41-.66,.58-1.03Zm-1.2,10.82c-.64,0-.85-.11-.9-.14,.01-.22-.11-.44-.3-.55-.07-.04-.16-.07-.24-.07,.04-.03,.08-.05,.11-.08,.57-.41,1.43-1.08,2.56-2.01-.02,.11-.03,.23-.03,.35,0,.45,.12,.89,.36,1.32,.26-.02,2.48,.17,2.8,.26-1.72,.61-3.18,.92-4.36,.92Zm5.48-4.07c.09,0,.19,0,.28,0l5.37-.06h.29c-.27,.17-2.59,1.15-2.59,1.15-.34-.15-2.91-.92-3.35-1.09Zm9.15,8.7l-4.65,.05c0-.06,0-.12,0-.18,0-.78-.39-1.39-1.11-1.72-.63-.27-1.3-.41-2-.41,.82-.38,1.65-.8,2.48-1.26l1.33,.64c1.18,.55,2.49,1.2,3.89,1.95,.44,.26,.84,.48,1.18,.66-.39,.04-.77,.13-1.13,.27Z" style="fill: #231815;"/>
        <g>
          <path d="M58.72,60c-.08-.24-.31-.4-.55-.4-.03,0-.07,0-.1,0l-1.71,.29c-.36,.04-.78,.1-1.26,.18-.46,.08-1.02,.15-1.7,.23-.9,.08-1.59,.11-2.01,.11-1.41,0-2.87-.18-4.32-.55-1.24-.31-2.61-.81-4.08-1.5l2.11-1.8c1.86-1.58,3.12-2.71,3.84-3.45,.82-.84,1.23-1.67,1.23-2.46,0-.84-.37-1.5-1.06-1.9-.6-.35-1.34-.52-2.19-.52s-1.65,.16-2.33,.48h-5.98c.26-.47,.39-.93,.39-1.38,0-.82-.34-1.49-.98-1.96-.6-.43-1.38-.64-2.33-.64-.53,0-1.17,.1-1.94,.32-.24,.07-.41,.28-.43,.53-.01,.25,.13,.48,.36,.57,.21,.09,.23,.17,.23,.29,0,.13-.06,.42-.42,.94-.32,.45-.77,.9-1.32,1.34-1.5,1.19-2.9,2.08-4.15,2.63-1.23,.54-5.19,.83-5.92,.61-.32,.98-.49,1.9-.49,2.75,0,1.11,.31,1.98,.91,2.58,.6,.61,1.43,.91,2.46,.91s2.14-.41,3.51-1.24c.59-.36,1.27-.81,2.05-1.36-.25,.45-.38,.96-.38,1.55,0,.4,.07,.81,.19,1.23,.69-.02,3.25,.5,4.16,.88-1.26,.76-2.58,1.36-3.92,1.8-1.66,.53-3.19,.8-4.55,.8-.98,0-1.78-.14-2.37-.42-.73-.34-.78-.69-.8-.81-.04-.24-.22-.43-.45-.48-.04,0-.08-.01-.12-.01-.19,0-.38,.1-.49,.26-.65,1-.99,2.19-.99,3.53,0,1.02,.24,1.92,.71,2.68,.51,.83,1.21,1.3,2.06,1.4,.25,.03,.51,.05,.79,.05,.64,0,1.34-.08,2.12-.24-.41,.43-.63,1-.63,1.7,0,.88,.32,1.63,.95,2.23,.55,.53,1.23,.96,2.03,1.26-.03,0-.06,.02-.09,.03-1.11,.38-1.7,1.22-1.7,2.42,0,.88,.33,1.63,.99,2.24,.44,.41,.96,.75,1.54,1-1.11,.02-2.02,.07-2.72,.13-1.17,.11-2.03,.34-2.63,.71-.48,.3-1.05,.89-1.05,2.04,0,.91,.32,1.69,.94,2.31,.32,.32,.69,.59,1.1,.8,.23-.09,3.18-1.15,5.01-1.29,1.42-.11,3.43-.19,5.98-.23,.04,1.56,.13,2.77,.26,3.63,.16,1.06,.44,1.79,.87,2.24,.45,.48,1.12,.72,2,.72,1.07,0,1.98-.38,2.68-1.13,.62-.66,1.22-1.5,1.8-2.48,.12-.21,.1-.47-.05-.66-.11-.14-.28-.22-.45-.22-.06,0-.12,0-.18,.03-.37,.12-.59,.15-.71,.15-.23,0-.4-.07-.53-.4-.1-.27-.24-.8-.33-1.88,3.64,.01,6.17,.15,7.52,.4,.8,.15,3.16,.9,3.25,.92,1.41-.73,2.13-1.77,2.13-3.1,0-1.05-.52-1.6-.95-1.88-.54-.35-1.42-.58-2.67-.69-.88-.08-2.15-.12-3.77-.14,1.87-.74,2.82-1.88,2.82-3.41,0-1.12-.53-1.91-1.54-2.27-.05-.02-.11-.04-.17-.06,.83-.32,1.55-.71,2.14-1.16,.74-.57,1.12-1.39,1.12-2.45,0-1.13-.57-1.92-1.65-2.28-.9-.3-2.52-.45-4.94-.45l-3.08,.05c.03-1.13-.08-1.91-.32-2.42-.33-.68-1.1-1.1-2.3-1.25-.24-.03-.48-.05-.7-.05-.67,0-1.27,.13-1.79,.4,.82-.53,1.63-1.1,2.42-1.7l3.45,2.01c1.94,1.15,3.49,2,4.59,2.52,1.16,.55,2.25,.83,3.25,.83,1.08,0,2-.29,2.74-.87,.67-.53,1.35-1.25,2.01-2.17,1.28-1.74,2.37-2.84,3.24-3.27,.26-.13,.38-.43,.29-.7Zm-17.14,11.18c2.01,.05,3.57,.16,4.64,.34,.86,.14,1.18,.31,1.29,.39-.03,.05-.08,.13-.15,.24-.13,.18-.14,.41-.05,.6-.82-.13-1.88-.19-3.22-.19l-2.51,.05v-1.43Zm-.06,5.95c1.5,.05,2.66,.15,3.47,.3,.82,.15,.95,.36,.95,.36,0,.06-.06,.15-.11,.22-.16,.19-.17,.46-.04,.67-.11,0-.22,0-.34,0h-3.93v-1.55Zm-10.67-10.7c1.49-.61,2.95-1.34,4.37-2.17,.02,.02,.06,.05,.12,.08,.22,.11,.68,2.24,.73,2.33h-3.09c-1.17,0-2.16,.03-2.99,.1,.28-.11,.57-.22,.87-.34Zm5.47,12.25h-4.59c-.28,0-.55,0-.82,0,.12-.19,.12-.44,0-.64,0,0-.02-.06-.02-.15h0s.16-.25,1.21-.44c.98-.17,2.41-.28,4.25-.33-.02,.45-.03,.97-.03,1.56Zm.12-6.07l-3.27-.05c-1.47,0-2.63,.08-3.51,.26,.13-.18,.14-.43,.02-.62-.06-.1-.06-.14-.06-.14h0s.14-.23,1.04-.42c1.18-.25,3.13-.4,5.82-.45l-.04,1.43Zm2.24-16.39l-.84-.46c-1.21-.69-2.08-1.14-2.65-1.37-.6-.25-1.25-.37-1.91-.37-.01,0-.02,0-.03,0-.22,.01-.43,.04-.64,.1,.3-.23,.61-.47,.94-.72,1.62-.03,4.45-.05,8.44-.05-.86,.79-1.97,1.75-3.31,2.88Z" style="fill: #231815;"/>
          <path d="M21.09,75.98c-.2-.95-.33-2.39-.37-4.28v-2.6c0-5.39,.12-9.94,.36-13.51,.13-1.41-.02-2.4-.46-3.02-.47-.65-1.25-.99-2.32-.99-.94,0-1.75,.21-2.42,.62-.51,.31-1.07,.76-1.67,1.33,.05-1.5,.1-2.68,.15-3.53,0,0,0-.01,0-.02,.04-1.49-.14-2.5-.55-3.11-.45-.66-1.24-1-2.35-1-.97,0-1.85,.23-2.59,.68-.7,.42-1.39,1-2.05,1.7-.18,.19-.21,.47-.08,.69,.11,.18,.3,.29,.5,.29,.05,0,.09,0,.14-.02,.08-.02,.22-.04,.46-.04,.46,0,.73,.15,.91,.51,.24,.48,.38,1.25,.41,2.3v22.18l-1.92,.26c.08-8.27,.2-14.09,.35-17.31,.09-1.44-.07-2.45-.48-3.08-.45-.69-1.24-1.04-2.36-1.04-.97,0-1.85,.23-2.59,.68-.7,.43-1.38,1-2.01,1.72-.17,.19-.19,.47-.06,.69,.11,.18,.3,.28,.5,.28,.05,0,.09,0,.14-.02,.08-.02,.22-.04,.45-.04,.56,0,.75,.25,.87,.5,.22,.48,.35,1.26,.39,2.32v16.01c-1.85,.59-2.26,1.81-2.26,2.76s.41,2.14,1.24,3.6c.79-.4,4.2-1.55,5.58-1.84l1.18-.24c3.4-.67,6.06-1.17,7.93-1.5,.11,.79,.31,1.43,.6,1.95,.29,.53,.9,1.16,2.11,1.16,1.36,0,2.63-.84,3.79-2.51-.05-.03-1.25-1.18-1.52-2.54Zm-5.04-2.76l-2.1,.31c0-4.12,.04-8.56,.12-13.22,.03-2.07,.07-3.89,.11-5.43,.03,0,.05,0,.08,0,.05,0,.09,0,.14-.02,.08-.02,.22-.04,.45-.04,.41,0,.65,.14,.81,.47,.22,.46,.35,1.21,.39,2.22v15.71Z" style="fill: #231815;"/>
        </g>
      </g>
      <g>
        <g>
          <path d="M10.9,115.7c-.53,0-.94-.13-1.24-.39-.3-.26-.54-.62-.72-1.07-.18-.45-.34-.97-.5-1.55l-1.26-4.66c-.1-.36-.07-.7,.06-1.02,.14-.32,.41-.52,.82-.63,.38-.1,.72-.08,1.01,.08,.29,.16,.49,.43,.6,.82l1.17,4.26c.1,.37,.21,.64,.33,.82s.3,.23,.56,.17c.24-.06,.37-.19,.39-.4,.02-.21-.03-.5-.13-.88l-.83-3.15c-.11-.43-.1-.81,.05-1.12,.14-.32,.43-.52,.85-.62,.43-.1,.78-.05,1.04,.16,.26,.21,.44,.51,.54,.89l1.05,4.13c.11,.42,.24,.71,.37,.86,.13,.15,.31,.19,.52,.13,.24-.07,.36-.2,.35-.41,0-.2-.04-.5-.09-.89-.08-.6-.14-1.1-.2-1.49-.06-.39-.1-.71-.13-.97-.03-.26-.05-.5-.05-.71,0-.48,.14-.9,.43-1.24,.29-.34,.67-.51,1.17-.51s.88,.15,1.14,.46c.26,.31,.39,.73,.39,1.26,0,.35-.05,.71-.15,1.09-.1,.38-.2,.74-.29,1.08l-.73,2.5c-.16,.57-.33,1.08-.49,1.53-.16,.45-.37,.81-.64,1.08-.27,.26-.65,.4-1.14,.4-.6,0-1.06-.19-1.4-.56-.34-.37-.6-.98-.78-1.83h-.09c-.17,.85-.4,1.46-.69,1.83-.29,.37-.72,.56-1.3,.56Z" style="fill: #231815;"/>
          <path d="M20.85,115.66c-.6,0-1.1-.23-1.48-.69-.38-.46-.57-1.1-.58-1.93v-2.99c-.01-.37,.1-.66,.33-.87,.23-.21,.54-.32,.94-.32s.69,.11,.92,.32c.23,.21,.35,.5,.35,.87v2.71c0,.65,.25,.97,.76,.97,.25,0,.42-.09,.51-.28,.09-.19,.13-.43,.13-.72v-2.68c0-.34,.12-.62,.35-.85,.23-.23,.54-.34,.91-.34s.69,.11,.9,.34c.21,.23,.32,.51,.32,.85v4.25c0,.41-.09,.74-.28,.99-.19,.25-.49,.37-.9,.37s-.72-.12-.95-.37c-.23-.25-.34-.58-.34-.99v-.22h-.23c0,.5-.15,.89-.45,1.17-.3,.28-.7,.41-1.2,.41Z" style="fill: #231815;"/>
          <path d="M28.13,115.66c-.36,0-.66-.11-.89-.34-.23-.23-.34-.52-.34-.86v-2.89c-.22,.05-.43,.02-.61-.09s-.33-.28-.43-.51c-.11-.22-.16-.47-.16-.74s.06-.52,.17-.74c.11-.23,.26-.4,.45-.52,.19-.12,.39-.15,.62-.08,.04-.64,.15-1.21,.31-1.7,.16-.5,.42-.89,.76-1.17,.34-.28,.79-.43,1.34-.43,.47,0,.85,.1,1.14,.29s.49,.43,.6,.72,.15,.57,.11,.87c-.04,.29-.16,.53-.35,.74-.19,.21-.47,.32-.84,.32-.26,0-.48-.05-.65-.16-.17-.1-.32-.23-.43-.38s-.22-.3-.3-.43c-.22-.35-.44-.46-.66-.35-.11,.06-.17,.16-.18,.29,0,.13,.03,.29,.13,.46l.29,.49c.15,.24,.3,.4,.47,.47,.16,.07,.37,.09,.62,.06l.62-.09c.4-.06,.72,.05,.97,.32,.25,.28,.38,.62,.38,1.02s-.13,.76-.38,1.02c-.25,.25-.57,.36-.94,.32l-.54-.06v2.95c0,.35-.11,.63-.34,.86-.22,.23-.53,.34-.91,.34Z" style="fill: #231815;"/>
          <path d="M31.16,112.3c0-.68,.14-1.28,.41-1.8,.27-.52,.66-.92,1.17-1.22s1.11-.44,1.81-.44c.54,0,1.03,.1,1.47,.3,.44,.2,.78,.46,1.03,.8,.25,.33,.38,.7,.38,1.09s-.12,.71-.36,.88c-.24,.17-.6,.26-1.08,.26h-2.72c0,.22,.09,.41,.27,.56,.18,.15,.48,.22,.9,.22,.22,0,.42-.02,.6-.06,.19-.04,.38-.08,.57-.12,.19-.04,.41-.06,.65-.06,.35,0,.63,.12,.85,.37,.22,.25,.34,.59,.34,1.02,0,.51-.26,.91-.78,1.19-.52,.28-1.21,.43-2.05,.43-.6,0-1.16-.12-1.68-.35-.52-.23-.95-.6-1.28-1.11-.33-.51-.49-1.15-.49-1.95Zm4.2-.56c.13,0,.17-.06,.13-.18-.03-.12-.14-.25-.31-.38-.17-.13-.42-.19-.75-.19-.38,0-.66,.08-.85,.25-.19,.16-.28,.33-.28,.51h2.06Z" style="fill: #231815;"/>
          <path d="M39.28,115.66c-.38,0-.68-.11-.91-.34-.23-.23-.34-.51-.34-.85v-4.29c0-.36,.11-.67,.32-.92,.22-.25,.53-.38,.93-.38s.7,.13,.91,.38c.21,.25,.31,.57,.31,.95v.65h.23c0-.49,.09-.88,.27-1.17,.18-.29,.4-.49,.68-.62,.28-.13,.55-.19,.83-.19,.66,0,1.15,.24,1.46,.72s.47,1.16,.47,2.04v2.82c0,.34-.11,.62-.34,.85-.22,.23-.53,.34-.91,.34s-.7-.11-.93-.34c-.23-.23-.34-.51-.34-.85v-2.29c0-.31-.06-.55-.17-.73-.12-.17-.29-.26-.51-.26-.26,0-.45,.1-.56,.29s-.17,.43-.17,.73v2.27c0,.34-.11,.62-.32,.85-.22,.23-.51,.34-.89,.34Z" style="fill: #231815;"/>
          <path d="M48.13,118.33c-.53,0-.97-.06-1.34-.17-.37-.11-.72-.29-1.06-.52-.29-.21-.5-.5-.62-.87-.12-.37-.06-.75,.18-1.13,.16-.23,.33-.39,.52-.48,.19-.09,.38-.12,.57-.11,.19,.01,.35,.05,.49,.12,.3,.15,.54,.25,.71,.32,.17,.06,.36,.1,.58,.1,.32,0,.59-.11,.81-.34,.22-.22,.33-.54,.33-.95v-1.05h-.23c-.06,.46-.24,.82-.52,1.08-.29,.26-.68,.4-1.19,.4-.38,0-.75-.09-1.11-.29-.36-.19-.66-.49-.89-.91-.23-.41-.35-.96-.35-1.64,0-1,.22-1.75,.66-2.24,.44-.49,1.01-.74,1.71-.74,.48,0,.9,.16,1.24,.49,.35,.32,.52,.78,.52,1.35h.04v-.74c0-.3,.1-.57,.29-.8,.19-.23,.5-.34,.91-.34,.44,0,.76,.11,.95,.34,.19,.23,.29,.49,.29,.8v4.08c.02,.9-.09,1.66-.32,2.29-.23,.63-.6,1.11-1.11,1.44-.51,.33-1.2,.49-2.05,.49Zm-.96-6.65c0,.47,.31,.7,.93,.7,.41,0,.69-.06,.86-.17,.16-.11,.25-.29,.25-.53s-.08-.42-.25-.52c-.17-.09-.46-.14-.86-.14-.29,0-.52,.05-.68,.14-.16,.1-.24,.27-.24,.52Z" style="fill: #231815;"/>
        </g>
        <g>
          <path d="M6.42,96.22c-.41,0-.74-.12-1-.35-.26-.24-.39-.56-.39-.98s.12-.74,.35-.99c.23-.25,.58-.37,1.03-.37h5.27c.46,0,.8,.12,1.03,.37,.23,.25,.35,.58,.35,.99s-.13,.74-.39,.98c-.26,.24-.59,.35-1,.35-.28,0-.5-.03-.67-.09-.17-.06-.3-.13-.41-.22-.11-.09-.21-.16-.31-.22-.1-.06-.22-.09-.37-.09l-.11,.22c.03,.07,.09,.18,.17,.31,.08,.13,.16,.33,.23,.58,.07,.25,.11,.59,.11,1.01v3.54c0,.33-.12,.61-.37,.83-.25,.22-.55,.33-.91,.33s-.68-.11-.92-.33c-.25-.22-.37-.5-.37-.83v-3.54c0-.42,.04-.76,.11-1.01,.07-.25,.15-.44,.24-.58,.09-.13,.14-.24,.18-.31l-.12-.22c-.15,0-.27,.03-.37,.09-.1,.06-.2,.13-.31,.22-.11,.09-.24,.16-.4,.22-.16,.06-.39,.09-.67,.09Z" style="fill: #231815;"/>
          <path d="M13.31,102.41c-.6,0-1.08-.16-1.41-.49-.34-.33-.51-.78-.51-1.37s.2-1.01,.59-1.28c.39-.26,.89-.4,1.51-.4,.36,0,.69,.02,.98,.07s.56,.12,.8,.21h.04v-.18c0-.19-.07-.34-.21-.45-.14-.11-.31-.16-.53-.15-.2,0-.38,.01-.52,.04-.14,.02-.32,.07-.53,.12-.39,.1-.73,.09-1.02-.02-.29-.11-.48-.34-.59-.67-.1-.35-.08-.64,.07-.88,.14-.24,.36-.42,.65-.55,.25-.12,.54-.22,.85-.31,.31-.08,.65-.12,1.02-.12,1.07,0,1.85,.26,2.36,.78,.5,.52,.75,1.38,.75,2.6v1.9c0,.33-.1,.61-.31,.83-.2,.22-.49,.33-.84,.33-.39,0-.68-.11-.88-.33-.19-.22-.29-.49-.29-.81v-.28h-.24c0,.21-.04,.43-.12,.65-.08,.22-.24,.4-.48,.55-.24,.15-.62,.22-1.14,.22Zm.12-2.68c0,.14,.05,.24,.15,.29,.1,.06,.32,.09,.67,.09,.31,0,.53-.03,.65-.09,.12-.06,.18-.15,.18-.29,0-.13-.06-.22-.18-.28-.12-.05-.34-.08-.65-.08-.34,0-.56,.03-.67,.08-.1,.05-.15,.15-.15,.28Z" style="fill: #231815;"/>
          <path d="M18.2,94.59c0-.35,.11-.63,.32-.85s.52-.32,.9-.32c.41,0,.71,.11,.91,.32,.2,.21,.3,.49,.3,.84s-.1,.62-.3,.83c-.2,.21-.5,.31-.91,.31s-.7-.1-.91-.31c-.21-.21-.31-.48-.31-.81Zm1.22,7.82c-.38,0-.67-.11-.86-.32-.19-.21-.28-.48-.28-.8v-4.19c0-.35,.09-.63,.28-.83,.19-.2,.47-.31,.86-.31s.67,.1,.86,.31c.19,.2,.29,.47,.29,.81v4.21c0,.32-.1,.58-.3,.8-.2,.21-.48,.32-.85,.32Z" style="fill: #231815;"/>
          <path d="M24.27,102.45c-.64,0-1.2-.13-1.69-.4-.49-.26-.87-.64-1.15-1.13-.28-.49-.42-1.06-.42-1.73s.14-1.24,.42-1.73c.28-.49,.66-.87,1.16-1.14,.49-.27,1.06-.4,1.71-.4,.51,0,.95,.05,1.34,.16,.39,.11,.69,.27,.92,.48,.22,.21,.34,.48,.34,.8,0,.38-.1,.68-.29,.9-.2,.22-.48,.32-.84,.32-.24,0-.49-.04-.73-.11-.24-.07-.55-.11-.92-.11-.31,0-.57,.05-.78,.15-.21,.1-.32,.28-.32,.54s.11,.46,.32,.58c.21,.12,.47,.18,.78,.18,.25,0,.47-.02,.64-.07s.33-.1,.49-.15c.15-.05,.33-.07,.53-.07,.42,0,.72,.12,.92,.36,.2,.24,.3,.55,.3,.92,0,.32-.12,.6-.35,.85-.24,.25-.56,.44-.97,.59-.41,.14-.87,.21-1.38,.21Z" style="fill: #231815;"/>
          <path d="M28.62,102.41c-.36,0-.64-.11-.85-.32-.21-.22-.31-.48-.31-.8v-7.09c0-.34,.1-.63,.31-.87,.21-.24,.5-.35,.89-.35s.66,.12,.85,.35c.19,.24,.29,.53,.29,.88v3.66h.22c0-.47,.08-.83,.25-1.1,.17-.27,.38-.46,.65-.58,.27-.12,.54-.18,.81-.18,.49,0,.86,.12,1.12,.36,.26,.24,.43,.56,.53,.96,.09,.4,.14,.84,.14,1.31v2.64c0,.33-.11,.61-.32,.81-.22,.21-.5,.31-.86,.31s-.66-.1-.87-.31c-.21-.21-.32-.48-.32-.81v-2.17c0-.29-.06-.52-.17-.69-.11-.16-.28-.24-.5-.24s-.39,.09-.5,.27c-.11,.18-.17,.41-.17,.69v2.14c0,.32-.1,.59-.31,.8-.21,.22-.5,.32-.86,.32Z" style="fill: #231815;"/>
          <path d="M36.11,102.41c-.57,0-1.04-.22-1.4-.65-.36-.43-.54-1.04-.55-1.82v-2.83c-.01-.35,.1-.63,.31-.83,.22-.2,.51-.3,.89-.3s.65,.1,.87,.3c.22,.2,.33,.48,.33,.83v2.56c0,.61,.24,.92,.72,.92,.24,0,.4-.09,.48-.26,.08-.18,.12-.4,.12-.68v-2.53c0-.32,.11-.59,.33-.8,.22-.22,.51-.32,.86-.32s.65,.11,.85,.32c.2,.22,.3,.48,.3,.8v4.01c0,.39-.09,.7-.26,.94-.18,.23-.46,.35-.85,.35s-.68-.12-.9-.35c-.22-.23-.32-.54-.32-.94v-.21h-.22c0,.47-.14,.84-.42,1.1-.28,.26-.66,.39-1.13,.39Z" style="fill: #231815;"/>
          <path d="M42.05,102.41c-.36,0-.65-.11-.86-.32-.22-.22-.32-.48-.32-.8v-4.05c0-.34,.1-.63,.31-.87,.2-.24,.5-.35,.88-.35s.66,.12,.86,.35c.2,.24,.29,.53,.29,.89v.61h.22c0-.47,.08-.83,.25-1.1,.17-.27,.38-.46,.64-.58,.26-.12,.52-.18,.78-.18,.63,0,1.09,.23,1.38,.68,.29,.45,.44,1.1,.44,1.93v2.67c0,.32-.11,.59-.32,.8-.21,.22-.5,.32-.86,.32s-.66-.11-.88-.32c-.22-.22-.32-.48-.32-.8v-2.17c0-.29-.06-.52-.17-.69-.11-.16-.27-.24-.48-.24-.24,0-.42,.09-.53,.27-.11,.18-.17,.41-.17,.69v2.14c0,.32-.1,.59-.31,.8-.2,.22-.49,.32-.84,.32Z" style="fill: #231815;"/>
          <path d="M50.4,104.93c-.5,0-.92-.05-1.27-.16-.35-.11-.68-.27-1-.49-.28-.2-.47-.47-.59-.82-.11-.35-.06-.71,.17-1.06,.15-.22,.31-.37,.5-.45,.18-.08,.36-.12,.54-.1,.18,.01,.33,.05,.46,.12,.29,.14,.51,.24,.67,.3,.16,.06,.34,.09,.54,.09,.3,0,.56-.11,.76-.32,.21-.21,.31-.51,.31-.89v-.99h-.22c-.06,.43-.22,.77-.5,1.02-.27,.25-.65,.37-1.12,.37-.36,0-.71-.09-1.05-.27-.34-.18-.62-.47-.84-.86s-.33-.91-.33-1.55c0-.95,.21-1.65,.62-2.12,.42-.47,.95-.7,1.62-.7,.46,0,.85,.15,1.17,.46,.33,.31,.49,.73,.49,1.28h.04v-.7c0-.29,.09-.54,.28-.75,.18-.22,.47-.32,.86-.32,.42,0,.72,.11,.9,.32,.18,.22,.28,.47,.28,.75v3.85c.02,.85-.08,1.57-.3,2.17-.22,.6-.57,1.05-1.05,1.36-.49,.31-1.13,.47-1.94,.47Zm-.91-6.28c0,.44,.29,.66,.88,.66,.38,0,.65-.05,.81-.16,.15-.11,.23-.27,.23-.5s-.08-.4-.24-.49c-.16-.09-.43-.13-.81-.13-.28,0-.49,.05-.64,.13-.15,.09-.23,.25-.23,.49Z" style="fill: #231815;"/>
        </g>
      </g>
    </g>
  </g>
</svg>