<?xml version="1.0" encoding="UTF-8"?>
<svg id="b" data-name="圖層 2" xmlns="http://www.w3.org/2000/svg" width="47.15" height="43.93" viewBox="0 0 47.15 43.93">
  <g id="c" data-name="menu">
    <g>
      <path d="M44.08,15.2c-.26-.22-.38-.55-.32-.88,.03-.16,.05-.33,.05-.51,0-1.43-1.12-2.59-2.53-2.69,.04-.2,.07-.4,.07-.61,0-1.28-.88-2.35-2.07-2.63-.35-.08-.62-.35-.7-.7-.28-1.19-1.35-2.07-2.63-2.07-.2,0-.39,.02-.58,.07-.42,.1-.84-.13-1.02-.53-.42-.94-1.36-1.6-2.46-1.6-.3,0-.59,.05-.86,.14-.38,.13-.81,0-1.03-.35-.48-.75-1.31-1.25-2.27-1.25-.43,0-.84,.1-1.2,.29-.34,.17-.76,.12-1.02-.15-.49-.51-1.17-.82-1.93-.82s-1.44,.32-1.93,.82c-.26,.27-.69,.32-1.02,.15-.36-.18-.77-.29-1.2-.29-.96,0-1.79,.5-2.27,1.25-.22,.34-.65,.48-1.03,.35-.27-.09-.56-.14-.86-.14-1.1,0-2.04,.66-2.46,1.6-.18,.4-.6,.62-1.02,.53-.19-.04-.38-.07-.58-.07-1.28,0-2.35,.88-2.63,2.07-.08,.35-.35,.62-.7,.7-1.19,.28-2.07,1.35-2.07,2.63,0,.21,.03,.41,.07,.61-1.41,.09-2.53,1.25-2.53,2.69,0,.34,.38,.74,.56,1.06,.03,.06,0,.13-.05,.16-1.29,.73-2.29,2.36-1.14,4.05,.07,.1,.15,.19,.25,.25,.75,.53,1.51,.7,2.2,.61,.41-.05,.81,.19,.94,.58,1.91,5.71,9.18,9.96,17.87,9.96s16.46-4.55,18.05-10.55c.11,.01,.21,.03,.33,.03,1.49,0,2.7-1.21,2.7-2.7,0-.83-.38-1.57-.97-2.06Z" style="fill: #fff; stroke: #000; stroke-linecap: round; stroke-miterlimit: 10; stroke-width: 1.81px;"/>
      <path d="M21.38,7.64c-.55-.34-1.22-.49-1.9-.37-.94,.17-1.67,.81-2.01,1.64-.15,.38-.55,.59-.95,.53-.28-.04-.58-.04-.87,.01-1.24,.23-2.05,1.31-2.12,2.52-.01,.21-.23,.35-.43,.3-.35-.09-.72-.13-1.07-.06-1.47,.27-2.44,1.68-2.18,3.15" style="fill: none; stroke: #000; stroke-linecap: round; stroke-miterlimit: 10; stroke-width: 1.81px;"/>
      <path d="M28.63,9.74c.55-.34,1.22-.49,1.9-.36,.94,.18,1.67,.82,2,1.65,.15,.38,.55,.59,.95,.53,.28-.04,.58-.04,.87,.02,1.38,.26,2.31,1.53,2.18,2.9" style="fill: none; stroke: #000; stroke-linecap: round; stroke-miterlimit: 10; stroke-width: 1.81px;"/>
      <path d="M46.25,18.17H.91c0,9.16,5.43,17.04,13.24,20.62h-.27v4.24h19.4v-4.24h-.27c7.81-3.58,13.24-11.46,13.24-20.62Z" style="fill: #faf6ed; stroke: #000; stroke-linecap: round; stroke-miterlimit: 10; stroke-width: 1.81px;"/>
    </g>
  </g>
</svg>