<?xml version="1.0" encoding="UTF-8"?>
<svg id="b" data-name="圖層 2" xmlns="http://www.w3.org/2000/svg" width="39.83" height="39.83" viewBox="0 0 39.83 39.83">
  <g id="c" data-name="menu">
    <g>
      <rect x="0" y="0" width="39.83" height="39.83" rx="19.91" ry="19.91" style="fill: #eee;"/>
      <g>
        <path d="M5.73,32.88v-.39c.16-.24,.39-.29,.66-.29,2.03,0,4.06,0,6.1,0h.34c0-.48-.03-.91,.25-1.29,.02-.03,0-.12-.04-.17-.46-.66-.93-1.33-1.4-1.99-.17,.09-.37,.22-.58,.32-1.28,.58-2.42,.18-3.08-1.06-.39-.73-.55-1.53-.58-2.34-.11-2.6,.58-5,1.83-7.25,.58-1.04,1.29-1.98,2.29-2.67,.11-.08,.22-.15,.35-.23-.56-1.2-.62-2.4-.14-3.61,.48-1.2,1.36-2.03,2.58-2.53-.08-.08-.14-.13-.19-.18-.94-.84-1.87-1.68-2.81-2.51-.42-.38-.43-.6-.03-.97,.13,0,.26,0,.39,0,.08,.05,.16,.12,.24,.16,1.72,.81,3.55,1.19,5.43,1.39,1.45,.16,2.91,.16,4.37,.07,1.72-.11,3.4-.4,5.03-.97,.5-.17,.96-.43,1.44-.65,.13,0,.26,0,.39,0,.4,.37,.39,.6-.03,.97-.95,.84-1.89,1.69-2.83,2.53-.05,.05-.09,.1-.15,.16,2.24,.88,3.62,3.53,2.44,6.13,.71,.4,1.3,.93,1.79,1.58,1.97,2.67,2.93,5.66,2.7,8.99-.06,.84-.28,1.66-.81,2.35-.54,.72-1.26,1.07-2.15,.84-.47-.12-.92-.34-1.36-.51-.45,.67-.93,1.39-1.36,2.04,.1,.48,.19,.93,.28,1.4h.3c1.99,0,3.99,0,5.98,0,.11,0,.22,0,.33,.01,.25,.03,.41,.23,.4,.48,0,.29-.22,.46-.57,.46-2.11,0-4.23,0-6.34,0-.17,0-.27,.04-.36,.21-.18,.36-.49,.59-.89,.69-.48,.13-.91-.01-1.29-.3-.6,.43-1.19,.48-1.81,.06-.05-.03-.16-.01-.21,.02-.4,.27-.83,.33-1.29,.19-.06-.02-.12-.02-.19-.02-.71,.01-1.42,.03-2.12,.04-.16,0-.35-.08-.49-.03-.54,.18-1.02,.07-1.45-.26-.78,.47-1.11,.47-1.91,0-.06,.04-.12,.08-.18,.12-.69,.43-1.59,.22-1.98-.5-.09-.17-.19-.22-.38-.22-2.07,0-4.14,0-6.21,0-.29,0-.52-.06-.7-.28Zm18.21-2.55c.65-1.35,.84-2.75,.62-4.2-.2-1.35-.73-2.55-1.71-3.52-1.01-1-2.22-1.47-3.65-1.21-1.11,.2-1.98,.83-2.66,1.72-1.08,1.41-1.44,3.03-1.31,4.77,.06,.85,.29,1.66,.66,2.4,.23,.03,.45,.02,.65,.08,.2,.06,.38,.18,.57,.27,.49-.37,1.02-.46,1.57-.17,.57,.29,.78,.8,.78,1.42,0,.4,0,.8,0,1.22h.92c0-.46,0-.89,0-1.32,.02-.72,.41-1.26,1.05-1.43,.49-.13,.93-.02,1.33,.3,.34-.29,.73-.4,1.18-.33Zm-2.63-9.76c2.02,.74,3.23,2.19,3.88,4.13,.64,1.92,.53,3.84-.23,5.72,.23-.04,.43-.12,.62-.1,.28,.04,.42-.09,.57-.29,2.59-3.45,2.96-7.16,1.27-11.1-.25-.59-.62-1.12-.93-1.68-1.24,.67-1.7,.78-2.96,.75-.07,0-.17,.08-.21,.15-.14,.23-.25,.47-.39,.7-.41,.67-.95,1.22-1.62,1.72Zm-7.92-3.3c-.11,.15-.2,.28-.28,.41-1.67,2.62-2.08,5.46-1.35,8.46,.36,1.48,1.03,2.82,2.02,3.98,.07,.08,.17,.18,.27,.19,.27,.04,.54,.05,.82,.07,0-.02-.01-.06-.03-.09-.6-1.48-.75-3.02-.45-4.58,.31-1.64,1.04-3.08,2.36-4.13,.52-.41,1.13-.71,1.71-1.06,.01,.05,.01,.02,0,.02-.86-.64-1.52-1.45-1.97-2.42-.02-.05-.11-.11-.16-.1-1.06,.1-2.03-.15-2.94-.73Zm6.53-4.15c2.05-1.83,4.08-3.65,6.11-5.46-1.85,.44-3.71,.68-5.62,.7,0,.41,0,.78,0,1.16,0,.35-.22,.56-.53,.53-.26-.02-.43-.22-.43-.55,0-.37,0-.75,0-1.15-1.93-.01-3.78-.27-5.62-.7,2.03,1.81,4.06,3.63,6.11,5.47Zm-7.57,.44c.02,.19,.02,.39,.05,.58,.38,1.94,2.04,3.13,4,2.89,1.57-.19,2.71-1.27,2.99-2.82,.03-.16,0-.27-.13-.39-1.33-1.18-2.64-2.36-3.97-3.53-.08-.07-.25-.11-.36-.08-1.52,.39-2.57,1.76-2.6,3.35Zm15.12,.02c0-1.58-1.05-2.96-2.53-3.38-.18-.05-.3-.03-.44,.1-1.29,1.17-2.59,2.33-3.9,3.49-.15,.13-.21,.26-.16,.45,.03,.1,.04,.2,.07,.3,.41,1.39,1.34,2.19,2.76,2.46,2.16,.42,4.21-1.24,4.2-3.42Zm1.1,14.24c.31,.16,.62,.36,.95,.48,.57,.21,1.05,.07,1.38-.44,.21-.33,.39-.72,.49-1.1,.31-1.19,.23-2.4,0-3.6-.35-1.9-1.03-3.67-2.17-5.24-.47-.65-1.01-1.22-1.75-1.6-.1,.12-.19,.23-.28,.32,2.39,3.48,2.79,7.19,1.38,11.18ZM12.39,16.35c-.63,.32-1.12,.79-1.51,1.33-1.81,2.49-2.71,5.26-2.48,8.35,.05,.63,.21,1.24,.57,1.77,.19,.28,.44,.5,.79,.56,.49,.08,.89-.14,1.3-.37,.2-.11,.22-.22,.14-.44-.95-2.59-1-5.21-.13-7.83,.36-1.1,.9-2.11,1.59-3.06-.09-.1-.17-.2-.26-.3Zm5.01,1.42c.56,1.1,1.35,1.93,2.43,2.47,.07,.03,.19,0,.27-.04,.72-.38,1.33-.9,1.8-1.56,.19-.27,.36-.56,.55-.86-.82-.27-1.46-.71-2.05-1.34,0,.35,0,.63,0,.9,0,.38-.2,.61-.5,.61-.29,0-.47-.23-.48-.6,0-.28,0-.56,0-.92-.59,.65-1.25,1.08-2.03,1.34Zm-.81,14.45c0-.18,0-.35,0-.52-.02-.24-.19-.41-.42-.43-.23-.02-.46,.12-.48,.36-.03,.37-.03,.75,0,1.13,.02,.24,.24,.39,.47,.38,.24-.01,.42-.2,.44-.45,0-.16,0-.31,0-.47Zm6.65-.04c0,.18,0,.35,0,.52,.02,.23,.2,.43,.43,.43,.23,0,.44-.1,.46-.34,.03-.39,.03-.79,0-1.18-.02-.24-.26-.38-.49-.34-.24,.03-.38,.18-.41,.42-.01,.16,0,.33,0,.5Zm-8.53,0c0-.16,0-.31,0-.47-.02-.26-.19-.44-.43-.45-.24-.02-.47,.14-.49,.39-.03,.36-.03,.72,0,1.08,.02,.25,.25,.42,.48,.41,.24-.02,.43-.21,.44-.48,0-.16,0-.31,0-.47Zm10.42,0c0,.16,0,.31,0,.47,.01,.25,.19,.44,.42,.47,.23,.02,.47-.14,.49-.39,.03-.37,.03-.74,0-1.1-.02-.25-.25-.4-.49-.38-.24,.02-.41,.2-.42,.46,0,.16,0,.31,0,.47Zm-6.64,.02h0c0-.18,.01-.37,0-.55-.02-.24-.18-.38-.42-.4-.23-.02-.46,.13-.47,.36-.02,.38-.02,.75,0,1.13,.01,.23,.24,.39,.47,.38,.23-.01,.42-.19,.43-.42,.01-.16,0-.33,0-.5Zm2.87-.03s0,0,0,0c0,.16,0,.31,0,.47,0,.02,0,.04,0,.06,.02,.23,.21,.41,.43,.42,.22,.01,.45-.15,.46-.38,.02-.37,.02-.74,0-1.1-.01-.25-.23-.41-.48-.39-.23,.02-.41,.18-.42,.43-.01,.17,0,.33,0,.5Z" style="stroke: #231815; stroke-miterlimit: 10; stroke-width: .42px;"/>
        <path d="M23.93,30.33c-.45-.07-.84,.05-1.18,.33-.4-.33-.84-.43-1.33-.3-.63,.17-1.03,.72-1.05,1.43,0,.43,0,.86,0,1.32h-.92c0-.42,0-.82,0-1.22,0-.62-.21-1.13-.78-1.42-.56-.28-1.09-.19-1.57,.17-.19-.09-.37-.21-.57-.27-.2-.06-.42-.05-.65-.08-.37-.74-.6-1.55-.66-2.4-.13-1.74,.23-3.36,1.31-4.77,.68-.88,1.54-1.51,2.66-1.72,1.43-.26,2.64,.2,3.65,1.21,.98,.97,1.51,2.18,1.71,3.52,.22,1.45,.03,2.85-.62,4.2Zm-4.02-1.58c.37,.36,.77,.55,1.25,.62,.33,.04,.59-.11,.63-.38,.05-.3-.11-.52-.46-.57-.44-.06-.76-.29-.99-.67-.23-.37-.63-.37-.86,0-.23,.37-.55,.6-.99,.67-.34,.05-.51,.27-.46,.57,.04,.27,.3,.43,.63,.39,.48-.06,.89-.26,1.25-.62Zm0-4.73c.39,.36,.82,.6,1.34,.61,.32,0,.52-.15,.54-.42,.02-.28-.14-.48-.45-.53-.43-.06-.75-.27-.98-.64-.27-.42-.64-.42-.91,0-.23,.37-.55,.58-.98,.64-.32,.04-.49,.25-.45,.55,.03,.26,.23,.41,.53,.4,.52-.01,.96-.24,1.35-.61Zm2.13,2.43c.33,.34,.71,.54,1.18,.54,.26,0,.44-.17,.47-.41,.03-.26-.12-.49-.38-.52-.38-.04-.6-.26-.76-.56-.12-.21-.23-.4-.51-.39-.26,0-.38,.18-.49,.38-.17,.31-.4,.53-.78,.59-.13,.02-.3,.19-.35,.33-.13,.35,.18,.64,.6,.58,.41-.05,.75-.25,1.03-.54Zm-4.26,0c.34,.33,.72,.55,1.2,.54,.25,0,.44-.19,.46-.43,.02-.23-.14-.48-.38-.5-.39-.03-.61-.27-.78-.58-.11-.2-.23-.38-.49-.38-.26,0-.38,.17-.49,.37-.17,.31-.39,.55-.78,.59-.24,.02-.37,.19-.38,.44-.02,.28,.18,.49,.47,.49,.47,0,.85-.21,1.18-.54Z" style="fill: #e94709; stroke: #231815; stroke-miterlimit: 10; stroke-width: .42px;"/>
        <path d="M21.31,20.57c.67-.5,1.21-1.05,1.62-1.72,.14-.23,.25-.47,.39-.7,.04-.07,.14-.15,.21-.15,1.26,.03,1.72-.08,2.96-.75,.31,.56,.68,1.09,.93,1.68,1.69,3.94,1.31,7.65-1.27,11.1-.14,.19-.28,.33-.57,.29-.19-.03-.39,.06-.62,.1,.76-1.88,.87-3.79,.23-5.72-.65-1.94-1.86-3.39-3.88-4.13Z" style="fill: #e94709; stroke: #231815; stroke-miterlimit: 10; stroke-width: .39px;"/>
        <path d="M13.39,17.27c.91,.58,1.88,.84,2.94,.73,.05,0,.14,.05,.16,.1,.45,.98,1.11,1.78,1.97,2.42,.01,0,.01,.03,0-.02-.58,.36-1.19,.65-1.71,1.06-1.33,1.06-2.05,2.49-2.36,4.13-.3,1.57-.15,3.1,.45,4.58,.02,.04,.03,.08,.03,.09-.28-.02-.55-.03-.82-.07-.1-.02-.2-.11-.27-.19-.99-1.17-1.66-2.5-2.02-3.98-.72-3-.32-5.83,1.35-8.46,.08-.13,.18-.26,.28-.41Z" style="fill: #e94709; stroke: #231815; stroke-miterlimit: 10; stroke-width: .39px;"/>
        <path d="M19.92,13.12c-2.05-1.84-4.08-3.65-6.11-5.47,1.84,.43,3.7,.69,5.62,.7,0,.4,0,.77,0,1.15,0,.32,.17,.52,.43,.55,.31,.03,.53-.18,.53-.53,0-.38,0-.75,0-1.16,1.91-.02,3.77-.26,5.62-.7-2.03,1.82-4.06,3.63-6.11,5.46Z" style="fill: #e94709; stroke: #231815; stroke-miterlimit: 10; stroke-width: .39px;"/>
        <path d="M12.35,13.56c.03-1.59,1.07-2.96,2.6-3.35,.11-.03,.27,.01,.36,.08,1.33,1.17,2.64,2.36,3.97,3.53,.13,.12,.16,.23,.13,.39-.28,1.55-1.43,2.63-2.99,2.82-1.97,.24-3.62-.95-4-2.89-.04-.19-.04-.38-.05-.58Zm3.78,2.09c1.06,0,1.9-.84,1.9-1.89,0-1.04-.84-1.88-1.88-1.88-1.06,0-1.91,.83-1.92,1.88,0,1.04,.84,1.9,1.9,1.9Z" style="fill: #fff; stroke: #231815; stroke-miterlimit: 10; stroke-width: .42px;"/>
        <path d="M27.47,13.58c0,2.19-2.04,3.84-4.2,3.42-1.42-.28-2.35-1.07-2.76-2.46-.03-.1-.04-.2-.07-.3-.06-.19,0-.32,.16-.45,1.31-1.16,2.61-2.32,3.9-3.49,.14-.13,.26-.15,.44-.1,1.49,.42,2.53,1.8,2.53,3.38Zm-3.77,2.07c1.05,0,1.91-.85,1.9-1.89,0-1.04-.84-1.88-1.88-1.89-1.06,0-1.91,.83-1.91,1.88,0,1.05,.84,1.9,1.89,1.9Z" style="fill: #fff; stroke: #231815; stroke-miterlimit: 10; stroke-width: .42px;"/>
        <path d="M28.57,27.82c1.41-3.98,1.01-7.69-1.38-11.18,.08-.1,.18-.21,.28-.32,.74,.37,1.28,.95,1.75,1.6,1.14,1.57,1.82,3.34,2.17,5.24,.22,1.2,.3,2.4,0,3.6-.1,.38-.27,.77-.49,1.1-.33,.51-.81,.65-1.38,.44-.33-.12-.64-.32-.95-.48Z" style="fill: #e94709; stroke: #231815; stroke-miterlimit: 10; stroke-width: .39px;"/>
        <path d="M12.39,16.35c.09,.1,.17,.2,.26,.3-.69,.95-1.23,1.96-1.59,3.06-.87,2.62-.82,5.24,.13,7.83,.08,.22,.06,.33-.14,.44-.4,.23-.8,.46-1.3,.37-.35-.06-.6-.28-.79-.56-.36-.53-.53-1.14-.57-1.77-.22-3.09,.67-5.86,2.48-8.35,.4-.55,.88-1.01,1.51-1.33Z" style="fill: #e94709; stroke: #231815; stroke-miterlimit: 10; stroke-width: .39px;"/>
        <path d="M17.4,17.77c.78-.26,1.44-.69,2.03-1.34,0,.36,0,.64,0,.92,0,.36,.19,.59,.48,.6,.3,0,.49-.23,.5-.61,0-.28,0-.55,0-.9,.59,.63,1.23,1.07,2.05,1.34-.19,.3-.36,.59-.55,.86-.48,.66-1.08,1.18-1.8,1.56-.08,.04-.2,.08-.27,.04-1.08-.55-1.87-1.38-2.43-2.47Z" style="fill: #fff; stroke: #231815; stroke-miterlimit: 10; stroke-width: .39px;"/>
        <path d="M16.59,32.22c0,.16,0,.31,0,.47-.01,.25-.2,.44-.44,.45-.22,.01-.45-.14-.47-.38-.03-.37-.03-.75,0-1.13,.02-.24,.24-.38,.48-.36,.23,.02,.41,.19,.42,.43,.01,.17,0,.35,0,.52Z" style="fill: #fff; stroke: #231815; stroke-miterlimit: 10; stroke-width: .39px;"/>
        <path d="M23.24,32.19c0-.17-.01-.33,0-.5,.02-.24,.17-.38,.41-.42,.23-.03,.47,.11,.49,.34,.03,.39,.03,.79,0,1.18-.02,.24-.23,.35-.46,.34-.23,0-.41-.2-.43-.43-.01-.17,0-.35,0-.52Z" style="fill: #fff; stroke: #231815; stroke-miterlimit: 10; stroke-width: .39px;"/>
        <path d="M14.71,32.19c0,.16,0,.31,0,.47-.01,.27-.2,.46-.44,.48-.23,.01-.46-.16-.48-.41-.03-.36-.03-.72,0-1.08,.02-.25,.25-.41,.49-.39,.24,.02,.42,.2,.43,.45,0,.16,0,.31,0,.47Z" style="fill: #fff; stroke: #231815; stroke-miterlimit: 10; stroke-width: .39px;"/>
        <path d="M25.12,32.2c0-.16,0-.31,0-.47,.01-.26,.19-.44,.42-.46,.24-.02,.47,.13,.49,.38,.03,.37,.03,.74,0,1.1-.02,.25-.26,.41-.49,.39-.24-.03-.41-.21-.42-.47,0-.16,0-.31,0-.47Z" style="fill: #fff; stroke: #231815; stroke-miterlimit: 10; stroke-width: .39px;"/>
        <path d="M18.48,32.22c0,.17,0,.33,0,.5-.02,.24-.2,.41-.43,.42-.22,.01-.45-.15-.47-.38-.02-.38-.02-.75,0-1.13,.02-.23,.24-.39,.47-.36,.24,.02,.39,.16,.42,.4,.02,.18,0,.37,0,.55h0Z" style="fill: #fff; stroke: #231815; stroke-miterlimit: 10; stroke-width: .39px;"/>
        <path d="M21.35,32.2c0-.17,0-.33,0-.5,.02-.25,.19-.41,.42-.43,.25-.02,.47,.14,.48,.39,.02,.37,.02,.74,0,1.1-.01,.23-.24,.39-.46,.38-.23-.01-.41-.19-.43-.42,0-.02,0-.04,0-.06,0-.16,0-.31,0-.47,0,0,0,0,0,0Z" style="fill: #fff; stroke: #231815; stroke-miterlimit: 10; stroke-width: .39px;"/>
        <path d="M19.92,28.75c-.36,.35-.77,.56-1.25,.62-.33,.04-.59-.11-.63-.39-.04-.3,.12-.52,.46-.57,.44-.06,.76-.29,.99-.67,.23-.37,.63-.37,.86,0,.23,.37,.55,.6,.99,.67,.34,.05,.5,.27,.46,.57-.04,.27-.3,.42-.63,.38-.47-.06-.88-.26-1.25-.62Z"/>
        <path d="M19.91,24.02c-.39,.37-.83,.6-1.35,.61-.3,0-.5-.14-.53-.4-.03-.29,.13-.5,.45-.55,.43-.06,.75-.27,.98-.64,.26-.42,.64-.42,.91,0,.23,.37,.55,.58,.98,.64,.31,.04,.47,.24,.45,.53-.02,.28-.22,.43-.54,.42-.52-.01-.95-.25-1.34-.61Z"/>
        <path d="M22.05,26.46c-.29,.29-.63,.49-1.03,.54-.42,.05-.73-.24-.6-.58,.05-.14,.22-.31,.35-.33,.39-.05,.61-.28,.78-.59,.11-.2,.22-.38,.49-.38,.28,0,.39,.18,.51,.39,.17,.3,.39,.53,.76,.56,.26,.02,.41,.25,.38,.52-.03,.24-.21,.41-.47,.41-.47,0-.85-.21-1.18-.54Z"/>
        <path d="M17.78,26.46c-.33,.33-.71,.54-1.18,.54-.29,0-.49-.21-.47-.49,.01-.24,.14-.41,.38-.44,.39-.04,.61-.28,.78-.59,.11-.21,.23-.37,.49-.37,.26,0,.38,.18,.49,.38,.17,.31,.39,.55,.78,.58,.24,.02,.4,.27,.38,.5-.02,.24-.21,.43-.46,.43-.48,0-.87-.21-1.2-.54Z"/>
        <path d="M16.13,15.65c-1.05,0-1.91-.86-1.9-1.9,0-1.05,.86-1.89,1.92-1.88,1.04,0,1.88,.84,1.88,1.88,0,1.05-.84,1.9-1.9,1.89Zm-.93-1.9c0,.53,.42,.95,.94,.95,.51,0,.93-.43,.94-.93,0-.51-.43-.96-.95-.95-.51,0-.93,.42-.93,.93Z" style="stroke: #231815; stroke-miterlimit: 10; stroke-width: .42px;"/>
        <path d="M23.69,15.65c-1.05,0-1.9-.85-1.89-1.9,0-1.05,.85-1.88,1.91-1.88,1.04,0,1.88,.85,1.88,1.89,0,1.05-.85,1.89-1.9,1.89Zm.94-1.87c0-.53-.4-.96-.93-.96-.5,0-.93,.41-.95,.92-.02,.51,.42,.96,.93,.96,.51,0,.93-.41,.94-.92Z" style="stroke: #231815; stroke-miterlimit: 10; stroke-width: .42px;"/>
        <path d="M15.2,13.75c0-.51,.42-.93,.93-.93,.52,0,.95,.44,.95,.95,0,.51-.43,.93-.94,.93-.52,0-.94-.42-.94-.95Z" style="fill: #fff; stroke: #231815; stroke-miterlimit: 10; stroke-width: .39px;"/>
        <path d="M24.63,13.78c0,.51-.43,.93-.94,.92-.52,0-.95-.46-.93-.96,.02-.51,.45-.93,.95-.92,.52,0,.93,.43,.93,.96Z" style="fill: #fff; stroke: #231815; stroke-miterlimit: 10; stroke-width: .39px;"/>
      </g>
    </g>
  </g>
</svg>