<?xml version="1.0" encoding="UTF-8"?>
<svg id="b" data-name="圖層 2" xmlns="http://www.w3.org/2000/svg" width="45.63" height="17.57" viewBox="0 0 45.63 17.57">
  <g id="c" data-name="menu">
    <g>
      <path d="M22.28,7.28v.51c0,2.63,0,5.27,0,7.9,0,.9-.44,1.52-1.19,1.77-.76,.25-1.68,.02-2.14-.66-.23-.33-.39-.79-.39-1.19-.03-4.53-.03-9.06,0-13.59,0-.42,.16-.9,.39-1.24,.71-1.06,2.09-1.03,2.91,.04,1.01,1.32,1.99,2.65,2.99,3.98,1.27,1.7,2.54,3.39,3.82,5.09,.09,.12,.19,.23,.38,.45v-.64c0-2.62,0-5.23,0-7.85,0-.76,.35-1.33,1.04-1.63,.7-.31,1.38-.21,1.96,.31,.43,.39,.57,.89,.57,1.46,0,3.81,0,7.63,0,11.44,0,.77,0,1.53,0,2.3-.01,.9-.43,1.44-1.3,1.72-.77,.25-1.5,0-2.02-.69-.94-1.29-1.87-2.58-2.81-3.87-1.32-1.82-2.64-3.64-3.95-5.46-.05-.06-.09-.12-.14-.18-.03,.01-.07,.02-.1,.04Z" style="fill: #231815;"/>
      <path d="M38.76,3.65v3.25c.18,0,.34,.03,.51,.03,1.52,0,3.03,0,4.55,0,.91,0,1.62,.61,1.78,1.44,.16,.86-.31,1.82-1.09,2.14-.27,.11-.59,.15-.88,.15-1.44,.01-2.87,0-4.31,0h-.55v3.14h.52c1.47,0,2.94,0,4.4,0,1.12,0,1.93,.83,1.92,1.94,0,1.08-.75,1.8-1.91,1.8-2.22,0-4.44,0-6.65,0-1.19,0-1.89-.71-1.89-1.92,0-4.55,0-9.1,0-13.64,0-1.23,.7-1.94,1.92-1.95,2.22,0,4.44,0,6.65,0,.93,0,1.56,.46,1.81,1.28,.23,.74-.02,1.59-.69,1.97-.35,.21-.8,.32-1.21,.33-1.45,.04-2.9,.02-4.36,.02h-.53Z" style="fill: #231815;"/>
      <path d="M3.74,13.81h.56c1.47,0,2.94,0,4.4,0,1.07,0,1.89,.84,1.91,1.92,.01,1.05-.76,1.82-1.85,1.82-2.28,0-4.56,0-6.85,0-1.11,0-1.91-.8-1.91-1.89C0,11.09,0,6.53,0,1.97,0,1,.56,.31,1.48,.11c.89-.2,1.74,.17,2.07,.96,.14,.34,.19,.74,.19,1.12,.01,3.67,0,7.34,0,11.01v.61Z" style="fill: #231815;"/>
      <path d="M12.27,8.79c0-2.33,0-4.66,0-6.98,0-.87,.67-1.56,1.62-1.73,.86-.15,1.67,.28,1.96,1.07,.1,.26,.16,.56,.16,.84,0,4.54,.01,9.09,0,13.63,0,.99-.56,1.71-1.43,1.9-.83,.18-1.82-.29-2.15-1.06-.11-.27-.16-.58-.16-.88-.01-2.26,0-4.53,0-6.79h0Z" style="fill: #231815;"/>
    </g>
  </g>
</svg>