<?xml version="1.0" encoding="UTF-8"?>
<svg id="b" data-name="圖層 2" xmlns="http://www.w3.org/2000/svg" width="61.28" height="87.37" viewBox="0 0 61.28 87.37">
  <g id="c" data-name="layout">
    <g>
      <g>
        <rect x="2.8" y="22.94" width="58.47" height="3.75" style="fill: #0082c2;"/>
        <rect x="2.8" y="26.69" width="58.47" height="3.75" style="fill: #e94709;"/>
        <rect x="2.8" y="30.44" width="58.47" height="3.75" style="fill: #00a44e;"/>
      </g>
      <g>
        <rect x="0" y="50.45" width="58.47" height="3.75" style="fill: #0082c2;"/>
        <rect x="0" y="54.2" width="58.47" height="3.75" style="fill: #e94709;"/>
        <rect x="0" y="57.95" width="58.47" height="3.75" style="fill: #00a44e;"/>
      </g>
      <g>
        <polygon points="24.2 29.12 14.18 29.12 17.96 0 27.98 0 24.2 29.12" style="fill: #0082c2;"/>
        <polygon points="20.51 58.24 10.49 58.24 14.18 29.12 24.2 29.12 20.51 58.24" style="fill: #e94709;"/>
        <polygon points="16.56 87.37 6.54 87.37 10.49 58.24 20.51 58.24 16.56 87.37" style="fill: #00a44e;"/>
      </g>
      <g>
        <polygon points="49.71 29.12 39.69 29.12 43.47 0 53.49 0 49.71 29.12" style="fill: #0082c2;"/>
        <polygon points="46.01 58.24 35.99 58.24 39.69 29.12 49.71 29.12 46.01 58.24" style="fill: #e94709;"/>
        <polygon points="42.06 87.37 32.04 87.37 35.99 58.24 46.01 58.24 42.06 87.37" style="fill: #00a44e;"/>
      </g>
    </g>
  </g>
</svg>