<?xml version="1.0" encoding="UTF-8"?>
<svg id="b" data-name="圖層 2" xmlns="http://www.w3.org/2000/svg" width="57.21" height="57.21" viewBox="0 0 57.21 57.21">
  <g id="c" data-name="menu">
    <g>
      <path d="M0,57.21H41.21c8.84,0,16-7.16,16-16V16C57.21,7.16,50.04,0,41.21,0H16C7.16,0,0,7.16,0,16V57.21Z" style="fill: #00a44e;"/>
      <g>
        <ellipse cx="28.28" cy="38.44" rx="19.7" ry="5.75" style="fill: #faf6ed; stroke: #000; stroke-linecap: round; stroke-miterlimit: 10; stroke-width: 1.5px;"/>
        <path d="M52.71,38.44c0,4.72-10.94,8.55-24.43,8.55S3.84,43.16,3.84,38.44s10.94-8.55,24.43-8.55,24.43,3.83,24.43,8.55Z" style="fill: none; stroke: #000; stroke-dasharray: 0 0 3.23 3.23; stroke-linecap: round; stroke-miterlimit: 10; stroke-width: 1.5px;"/>
        <g>
          <path d="M38.13,20.82c0,5.44-9.85,16.35-9.85,16.35,0,0-9.85-10.91-9.85-16.35s4.41-9.85,9.85-9.85,9.85,4.41,9.85,9.85Z" style="fill: #faf6ed; stroke: #000; stroke-linecap: round; stroke-miterlimit: 10; stroke-width: 1.5px;"/>
          <circle cx="28.28" cy="19.69" r="3.17"/>
        </g>
      </g>
    </g>
  </g>
</svg>