<?xml version="1.0" encoding="UTF-8"?>
<svg id="b" data-name="圖層 2" xmlns="http://www.w3.org/2000/svg" width="57.21" height="57.21" viewBox="0 0 57.21 57.21">
  <g id="c" data-name="menu">
    <g>
      <path d="M0,57.21H41.21c8.84,0,16-7.16,16-16V16C57.21,7.16,50.04,0,41.21,0H16C7.16,0,0,7.16,0,16V57.21Z" style="fill: #dd4426;"/>
      <g>
        <path d="M45.4,23.06c-.21-.18-.31-.45-.26-.72,.03-.13,.04-.27,.04-.41,0-1.17-.92-2.12-2.07-2.2,.04-.16,.06-.33,.06-.5,0-1.05-.72-1.92-1.7-2.16-.29-.07-.51-.29-.58-.58-.23-.97-1.11-1.7-2.16-1.7-.16,0-.32,.02-.47,.05-.35,.08-.69-.11-.84-.43-.34-.77-1.11-1.31-2.01-1.31-.25,0-.49,.04-.71,.12-.31,.11-.67,0-.85-.29-.39-.62-1.08-1.03-1.86-1.03-.36,0-.69,.09-.98,.24-.28,.14-.62,.1-.84-.12-.4-.42-.96-.68-1.58-.68s-1.18,.26-1.58,.68c-.21,.22-.56,.26-.84,.12-.3-.15-.63-.24-.98-.24-.79,0-1.47,.41-1.86,1.03-.18,.28-.53,.39-.85,.29-.22-.08-.46-.12-.71-.12-.9,0-1.67,.54-2.01,1.31-.14,.33-.49,.51-.84,.43-.15-.03-.31-.05-.47-.05-1.05,0-1.92,.72-2.16,1.7-.07,.29-.29,.51-.58,.58-.97,.23-1.7,1.11-1.7,2.16,0,.17,.02,.34,.06,.5-1.15,.08-2.07,1.03-2.07,2.2,0,.28,.31,.61,.46,.87,.03,.05,0,.11-.04,.13-1.06,.6-1.88,1.93-.94,3.32,.05,.08,.13,.15,.2,.21,.61,.44,1.24,.57,1.8,.5,.33-.04,.66,.15,.77,.47,1.57,4.68,7.52,8.17,14.64,8.17s13.49-3.73,14.79-8.65c.09,.01,.18,.03,.27,.03,1.22,0,2.22-.99,2.22-2.22,0-.68-.31-1.28-.79-1.69Z" style="fill: #fff; stroke: #000; stroke-linecap: round; stroke-miterlimit: 10; stroke-width: 1.5px;"/>
        <path d="M26.8,16.86c-.45-.28-1-.4-1.56-.3-.77,.14-1.37,.67-1.65,1.34-.13,.31-.45,.48-.78,.43-.23-.04-.47-.03-.72,.01-1.01,.18-1.68,1.07-1.74,2.06-.01,.17-.19,.28-.35,.24-.28-.07-.59-.1-.87-.05-1.2,.22-2,1.37-1.78,2.58" style="fill: none; stroke: #000; stroke-linecap: round; stroke-miterlimit: 10; stroke-width: 1.5px;"/>
        <path d="M32.75,18.59c.45-.28,1-.4,1.56-.29,.77,.14,1.37,.67,1.64,1.35,.12,.31,.45,.49,.78,.44,.23-.03,.47-.03,.72,.01,1.13,.21,1.89,1.25,1.79,2.37" style="fill: none; stroke: #000; stroke-linecap: round; stroke-miterlimit: 10; stroke-width: 1.5px;"/>
        <path d="M47.18,25.49H10.02c0,7.5,4.45,13.96,10.85,16.9h-.22v3.48h15.9v-3.48h-.22c6.4-2.93,10.85-9.39,10.85-16.9Z" style="fill: #faf6ed; stroke: #000; stroke-linecap: round; stroke-miterlimit: 10; stroke-width: 1.5px;"/>
      </g>
    </g>
  </g>
</svg>