<?xml version="1.0" encoding="UTF-8"?>
<svg id="b" data-name="圖層 2" xmlns="http://www.w3.org/2000/svg" width="57.21" height="57.21" xmlns:xlink="http://www.w3.org/1999/xlink" viewBox="0 0 57.21 57.21">
  <defs>
    <clipPath id="d">
      <rect width="57.21" height="57.21" style="fill: none;"/>
    </clipPath>
    <clipPath id="e">
      <path d="M57.21,57.21H16C7.16,57.21,0,50.04,0,41.21V16C0,7.16,7.16,0,16,0h25.21c8.84,0,16,7.16,16,16V57.21Z" style="fill: none;"/>
    </clipPath>
  </defs>
  <g id="c" data-name="menu">
    <g style="clip-path: url(#d);">
      <g>
        <path d="M0,57.21H41.21c8.84,0,16-7.16,16-16V16C57.21,7.16,50.04,0,41.21,0H16C7.16,0,0,7.16,0,16V57.21Z" style="fill: #0082c2;"/>
        <g style="clip-path: url(#e);">
          <g>
            <g>
              <path d="M43.27,37.95l-32.1-4.55c-.97-.14-1.74-.88-1.91-1.84l-2.91-16c-.22-1.19,.54-2.35,1.72-2.62l17.75-4.09c.9-.21,1.84,.15,2.37,.91l17.26,24.64c1.14,1.63-.21,3.83-2.18,3.55Z" style="fill: #faf6ed; stroke: #000; stroke-linecap: round; stroke-miterlimit: 10; stroke-width: 1.5px;"/>
              <line x1="27.51" y1="9.13" x2="9.86" y2="32.74" style="fill: #fff; stroke: #000; stroke-linecap: round; stroke-miterlimit: 10; stroke-width: 1.5px;"/>
              <line x1="6.71" y1="13.88" x2="45.5" y2="36.93" style="fill: #fff; stroke: #000; stroke-linecap: round; stroke-miterlimit: 10; stroke-width: 1.5px;"/>
            </g>
            <path d="M18.83,21.08c.06,46.09-46.23,82.16-46.23,82.16" style="fill: none; stroke: #000; stroke-linecap: round; stroke-miterlimit: 10; stroke-width: 1.5px;"/>
            <path d="M45.72,37.17s1.72,5.12,6.48,6.12c4.97,1.04,11.02-2.62,12.35-5.5" style="fill: none; stroke: #000; stroke-linecap: round; stroke-miterlimit: 10; stroke-width: 1.5px;"/>
            <path d="M44.93,36.81s5.18-1.13,10.66,4.13c5.48,5.26,9.54,2.82,10.44,1.67" style="fill: none; stroke: #000; stroke-linecap: round; stroke-miterlimit: 10; stroke-width: 1.5px;"/>
          </g>
        </g>
      </g>
    </g>
  </g>
</svg>