<?xml version="1.0" encoding="UTF-8"?>
<svg id="b" data-name="圖層 2" xmlns="http://www.w3.org/2000/svg" width="57.21" height="57.21" viewBox="0 0 57.21 57.21">
  <g id="c" data-name="menu">
    <g>
      <path d="M0,57.21H41.21c8.84,0,16-7.16,16-16V16C57.21,7.16,50.04,0,41.21,0H16C7.16,0,0,7.16,0,16V57.21Z" style="fill: #dd4426;"/>
      <g>
        <rect x="13.75" y="12.28" width="29.71" height="37.32" rx="5" ry="5" style="fill: #faf6ed; stroke: #000; stroke-linecap: round; stroke-miterlimit: 10; stroke-width: 1.5px;"/>
        <g>
          <path d="M34.39,13.39c0,3.2-5.79,9.6-5.79,9.6,0,0-5.79-6.41-5.79-9.6s2.59-5.79,5.79-5.79,5.79,2.59,5.79,5.79Z" style="fill: #fff; stroke: #000; stroke-linecap: round; stroke-miterlimit: 10; stroke-width: 1.5px;"/>
          <circle cx="28.6" cy="12.72" r="1.86"/>
        </g>
        <line x1="19.81" y1="27.73" x2="37.6" y2="27.73" style="fill: none; stroke: #000; stroke-linecap: round; stroke-miterlimit: 10; stroke-width: 1.5px;"/>
        <line x1="19.81" y1="32.46" x2="32.06" y2="32.46" style="fill: none; stroke: #000; stroke-linecap: round; stroke-miterlimit: 10; stroke-width: 1.5px;"/>
        <line x1="19.81" y1="37.19" x2="34.39" y2="37.19" style="fill: none; stroke: #000; stroke-linecap: round; stroke-miterlimit: 10; stroke-width: 1.5px;"/>
        <line x1="19.81" y1="41.93" x2="28.04" y2="41.93" style="fill: none; stroke: #000; stroke-linecap: round; stroke-miterlimit: 10; stroke-width: 1.5px;"/>
      </g>
    </g>
  </g>
</svg>