<?xml version="1.0" encoding="UTF-8"?>
<svg id="b" data-name="圖層 2" xmlns="http://www.w3.org/2000/svg" width="47.01" height="47.01" viewBox="0 0 47.01 47.01">
  <g id="c" data-name="layout">
    <g>
      <rect x="0" y="0" width="47.01" height="47.01" rx="23.5" ry="23.5" style="fill: #b4b4b5;"/>
      <g>
        <path d="M22.58,13.42c-6.19,0-11.23,5.04-11.23,11.23s5.04,11.23,11.23,11.23,11.23-5.04,11.23-11.23-5.04-11.23-11.23-11.23Zm0,18.81c-4.18,0-7.58-3.4-7.58-7.58s3.4-7.58,7.58-7.58,7.58,3.4,7.58,7.58-3.4,7.58-7.58,7.58Z" style="fill: #fff;"/>
        <path d="M33.75,11.13c-1.05,0-1.9,.85-1.9,1.9s.85,1.9,1.9,1.9,1.9-.85,1.9-1.9-.85-1.9-1.9-1.9Z" style="fill: #fff;"/>
      </g>
    </g>
  </g>
</svg>