<?xml version="1.0" encoding="UTF-8"?>
<svg id="_圖層_2" data-name="圖層 2" xmlns="http://www.w3.org/2000/svg" width="85.88" height="79.92" viewBox="0 0 85.88 79.92">
  <g id="layout">
    <g>
      <path d="M80.87,27.45c-.48-.4-.7-1.02-.58-1.63,.06-.3,.09-.62,.09-.94,0-2.65-2.07-4.8-4.67-4.97,.08-.36,.14-.73,.14-1.12,0-2.36-1.64-4.34-3.84-4.87-.65-.16-1.15-.65-1.3-1.3-.53-2.2-2.51-3.84-4.87-3.84-.37,0-.73,.04-1.07,.12-.78,.18-1.56-.24-1.89-.97-.78-1.74-2.51-2.96-4.54-2.96-.56,0-1.1,.09-1.6,.27-.71,.24-1.51-.01-1.91-.65-.88-1.39-2.43-2.32-4.2-2.32-.8,0-1.55,.19-2.22,.53-.62,.32-1.41,.22-1.89-.28-.9-.94-2.16-1.52-3.57-1.52s-2.67,.59-3.57,1.52c-.48,.5-1.27,.59-1.89,.28-.67-.34-1.42-.53-2.22-.53-1.77,0-3.32,.93-4.2,2.32-.4,.63-1.2,.89-1.91,.65-.5-.17-1.04-.27-1.6-.27-2.03,0-3.77,1.22-4.54,2.96-.33,.73-1.1,1.15-1.89,.97-.34-.08-.7-.12-1.07-.12-2.36,0-4.34,1.64-4.87,3.84-.16,.65-.65,1.15-1.3,1.3-2.2,.53-3.84,2.51-3.84,4.87,0,.39,.05,.76,.14,1.12-2.61,.17-4.67,2.32-4.67,4.97,0,.63,.71,1.37,1.04,1.95,.06,.11,.01,.24-.1,.3-2.39,1.36-4.24,4.37-2.12,7.49,.12,.18,.28,.34,.46,.47,1.39,.98,2.8,1.3,4.06,1.14,.76-.1,1.5,.35,1.74,1.07,3.54,10.56,16.98,18.43,33.06,18.43s30.45-8.41,33.4-19.52c.2,.02,.4,.06,.6,.06,2.76,0,5-2.24,5-5,0-1.54-.7-2.9-1.79-3.81Z" style="fill: #fff; stroke: #000; stroke-linecap: round; stroke-miterlimit: 10; stroke-width: 2px;"/>
      <path d="M38.88,13.46c-1.02-.63-2.25-.91-3.52-.68-1.74,.32-3.1,1.51-3.72,3.04-.28,.7-1.02,1.09-1.76,.98-.52-.08-1.07-.08-1.62,.02-2.29,.42-3.79,2.43-3.92,4.66-.02,.39-.42,.64-.8,.55-.64-.16-1.34-.23-1.97-.12-2.72,.5-4.52,3.1-4.03,5.82" style="fill: none; stroke: #000; stroke-linecap: round; stroke-miterlimit: 10; stroke-width: 2px;"/>
      <path d="M52.29,17.35c1.02-.62,2.25-.9,3.52-.66,1.74,.33,3.09,1.52,3.7,3.05,.28,.7,1.01,1.1,1.76,.99,.52-.08,1.07-.07,1.62,.03,2.56,.48,4.27,2.82,4.04,5.36" style="fill: none; stroke: #000; stroke-linecap: round; stroke-miterlimit: 10; stroke-width: 2px;"/>
      <path d="M84.88,32.93H1c0,16.94,10.05,31.52,24.5,38.14h-.51v7.85H60.88v-7.85h-.51c14.45-6.62,24.5-21.2,24.5-38.14Z" style="fill: #faf6ed; stroke: #000; stroke-linecap: round; stroke-miterlimit: 10; stroke-width: 2px;"/>
    </g>
  </g>
</svg>