<?xml version="1.0" encoding="UTF-8"?>
<svg id="_圖層_2" data-name="圖層 2" xmlns="http://www.w3.org/2000/svg" width="99.84" height="74.6" viewBox="0 0 99.84 74.6">
  <g id="layout">
    <g>
      <polygon points="61.65 12.93 26.63 73.6 96.68 73.6 61.65 12.93" style="fill: #faf6ed; stroke: #000; stroke-linecap: round; stroke-miterlimit: 10; stroke-width: 2px;"/>
      <polygon points="34.47 32.23 10.58 73.6 58.35 73.6 34.47 32.23" style="fill: #faf6ed; stroke: #000; stroke-linecap: round; stroke-miterlimit: 10; stroke-width: 2px;"/>
      <path d="M94.71,36.97c-.89,0-1.72,.29-2.39,.78,0-.07,.01-.13,.01-.2,0-3.35-2.72-6.07-6.07-6.07-2.15,0-4.04,1.12-5.12,2.82-.71-1.23-2.03-2.07-3.55-2.07-2.28,0-4.12,1.85-4.12,4.12,0,.24,.03,.48,.07,.71-.57-.29-1.2-.47-1.88-.47-2.28,0-4.12,1.85-4.12,4.12s1.78,4.04,3.99,4.11c.09,3.27,2.77,5.9,6.06,5.9,2.68,0,4.95-1.74,5.75-4.15,1.04,1.86,3.02,3.12,5.3,3.12,2.81,0,5.16-1.91,5.86-4.49,.07,0,.14,.02,.22,.02,2.28,0,4.12-1.85,4.12-4.12s-1.85-4.12-4.12-4.12Z" style="fill: #fff; stroke: #000; stroke-linecap: round; stroke-miterlimit: 10; stroke-width: 2px;"/>
      <path d="M7.41,34.72c1.39,0,2.67-.45,3.72-1.21,0,.1-.02,.21-.02,.31,0,5.21,4.23,9.44,9.44,9.44,3.35,0,6.28-1.75,7.96-4.38,1.11,1.91,3.16,3.21,5.53,3.21,3.54,0,6.41-2.87,6.41-6.41,0-.38-.05-.74-.11-1.1,.88,.45,1.86,.73,2.92,.73,3.54,0,6.41-2.87,6.41-6.41s-2.76-6.28-6.21-6.39c-.14-5.09-4.3-9.17-9.43-9.17-4.17,0-7.7,2.7-8.95,6.45-1.61-2.89-4.7-4.85-8.24-4.85-4.36,0-8.02,2.96-9.11,6.98-.11,0-.22-.03-.33-.03-3.54,0-6.41,2.87-6.41,6.41s2.87,6.41,6.41,6.41Z" style="fill: #fff; stroke: #000; stroke-linecap: round; stroke-miterlimit: 10; stroke-width: 2px;"/>
      <circle cx="83.91" cy="9.12" r="8.12" style="fill: #faf6ed; stroke: #000; stroke-linecap: round; stroke-miterlimit: 10; stroke-width: 2px;"/>
    </g>
  </g>
</svg>